<?xml version="1.0" standalone="no"?>
<!DOCTYPE svg PUBLIC "-//W3C//DTD SVG 1.1//EN" "http://www.w3.org/Graphics/SVG/1.1/DTD/svg11.dtd" >
<svg xmlns="http://www.w3.org/2000/svg" xmlns:xlink="http://www.w3.org/1999/xlink" version="1.1">
<metadata>
Created by FontForge 20170731 at Wed Feb 24 17:58:40 2021
 By Aleksey,,,
(c)2014-15 Ilya Ruderman and Yury Ostromentsky, under exclusive license to CSTM Fonts. All rights reserved.
</metadata>
<defs>
<font id="Kazimir-Bold" horiz-adv-x="1159" >
  <font-face 
    font-family="Kazimir-Bold"
    font-weight="400"
    font-stretch="normal"
    units-per-em="2048"
    panose-1="2 7 8 3 7 7 6 4 3 3"
    ascent="1532"
    descent="-516"
    x-height="1038"
    cap-height="1413"
    bbox="-297 -801 2712 1997"
    underline-thickness="0"
    underline-position="0"
    unicode-range="U+0020-FB02"
  />
<missing-glyph horiz-adv-x="1024" 
d="M102 -512h820v2048h-820v-2048zM205 -410v1844h614v-1844h-614z" />
    <glyph glyph-name="fi" unicode="fi" horiz-adv-x="1511" 
d="M586 90h116v-90h-651v90h164v858h-164v90h166q0 257 155 392t431 135q227 0 364 -78q138 -79 138 -211q0 -80 -47 -122q-46 -42 -136 -42q-92 0 -144 42t-52 116q0 58 35 99q34 40 102 61q-24 19 -70 30q-41 10 -102 10q-147 0 -226 -85t-79 -246v-101h219q274 0 369 5
q84 4 104 18l33 -19v-952h164v-90h-650v90h115v858h-354v-858z" />
    <glyph glyph-name="fl" unicode="fl" horiz-adv-x="1523" 
d="M571 90h131v-90h-651v90h150v858h-150v90h150q0 259 159 394t455 135q16 0 66 -2q21 -1 84 -9q18 -1 76 -8q57 -7 73 -8q76 0 126 7q55 8 65 18l20 -19v-1456h164v-90h-664v90h129v1372q-39 10 -53 12q-24 3 -55 3q-133 0 -204 -94t-71 -273v-72h254v-90h-254v-858z" />
    <glyph glyph-name="f_b" unicode="fb" horiz-adv-x="2064" 
d="M1458 55q86 0 124 101q38 102 38 333q0 217 -39 321q-39 103 -121 103q-74 0 -119 -101q-45 -102 -45 -263v-135q0 -184 40 -271q40 -88 122 -88zM1296 1546v-176q0 -66 -4 -137q-4 -78 -12 -178q-6 -71 -20 -203q-4 -33 -7 -62t-5 -41l-1 -12q24 161 115 249
q90 87 231 87q179 0 295 -155q117 -156 117 -394q-1 -237 -143 -398q-141 -161 -367 -161q-110 0 -195 47q-84 46 -135 135l-121 -188h-118v1505q-29 8 -41 10q-21 3 -41 3q-141 0 -207 -86q-66 -85 -66 -258v-95h238v-90h-238v-858h129v-90h-651v90h150v858h-150v90h152
q0 260 152 393q154 134 442 134q24 0 74 -2q12 0 38.5 -1.5t40.5 -2.5q54 -7 84 -10q20 -2 43 -4.5t25 -2.5q67 0 112 6t64 17z" />
    <glyph glyph-name="f_h" unicode="fh" horiz-adv-x="2181" 
d="M817 90h137v1372q-39 10 -53 12q-24 3 -55 3q-133 0 -204 -94t-71 -273v-72h254v-90h-254v-858h131v-90h-651v90h150v858h-150v90h152q0 259 159 394t453 135q38 0 105 -5q36 -3 194 -22q76 0 126 7q55 8 65 18l20 -19v-262q0 -99 -7 -191q-8 -111 -22 -221
q41 96 128 149q86 52 212 52q186 0 278 -99q91 -98 91 -302v-582h135v-90h-614v90h108v602q0 106 -38 162q-37 55 -111 55q-79 0 -119 -66q-41 -67 -41 -190v-563h109v-90h-617v90z" />
    <glyph glyph-name="f_k" unicode="fk" horiz-adv-x="2125" 
d="M817 90h137v1372q-39 10 -53 12q-24 3 -55 3q-128 0 -201 -99q-74 -100 -74 -282v-58h254v-90h-254v-858h131v-90h-651v90h150v858h-150v90h152q0 259 159 394t453 135q31 0 73 -3q33 -2 126 -14q47 -5 64 -6q7 -1 19 -2.5t17 -1.5q76 0 126 7q55 8 65 18l20 -19v-1022
l418 424h-199v90h486v-90h-152l-227 -241l389 -617h90v-90h-612v90h94l-242 391l-45 -45v-346h86v-90h-594v90z" />
    <glyph glyph-name=".notdef" horiz-adv-x="1024" 
d="M102 -512h820v2048h-820v-2048zM205 -410v1844h614v-1844h-614z" />
    <glyph glyph-name=".null" horiz-adv-x="0" 
 />
    <glyph glyph-name="nonmarkingreturn" horiz-adv-x="682" 
 />
    <glyph glyph-name="space" unicode=" " horiz-adv-x="512" 
 />
    <glyph glyph-name="exclam" unicode="!" horiz-adv-x="598" 
d="M453 936q-58 -183 -77 -281q-20 -103 -20 -190h-108q0 87 -20 192q-20 103 -81 287q-41 125 -56 193q-13 58 -13 104q0 89 58 148t163 59q103 0 163 -60t60 -147q0 -49 -13 -108q-16 -73 -56 -197zM303 367q96 0 154 -61q57 -60 57 -142q0 -79 -57 -139t-154 -60
q-95 0 -151 58t-56 141q0 87 55 145t152 58z" />
    <glyph glyph-name="quotedbl" unicode="&#x22;" horiz-adv-x="1042" 
d="M774 858h-74l-135 502q-6 39 1 46t40 7h250q33 0 41 -9q8 -10 2 -44zM354 858h-73l-136 502q-6 39 1 46t40 7h250q34 0 41 -9q8 -10 2 -44z" />
    <glyph glyph-name="numbersign" unicode="#" horiz-adv-x="1107" 
d="M635 610l80 305h-236l-80 -305h236zM238 0h-121l135 506h-211v104h238l81 305h-258v105h285l137 516h121l-137 -516h235l138 516h120l-137 -516h203v-105h-231l-80 -305h250v-104h-279l-133 -506h-121l133 506h-235z" />
    <glyph glyph-name="dollar" unicode="$" horiz-adv-x="1171" 
d="M582 1354h-21q-6 0 -22 -2v-424q2 0 6 -2t12.5 -5.5t16.5 -6.5q21 -8 51 -17v455q-14 2 -21 2h-22zM324 1147q0 -72 32 -114q33 -43 119 -81v389q-71 -21 -111 -71t-40 -123zM582 57q13 0 20 1t23 1v437l-48 16q-29 10 -38 12v-465q17 0 24 -1t19 -1zM848 272
q0 72 -36 118t-122 81v-403q77 15 117 67q41 53 41 137zM582 -35h-20q-7 0 -23 2v-213h-64v217q-186 22 -292 109q-105 86 -105 211q0 88 46 140t124 52q76 0 120 -47t44 -121q0 -59 -32 -106q-32 -48 -89 -76q27 -27 76 -46q43 -17 108 -23v483q-192 66 -282 185
q-93 122 -93 296q0 155 103 267q104 113 272 143v194h64v-186q16 2 22 2h21h22q7 0 21 -2v186h65v-190q178 -18 279 -96q100 -78 100 -199q0 -76 -42 -121t-116 -45t-118 44q-43 43 -43 118q0 53 24 91q24 37 74 60q-23 21 -68 37q-41 14 -90 19v-478q216 -83 300 -189
q85 -107 85 -271q0 -183 -100 -298q-101 -116 -285 -143v-217h-65v213q-16 -2 -23 -2h-20z" />
    <glyph glyph-name="percent" unicode="%" horiz-adv-x="1771" 
d="M1227 1057l-738 -1092l-112 76l725 1065q12 18 18 31q2 4 7.5 13t7.5 15q-80 -14 -165 -6q-75 7 -147 39q11 -30 15 -64q4 -31 4 -71q0 -179 -100 -282q-98 -101 -277 -101q-166 0 -283 111q-116 110 -116 272q0 164 117 274q119 111 282 111q74 0 140 -23t130 -71
q89 -68 200 -86q114 -18 245 14q34 110 66 137q35 29 91 29q51 0 83 -30t32 -79q0 -42 -20 -75q-22 -36 -91 -93q-49 -39 -74 -64q-24 -24 -40 -50zM582 1354q-68 0 -103 -73t-35 -218q0 -144 35 -217q35 -72 105 -72q65 0 106 80t41 209q0 131 -41 211t-108 80zM1335 733
q179 0 278 -102t99 -283q0 -180 -98 -281q-99 -102 -279 -102q-165 0 -282 111t-117 272q0 164 118 275q117 110 281 110zM1454 639q-68 0 -103 -72q-34 -71 -34 -219q0 -149 34 -218q35 -71 105 -71q66 0 106 79t40 210q0 132 -40 211q-41 80 -108 80z" />
    <glyph glyph-name="ampersand" unicode="&#x26;" horiz-adv-x="1595" 
d="M1217 -35q-125 0 -203 34q-80 35 -156 114q-69 -76 -167 -111q-99 -35 -232 -35q-185 0 -304 101q-118 100 -118 251q0 154 82 254q83 101 246 150q-98 128 -133 204q-35 77 -35 169q0 154 125 253q124 99 325 99q180 0 293 -77t113 -206q0 -97 -68 -177
q-66 -77 -254 -173l324 -395q70 89 128 193q62 112 95 206h-164v90h389v-90h-121q-56 -132 -126 -253q-71 -124 -144 -218q93 -117 139 -155q44 -37 101 -37q60 0 91 62q32 64 32 165h84q0 -203 -88 -311q-87 -107 -254 -107zM629 1356q-57 0 -92 -41t-35 -111
q0 -69 36 -135q35 -65 121 -164q41 46 62 117q20 69 20 164q0 83 -28 126q-29 44 -84 44zM358 371q0 -119 64 -186q63 -66 178 -66q61 0 108 17q53 19 85 50l-347 435q-47 -50 -68 -112q-20 -60 -20 -138z" />
    <glyph glyph-name="quotesingle" unicode="'" horiz-adv-x="622" 
d="M360 858h-73l-135 502q-6 39 1 46t40 7h249q34 0 41 -9q8 -10 2 -44z" />
    <glyph glyph-name="parenleft" unicode="(" horiz-adv-x="878" 
d="M731 -307q35 -43 84 -92l53 -54l-57 -79q-285 129 -469 407t-184 588q0 332 194 657q196 328 459 445l57 -80q-99 -93 -142 -156t-75 -137q-29 -75 -50 -163q-23 -95 -34 -198q-10 -79 -15 -173q-5 -103 -5 -195q0 -40 2 -106q1 -17 2 -50t2 -49q6 -68 11 -102
q3 -19 9 -54.5t7 -40.5q12 -65 23 -103q13 -46 30 -91q22 -53 44 -92q23 -42 54 -82z" />
    <glyph glyph-name="parenright" unicode=")" horiz-adv-x="878" 
d="M723 473q0 -311 -185 -591t-468 -414l-60 79q56 59 91 97t44 51q36 47 56 83q24 44 45 93q6 17 30 93q13 43 25 104q7 45 15 96q8 52 12 106q0 14 1.5 47.5t2.5 51.5q2 68 2 104q0 93 -5 195q-4 81 -16 172q-12 105 -33 194q-18 77 -53 162q-29 70 -71 132
q-41 61 -146 157l60 80q266 -117 459 -441q194 -325 194 -651z" />
    <glyph glyph-name="asterisk" unicode="*" horiz-adv-x="952" 
d="M496 1583q52 -1 88 -34q34 -31 32 -81q-1 -29 -15 -64q-13 -33 -54 -91q-31 -45 -41 -65t-10 -40l-29 2q0 20 -7 40q-8 23 -36 67q-35 60 -46 93q-11 31 -9 65q1 48 37 79q35 30 90 29zM379 1290q22 -49 37 -68q17 -23 28 -30l-16 -25q-15 11 -38 15q-19 4 -77 2
q-71 0 -103 7q-35 8 -60 23q-44 24 -52 72q-8 47 21 92q27 45 71 60q43 14 89 -11q25 -17 48 -46q22 -29 52 -91zM854 1350q27 -46 16 -94q-10 -46 -53 -68q-30 -16 -63 -20q-37 -5 -103 1q-53 4 -79 1q-22 -3 -40 -11l-14 29q17 8 32 26q12 15 42 66q34 61 56 85
q24 26 50 40q44 24 87 8q45 -17 69 -63zM807 1090q43 -24 51 -72t-20 -92q-27 -45 -72 -60q-44 -15 -86 13q-27 17 -48 45q-24 33 -52 90q-23 49 -38 69q-14 19 -30 29l16 27q15 -11 38 -15q21 -4 77 -4q69 1 103 -6t61 -24zM428 1145l12 -29q-16 -7 -31 -25
q-14 -17 -42 -65q-32 -59 -57 -85q-24 -25 -52 -40q-44 -24 -87 -9q-45 16 -69 62q-25 47 -14 94q10 46 53 68q30 16 65 20q38 5 105 -1q50 -4 77 -1q22 3 40 11zM532 987q37 -64 47 -93q11 -31 9 -65q-1 -47 -37 -78q-35 -30 -90 -30q-51 1 -87 34q-34 31 -32 81
q1 32 15 65q12 28 53 92q33 49 40 66q10 22 11 39l28 -2q0 -18 8 -40q10 -29 35 -69z" />
    <glyph glyph-name="plus" unicode="+" horiz-adv-x="946" 
d="M854 682v-96h-330v-322h-102v322h-330v96h330v324h102v-324h330z" />
    <glyph glyph-name="comma" unicode="," horiz-adv-x="681" 
d="M569 152q0 -186 -91 -349q-91 -162 -245 -262l-84 72q85 62 148 158t90 198q-17 -1 -27 -3q-7 -1 -20 -1q-107 0 -167 66t-60 159q0 96 60 162t167 66q106 0 168 -74q61 -73 61 -192z" />
    <glyph glyph-name="hyphen" unicode="-" horiz-adv-x="727" 
d="M635 571h-543v97h543v-97z" />
    <glyph glyph-name="period" unicode="." horiz-adv-x="681" 
d="M340 418q106 0 168 -68q61 -67 61 -160q0 -91 -62 -157q-63 -68 -167 -68q-107 0 -167 66t-60 159q0 96 60 162t167 66z" />
    <glyph glyph-name="slash" unicode="/" horiz-adv-x="937" 
d="M856 1571l102 -49l-876 -1743l-102 49z" />
    <glyph glyph-name="zero" unicode="0" horiz-adv-x="1251" 
d="M1053 1198q67 -105 106 -234q39 -130 39 -255q0 -124 -38 -256q-37 -130 -107 -236q-78 -121 -189 -187q-109 -65 -237 -65q-129 0 -239 65t-189 187q-68 106 -107 236q-39 131 -39 256t39 256q39 130 107 233q79 123 189 186q111 64 239 64t237 -65q112 -67 189 -185z
M627 1358q-109 0 -147 -128q-38 -129 -38 -521q0 -393 39 -523q39 -131 146 -131t144 129q38 131 38 525q0 387 -38 519q-37 130 -144 130z" />
    <glyph glyph-name="one" unicode="1" horiz-adv-x="909" 
d="M860 90v-90h-813v90h219v1159h-219v88q247 0 374 29q123 28 173 96l86 -4q-16 -34 -23 -133q-8 -107 -8 -227v-1008h211z" />
    <glyph glyph-name="two" unicode="2" horiz-adv-x="1196" 
d="M1075 0h-1009v119l751 667q-54 -38 -128 -58q-70 -19 -163 -19q-206 0 -340 101q-135 102 -135 269q0 172 149 271q147 98 396 98q239 0 376 -98q138 -99 138 -271q0 -93 -58 -182t-198 -217l-446 -404h403q124 0 168 34q45 34 55 124l6 53h90zM582 1358q-74 0 -113 -71
q-40 -71 -41 -210q-2 -139 38 -209q40 -71 120 -71q72 0 109 72q38 73 38 208q0 137 -40 208q-41 73 -111 73z" />
    <glyph glyph-name="three" unicode="3" horiz-adv-x="1120" 
d="M1059 418q0 -197 -154 -325t-422 -128q-197 0 -314 100q-116 99 -116 267q0 97 53 158t144 61q84 0 134 -53t50 -138q0 -89 -56 -138q-58 -50 -161 -50q21 -55 82 -85t145 -30q115 0 172 90q58 91 56 271q-1 151 -49 238q-46 85 -127 85q-34 0 -58 -8q-22 -7 -43 -24
l-43 49l342 379h-282q-130 0 -165 -27q-34 -27 -34 -121v-28h-90v452h868v-102l-440 -488q249 -24 379 -128q129 -103 129 -277z" />
    <glyph glyph-name="four" unicode="4" horiz-adv-x="1191" 
d="M1135 90v-90h-740v90h191v270h-551v60l698 1018h236v-987h166v-91h-166v-270h166zM199 451h387v600z" />
    <glyph glyph-name="five" unicode="5" horiz-adv-x="1120" 
d="M1038 477q0 -227 -146 -369q-148 -143 -405 -143q-212 0 -330 94t-118 260q0 98 53 159t144 61q84 0 134 -55t50 -138q0 -88 -58 -138t-163 -50q34 -52 86 -76q55 -25 131 -25q118 0 177 100q58 98 58 304q0 194 -56 290q-57 97 -171 97q-81 0 -141 -42t-82 -118h-80
l82 725h540q76 0 112 27t48 114l8 54h90l-63 -471h-672l-33 -279q51 49 128 73q72 23 171 23q226 0 366 -139t140 -338z" />
    <glyph glyph-name="six" unicode="6" horiz-adv-x="1216" 
d="M733 858q175 0 303 -126q127 -126 127 -314q0 -189 -156 -321t-391 -132q-251 0 -407 178q-156 179 -156 490q0 353 180 584t476 231q173 0 279 -80t106 -213q0 -90 -52 -148q-51 -57 -139 -57q-85 0 -137 50q-51 50 -51 130q0 75 43 121q44 47 125 62q-28 25 -63 35
q-34 10 -91 10q-151 0 -219 -123q-68 -124 -68 -395v-115q40 66 114 100q72 33 177 33zM616 752q-78 0 -118 -88q-41 -90 -41 -246q0 -176 41 -270q40 -93 118 -93q75 0 119 100q43 98 43 263q0 158 -42 246t-120 88z" />
    <glyph glyph-name="seven" unicode="7" horiz-adv-x="974" 
d="M600 106q-16 -67 -64 -104q-47 -37 -114 -37q-78 0 -123 47q-45 46 -43 127q0 47 20 94q20 48 99 160q67 94 115 175q35 60 73 139l195 430h-428q-128 0 -163 -27q-34 -27 -34 -121v-28h-90v452h903v-106l-229 -498q-61 -133 -87 -249q-26 -117 -20 -277q4 -70 1 -110
q-3 -34 -11 -67z" />
    <glyph glyph-name="eight" unicode="8" horiz-adv-x="1222" 
d="M1169 397q0 -195 -149 -313q-151 -119 -408 -119t-408 119t-151 313q0 158 104 268t285 140q-171 29 -256 106q-86 78 -86 199q0 148 143 243t369 95q225 0 368 -95q142 -94 142 -243q0 -121 -86 -199q-85 -77 -256 -106q182 -30 286 -140q103 -109 103 -268zM471 1110
q0 -128 37 -195t104 -67q68 0 104 67t36 195q0 121 -36 184q-37 64 -104 64q-68 0 -105 -64q-36 -63 -36 -184zM442 397q-1 -166 42 -254t128 -88q84 0 127 88q43 86 41 254q-1 182 -44 272q-42 89 -124 89q-84 0 -126 -90q-43 -91 -44 -271z" />
    <glyph glyph-name="nine" unicode="9" horiz-adv-x="1220" 
d="M604 1358q-75 0 -119 -101q-43 -99 -43 -262q0 -157 43 -244q44 -89 119 -89q76 0 118 89t42 244q0 172 -41 268q-41 95 -119 95zM1165 768q0 -362 -174 -582q-174 -221 -473 -221q-184 0 -291 81q-106 81 -106 220q0 93 52 149t138 56t138 -50q51 -49 51 -130
q0 -74 -44 -121q-43 -46 -126 -61q28 -26 77 -40q50 -14 107 -14q142 0 202 117t60 385v129q-40 -67 -113 -99t-182 -32q-176 0 -300 124t-124 316q0 188 157 321q156 132 390 132q256 0 409 -179q152 -177 152 -501z" />
    <glyph glyph-name="colon" unicode=":" horiz-adv-x="653" 
d="M326 1026q100 0 157 -61q58 -63 58 -152q0 -86 -58 -149q-57 -62 -157 -62q-99 0 -157 61q-56 59 -56 150q0 94 56 153q57 60 157 60zM326 389q100 0 157 -61q58 -63 58 -152q0 -86 -58 -149q-57 -62 -157 -62q-99 0 -157 61q-56 59 -56 150q0 94 56 153q57 60 157 60z
" />
    <glyph glyph-name="semicolon" unicode=";" horiz-adv-x="653" 
d="M326 1026q100 0 157 -61q58 -63 58 -152q0 -86 -58 -149q-57 -62 -157 -62q-99 0 -157 61q-56 59 -56 150q0 94 56 153q57 60 157 60zM541 137q0 -180 -89 -338q-88 -157 -247 -258l-84 72q83 61 147 157q63 94 90 197q-6 -2 -11 -2h-21q-99 0 -156 62q-57 61 -57 149
q0 92 56 152q57 61 157 61q98 0 156 -68q59 -70 59 -184z" />
    <glyph glyph-name="less" unicode="&#x3c;" horiz-adv-x="892" 
d="M719 301v-129l-627 428v68l627 428v-127l-492 -332z" />
    <glyph glyph-name="equal" unicode="=" horiz-adv-x="913" 
d="M821 760h-729v96h729v-96zM821 412h-729v96h729v-96z" />
    <glyph glyph-name="greater" unicode="&#x3e;" horiz-adv-x="892" 
d="M174 967v129l627 -428v-68l-627 -428v127l492 332z" />
    <glyph glyph-name="question" unicode="?" horiz-adv-x="903" 
d="M750 627q0 -97 -65 -148t-185 -51q-141 0 -219 63t-78 177q0 73 36 133q35 59 148 143q104 79 134 127q32 50 32 109q0 84 -47 131t-133 47q-41 0 -74 -10q-35 -10 -53 -29q70 -15 108 -61q39 -46 39 -109q0 -79 -47 -126q-46 -46 -131 -46q-88 0 -137 49t-49 137
q0 127 114 206q113 79 299 79q207 0 320 -79q115 -80 115 -226q0 -88 -47 -162q-46 -73 -183 -174q-96 -67 -127 -109q-28 -38 -28 -80q0 -39 19 -59t56 -20q33 0 51 22q19 24 19 62q0 22 -7 40q-8 20 -22 37l74 50q30 -22 50 -57q18 -31 18 -66zM473 367q95 0 153 -61
q56 -59 56 -142q0 -80 -56 -139q-57 -60 -153 -60q-98 0 -154 58q-55 56 -55 141q0 86 55 144q56 59 154 59z" />
    <glyph glyph-name="at" unicode="@" horiz-adv-x="2160" 
d="M1073 -408q-439 0 -689 218q-249 217 -249 610q0 180 80 345q78 160 227 279q135 109 307 166q176 58 365 58q417 0 664 -211t247 -557q0 -236 -122 -385q-123 -150 -338 -150q-167 0 -252 83t-64 226q-39 -156 -119 -233q-79 -76 -202 -76q-179 0 -298 137t-98 338
q22 188 170 324q147 135 334 135q101 0 167 -48q67 -49 91 -134l222 182h45l-76 -620q-17 -125 20 -173q37 -49 131 -49q121 0 193 123t72 312q0 322 -207 504q-208 182 -580 182q-361 0 -609 -216q-247 -216 -247 -542q0 -353 217 -545q218 -192 598 -192q207 0 332 30
q123 30 209 94l28 -61q-75 -70 -230 -112q-156 -42 -339 -42zM856 442q-21 -186 12 -280t117 -94q83 0 136 89q52 88 79 283q24 179 -10 277t-123 98q-82 0 -136 -97q-54 -98 -75 -276z" />
    <glyph glyph-name="A" unicode="A" horiz-adv-x="1351" 
d="M365 520h331l-168 510zM389 0h-391v90h121l444 1344h217l457 -1344h117v-90h-703v90h185l-111 340h-389l-109 -340h162v-90z" />
    <glyph glyph-name="B" unicode="B" horiz-adv-x="1349" 
d="M694 0h-637v90h138v1233h-138v90h559q309 0 464 -87t155 -259q0 -132 -97 -220q-99 -90 -266 -112q205 -27 316 -117q110 -89 110 -233q0 -196 -149 -290q-151 -95 -455 -95zM860 1065q0 135 -57 197q-57 61 -185 61h-40v-553h61q110 0 166 73q55 71 55 222zM905 395
q0 150 -62 221q-63 72 -192 72h-73v-598h79q134 0 191 71t57 234z" />
    <glyph glyph-name="C" unicode="C" horiz-adv-x="1232" 
d="M1051 -20l-82 81q-49 -47 -120 -72q-69 -24 -159 -24q-274 0 -448 214q-174 215 -174 528t174 527t444 214q92 0 160 -21q69 -21 112 -63l82 70h60v-471h-90q0 169 -71 275q-71 105 -191 105q-150 0 -213 -147q-64 -149 -64 -489q0 -337 65 -488q64 -149 212 -149
q128 0 200 105t72 284h90v-479h-59z" />
    <glyph glyph-name="D" unicode="D" horiz-adv-x="1464" 
d="M1397 709q0 -298 -205 -503q-206 -206 -516 -206h-619v90h138v1233h-138v90h619q310 0 516 -204q205 -204 205 -500zM621 1323h-43v-1233h43q186 0 273 153t87 466q0 311 -88 462q-89 152 -272 152z" />
    <glyph glyph-name="E" unicode="E" horiz-adv-x="1193" 
d="M1135 0h-1078v90h138v1233h-138v90h1041v-450h-90v51q0 156 -84 232q-85 77 -258 77h-88v-557h227v143h100v-399h-100v166h-227v-586h165q154 0 228 80q73 79 73 250v39h91v-459z" />
    <glyph glyph-name="F" unicode="F" horiz-adv-x="1134" 
d="M795 90v-90h-738v90h138v1233h-138v90h1037v-450h-90v51q0 152 -90 231q-88 78 -265 78h-71v-557h215v143h98v-403h-98v170h-215v-586h217z" />
    <glyph glyph-name="G" unicode="G" horiz-adv-x="1390" 
d="M1257 -20h-79l-168 73q-63 -45 -131 -66q-71 -22 -156 -22q-295 0 -475 210t-180 532q0 311 195 526t497 215q98 0 182 -24q87 -25 135 -66l82 76h60v-471h-91q0 178 -80 279t-227 101q-182 0 -266 -154q-84 -155 -84 -482q0 -337 66 -487t215 -150q48 0 85 12
q36 12 66 35v467h-147v90h608v-90h-107v-604z" />
    <glyph glyph-name="H" unicode="H" horiz-adv-x="1531" 
d="M688 0h-631v90h138v1233h-138v90h631v-90h-110v-557h374v557h-108v90h631v-90h-140v-1233h140v-90h-631v90h108v586h-374v-586h110v-90z" />
    <glyph glyph-name="I" unicode="I" horiz-adv-x="780" 
d="M723 90v-90h-666v90h142v1233h-142v90h666v-90h-141v-1233h141z" />
    <glyph glyph-name="J" unicode="J" horiz-adv-x="1052" 
d="M893 1323v-881q0 -246 -118 -361q-119 -116 -367 -116q-188 0 -292 82q-106 83 -106 229q0 97 52 156q52 60 141 60q81 0 131 -52q49 -50 49 -133q0 -82 -45 -130q-44 -47 -131 -58q15 -22 53 -37q36 -14 84 -14q91 0 128 62q38 64 38 224v969h-211v90h733v-90h-139z" />
    <glyph glyph-name="K" unicode="K" horiz-adv-x="1468" 
d="M578 90h108v-90h-629v90h138v1233h-138v90h676v-90h-155v-592l491 592h-203v90h490v-90h-154l-315 -385l504 -848h77v-90h-628v90h104l-321 576l-45 -56v-520z" />
    <glyph glyph-name="L" unicode="L" horiz-adv-x="1134" 
d="M1108 0h-1051v90h138v1233h-138v90h731v-90h-210v-1233h139q153 0 227 80t74 250v39h90v-459z" />
    <glyph glyph-name="M" unicode="M" horiz-adv-x="1783" 
d="M305 90h215v-90h-463v90h138v1233h-138v90h547l283 -747l291 747h548v-90h-139v-1233h139v-90h-671v90h151v1118l-397 -1022h-115l-389 1028v-1124z" />
    <glyph glyph-name="N" unicode="N" horiz-adv-x="1404" 
d="M305 90h203v-90h-451v90h138v1233h-138v90h447l602 -960v870h-203v90h451v-90h-140v-1329h-231l-678 1059v-963z" />
    <glyph glyph-name="O" unicode="O" horiz-adv-x="1411" 
d="M707 1448q286 0 461 -210q175 -209 175 -531q0 -323 -175 -532q-175 -210 -461 -210q-287 0 -463 210q-176 211 -176 532q0 320 176 531q176 210 463 210zM707 1356q-130 0 -183 -151t-53 -498q0 -348 53 -499t183 -151q129 0 182 151t53 499q0 347 -53 498t-182 151z
" />
    <glyph glyph-name="P" unicode="P" horiz-adv-x="1273" 
d="M795 0h-738v90h138v1233h-138v90h566q305 0 461 -102q157 -103 157 -303q0 -204 -155 -318q-156 -115 -437 -115h-71v-485h217v-90zM864 1006q0 170 -57 243q-57 74 -184 74h-45v-657h43q125 0 184 80t59 260z" />
    <glyph glyph-name="Q" unicode="Q" horiz-adv-x="1411" 
d="M1057 -301q-103 0 -167 45t-97 139q-13 41 -18 60q-4 16 -5 24q-14 -2 -24 -2h-39q-287 0 -463 210q-176 211 -176 532q0 320 176 531q176 210 463 210q286 0 461 -210q175 -209 175 -531q0 -214 -81 -383q-82 -172 -228 -267q0 -3 1.5 -10.5t2.5 -11.5q2 -13 6 -35
q1 -12 4 -28q1 -5 3 -11q18 -85 36 -111q21 -30 56 -30q39 0 55 54q16 52 16 171h89q0 -189 -59 -268q-58 -78 -187 -78zM707 1356q-130 0 -183 -151t-53 -498q0 -105 5 -202q4 -78 16 -153q39 55 94 81q59 28 135 28q66 0 117 -21q52 -21 88 -59q8 68 12 149q4 73 4 177
q0 347 -53 498t-182 151zM516 233q27 -90 73 -133t118 -43q11 0 17 1l28 3q0 4 -1.5 16t-3 28.5t-2.5 34.5q-6 75 -8 91q-11 69 -32 94q-23 27 -62 27q-43 0 -75 -30q-30 -28 -52 -89z" />
    <glyph glyph-name="R" unicode="R" horiz-adv-x="1445" 
d="M1176 -35q-133 0 -208 69q-76 70 -128 253q-26 98 -28 107q-17 69 -32 118q-28 78 -63 108q-37 31 -96 31h-43v-561h147v-90h-668v90h138v1233h-138v90h566q305 0 461 -93q157 -94 157 -273q0 -144 -116 -239t-320 -116q102 -30 168 -57t108 -53q55 -38 84 -84
q30 -49 58 -166l16 -66q3 -11 6 -23.5t5 -20t3 -11.5q17 -66 28 -82q12 -18 30 -18q28 0 40 48q11 44 11 152h88q0 -192 -64 -270q-63 -76 -210 -76zM864 1044q0 147 -58 212q-59 67 -183 67h-45v-584h38q126 0 187 75q61 74 61 230z" />
    <glyph glyph-name="S" unicode="S" horiz-adv-x="1089" 
d="M1032 412q0 -207 -128 -327t-357 -120q-103 0 -192 27q-88 27 -146 74l-82 -86h-59v473h90q0 -173 106 -278t277 -105q129 0 197 52q69 52 69 150q0 67 -30 110q-32 46 -97 75q-34 18 -131 50l-96 32q-206 69 -300 190q-96 123 -96 299q0 182 129 301q130 119 336 119
q88 0 171 -25q78 -24 128 -69l80 80h57v-471h-88q0 171 -94 275q-95 105 -244 105q-118 0 -183 -52q-66 -53 -66 -144q0 -65 25 -105q26 -41 87 -71q17 -10 72 -32q66 -26 139 -52q248 -90 337 -199t89 -276z" />
    <glyph glyph-name="T" unicode="T" horiz-adv-x="1204" 
d="M948 0h-692v90h154v1233h-35q-135 0 -197 -74q-61 -73 -61 -235v-51h-90v450h1151v-450h-91v51q0 163 -62 235q-63 74 -198 74h-34v-1233h155v-90z" />
    <glyph glyph-name="U" unicode="U" horiz-adv-x="1359" 
d="M1178 1323v-827q0 -288 -107 -410q-106 -121 -356 -121q-275 0 -404 131q-129 130 -129 412v815h-137v90h694v-90h-174v-895q0 -186 59 -272t183 -86q131 0 195 93q65 94 65 292v868h-174v90h422v-90h-137z" />
    <glyph glyph-name="V" unicode="V" horiz-adv-x="1337" 
d="M778 -20h-217l-452 1343h-123v90h737v-90h-217l303 -930l303 930h-184v90h426v-90h-131z" />
    <glyph glyph-name="W" unicode="W" horiz-adv-x="1837" 
d="M1137 1116l67 207h-127zM936 659l-246 -679h-219l-371 1343h-114v90h559v-90h-90l266 -954l168 456l-144 498h-102v90h760v-90h-107l-114 -311l178 -631l262 942h-121v90h352v-90h-122l-377 -1343h-217z" />
    <glyph glyph-name="X" unicode="X" horiz-adv-x="1372" 
d="M434 0h-411v90h139l336 567l-363 666h-119v90h701v-90h-160l213 -393l229 393h-118v90h389v-90h-158l-287 -492l408 -741h123v-90h-717v90h168l-254 467l-274 -467h155v-90z" />
    <glyph glyph-name="Y" unicode="Y" horiz-adv-x="1341" 
d="M1038 0h-694v90h156v533l-363 700h-127v90h742v-90h-195l268 -526l269 526h-170v90h407v-90h-123l-325 -631v-602h155v-90z" />
    <glyph glyph-name="Z" unicode="Z" horiz-adv-x="1114" 
d="M1067 0h-1020v70l612 1253h-194q-160 0 -234 -74q-73 -73 -73 -235v-51h-90v450h981v-70l-617 -1253h258q145 0 216 80t71 250v39h90v-459z" />
    <glyph glyph-name="bracketleft" unicode="[" horiz-adv-x="733" 
d="M684 -422v-90h-565v2048h565v-90h-188v-1868h188z" />
    <glyph glyph-name="backslash" unicode="\" horiz-adv-x="942" 
d="M86 1571l877 -1743l-107 -49l-876 1743z" />
    <glyph glyph-name="bracketright" unicode="]" horiz-adv-x="733" 
d="M614 1536v-2048h-563v90h187v1868h-187v90h563z" />
    <glyph glyph-name="asciicircum" unicode="^" horiz-adv-x="837" 
d="M745 784h-127l-206 451l-203 -451h-117l293 627h68z" />
    <glyph glyph-name="underscore" unicode="_" horiz-adv-x="933" 
d="M934 -219h-934v96h934v-96z" />
    <glyph glyph-name="grave" unicode="`" horiz-adv-x="935" 
d="M743 1208h-96l-504 248q-40 21 -34 48q6 28 53 28h317q48 0 75 -15q26 -15 48 -55z" />
    <glyph glyph-name="a" unicode="a" horiz-adv-x="1275" 
d="M993 -35q-124 0 -194 64q-69 63 -84 190q-33 -120 -125 -187q-93 -67 -230 -67q-143 0 -227 69t-84 189q0 137 116 217q117 81 361 115l148 20v150q0 122 -53 184t-162 62q-45 0 -87 -12q-45 -13 -63 -27q69 -25 99 -65q30 -41 30 -103q0 -78 -46 -123t-126 -45
q-84 0 -132 45t-48 123q0 138 146 223q148 86 364 86q213 0 332 -86t119 -242v-557q0 -44 13 -64q14 -22 42 -22q38 0 59 55q21 54 21 154h88q0 -182 -66 -264t-211 -82zM424 279q0 -64 25 -95q24 -30 75 -30q73 0 111 68q39 69 39 198v67l-72 -16q-95 -21 -136 -65
q-42 -45 -42 -127z" />
    <glyph glyph-name="b" unicode="b" horiz-adv-x="1277" 
d="M672 55q86 0 124 100t38 334q0 217 -39 321q-39 103 -121 103q-74 0 -119 -101q-45 -102 -45 -263v-135q0 -178 41 -269q41 -90 121 -90zM1219 524q0 -237 -143 -398t-367 -161q-110 0 -195 47q-84 46 -135 135l-121 -188h-119v1481h-135v90q195 0 298 5q90 4 147 24
l61 -19v-170q0 -66 -4 -137q-4 -78 -12 -178q-2 -28 -21 -203q-12 -113 -12 -115q24 162 114 249t232 87q179 0 295 -155q117 -156 117 -394z" />
    <glyph glyph-name="c" unicode="c" horiz-adv-x="1071" 
d="M920 334l98 -10q-29 -171 -138 -265t-280 -94q-239 0 -390 154t-151 403q0 246 158 399q156 152 404 152q188 0 291 -82q104 -83 104 -233q0 -78 -46 -124t-128 -46q-85 0 -132 44q-46 43 -46 124q0 75 39 118q41 46 116 56q-23 26 -60 40q-35 13 -81 13
q-125 0 -180 -104q-56 -106 -56 -357q0 -220 59 -332q58 -110 175 -110q95 0 157 65q63 66 87 189z" />
    <glyph glyph-name="d" unicode="d" horiz-adv-x="1308" 
d="M444 557q-2 -221 36 -317q38 -97 124 -97q77 0 121 86q43 85 43 244v137q0 173 -37 250q-37 78 -119 78q-88 0 -128 -91q-40 -90 -40 -290zM895 -29l-61 19v286q-39 -152 -127 -231q-89 -80 -220 -80q-187 0 -308 151q-120 150 -120 380q1 249 129 413t316 164
q102 0 172 -35q69 -35 108 -106q-8 77 -12 166q-4 80 -4 170v172h-164v90q215 0 325 5q94 4 148 24l64 -19v-1450h135v-90q-138 0 -226 -7q-98 -8 -155 -22z" />
    <glyph glyph-name="e" unicode="e" 
d="M633 -35q-253 0 -413 156q-161 156 -161 405q0 240 154 394q153 153 387 153q225 0 364 -137q138 -136 138 -352q0 -27 -1 -39q-2 -24 -3 -35h-656v-23q0 -207 66 -307t199 -100q111 0 181 63q71 63 101 191l92 -10q-29 -170 -148 -264q-121 -95 -300 -95zM598 983
q-78 0 -114 -86q-36 -85 -42 -297h297q0 226 -31 304q-31 79 -110 79z" />
    <glyph glyph-name="f" unicode="f" horiz-adv-x="870" 
d="M750 90v-90h-699v90h135v858h-135v90h137q0 243 138 386q136 141 370 141q164 0 253 -71t89 -204q0 -77 -44 -121q-43 -43 -124 -43q-80 0 -124 42t-44 118q0 64 36 105t110 59q-15 12 -38 18q-28 7 -65 7q-93 0 -139 -72q-47 -73 -47 -215v-150h244v-90h-244v-858h191z
" />
    <glyph glyph-name="g" unicode="g" horiz-adv-x="1099" 
d="M426 731q0 -130 28 -197q27 -65 87 -65t87 65q27 64 27 197q0 139 -25 199q-25 61 -89 61q-61 0 -88 -62q-27 -63 -27 -198zM563 250q249 0 382 -91q134 -92 134 -261q0 -200 -141 -315q-140 -115 -389 -115q-265 0 -402 75q-139 76 -139 217q0 97 76 164t201 82
q-107 17 -160 68t-53 137q0 84 64 141q65 58 169 74q-118 43 -184 123q-66 79 -66 182q0 156 133 249q134 93 353 93q68 0 127 -10q62 -11 116 -31l316 6v-90l-176 4q51 -43 76 -98q26 -57 26 -123q0 -147 -138 -245q-137 -97 -347 -97q-120 0 -171 -16q-53 -17 -53 -54
q0 -39 50 -54t196 -15zM299 -231q0 -100 76 -152q77 -53 211 -53q139 0 221 57t82 150q0 91 -72 132q-71 40 -268 46l-168 6q-42 -28 -62 -73q-20 -44 -20 -113z" />
    <glyph glyph-name="h" unicode="h" horiz-adv-x="1402" 
d="M547 90h108v-90h-616v90h135v1350h-135v90q192 0 290 7q107 8 154 22l64 -19v-256q0 -106 -7 -201q-8 -104 -24 -211q41 97 129 149t213 52q186 0 278 -99q91 -98 91 -302v-582h135v-90h-614v90h106v602q0 110 -37 163q-37 54 -110 54q-79 0 -119 -66q-41 -67 -41 -190
v-563z" />
    <glyph glyph-name="i" unicode="i" horiz-adv-x="733" 
d="M696 90v-90h-643v90h135v858h-135v90q179 0 293 8q113 8 152 21l63 -18v-959h135zM360 1583q102 0 159 -54q56 -53 56 -140t-56 -139t-159 -52q-104 0 -160 52q-57 52 -57 139q0 89 57 141q58 53 160 53z" />
    <glyph glyph-name="j" unicode="j" horiz-adv-x="700" 
d="M344 1583q103 0 160 -54t57 -140q0 -85 -57 -138q-58 -53 -160 -53t-159 51q-56 50 -56 140t56 142t159 52zM57 -535q-170 0 -263 70q-91 69 -91 201q0 85 47 135q46 49 133 49q75 0 115 -43q41 -44 41 -117t-38 -114q-39 -42 -114 -52q16 -18 46 -28q29 -10 65 -10
q97 0 137 87q41 88 41 314v991h-178v90q207 0 321 6q113 6 166 23l64 -18v-1039q0 -257 -132 -401t-360 -144z" />
    <glyph glyph-name="k" unicode="k" horiz-adv-x="1347" 
d="M547 90h86v-90h-594v90h135v1350h-135v90q192 0 290 7q107 8 154 22l64 -19v-1016l418 424h-201v90h487v-90h-151l-228 -241l388 -617h90v-90h-611v90h95l-242 391l-45 -45v-346z" />
    <glyph glyph-name="l" unicode="l" horiz-adv-x="716" 
d="M682 0h-643v90h135v1350h-135v90q187 0 292 6q104 6 152 23l64 -19v-1450h135v-90z" />
    <glyph glyph-name="m" unicode="m" horiz-adv-x="1976" 
d="M645 0h-592v90h135v858h-135v90q134 0 235 8q102 8 146 21l62 -18v-252q21 133 110 204q90 72 236 72q118 0 194 -48q77 -48 107 -144q38 93 120 143q80 49 197 49q176 0 258 -94t82 -295v-594h137v-90h-591v90h84v617q0 106 -29 156t-90 50q-64 0 -97 -60
q-32 -58 -32 -181v-582h84v-90h-541v90h84v617q0 106 -29 156t-88 50q-63 0 -97 -61t-34 -180v-582h84v-90z" />
    <glyph glyph-name="n" unicode="n" horiz-adv-x="1417" 
d="M561 90h107v-90h-615v90h135v858h-135v90q152 0 248 8q95 8 133 21l62 -18v-267q24 139 122 214q100 77 254 77q186 0 278 -99q91 -98 91 -302v-582h135v-90h-614v90h106v602q0 110 -37 163q-38 54 -110 54q-79 0 -119 -65q-41 -67 -41 -191v-563z" />
    <glyph glyph-name="o" unicode="o" horiz-adv-x="1243" 
d="M621 1073q237 0 399 -159t162 -400q0 -237 -162 -393t-399 -156q-240 0 -401 158t-161 401q0 240 161 395q160 154 401 154zM621 977q-95 0 -137 -105t-42 -348q0 -250 42 -356q42 -107 137 -107q92 0 136 110q44 111 44 343q0 239 -44 351t-136 112z" />
    <glyph glyph-name="p" unicode="p" horiz-adv-x="1329" 
d="M721 90q89 0 126 91q38 93 38 315q2 225 -35 320q-37 97 -123 97q-79 0 -123 -95q-43 -93 -43 -275v-144q0 -161 38 -235t122 -74zM561 -420h240v-92h-748v92h135v1366h-135v92q144 0 242 8q99 8 139 21l62 -18v-314q29 160 124 249t240 89q180 0 295 -157t115 -394
q0 -232 -128 -395q-128 -162 -315 -162q-94 0 -160 29t-106 88v-502z" />
    <glyph glyph-name="q" unicode="q" horiz-adv-x="1269" 
d="M1274 -420v-92h-748v92h240v125q-2 87 7 206q9 120 36 357q-35 -153 -117 -228t-215 -75q-181 0 -300 154q-118 152 -118 397q1 243 145 400q143 157 367 157q110 0 198 -41q86 -40 144 -121l105 168h121v-1499h135zM444 545q0 -210 38 -304t122 -94q78 0 120 85
q42 86 42 245v137q0 192 -36 278q-36 85 -118 85q-90 0 -129 -100q-39 -101 -39 -332z" />
    <glyph glyph-name="r" unicode="r" horiz-adv-x="1118" 
d="M561 90h232v-90h-740v90h135v858h-135v90q154 0 250 8q95 8 133 21l62 -18v-318q24 160 112 251t224 91q120 0 194 -66t74 -178q0 -105 -50 -166t-139 -61q-93 0 -145 52q-53 53 -53 145q0 55 24 97t70 65q-6 2 -9 2h-18q-107 0 -164 -128q-57 -127 -57 -374v-371z" />
    <glyph glyph-name="s" unicode="s" horiz-adv-x="942" 
d="M123 -35h-64v385h91q0 -123 81 -205q83 -84 215 -84q86 0 133 39q46 39 46 111q0 60 -43 94q-45 36 -193 70q-155 34 -238 125t-83 229q0 161 100 252q101 92 276 92q80 0 140 -18q56 -17 108 -58l70 76h61v-364h-90q0 134 -65 203q-66 71 -189 71q-78 0 -120 -33
t-42 -92q0 -58 39 -93q39 -34 170 -69q186 -50 271 -139q86 -91 86 -227q0 -176 -102 -270q-103 -95 -289 -95q-95 0 -167 24q-75 25 -124 68z" />
    <glyph glyph-name="t" unicode="t" horiz-adv-x="913" 
d="M555 -35q-181 0 -276 86t-95 254v643h-184v70q196 0 309 101q114 102 135 286h84v-367h322v-90h-293v-702q0 -88 25 -129q24 -39 84 -39q62 0 87 64q25 63 25 218h88q0 -224 -72 -309q-72 -86 -239 -86z" />
    <glyph glyph-name="u" unicode="u" horiz-adv-x="1363" 
d="M950 -29l-63 19v262q-24 -139 -119 -213t-252 -74q-185 0 -273 98q-89 100 -89 304v581h-142v90q182 0 297 8t154 21l63 -18v-703q0 -111 35 -164t109 -53q73 0 112 66t39 190v563h-180v90q193 0 323 8q126 8 166 21l64 -18v-959h135v-90q-138 0 -226 -7q-99 -8 -153 -22
z" />
    <glyph glyph-name="v" unicode="v" horiz-adv-x="1021" 
d="M606 -20h-143l-385 968h-109v90h584v-90h-121l215 -549l184 549h-137v90h359v-90h-105z" />
    <glyph glyph-name="w" unicode="w" horiz-adv-x="1515" 
d="M797 653l-230 -673h-143l-346 968h-109v90h553v-90h-90l180 -545l136 406l-41 139h-91v90h523v-90h-109l152 -506l143 506h-90v90h311v-90h-116l-283 -968h-143z" />
    <glyph glyph-name="x" unicode="x" horiz-adv-x="1171" 
d="M416 0h-412v90h133l295 389l-319 469h-97v90h564v-90h-99l185 -266l196 266h-127v90h379v-90h-123l-266 -354l348 -504h90v-90h-571v90h104l-198 293l-219 -293h137v-90z" />
    <glyph glyph-name="y" unicode="y" horiz-adv-x="1052" 
d="M246 -532q-115 0 -180 61q-66 61 -66 170q0 83 45 133q45 49 123 49q72 0 111 -41q38 -39 38 -112q0 -65 -35 -104q-36 -40 -100 -42q11 -10 28 -15t36 -5q63 0 114 64q52 66 113 231l29 77l-414 1014h-121v90h592v-90h-117l220 -545l190 545h-131v90h369v-90h-113
l-348 -979q-107 -302 -188 -403q-79 -98 -195 -98z" />
    <glyph glyph-name="z" unicode="z" horiz-adv-x="964" 
d="M922 0h-879v70l510 878h-166q-123 0 -172 -46t-49 -193v-39h-90v368h837v-69l-510 -879h207q121 0 171 50t50 204v39h91v-383z" />
    <glyph glyph-name="braceleft" unicode="{" horiz-adv-x="784" 
d="M580 -311q15 -77 56 -112q42 -36 118 -36v-73q-181 0 -298 38q-120 39 -186 117q-56 68 -73 174q-17 105 12 330q14 103 16 156t-2 82q-11 70 -50 101q-41 32 -116 32v82q75 0 114 29t50 93q6 35 3 80q-4 59 -17 152q-32 215 -14 320q18 102 79 169q68 72 187 107
q120 35 295 35v-84q-78 0 -124 -33t-61 -105q-8 -38 -9 -88q-1 -40 7 -165q12 -152 7 -231q-5 -76 -25 -130q-33 -84 -104 -131t-185 -59q118 -15 191 -67t106 -146q21 -60 27 -139q6 -82 -4 -244q-9 -137 -9 -166q0 -43 9 -88z" />
    <glyph glyph-name="bar" unicode="|" horiz-adv-x="468" 
d="M295 1823v-2335h-121v2335h121z" />
    <glyph glyph-name="braceright" unicode="}" horiz-adv-x="784" 
d="M725 580v-82q-75 0 -116 -32q-39 -31 -50 -101q-4 -29 -2 -82t16 -156q31 -228 15 -328q-16 -104 -74 -174q-64 -80 -184 -119q-118 -38 -299 -38v73q75 0 117 36q43 37 55 110q8 42 8 89q0 43 -8 165q-10 162 -4 245q6 84 26 140q32 93 107 146q73 52 192 67
q-114 12 -185 59q-70 46 -103 131q-22 57 -26 130q-5 79 7 231q8 125 7 165q-1 50 -9 88q-15 73 -60 105q-47 33 -124 33v84q175 0 295 -35q117 -34 184 -107q63 -67 81 -170q17 -99 -13 -321q-18 -113 -19 -150q-2 -50 2 -77q11 -67 50 -96t114 -29z" />
    <glyph glyph-name="asciitilde" unicode="~" horiz-adv-x="1069" 
d="M881 811h77q0 -228 -53 -313q-53 -84 -174 -84q-72 0 -136 27t-157 112q-63 57 -91 71q-30 15 -58 15q-54 0 -78 -47q-25 -48 -25 -162h-75q0 219 56 307q57 90 181 90q67 0 130 -27t155 -110q61 -55 92 -72q29 -16 59 -16q52 0 74 48q23 49 23 161z" />
    <glyph glyph-name="exclamdown" unicode="&#xa1;" horiz-adv-x="598" 
d="M295 1047q-97 0 -154 60t-57 142q0 80 57 140q56 59 154 59q95 0 151 -57q56 -58 56 -142q0 -87 -55 -145q-54 -57 -152 -57zM145 477q58 183 77 281q20 103 20 190h108q0 -87 20 -192q20 -103 81 -287q41 -125 56 -193q13 -58 13 -104q0 -88 -58 -147q-58 -60 -163 -60
q-102 0 -163 61q-60 60 -60 146q0 50 13 109q15 70 56 196z" />
    <glyph glyph-name="cent" unicode="&#xa2;" horiz-adv-x="1083" 
d="M920 334l98 -10q-29 -170 -133 -262t-269 -97v-211h-79v215q-217 21 -347 171q-131 151 -131 382q0 221 131 370q130 148 347 175v264h79v-258h5q188 0 291 -82q104 -83 104 -233q0 -78 -46 -124t-128 -46q-85 0 -132 44q-46 43 -46 124q0 75 39 118q41 46 116 56
q-23 26 -60 40q-35 13 -81 13q-125 0 -180 -104q-56 -106 -56 -357q0 -220 59 -332q58 -110 175 -110q95 0 157 65q63 66 87 189z" />
    <glyph glyph-name="sterling" unicode="&#xa3;" horiz-adv-x="1234" 
d="M1047 408h94q0 -258 -51 -343t-183 -85q-50 0 -91 7q-50 9 -124 31q-95 30 -151 38q-67 10 -127 10q-85 0 -160 -22q-74 -21 -125 -64l-49 61q200 139 268 225t68 180q0 33 -11 71q-12 41 -32 77h-228v90h172q-64 104 -86 179q-20 67 -20 153q0 189 130 310
q131 122 335 122q176 0 290 -90q113 -89 113 -230q0 -86 -51 -139t-137 -53q-85 0 -137 50t-52 128q0 73 41 120q40 46 121 64q-30 30 -73 45q-44 15 -101 15q-99 0 -158 -56t-59 -147q0 -55 19 -107q19 -53 79 -133q59 -81 80 -127q23 -50 33 -104h260v-90h-250
q-2 -113 -70 -210q-70 -98 -231 -206q90 51 158 72q77 24 139 24q32 0 67 -6q38 -7 95 -26q41 -14 66 -19q19 -4 38 -4q54 0 72 38q19 40 19 151z" />
    <glyph glyph-name="yen" unicode="&#xa5;" horiz-adv-x="1341" 
d="M883 90h155v-90h-694v90h156v330h-252v90h252v129h-250v90h194l-307 594h-127v90h742v-90h-195l268 -526l269 526h-170v90h407v-90h-123l-307 -594h203v-90h-221v-129h221v-90h-221v-330z" />
    <glyph glyph-name="section" unicode="&#xa7;" horiz-adv-x="1167" 
d="M348 692q-13 -24 -17 -45q-5 -25 -5 -49q0 -62 46 -111t203 -127q114 -56 150 -78q41 -25 88 -61q15 21 21 45t6 56q0 61 -47 111q-46 49 -209 126q-95 44 -149 76q-48 29 -87 57zM1049 -150q0 -180 -130 -280t-354 -100q-235 0 -356 78q-123 80 -123 229q0 97 54 153
t153 56q93 0 148 -53t55 -140q0 -69 -35 -118q-34 -48 -101 -72q17 -19 61 -32q39 -11 93 -11q94 0 150 55q57 55 57 143q0 97 -59 168t-254 170q-104 52 -149 81q-44 28 -81 59q-54 51 -80 107t-26 130q0 85 53 158q51 69 149 114q-85 67 -123 143t-38 179q0 177 132 279
t353 102q200 0 334 -86q133 -85 133 -221q0 -97 -52 -153t-143 -56q-102 0 -158 52q-57 52 -57 142q0 70 39 120t109 71q-22 20 -60 31q-36 10 -90 10q-94 0 -155 -58q-60 -57 -60 -145q0 -92 60 -164t256 -172q100 -50 148 -81q46 -30 81 -60q56 -50 83 -108
q28 -61 28 -128q0 -87 -56 -164q-57 -78 -149 -112q83 -66 121 -143q39 -78 39 -173z" />
    <glyph glyph-name="dieresis" unicode="&#xa8;" horiz-adv-x="970" 
d="M434 1397q0 -81 -49 -131q-50 -52 -135 -52q-87 0 -136 51q-48 49 -48 132q0 87 48 136q48 50 136 50t136 -52q48 -53 48 -134zM905 1397q0 -83 -48 -132q-49 -51 -136 -51q-88 0 -135 50t-47 133q0 86 47 136t135 50t136 -51t48 -135z" />
    <glyph glyph-name="copyright" unicode="&#xa9;" horiz-adv-x="1662" 
d="M1565 721q0 -319 -211 -537q-212 -219 -523 -219q-315 0 -524 218t-209 538q0 311 208 519t525 208q318 0 526 -208t208 -519zM209 721q0 -287 175 -471t447 -184q269 0 446 186t177 469q0 276 -175 451q-176 176 -448 176q-271 0 -447 -176q-175 -175 -175 -451z
M1077 260l-43 51q-32 -25 -87 -44q-50 -17 -105 -17q-169 0 -293 139q-125 140 -125 322q0 178 125 320q124 140 291 140q60 0 106 -14q50 -15 78 -39l41 43h47v-293h-72q0 110 -41 166t-122 56q-100 0 -144 -90q-43 -87 -43 -289q0 -195 44 -288q43 -91 143 -91
q87 0 131 59q45 60 45 166h71v-297h-47z" />
    <glyph glyph-name="ordfeminine" unicode="&#xaa;" horiz-adv-x="743" 
d="M565 1004q-74 0 -109 29q-36 30 -42 100q-21 -61 -75 -95q-53 -34 -128 -34q-82 0 -121 32q-41 33 -41 97q0 65 71 110q73 46 199 64l74 10v53q0 65 -26 94q-28 31 -80 31q-13 0 -29 -2q-10 -1 -22 -8q17 -11 27 -31q9 -18 9 -45q0 -39 -26 -62q-27 -24 -74 -24
q-50 0 -77 24t-27 62q0 68 86 112t200 44q116 0 187 -46t71 -120v-260q0 -21 9 -35q7 -12 22 -12q19 0 28 27t9 81h45q0 -102 -39 -149t-121 -47zM268 1163q0 -23 13 -39q11 -14 34 -14q36 0 57 34t21 93v27l-49 -11q-40 -11 -57 -31q-19 -22 -19 -59z" />
    <glyph glyph-name="guillemotleft" unicode="&#xab;" horiz-adv-x="1148" 
d="M403 539l261 -455v-80l-613 494v82l613 448v-90zM870 539l220 -387v-80l-566 432v69l566 388v-91z" />
    <glyph glyph-name="logicalnot" unicode="&#xac;" horiz-adv-x="1085" 
d="M993 682v-377h-102v281h-799v96h901z" />
    <glyph glyph-name="registered" unicode="&#xae;" horiz-adv-x="1224" 
d="M1155 920q0 -229 -157 -389q-155 -158 -386 -158q-232 0 -387 158t-155 389q0 225 155 376q157 152 387 152t387 -152q156 -151 156 -376zM172 920q0 -199 125 -327t315 -128q189 0 315 129t126 326q0 194 -124 315t-317 121q-192 0 -316 -121t-124 -315zM823 649
q-66 0 -100 25q-33 24 -51 96q-22 88 -38 107q-14 17 -44 22q-4 0 -7 1t-16 1v-190h64v-49h-293v49h74v440h-74v49h262q122 0 192 -39t70 -106q0 -54 -56 -89q-56 -36 -144 -40q98 -24 138 -52q38 -27 48 -86q10 -49 16 -60t19 -11q12 0 18 19t6 59h43q0 -84 -29 -114
q-30 -32 -98 -32zM694 1053q0 47 -27 71q-28 25 -81 25h-19v-197h15q57 0 85 25q27 24 27 76z" />
    <glyph glyph-name="macron" unicode="&#xaf;" horiz-adv-x="638" 
d="M629 1341h-619v154h619v-154z" />
    <glyph glyph-name="degree" unicode="&#xb0;" horiz-adv-x="708" 
d="M596 1206q0 -105 -69 -171t-173 -66q-106 0 -174 66q-67 66 -67 171q0 97 68 162q69 66 173 66q103 0 173 -65q69 -65 69 -163zM223 1198q0 -59 37 -96t94 -37q60 0 96 38q35 36 35 95q0 61 -36 97q-38 38 -95 38q-59 0 -95 -37q-36 -38 -36 -98z" />
    <glyph glyph-name="plusminus" unicode="&#xb1;" horiz-adv-x="946" 
d="M854 778v-96h-330v-322h-102v322h-330v96h330v324h102v-324h330zM854 168h-762v96h762v-96z" />
    <glyph glyph-name="uni00B2" unicode="&#xb2;" horiz-adv-x="851" 
d="M762 1374l-27 -309h-653v43q320 309 375 369q56 61 82 98q-22 -30 -59 -48q-36 -18 -81 -18q-140 0 -238 62t-98 158q0 95 102 155t257 60q140 0 229 -60q88 -60 88 -155q0 -51 -28 -101q-27 -49 -90 -110l-326 -314h223q88 0 129 22q39 21 45 70l8 78h62zM401 1874
q-69 0 -108 -39t-39 -109q-1 -72 38 -110q41 -39 111 -39t109 39t39 110q0 70 -40 109q-41 39 -110 39z" />
    <glyph glyph-name="uni00B3" unicode="&#xb3;" horiz-adv-x="790" 
d="M733 1319q0 -111 -95 -189q-93 -77 -251 -77q-153 0 -242 63q-88 63 -88 164q0 48 32 78q33 31 83 31q46 0 73 -27t27 -64q0 -41 -25 -65q-27 -25 -71 -25q24 -35 74 -53t112 -18q82 0 125 49t43 143q-1 87 -43 135q-41 47 -112 47q-26 0 -49 -5q-18 -4 -41 -17l-27 43
l231 258h-147q-125 0 -148 -16q-24 -16 -24 -74v-51h-68v284h572v-61l-254 -285q153 -24 234 -92q79 -67 79 -176z" />
    <glyph glyph-name="acute" unicode="&#xb4;" horiz-adv-x="1024" 
d="M209 1208h-96l153 254q23 38 52 54t79 16h318q46 0 51 -28q4 -27 -39 -48z" />
    <glyph glyph-name="uni00B5" unicode="&#xb5;" horiz-adv-x="1363" 
d="M328 -195q17 -42 22 -62q4 -17 4 -40q0 -65 -44 -106t-120 -41q-75 0 -119 41t-44 106q0 18 5 41q3 15 23 63q56 137 77 294q22 167 22 382v465h-142v90q182 0 297 8t154 21l63 -18v-703q0 -111 35 -164t109 -53q73 0 112 66t39 190v563h-180v90q193 0 323 8
q126 8 166 21l64 -18v-959h135v-90q-138 0 -226 -7q-99 -8 -153 -22l-63 19v262q-24 -139 -119 -213t-252 -74q-84 0 -145 21q-63 22 -107 61q11 -70 25 -120q16 -56 39 -122z" />
    <glyph glyph-name="paragraph" unicode="&#xb6;" horiz-adv-x="1331" 
d="M1262 -422v-90h-758v90h194v905q-123 0 -232 25q-103 24 -187 74q-105 63 -160 155q-58 96 -58 197q0 100 56 200q56 99 155 166q82 55 188 84q107 29 230 29h572v-90h-175v-1745h175zM977 -422v1745h-168v-1745h168z" />
    <glyph glyph-name="periodcentered" unicode="&#xb7;" horiz-adv-x="681" 
d="M344 844q96 0 153 -62q56 -60 56 -147q0 -83 -56 -145t-153 -62q-96 0 -153 60q-56 59 -56 147q0 89 55 148q56 61 154 61z" />
    <glyph glyph-name="cedilla" unicode="&#xb8;" horiz-adv-x="870" 
d="M698 -274q0 -81 -71 -125q-72 -45 -203 -45q-106 0 -175 23q-74 25 -106 67l35 65q23 -23 59 -35t78 -12q55 0 82 18t27 54q0 39 -36 60q-38 22 -103 22l-9 45l134 149h131l-111 -114q103 0 187 -48q81 -46 81 -124z" />
    <glyph glyph-name="uni00B9" unicode="&#xb9;" horiz-adv-x="608" 
d="M563 1141v-76h-512v76h166v667h-166v76q129 0 217 21q89 21 115 57l39 -16q-7 -16 -12 -58q-4 -36 -4 -98v-649h157z" />
    <glyph glyph-name="ordmasculine" unicode="&#xba;" horiz-adv-x="731" 
d="M365 1565q131 0 224 -81t93 -202q0 -120 -93 -199q-92 -79 -224 -79q-134 0 -224 80q-92 81 -92 204q0 118 92 198q91 79 224 79zM365 1495q-51 0 -72 -44q-21 -43 -21 -163q0 -123 21 -169t72 -46t72 47q22 49 22 162q0 115 -22 165q-21 48 -72 48z" />
    <glyph glyph-name="guillemotright" unicode="&#xbb;" horiz-adv-x="1148" 
d="M1098 580v-82l-613 -494v80l260 455l-260 399v90zM625 573v-69l-566 -432v80l220 387l-220 331v91z" />
    <glyph glyph-name="questiondown" unicode="&#xbf;" horiz-adv-x="903" 
d="M428 1448q96 0 152 -57q55 -56 55 -142q0 -88 -54 -145t-153 -57q-97 0 -154 60t-57 142q0 80 57 140q56 59 154 59zM879 250q0 -126 -116 -206q-115 -79 -300 -79q-204 0 -317 79t-113 226q0 88 45 162t180 174q97 69 124 109q28 40 28 80q0 36 -20 58q-20 21 -54 21
q-33 0 -52 -22q-20 -23 -20 -61q0 -22 7 -40q8 -22 22 -38l-76 -49q-32 23 -49 57q-16 32 -16 70q0 92 67 143t189 51q138 0 213 -62t75 -178q0 -74 -34 -133q-33 -58 -146 -143q-100 -78 -129 -127q-31 -51 -31 -109q0 -86 46 -132t130 -46q40 0 72 8q28 7 58 27
q-77 22 -114 64q-36 41 -36 110q0 76 50 124t132 48q88 0 136 -49q49 -51 49 -137z" />
    <glyph glyph-name="Agrave" unicode="&#xc0;" horiz-adv-x="1351" 
d="M365 520h331l-168 510zM389 0h-391v90h121l444 1344h217l457 -1344h117v-90h-703v90h185l-111 340h-389l-109 -340h162v-90zM815 1516h-100l-514 227q-41 18 -35 47t53 29h338q44 0 74 -16q28 -15 49 -52z" />
    <glyph glyph-name="Aacute" unicode="&#xc1;" horiz-adv-x="1351" 
d="M365 520h331l-168 510zM389 0h-391v90h121l444 1344h217l457 -1344h117v-90h-703v90h185l-111 340h-389l-109 -340h162v-90zM578 1516h-97l135 235q22 36 53 52q32 16 76 16h324q47 0 52 -28q5 -27 -38 -48z" />
    <glyph glyph-name="Acircumflex" unicode="&#xc2;" horiz-adv-x="1351" 
d="M365 520h331l-168 510zM389 0h-391v90h121l444 1344h217l457 -1344h117v-90h-703v90h185l-111 340h-389l-109 -340h162v-90zM676 1671l-285 -145h-84l305 375h125l295 -375h-74z" />
    <glyph glyph-name="Atilde" unicode="&#xc3;" horiz-adv-x="1351" 
d="M365 520h331l-168 510zM389 0h-391v90h121l444 1344h217l457 -1344h117v-90h-703v90h185l-111 340h-389l-109 -340h162v-90zM942 1874h76q0 -183 -46 -257q-46 -75 -155 -75q-50 0 -99 20q-48 20 -124 76q-49 37 -73 49q-22 11 -44 11q-46 0 -67 -33t-21 -109h-74
q0 177 50 256q49 78 155 78q53 0 100 -19q44 -18 125 -77q43 -32 72 -48q21 -11 43 -11q46 0 64 30t18 109z" />
    <glyph glyph-name="Adieresis" unicode="&#xc4;" horiz-adv-x="1351" 
d="M365 520h331l-168 510zM389 0h-391v90h121l444 1344h217l457 -1344h117v-90h-703v90h185l-111 340h-389l-109 -340h162v-90zM616 1702q0 -81 -49 -131q-49 -51 -135 -51q-88 0 -136 50t-48 132q0 86 48 136t136 50t136 -52t48 -134zM1087 1702q0 -82 -48 -132t-136 -50
q-89 0 -135 49q-47 50 -47 133q0 86 47 136t135 50t136 -51t48 -135z" />
    <glyph glyph-name="Aring" unicode="&#xc5;" horiz-adv-x="1351" 
d="M365 520h331l-168 510zM389 0h-391v90h121l444 1344h217l457 -1344h117v-90h-703v90h185l-111 340h-389l-109 -340h162v-90zM672 1901q94 0 149 -57q56 -58 56 -136q0 -76 -56 -134q-55 -56 -149 -56q-97 0 -152 55t-55 135q0 84 55 138q57 55 152 55zM672 1790
q-40 0 -64 -22q-22 -21 -22 -60q0 -37 22 -59q23 -23 64 -23q40 0 63 24q23 25 23 58q0 36 -23 59t-63 23z" />
    <glyph glyph-name="AE" unicode="&#xc6;" horiz-adv-x="1665" 
d="M367 520h315v592zM299 0h-391v90h121l649 1233h-160v90h1051v-450h-90v51q0 156 -84 232q-85 77 -258 77h-74v-545h213v144h98v-400h-98v166h-213v-598h151q154 0 228 80t74 250v39h90v-459h-1090v90h166v340h-363l-182 -340h162v-90z" />
    <glyph glyph-name="Ccedilla" unicode="&#xc7;" horiz-adv-x="1232" 
d="M1051 -20l-82 81q-49 -47 -120 -72q-69 -24 -159 -24q-274 0 -448 214q-174 215 -174 528t174 527t444 214q92 0 160 -21q69 -21 112 -63l82 70h60v-471h-90q0 169 -71 275q-71 105 -191 105q-150 0 -213 -147q-64 -149 -64 -489q0 -337 65 -488q64 -149 212 -149
q128 0 200 105t72 284h90v-479h-59zM934 -274q0 -80 -72 -125t-203 -45q-106 0 -175 23q-73 24 -105 67l35 65q24 -23 58 -35q36 -12 79 -12q55 0 82 18q26 17 26 54q0 40 -35 60q-38 22 -104 22l-8 45l133 149h131l-110 -114q103 0 187 -48q81 -46 81 -124z" />
    <glyph glyph-name="Egrave" unicode="&#xc8;" horiz-adv-x="1193" 
d="M1135 0h-1078v90h138v1233h-138v90h1041v-450h-90v51q0 156 -84 232q-85 77 -258 77h-88v-557h227v143h100v-399h-100v166h-227v-586h165q154 0 228 80q73 79 73 250v39h91v-459zM725 1516h-100l-514 227q-41 18 -35 47t53 29h338q44 0 74 -16q28 -15 49 -52z" />
    <glyph glyph-name="Eacute" unicode="&#xc9;" horiz-adv-x="1193" 
d="M1135 0h-1078v90h138v1233h-138v90h1041v-450h-90v51q0 156 -84 232q-85 77 -258 77h-88v-557h227v143h100v-399h-100v166h-227v-586h165q154 0 228 80q73 79 73 250v39h91v-459zM571 1516h-96l135 235q22 36 53 52q32 16 76 16h324q47 0 52 -28q5 -27 -38 -48z" />
    <glyph glyph-name="Ecircumflex" unicode="&#xca;" horiz-adv-x="1193" 
d="M1135 0h-1078v90h138v1233h-138v90h1041v-450h-90v51q0 156 -84 232q-85 77 -258 77h-88v-557h227v143h100v-399h-100v166h-227v-586h165q154 0 228 80q73 79 73 250v39h91v-459zM612 1671l-284 -145h-84l305 375h125l295 -375h-74z" />
    <glyph glyph-name="Edieresis" unicode="&#xcb;" horiz-adv-x="1193" 
d="M1135 0h-1078v90h138v1233h-138v90h1041v-450h-90v51q0 156 -84 232q-85 77 -258 77h-88v-557h227v143h100v-399h-100v166h-227v-586h165q154 0 228 80q73 79 73 250v39h91v-459zM569 1702q0 -81 -49 -131q-50 -51 -135 -51q-88 0 -136 50t-48 132q0 86 48 136t136 50
t136 -52t48 -134zM1040 1702q0 -82 -48 -132t-136 -50q-89 0 -135 49q-47 50 -47 133q0 86 47 136t135 50t136 -51t48 -135z" />
    <glyph glyph-name="Igrave" unicode="&#xcc;" horiz-adv-x="780" 
d="M723 90v-90h-666v90h142v1233h-142v90h666v-90h-141v-1233h141zM545 1516h-101l-514 227q-40 18 -34 47t53 29h338q43 0 73 -16t50 -52z" />
    <glyph glyph-name="Iacute" unicode="&#xcd;" horiz-adv-x="780" 
d="M723 90v-90h-666v90h142v1233h-142v90h666v-90h-141v-1233h141zM356 1516h-96l135 235q22 37 52 52q32 16 77 16h324q47 0 52 -28q5 -27 -38 -48z" />
    <glyph glyph-name="Icircumflex" unicode="&#xce;" horiz-adv-x="780" 
d="M723 90v-90h-666v90h142v1233h-142v90h666v-90h-141v-1233h141zM401 1671l-284 -145h-84l305 375h125l295 -375h-74z" />
    <glyph glyph-name="Idieresis" unicode="&#xcf;" horiz-adv-x="780" 
d="M723 90v-90h-666v90h142v1233h-142v90h666v-90h-141v-1233h141zM340 1702q0 -81 -49 -131q-49 -51 -135 -51q-89 0 -137 50t-48 132q0 86 48 136t137 50q88 0 136 -52t48 -134zM811 1702q0 -82 -48 -132t-136 -50q-89 0 -135 49q-48 51 -48 133q0 85 48 136q47 50 135 50
t136 -51t48 -135z" />
    <glyph glyph-name="Ntilde" unicode="&#xd1;" horiz-adv-x="1404" 
d="M305 90h203v-90h-451v90h138v1233h-138v90h447l602 -960v870h-203v90h451v-90h-140v-1329h-231l-678 1059v-963zM991 1874h76q0 -183 -46 -257q-47 -75 -155 -75q-50 0 -99 20q-48 20 -124 76q-49 37 -73 49q-22 11 -44 11q-46 0 -67 -33t-21 -109h-73q0 179 49 256
q50 78 155 78q53 0 100 -19q46 -19 126 -77q45 -34 71 -48q21 -11 43 -11q46 0 64 30t18 109z" />
    <glyph glyph-name="Ograve" unicode="&#xd2;" horiz-adv-x="1411" 
d="M707 1448q286 0 461 -210q175 -209 175 -531q0 -323 -175 -532q-175 -210 -461 -210q-287 0 -463 210q-176 211 -176 532q0 320 176 531q176 210 463 210zM707 1356q-130 0 -183 -151t-53 -498q0 -348 53 -499t183 -151q129 0 182 151t53 499q0 347 -53 498t-182 151z
M782 1516h-100l-514 227q-41 18 -35 47t53 29h338q44 0 74 -16q28 -15 49 -52z" />
    <glyph glyph-name="Oacute" unicode="&#xd3;" horiz-adv-x="1411" 
d="M707 1448q286 0 461 -210q175 -209 175 -531q0 -323 -175 -532q-175 -210 -461 -210q-287 0 -463 210q-176 211 -176 532q0 320 176 531q176 210 463 210zM707 1356q-130 0 -183 -151t-53 -498q0 -348 53 -499t183 -151q129 0 182 151t53 499q0 347 -53 498t-182 151z
M672 1516h-97l136 235q22 37 52 52q32 16 77 16h323q47 0 52 -28t-37 -48z" />
    <glyph glyph-name="Ocircumflex" unicode="&#xd4;" horiz-adv-x="1411" 
d="M696 1651l-284 -146h-84l305 375h125l295 -375h-74zM707 1448q286 0 461 -210q175 -209 175 -531q0 -323 -175 -532q-175 -210 -461 -210q-287 0 -463 210q-176 211 -176 532q0 320 176 531q176 210 463 210zM707 1356q-130 0 -183 -151t-53 -498q0 -348 53 -499
t183 -151q129 0 182 151t53 499q0 347 -53 498t-182 151z" />
    <glyph glyph-name="Otilde" unicode="&#xd5;" horiz-adv-x="1411" 
d="M707 1448q286 0 461 -210q175 -209 175 -531q0 -323 -175 -532q-175 -210 -461 -210q-287 0 -463 210q-176 211 -176 532q0 320 176 531q176 210 463 210zM707 1356q-130 0 -183 -151t-53 -498q0 -348 53 -499t183 -151q129 0 182 151t53 499q0 347 -53 498t-182 151z
M950 1874h76q0 -183 -46 -257q-46 -75 -155 -75q-50 0 -99 20q-48 20 -124 76q-49 37 -73 49q-22 11 -44 11q-46 0 -67 -33t-21 -109h-73q0 179 49 256q49 78 155 78q53 0 100 -19q46 -19 126 -77q45 -34 71 -48q21 -11 43 -11q46 0 64 30t18 109z" />
    <glyph glyph-name="Odieresis" unicode="&#xd6;" horiz-adv-x="1411" 
d="M707 1448q286 0 461 -210q175 -209 175 -531q0 -323 -175 -532q-175 -210 -461 -210q-287 0 -463 210q-176 211 -176 532q0 320 176 531q176 210 463 210zM707 1356q-130 0 -183 -151t-53 -498q0 -348 53 -499t183 -151q129 0 182 151t53 499q0 347 -53 498t-182 151z
M631 1702q0 -81 -49 -131q-50 -51 -136 -51q-88 0 -136 50t-48 132q0 86 48 136t136 50q89 0 137 -52t48 -134zM1102 1702q0 -82 -48 -132t-136 -50q-90 0 -136 49q-47 50 -47 133q0 86 47 136t136 50q88 0 136 -51t48 -135z" />
    <glyph glyph-name="multiply" unicode="&#xd7;" horiz-adv-x="872" 
d="M776 352l-78 -80l-264 279l-252 -277l-80 68l260 287l-266 280l82 74l260 -272l254 282l80 -67l-262 -291z" />
    <glyph glyph-name="Oslash" unicode="&#xd8;" horiz-adv-x="1411" 
d="M707 1356q-137 0 -194 -151q-56 -147 -56 -498q0 -48 2 -132q1 -56 8 -124l455 686q-29 113 -80 166t-135 53zM707 57q136 0 193 151q56 147 56 499q0 79 -3 148q-3 67 -9 128l-455 -690q24 -120 77 -178t141 -58zM1343 707q0 -323 -175 -532q-175 -210 -461 -210
q-101 0 -193 29q-90 28 -168 84l-123 -184h-127l170 256q-93 101 -146 247q-52 144 -52 310q0 320 176 531q176 210 463 210q99 0 188 -27q87 -27 162 -80l135 205h127l-182 -274q97 -100 152 -250q54 -147 54 -315z" />
    <glyph glyph-name="Ugrave" unicode="&#xd9;" horiz-adv-x="1359" 
d="M1178 1323v-827q0 -288 -107 -410q-106 -121 -356 -121q-275 0 -404 131q-129 130 -129 412v815h-137v90h694v-90h-174v-895q0 -186 59 -272t183 -86q131 0 195 93q65 94 65 292v868h-174v90h422v-90h-137zM899 1516h-100l-514 227q-41 18 -35 47t53 29h338q44 0 74 -16
q28 -15 49 -52z" />
    <glyph glyph-name="Uacute" unicode="&#xda;" horiz-adv-x="1359" 
d="M1178 1323v-827q0 -288 -107 -410q-106 -121 -356 -121q-275 0 -404 131q-129 130 -129 412v815h-137v90h694v-90h-174v-895q0 -186 59 -272t183 -86q131 0 195 93q65 94 65 292v868h-174v90h422v-90h-137zM793 1516h-97l135 235q22 36 53 52q32 16 77 16h323
q47 0 52 -28q5 -27 -38 -48z" />
    <glyph glyph-name="Ucircumflex" unicode="&#xdb;" horiz-adv-x="1359" 
d="M1178 1323v-827q0 -288 -107 -410q-106 -121 -356 -121q-275 0 -404 131q-129 130 -129 412v815h-137v90h694v-90h-174v-895q0 -186 59 -272t183 -86q131 0 195 93q65 94 65 292v868h-174v90h422v-90h-137zM774 1671l-285 -145h-83l305 375h125l294 -375h-73z" />
    <glyph glyph-name="Udieresis" unicode="&#xdc;" horiz-adv-x="1359" 
d="M1178 1323v-827q0 -288 -107 -410q-106 -121 -356 -121q-275 0 -404 131q-129 130 -129 412v815h-137v90h694v-90h-174v-895q0 -186 59 -272t183 -86q131 0 195 93q65 94 65 292v868h-174v90h422v-90h-137zM721 1702q0 -81 -49 -131q-50 -51 -135 -51q-89 0 -137 50
t-48 132q0 86 48 136t137 50q88 0 136 -52t48 -134zM1192 1702q0 -82 -48 -132t-136 -50q-90 0 -136 49q-47 50 -47 133q0 86 47 136t136 50q88 0 136 -51t48 -135z" />
    <glyph glyph-name="Yacute" unicode="&#xdd;" horiz-adv-x="1341" 
d="M1038 0h-694v90h156v533l-363 700h-127v90h742v-90h-195l268 -526l269 526h-170v90h407v-90h-123l-325 -631v-602h155v-90zM844 1516h-96l135 235q22 37 52 52q32 16 77 16h323q48 0 53 -28q5 -27 -38 -48z" />
    <glyph glyph-name="germandbls" unicode="&#xdf;" horiz-adv-x="1476" 
d="M1417 326q0 -164 -128 -263q-126 -98 -353 -98q-64 0 -126 8q-52 7 -108 27v104q41 -19 71 -26q34 -8 65 -8q96 0 142 61t46 188q0 80 -29 141q-29 60 -120 138q-80 68 -104 113q-23 43 -23 102q0 40 13 75q15 39 56 99q61 89 81 153q20 66 20 140q0 97 -37 146
q-39 51 -109 51q-68 0 -106 -45q-36 -44 -47 -144q-3 -42 -4 -89q-1 -46 -1 -185v-1014h-565v90h195v844h-195v90h195v18q0 246 141 384q142 139 393 139q242 0 384 -78q143 -78 143 -207q0 -86 -55 -156q-54 -69 -216 -159q-100 -56 -132 -88q-30 -30 -30 -64q0 -31 33 -55
q35 -25 148 -70q105 -40 155 -67q46 -24 88 -58q63 -48 91 -106q28 -59 28 -131z" />
    <glyph glyph-name="agrave" unicode="&#xe0;" horiz-adv-x="1275" 
d="M993 -35q-124 0 -194 64q-69 63 -84 190q-33 -120 -125 -187q-93 -67 -230 -67q-143 0 -227 69t-84 189q0 137 116 217q117 81 361 115l148 20v150q0 122 -53 184t-162 62q-45 0 -87 -12q-45 -13 -63 -27q69 -25 99 -65q30 -41 30 -103q0 -78 -46 -123t-126 -45
q-84 0 -132 45t-48 123q0 138 146 223q148 86 364 86q213 0 332 -86t119 -242v-557q0 -44 13 -64q14 -22 42 -22q38 0 59 55q21 54 21 154h88q0 -182 -66 -264t-211 -82zM424 279q0 -64 25 -95q24 -30 75 -30q73 0 111 68q39 69 39 198v67l-72 -16q-95 -21 -136 -65
q-42 -45 -42 -127zM721 1208h-96l-504 248q-41 21 -35 48q6 28 53 28h318q47 0 74 -15q28 -15 49 -55z" />
    <glyph glyph-name="aacute" unicode="&#xe1;" horiz-adv-x="1275" 
d="M993 -35q-124 0 -194 64q-69 63 -84 190q-33 -120 -125 -187q-93 -67 -230 -67q-143 0 -227 69t-84 189q0 137 116 217q117 81 361 115l148 20v150q0 122 -53 184t-162 62q-45 0 -87 -12q-45 -13 -63 -27q69 -25 99 -65q30 -41 30 -103q0 -78 -46 -123t-126 -45
q-84 0 -132 45t-48 123q0 138 146 223q148 86 364 86q213 0 332 -86t119 -242v-557q0 -44 13 -64q14 -22 42 -22q38 0 59 55q21 54 21 154h88q0 -182 -66 -264t-211 -82zM424 279q0 -64 25 -95q24 -30 75 -30q73 0 111 68q39 69 39 198v67l-72 -16q-95 -21 -136 -65
q-42 -45 -42 -127zM600 1208h-96l153 254q22 37 53 54q29 16 78 16h318q46 0 51 -28q5 -27 -39 -48z" />
    <glyph glyph-name="acircumflex" unicode="&#xe2;" horiz-adv-x="1275" 
d="M993 -35q-124 0 -194 64q-69 63 -84 190q-33 -120 -125 -187q-93 -67 -230 -67q-143 0 -227 69t-84 189q0 137 116 217q117 81 361 115l148 20v150q0 122 -53 184t-162 62q-45 0 -87 -12q-45 -13 -63 -27q69 -25 99 -65q30 -41 30 -103q0 -78 -46 -123t-126 -45
q-84 0 -132 45t-48 123q0 138 146 223q148 86 364 86q213 0 332 -86t119 -242v-557q0 -44 13 -64q14 -22 42 -22q38 0 59 55q21 54 21 154h88q0 -182 -66 -264t-211 -82zM424 279q0 -64 25 -95q24 -30 75 -30q73 0 111 68q39 69 39 198v67l-72 -16q-95 -21 -136 -65
q-42 -45 -42 -127zM627 1335l-285 -145h-84l305 375h125l295 -375h-74z" />
    <glyph glyph-name="atilde" unicode="&#xe3;" horiz-adv-x="1275" 
d="M993 -35q-124 0 -194 64q-69 63 -84 190q-33 -120 -125 -187q-93 -67 -230 -67q-143 0 -227 69t-84 189q0 137 116 217q117 81 361 115l148 20v150q0 122 -53 184t-162 62q-45 0 -87 -12q-45 -13 -63 -27q69 -25 99 -65q30 -41 30 -103q0 -78 -46 -123t-126 -45
q-84 0 -132 45t-48 123q0 138 146 223q148 86 364 86q213 0 332 -86t119 -242v-557q0 -44 13 -64q14 -22 42 -22q38 0 59 55q21 54 21 154h88q0 -182 -66 -264t-211 -82zM424 279q0 -64 25 -95q24 -30 75 -30q73 0 111 68q39 69 39 198v67l-72 -16q-95 -21 -136 -65
q-42 -45 -42 -127zM872 1567h76q0 -183 -46 -257q-46 -75 -154 -75q-53 0 -100 19q-45 18 -124 77q-47 35 -72 48q-24 12 -44 12q-47 0 -68 -33t-21 -109h-73q0 179 49 256q49 78 156 78q52 0 99 -19q46 -19 126 -77q43 -32 72 -48q23 -12 43 -12q44 0 63 31q18 30 18 109z
" />
    <glyph glyph-name="adieresis" unicode="&#xe4;" horiz-adv-x="1275" 
d="M993 -35q-124 0 -194 64q-69 63 -84 190q-33 -120 -125 -187q-93 -67 -230 -67q-143 0 -227 69t-84 189q0 137 116 217q117 81 361 115l148 20v150q0 122 -53 184t-162 62q-45 0 -87 -12q-45 -13 -63 -27q69 -25 99 -65q30 -41 30 -103q0 -78 -46 -123t-126 -45
q-84 0 -132 45t-48 123q0 138 146 223q148 86 364 86q213 0 332 -86t119 -242v-557q0 -44 13 -64q14 -22 42 -22q38 0 59 55q21 54 21 154h88q0 -182 -66 -264t-211 -82zM424 279q0 -64 25 -95q24 -30 75 -30q73 0 111 68q39 69 39 198v67l-72 -16q-95 -21 -136 -65
q-42 -45 -42 -127zM543 1397q0 -81 -49 -131q-50 -52 -136 -52q-87 0 -136 51q-48 49 -48 132q0 87 48 136q48 50 136 50q89 0 137 -52q48 -53 48 -134zM1014 1397q0 -83 -48 -132q-49 -51 -137 -51t-135 50t-47 133q0 86 47 136t135 50q89 0 137 -51t48 -135z" />
    <glyph glyph-name="aring" unicode="&#xe5;" horiz-adv-x="1275" 
d="M993 -35q-124 0 -194 64q-69 63 -84 190q-33 -120 -125 -187q-93 -67 -230 -67q-143 0 -227 69t-84 189q0 137 116 217q117 81 361 115l148 20v150q0 122 -53 184t-162 62q-45 0 -87 -12q-45 -13 -63 -27q69 -25 99 -65q30 -41 30 -103q0 -78 -46 -123t-126 -45
q-84 0 -132 45t-48 123q0 138 146 223q148 86 364 86q213 0 332 -86t119 -242v-557q0 -44 13 -64q14 -22 42 -22q38 0 59 55q21 54 21 154h88q0 -182 -66 -264t-211 -82zM424 279q0 -64 25 -95q24 -30 75 -30q73 0 111 68q39 69 39 198v67l-72 -16q-95 -21 -136 -65
q-42 -45 -42 -127zM610 1573q95 0 150 -56t55 -137q0 -78 -55 -134t-150 -56q-96 0 -151 55q-56 56 -56 135q0 85 56 139q55 54 151 54zM610 1462q-40 0 -63 -21t-23 -61q0 -36 23 -59t63 -23q42 0 64 24q22 23 22 58q0 38 -22 60t-64 22z" />
    <glyph glyph-name="ae" unicode="&#xe6;" horiz-adv-x="1779" 
d="M1610 334l94 -10q-30 -170 -149 -265q-118 -94 -298 -94q-166 0 -300 73q-129 71 -203 204q-34 -129 -136 -203q-101 -74 -245 -74q-151 0 -236 72q-86 72 -86 199q0 150 127 235q128 86 367 96l143 6v140q0 129 -55 193q-56 65 -168 65q-41 0 -78 -9t-70 -30
q62 -23 92 -65q29 -41 29 -103q0 -78 -46 -123t-130 -45q-82 0 -128 45t-46 123q0 135 142 222t348 87q113 0 200 -31q83 -30 133 -92q54 59 137 91q82 32 177 32q226 0 362 -139q137 -140 137 -356q0 -27 -1 -39q-2 -24 -5 -35h-647q0 -218 64 -322q63 -102 196 -102
q110 0 179 63q70 64 100 191zM1223 983q-79 0 -113 -85q-35 -86 -39 -304h289q1 227 -30 308q-32 81 -107 81zM426 291q0 -68 28 -104q26 -33 85 -33q61 0 105 60t54 159q-4 10 -7 49q-3 37 -3 61l-90 -6q-86 -6 -129 -52t-43 -134z" />
    <glyph glyph-name="ccedilla" unicode="&#xe7;" horiz-adv-x="1071" 
d="M920 334l98 -10q-29 -171 -138 -265t-280 -94q-239 0 -390 154t-151 403q0 246 158 399q156 152 404 152q188 0 291 -82q104 -83 104 -233q0 -78 -46 -124t-128 -46q-85 0 -132 44q-46 43 -46 124q0 75 39 118q41 46 116 56q-23 26 -60 40q-35 13 -81 13
q-125 0 -180 -104q-56 -106 -56 -357q0 -220 59 -332q58 -110 175 -110q95 0 157 65q63 66 87 189zM862 -274q0 -81 -71 -125q-72 -45 -203 -45q-106 0 -175 23q-74 25 -106 67l35 65q24 -23 58 -35q36 -12 79 -12q55 0 82 18t27 54q0 39 -36 60q-38 22 -103 22l-9 45
l133 149h132l-111 -114q103 0 187 -48q81 -46 81 -124z" />
    <glyph glyph-name="egrave" unicode="&#xe8;" 
d="M633 -35q-253 0 -413 156q-161 156 -161 405q0 240 154 394q153 153 387 153q225 0 364 -137q138 -136 138 -352q0 -27 -1 -39q-2 -24 -3 -35h-656v-23q0 -207 66 -307t199 -100q111 0 181 63q71 63 101 191l92 -10q-29 -170 -148 -264q-121 -95 -300 -95zM598 983
q-78 0 -114 -86q-36 -85 -42 -297h297q0 226 -31 304q-31 79 -110 79zM686 1208h-96l-504 248q-41 21 -35 48q6 28 53 28h318q48 0 75 -15q26 -15 48 -55z" />
    <glyph glyph-name="eacute" unicode="&#xe9;" 
d="M633 -35q-253 0 -413 156q-161 156 -161 405q0 240 154 394q153 153 387 153q225 0 364 -137q138 -136 138 -352q0 -27 -1 -39q-2 -24 -3 -35h-656v-23q0 -207 66 -307t199 -100q111 0 181 63q71 63 101 191l92 -10q-29 -170 -148 -264q-121 -95 -300 -95zM598 983
q-78 0 -114 -86q-36 -85 -42 -297h297q0 226 -31 304q-31 79 -110 79zM565 1208h-96l154 254q23 38 52 54t79 16h317q46 0 51 -28q4 -27 -39 -48z" />
    <glyph glyph-name="ecircumflex" unicode="&#xea;" 
d="M633 -35q-253 0 -413 156q-161 156 -161 405q0 240 154 394q153 153 387 153q225 0 364 -137q138 -136 138 -352q0 -27 -1 -39q-2 -24 -3 -35h-656v-23q0 -207 66 -307t199 -100q111 0 181 63q71 63 101 191l92 -10q-29 -170 -148 -264q-121 -95 -300 -95zM598 983
q-78 0 -114 -86q-36 -85 -42 -297h297q0 226 -31 304q-31 79 -110 79zM598 1335l-285 -145h-84l306 375h124l295 -375h-73z" />
    <glyph glyph-name="edieresis" unicode="&#xeb;" 
d="M633 -35q-253 0 -413 156q-161 156 -161 405q0 240 154 394q153 153 387 153q225 0 364 -137q138 -136 138 -352q0 -27 -1 -39q-2 -24 -3 -35h-656v-23q0 -207 66 -307t199 -100q111 0 181 63q71 63 101 191l92 -10q-29 -170 -148 -264q-121 -95 -300 -95zM598 983
q-78 0 -114 -86q-36 -85 -42 -297h297q0 226 -31 304q-31 79 -110 79zM543 1360q0 -81 -49 -131q-49 -51 -136 -51q-88 0 -136 50t-48 132q0 86 48 136t136 50q89 0 137 -52t48 -134zM1014 1360q0 -82 -48 -132t-137 -50t-135 49q-47 50 -47 133q0 86 47 136t135 50
q89 0 137 -51t48 -135z" />
    <glyph glyph-name="igrave" unicode="&#xec;" horiz-adv-x="733" 
d="M696 90v-90h-643v90h135v858h-135v90q179 0 293 8q113 8 152 21l63 -18v-959h135zM516 1208h-96l-504 248q-41 21 -35 48q6 28 53 28h318q48 0 75 -15q26 -15 48 -55z" />
    <glyph glyph-name="iacute" unicode="&#xed;" horiz-adv-x="733" 
d="M696 90v-90h-643v90h135v858h-135v90q179 0 293 8q113 8 152 21l63 -18v-959h135zM348 1208h-96l154 254q23 38 52 54t79 16h317q46 0 51 -28q5 -27 -39 -48z" />
    <glyph glyph-name="icircumflex" unicode="&#xee;" horiz-adv-x="733" 
d="M696 90v-90h-643v90h135v858h-135v90q179 0 293 8q113 8 152 21l63 -18v-959h135zM381 1335l-285 -145h-84l305 375h125l295 -375h-73z" />
    <glyph glyph-name="idieresis" unicode="&#xef;" horiz-adv-x="733" 
d="M696 90v-90h-643v90h135v858h-135v90q179 0 293 8q113 8 152 21l63 -18v-959h135zM313 1397q0 -81 -49 -131q-50 -52 -135 -52q-87 0 -136 51q-48 49 -48 132q0 87 48 136q48 50 136 50t136 -52q48 -53 48 -134zM784 1397q0 -83 -48 -132q-49 -51 -136 -51q-88 0 -135 50
t-47 133q0 86 47 136t135 50t136 -51t48 -135z" />
    <glyph glyph-name="ntilde" unicode="&#xf1;" horiz-adv-x="1417" 
d="M561 90h107v-90h-615v90h135v858h-135v90q152 0 248 8q95 8 133 21l62 -18v-267q24 139 122 214q100 77 254 77q186 0 278 -99q91 -98 91 -302v-582h135v-90h-614v90h106v602q0 110 -37 163q-38 54 -110 54q-79 0 -119 -65q-41 -67 -41 -191v-563zM973 1567h76
q0 -181 -47 -257q-46 -75 -154 -75q-52 0 -99 19q-45 18 -124 77q-45 34 -73 48q-24 12 -44 12q-47 0 -68 -33q-20 -31 -20 -109h-74q0 179 49 256q49 78 156 78q52 0 99 -19q46 -19 126 -77q43 -32 72 -48q22 -12 43 -12q44 0 63 31q19 32 19 109z" />
    <glyph glyph-name="ograve" unicode="&#xf2;" horiz-adv-x="1243" 
d="M621 1073q237 0 399 -159t162 -400q0 -237 -162 -393t-399 -156q-240 0 -401 158t-161 401q0 240 161 395q160 154 401 154zM621 977q-95 0 -137 -105t-42 -348q0 -250 42 -356q42 -107 137 -107q92 0 136 110q44 111 44 343q0 239 -44 351t-136 112zM686 1208h-96
l-504 248q-41 21 -35 48q6 28 53 28h318q48 0 75 -15q26 -15 48 -55z" />
    <glyph glyph-name="oacute" unicode="&#xf3;" horiz-adv-x="1243" 
d="M621 1073q237 0 399 -159t162 -400q0 -237 -162 -393t-399 -156q-240 0 -401 158t-161 401q0 240 161 395q160 154 401 154zM621 977q-95 0 -137 -105t-42 -348q0 -250 42 -356q42 -107 137 -107q92 0 136 110q44 111 44 343q0 239 -44 351t-136 112zM649 1208h-96
l154 254q23 38 52 54t79 16h317q46 0 51 -28q4 -27 -39 -48z" />
    <glyph glyph-name="ocircumflex" unicode="&#xf4;" horiz-adv-x="1243" 
d="M621 1073q237 0 399 -159t162 -400q0 -237 -162 -393t-399 -156q-240 0 -401 158t-161 401q0 240 161 395q160 154 401 154zM621 977q-95 0 -137 -105t-42 -348q0 -250 42 -356q42 -107 137 -107q92 0 136 110q44 111 44 343q0 239 -44 351t-136 112zM623 1335l-285 -145
h-84l305 375h125l295 -375h-74z" />
    <glyph glyph-name="otilde" unicode="&#xf5;" horiz-adv-x="1243" 
d="M621 1073q237 0 399 -159t162 -400q0 -237 -162 -393t-399 -156q-240 0 -401 158t-161 401q0 240 161 395q160 154 401 154zM621 977q-95 0 -137 -105t-42 -348q0 -250 42 -356q42 -107 137 -107q92 0 136 110q44 111 44 343q0 239 -44 351t-136 112zM881 1567h75
q0 -183 -46 -257q-46 -75 -154 -75q-53 0 -100 19q-45 18 -124 77q-47 35 -72 48q-24 12 -44 12q-47 0 -68 -33q-20 -31 -20 -109h-74q0 179 49 256q49 78 156 78q52 0 99 -19q46 -19 126 -77q43 -32 72 -48q23 -12 43 -12q44 0 63 31q19 32 19 109z" />
    <glyph glyph-name="odieresis" unicode="&#xf6;" horiz-adv-x="1243" 
d="M621 1073q237 0 399 -159t162 -400q0 -237 -162 -393t-399 -156q-240 0 -401 158t-161 401q0 240 161 395q160 154 401 154zM621 977q-95 0 -137 -105t-42 -348q0 -250 42 -356q42 -107 137 -107q92 0 136 110q44 111 44 343q0 239 -44 351t-136 112zM565 1397
q0 -81 -49 -131q-50 -52 -135 -52q-87 0 -136 51q-48 49 -48 132q0 87 48 136q48 50 136 50t136 -52q48 -53 48 -134zM1036 1397q0 -83 -48 -132q-49 -51 -136 -51q-88 0 -135 50t-47 133q0 86 47 136t135 50t136 -51t48 -135z" />
    <glyph glyph-name="divide" unicode="&#xf7;" horiz-adv-x="1056" 
d="M530 1120q63 0 97 -37q35 -38 35 -96q0 -54 -35 -92q-34 -37 -97 -37q-62 0 -96 37q-35 38 -35 92q0 59 34 96t97 37zM965 586h-873v96h873v-96zM530 410q62 0 97 -38t35 -96q0 -54 -35 -92q-34 -37 -97 -37q-62 0 -96 36q-35 37 -35 93q0 59 35 97q34 37 96 37z" />
    <glyph glyph-name="oslash" unicode="&#xf8;" horiz-adv-x="1243" 
d="M621 977q-99 0 -146 -111q-47 -112 -47 -342q0 -38 2 -92q2 -42 6 -76l344 461q-24 80 -64 120t-95 40zM621 61q95 0 145 115q49 113 49 338q0 37 -2 93q-2 43 -6 77l-348 -459q23 -84 62 -123q41 -41 100 -41zM1182 514q0 -237 -162 -393t-399 -156q-79 0 -156 21
t-141 59l-115 -151h-123l158 208q-92 78 -138 185q-47 109 -47 237q0 240 161 395q160 154 401 154q78 0 153 -19q72 -18 141 -59l115 152h125l-160 -211q92 -78 139 -185q48 -109 48 -237z" />
    <glyph glyph-name="ugrave" unicode="&#xf9;" horiz-adv-x="1363" 
d="M950 -29l-63 19v262q-24 -139 -119 -213t-252 -74q-185 0 -273 98q-89 100 -89 304v581h-142v90q182 0 297 8t154 21l63 -18v-703q0 -111 35 -164t109 -53q73 0 112 66t39 190v563h-180v90q193 0 323 8q126 8 166 21l64 -18v-959h135v-90q-138 0 -226 -7q-99 -8 -153 -22
zM774 1208h-96l-504 248q-41 21 -35 48q6 28 54 28h317q48 0 75 -15q26 -15 48 -55z" />
    <glyph glyph-name="uacute" unicode="&#xfa;" horiz-adv-x="1363" 
d="M950 -29l-63 19v262q-24 -139 -119 -213t-252 -74q-185 0 -273 98q-89 100 -89 304v581h-142v90q182 0 297 8t154 21l63 -18v-703q0 -111 35 -164t109 -53q73 0 112 66t39 190v563h-180v90q193 0 323 8q126 8 166 21l64 -18v-959h135v-90q-138 0 -226 -7q-99 -8 -153 -22
zM711 1208h-97l154 254q23 38 52 54t79 16h318q46 0 51 -28q4 -27 -39 -48z" />
    <glyph glyph-name="ucircumflex" unicode="&#xfb;" horiz-adv-x="1363" 
d="M950 -29l-63 19v262q-24 -139 -119 -213t-252 -74q-185 0 -273 98q-89 100 -89 304v581h-142v90q182 0 297 8t154 21l63 -18v-703q0 -111 35 -164t109 -53q73 0 112 66t39 190v563h-180v90q193 0 323 8q126 8 166 21l64 -18v-959h135v-90q-138 0 -226 -7q-99 -8 -153 -22
zM672 1335l-285 -145h-84l305 375h125l295 -375h-74z" />
    <glyph glyph-name="udieresis" unicode="&#xfc;" horiz-adv-x="1363" 
d="M950 -29l-63 19v262q-24 -139 -119 -213t-252 -74q-185 0 -273 98q-89 100 -89 304v581h-142v90q182 0 297 8t154 21l63 -18v-703q0 -111 35 -164t109 -53q73 0 112 66t39 190v563h-180v90q193 0 323 8q126 8 166 21l64 -18v-959h135v-90q-138 0 -226 -7q-99 -8 -153 -22
zM618 1397q0 -81 -49 -131q-50 -52 -135 -52q-87 0 -136 51q-48 49 -48 132q0 87 48 136q48 50 136 50t136 -52q48 -53 48 -134zM1090 1397q0 -81 -49 -132t-136 -51q-88 0 -135 50t-47 133q0 86 47 136t135 50t136 -51q49 -52 49 -135z" />
    <glyph glyph-name="yacute" unicode="&#xfd;" horiz-adv-x="1052" 
d="M246 -532q-115 0 -180 61q-66 61 -66 170q0 83 45 133q45 49 123 49q72 0 111 -41q38 -39 38 -112q0 -65 -35 -104q-36 -40 -100 -42q11 -10 28 -15t36 -5q63 0 114 64q52 66 113 231l29 77l-414 1014h-121v90h592v-90h-117l220 -545l190 545h-131v90h369v-90h-113
l-348 -979q-107 -302 -188 -403q-79 -98 -195 -98zM606 1214h-96l154 254q23 38 52 54t79 16h317q46 0 51 -28q5 -27 -39 -48z" />
    <glyph glyph-name="ydieresis" unicode="&#xff;" horiz-adv-x="1052" 
d="M246 -532q-115 0 -180 61q-66 61 -66 170q0 83 45 133q45 49 123 49q72 0 111 -41q38 -39 38 -112q0 -65 -35 -104q-36 -40 -100 -42q11 -10 28 -15t36 -5q63 0 114 64q52 66 113 231l29 77l-414 1014h-121v90h592v-90h-117l220 -545l190 545h-131v90h369v-90h-113
l-348 -979q-107 -302 -188 -403q-79 -98 -195 -98zM530 1397q0 -81 -49 -131q-50 -52 -135 -52q-87 0 -136 51q-48 49 -48 132q0 87 48 136q48 50 136 50t136 -52q48 -53 48 -134zM1001 1397q0 -83 -48 -132q-49 -51 -136 -51q-88 0 -135 50t-47 133q0 86 47 136t135 50
t136 -51t48 -135z" />
    <glyph glyph-name="Amacron" unicode="&#x100;" horiz-adv-x="1351" 
d="M365 520h331l-168 510zM389 0h-391v90h121l444 1344h217l457 -1344h117v-90h-703v90h185l-111 340h-389l-109 -340h162v-90zM985 1645h-618v153h618v-153z" />
    <glyph glyph-name="amacron" unicode="&#x101;" horiz-adv-x="1275" 
d="M993 -35q-124 0 -194 64q-69 63 -84 190q-33 -120 -125 -187q-93 -67 -230 -67q-143 0 -227 69t-84 189q0 137 116 217q117 81 361 115l148 20v150q0 122 -53 184t-162 62q-45 0 -87 -12q-45 -13 -63 -27q69 -25 99 -65q30 -41 30 -103q0 -78 -46 -123t-126 -45
q-84 0 -132 45t-48 123q0 138 146 223q148 86 364 86q213 0 332 -86t119 -242v-557q0 -44 13 -64q14 -22 42 -22q38 0 59 55q21 54 21 154h88q0 -182 -66 -264t-211 -82zM424 279q0 -64 25 -95q24 -30 75 -30q73 0 111 68q39 69 39 198v67l-72 -16q-95 -21 -136 -65
q-42 -45 -42 -127zM913 1341h-618v154h618v-154z" />
    <glyph glyph-name="Aogonek" unicode="&#x104;" horiz-adv-x="1351" 
d="M1241 -276q-127 0 -192 36q-68 38 -68 107q0 49 37 82q38 33 115 51h-482v90h185l-111 340h-389l-109 -340h162v-90h-391v90h121l444 1344h217l457 -1344h117v-90q-50 0 -85 -26q-34 -25 -34 -66q0 -47 32 -70q31 -22 95 -22q36 0 66 10q33 11 49 27l26 -39
q-37 -43 -104 -67q-65 -23 -158 -23zM365 520h331l-168 510z" />
    <glyph glyph-name="aogonek" unicode="&#x105;" horiz-adv-x="1275" 
d="M1040 -283q-123 0 -187 32q-62 31 -62 95q0 48 34 79q35 32 105 50q-99 21 -151 80t-64 166q-33 -120 -125 -187q-93 -67 -230 -67q-143 0 -227 69t-84 189q0 137 116 217q117 81 361 115l148 20v150q0 122 -53 184t-162 62q-41 0 -77 -9q-35 -9 -73 -30q66 -24 98 -67
q31 -41 31 -101q0 -78 -47 -123t-131 -45q-82 0 -128 45t-46 123q0 138 146 223q148 86 364 86q213 0 332 -86t119 -242v-557q0 -44 13 -64q14 -22 42 -22q38 0 59 55q21 54 21 154h88q0 -121 -27 -194q-27 -74 -86 -111q-9 -6 -38 -21q-20 -11 -36 -22q-20 -14 -29 -31
q-10 -18 -10 -38q0 -43 30 -64q29 -20 95 -20q33 0 68 12t49 26l27 -38q-41 -50 -108 -71q-69 -22 -165 -22zM424 279q0 -64 25 -95q24 -30 75 -30q70 0 110 70t40 196v67l-92 -20q-81 -18 -120 -64q-38 -46 -38 -124z" />
    <glyph glyph-name="Cacute" unicode="&#x106;" horiz-adv-x="1232" 
d="M1051 -20l-82 81q-49 -47 -120 -72q-69 -24 -159 -24q-274 0 -448 214q-174 215 -174 528t174 527t444 214q92 0 160 -21q69 -21 112 -63l82 70h60v-471h-90q0 169 -71 275q-71 105 -191 105q-150 0 -213 -147q-64 -149 -64 -489q0 -337 65 -488q64 -149 212 -149
q128 0 200 105t72 284h90v-479h-59zM621 1516h-97l135 235q22 36 53 52q32 16 76 16h324q47 0 52 -28q5 -27 -38 -48z" />
    <glyph glyph-name="cacute" unicode="&#x107;" horiz-adv-x="1071" 
d="M920 334l98 -10q-29 -171 -138 -265t-280 -94q-239 0 -390 154t-151 403q0 246 158 399q156 152 404 152q188 0 291 -82q104 -83 104 -233q0 -78 -46 -124t-128 -46q-85 0 -132 44q-46 43 -46 124q0 75 39 118q41 46 116 56q-23 26 -60 40q-35 13 -81 13
q-125 0 -180 -104q-56 -106 -56 -357q0 -220 59 -332q58 -110 175 -110q95 0 157 65q63 66 87 189zM594 1208h-96l153 254q23 38 52 54t79 16h318q46 0 51 -28q5 -27 -39 -48z" />
    <glyph glyph-name="Ccaron" unicode="&#x10c;" horiz-adv-x="1232" 
d="M1051 -20l-82 81q-49 -47 -120 -72q-69 -24 -159 -24q-274 0 -448 214q-174 215 -174 528t174 527t444 214q92 0 160 -21q69 -21 112 -63l82 70h60v-471h-90q0 169 -71 275q-71 105 -191 105q-150 0 -213 -147q-64 -149 -64 -489q0 -337 65 -488q64 -149 212 -149
q128 0 200 105t72 284h90v-479h-59zM1028 1915l-291 -375h-125l-309 375h84l293 -146l274 146h74z" />
    <glyph glyph-name="ccaron" unicode="&#x10d;" horiz-adv-x="1071" 
d="M920 334l98 -10q-29 -171 -138 -265t-280 -94q-239 0 -390 154t-151 403q0 246 158 399q156 152 404 152q188 0 291 -82q104 -83 104 -233q0 -78 -46 -124t-128 -46q-85 0 -132 44q-46 43 -46 124q0 75 39 118q41 46 116 56q-23 26 -60 40q-35 13 -81 13
q-125 0 -180 -104q-56 -106 -56 -357q0 -220 59 -332q58 -110 175 -110q95 0 157 65q63 66 87 189zM936 1565l-291 -375h-125l-309 375h84l293 -146l274 146h74z" />
    <glyph glyph-name="Dcaron" unicode="&#x10e;" horiz-adv-x="1464" 
d="M995 1915l-290 -375h-125l-310 375h84l293 -146l275 146h73zM1397 709q0 -298 -205 -503q-206 -206 -516 -206h-619v90h138v1233h-138v90h619q310 0 516 -204q205 -204 205 -500zM621 1323h-43v-1233h43q186 0 273 153t87 466q0 311 -88 462q-89 152 -272 152z" />
    <glyph glyph-name="dcaron" unicode="&#x10f;" horiz-adv-x="1576" 
d="M1573 1339q0 -138 -56 -243q-57 -107 -171 -185l-62 62q68 56 100 107q33 52 48 116q-5 -1 -17 -3q-7 -1 -18 -1q-82 0 -130 52t-48 126q0 78 47 131t131 53q81 0 128 -59q48 -60 48 -156zM444 557q-2 -221 36 -317q38 -97 124 -97q77 0 121 86q43 85 43 244v137
q0 173 -37 250q-37 78 -119 78q-88 0 -128 -91q-40 -90 -40 -290zM895 -29l-61 19v286q-39 -152 -127 -231q-89 -80 -220 -80q-187 0 -308 151q-120 150 -120 380q1 249 129 413t316 164q102 0 172 -35q69 -35 108 -106q-8 77 -12 166q-4 80 -4 170v172h-164v90q215 0 325 5
q94 4 148 24l64 -19v-1450h135v-90q-138 0 -226 -7q-98 -8 -155 -22z" />
    <glyph glyph-name="Emacron" unicode="&#x112;" horiz-adv-x="1193" 
d="M1135 0h-1078v90h138v1233h-138v90h1041v-450h-90v51q0 156 -84 232q-85 77 -258 77h-88v-557h227v143h100v-399h-100v166h-227v-586h165q154 0 228 80q73 79 73 250v39h91v-459zM915 1645h-618v153h618v-153z" />
    <glyph glyph-name="emacron" unicode="&#x113;" 
d="M633 -35q-253 0 -413 156q-161 156 -161 405q0 240 154 394q153 153 387 153q225 0 364 -137q138 -136 138 -352q0 -27 -1 -39q-2 -24 -3 -35h-656v-23q0 -207 66 -307t199 -100q111 0 181 63q71 63 101 191l92 -10q-29 -170 -148 -264q-121 -95 -300 -95zM598 983
q-78 0 -114 -86q-36 -85 -42 -297h297q0 226 -31 304q-31 79 -110 79zM911 1341h-618v154h618v-154z" />
    <glyph glyph-name="Edotaccent" unicode="&#x116;" horiz-adv-x="1193" 
d="M1135 0h-1078v90h138v1233h-138v90h1041v-450h-90v51q0 156 -84 232q-85 77 -258 77h-88v-557h227v143h100v-399h-100v166h-227v-586h165q154 0 228 80q73 79 73 250v39h91v-459zM612 1888q102 0 159 -54q56 -53 56 -140t-56 -139t-159 -52q-104 0 -160 52
q-57 53 -57 139q0 88 57 141q58 53 160 53z" />
    <glyph glyph-name="edotaccent" unicode="&#x117;" 
d="M598 1544q100 0 152 -51q53 -51 53 -133t-54 -132q-55 -50 -151 -50q-98 0 -153 50q-54 50 -54 132q0 84 54 134q55 50 153 50zM633 -35q-253 0 -413 156q-161 156 -161 405q0 240 154 394q153 153 387 153q225 0 364 -137q138 -136 138 -352q0 -27 -1 -39q-2 -24 -3 -35
h-656v-23q0 -207 66 -307t199 -100q111 0 181 63q71 63 101 191l92 -10q-29 -170 -148 -264q-121 -95 -300 -95zM598 983q-78 0 -114 -86q-36 -85 -42 -297h297q0 226 -31 304q-31 79 -110 79z" />
    <glyph glyph-name="Eogonek" unicode="&#x118;" horiz-adv-x="1193" 
d="M1251 -147l27 -39q-41 -49 -103 -69q-65 -21 -159 -21q-128 0 -193 36q-67 37 -67 107q0 49 38 82t117 51h-854v90h138v1233h-138v90h1041v-450h-90v51q0 156 -84 232q-85 77 -258 77h-88v-557h227v143h100v-399h-100v166h-227v-586h165q154 0 228 80q73 79 73 250v39h91
v-459q-56 0 -91 -26q-34 -25 -34 -66q0 -45 30 -69q29 -23 90 -23q38 0 68 9q29 9 53 28z" />
    <glyph glyph-name="eogonek" unicode="&#x119;" 
d="M813 -276q-124 0 -184 30t-60 92q0 42 30 70q31 29 120 59q-15 -3 -45 -7q-22 -3 -41 -3q-253 0 -413 156q-161 156 -161 405q0 240 154 394q153 153 387 153q225 0 364 -137q138 -136 138 -352v-39q0 -13 -2 -35h-658v-23q4 -212 69 -310q64 -97 196 -97q111 0 181 63
q71 63 101 191l92 -10q-17 -86 -52 -149q-34 -62 -122 -140q-53 -46 -68 -72q-16 -29 -16 -55q0 -45 30 -69q29 -23 87 -23q42 0 75 10t50 27l27 -39q-36 -42 -108 -66t-171 -24zM598 983q-78 0 -114 -86q-36 -85 -42 -297h297q0 226 -31 304q-31 79 -110 79z" />
    <glyph glyph-name="Ecaron" unicode="&#x11a;" horiz-adv-x="1193" 
d="M1135 0h-1078v90h138v1233h-138v90h1041v-450h-90v51q0 156 -84 232q-85 77 -258 77h-88v-557h227v143h100v-399h-100v166h-227v-586h165q154 0 228 80q73 79 73 250v39h91v-459zM961 1915l-291 -375h-125l-309 375h83l293 -146l275 146h74z" />
    <glyph glyph-name="ecaron" unicode="&#x11b;" 
d="M633 -35q-253 0 -413 156q-161 156 -161 405q0 240 154 394q153 153 387 153q225 0 364 -137q138 -136 138 -352q0 -27 -1 -39q-2 -24 -3 -35h-656v-23q0 -207 66 -307t199 -100q111 0 181 63q71 63 101 191l92 -10q-29 -170 -148 -264q-121 -95 -300 -95zM598 983
q-78 0 -114 -86q-36 -85 -42 -297h297q0 226 -31 304q-31 79 -110 79zM961 1565l-291 -375h-125l-309 375h83l293 -146l275 146h74z" />
    <glyph glyph-name="uni0122" unicode="&#x122;" horiz-adv-x="1390" 
d="M911 -315q0 -119 -50 -211q-51 -94 -154 -162l-54 53q64 53 91 97q28 45 40 98q-3 0 -8 -1t-8 -2q-5 -1 -14 -1q-74 0 -117 46t-43 111q0 68 43 114t117 46q71 0 114 -52t43 -136zM1257 -20h-79l-168 73q-63 -45 -131 -66q-71 -22 -156 -22q-295 0 -475 210t-180 532
q0 311 195 526t497 215q98 0 182 -24q87 -25 135 -66l82 76h60v-471h-91q0 178 -80 279t-227 101q-182 0 -266 -154q-84 -155 -84 -482q0 -337 66 -487t215 -150q48 0 85 12q36 12 66 35v467h-147v90h608v-90h-107v-604z" />
    <glyph glyph-name="uni0123" unicode="&#x123;" horiz-adv-x="1099" 
d="M362 1397q0 127 55 229q54 100 165 172l59 -57q-61 -49 -97 -101q-34 -49 -46 -108q7 2 16 3q7 1 18 1q80 0 126 -49q47 -50 47 -119q0 -73 -47 -123q-46 -49 -126 -49q-79 0 -124 55q-46 57 -46 146zM426 731q0 -130 28 -197q27 -65 87 -65t87 65q27 64 27 197
q0 139 -25 199q-25 61 -89 61q-61 0 -88 -62q-27 -63 -27 -198zM563 250q249 0 382 -91q134 -92 134 -261q0 -200 -141 -315q-140 -115 -389 -115q-265 0 -402 75q-139 76 -139 217q0 97 76 164t201 82q-107 17 -160 68t-53 137q0 84 64 141q65 58 169 74q-118 43 -184 123
q-66 79 -66 182q0 156 133 249q134 93 353 93q68 0 127 -10q62 -11 116 -31l316 6v-90l-176 4q51 -43 76 -98q26 -57 26 -123q0 -147 -138 -245q-137 -97 -347 -97q-120 0 -171 -16q-53 -17 -53 -54q0 -39 50 -54t196 -15zM299 -231q0 -100 76 -152q77 -53 211 -53
q139 0 221 57t82 150q0 91 -72 132q-71 40 -268 46l-168 6q-42 -28 -62 -73q-20 -44 -20 -113z" />
    <glyph glyph-name="Imacron" unicode="&#x12a;" horiz-adv-x="780" 
d="M723 90v-90h-666v90h142v1233h-142v90h666v-90h-141v-1233h141zM694 1645h-618v153h618v-153z" />
    <glyph glyph-name="imacron" unicode="&#x12b;" horiz-adv-x="733" 
d="M696 90v-90h-643v90h135v858h-135v90q179 0 293 8q113 8 152 21l63 -18v-959h135zM662 1341h-619v154h619v-154z" />
    <glyph glyph-name="Iogonek" unicode="&#x12e;" horiz-adv-x="780" 
d="M610 -276q-130 0 -193 33q-67 35 -67 100q0 53 40 89t120 54h-453v90h142v1233h-142v90h666v-90h-141v-1233h141v-90q-50 0 -85 -26q-34 -25 -34 -66q0 -45 34 -69q33 -23 95 -23q31 0 60 8q24 7 53 29l26 -39q-41 -49 -103 -69q-65 -21 -159 -21z" />
    <glyph glyph-name="iogonek" unicode="&#x12f;" horiz-adv-x="733" 
d="M371 1583q101 0 158 -54t57 -140q0 -87 -57 -139q-56 -52 -158 -52q-105 0 -161 52t-56 139q0 89 56 141q58 53 161 53zM586 -276q-132 0 -196 35q-66 36 -66 104q0 53 42 86t132 51h-445v90h135v858h-135v90q179 0 293 8q113 8 152 21l63 -18v-959h135v-90
q-50 0 -85 -27q-33 -26 -33 -69q0 -44 33 -66q34 -22 94 -22q38 0 67 10q31 11 47 27l27 -39q-42 -48 -104 -69q-63 -21 -156 -21z" />
    <glyph glyph-name="dotlessi" unicode="&#x131;" horiz-adv-x="727" 
d="M696 90v-90h-643v90h135v858h-135v90q179 0 293 8q113 8 152 21l63 -18v-959h135z" />
    <glyph glyph-name="IJ" unicode="&#x132;" horiz-adv-x="1763" 
d="M723 90v-90h-666v90h142v1233h-142v90h666v-90h-141v-1233h141zM1604 1323v-881q0 -246 -118 -361q-119 -116 -368 -116q-188 0 -292 82q-105 83 -105 229q0 97 52 156q53 60 140 60q81 0 131 -52t50 -133q0 -82 -45 -130q-44 -47 -131 -58q15 -22 53 -37q36 -14 84 -14
q91 0 128 62q38 64 38 224v969h-211v90h733v-90h-139z" />
    <glyph glyph-name="ij" unicode="&#x133;" horiz-adv-x="1413" 
d="M696 90v-90h-643v90h135v858h-135v90q179 0 293 8q113 8 152 21l63 -18v-959h135zM360 1583q102 0 159 -54q56 -53 56 -140t-56 -139t-159 -52q-104 0 -160 52q-57 52 -57 139q0 89 57 141q58 53 160 53zM1057 1583q103 0 160 -54t57 -140q0 -85 -57 -138
q-58 -53 -160 -53t-159 51q-56 50 -56 140t56 142t159 52zM770 -535q-170 0 -263 70q-91 69 -91 201q0 85 47 135q46 49 133 49q75 0 115 -43q41 -44 41 -117t-38 -114q-39 -42 -114 -52q16 -18 46 -28q29 -10 65 -10q97 0 137 87q41 88 41 314v991h-178v90q207 0 321 6
q113 6 166 23l64 -18v-1039q0 -256 -133 -401q-132 -144 -359 -144z" />
    <glyph glyph-name="uni0136" unicode="&#x136;" horiz-adv-x="1468" 
d="M911 -315q0 -119 -50 -211q-51 -94 -154 -162l-54 53q64 53 91 97q28 45 40 98q-3 0 -8 -1t-8 -2q-5 -1 -14 -1q-74 0 -117 46t-43 111q0 68 43 114t117 46q71 0 114 -52t43 -136zM578 90h108v-90h-629v90h138v1233h-138v90h676v-90h-155v-592l491 592h-203v90h490v-90
h-154l-315 -385l504 -848h77v-90h-628v90h104l-321 576l-45 -56v-520z" />
    <glyph glyph-name="uni0137" unicode="&#x137;" horiz-adv-x="1347" 
d="M868 -315q0 -119 -50 -211q-51 -94 -154 -162l-54 53q64 53 91 97q28 45 40 98q-2 0 -8 -1t-8 -2q-5 -1 -14 -1q-74 0 -117 46t-43 111q0 68 43 114t117 46q71 0 114 -52t43 -136zM547 90h86v-90h-594v90h135v1350h-135v90q192 0 290 7q107 8 154 22l64 -19v-1016
l418 424h-201v90h487v-90h-151l-228 -241l388 -617h90v-90h-611v90h95l-242 391l-45 -45v-346z" />
    <glyph glyph-name="Lacute" unicode="&#x139;" horiz-adv-x="1134" 
d="M1108 0h-1051v90h138v1233h-138v90h731v-90h-210v-1233h139q153 0 227 80t74 250v39h90v-459zM422 1516h-96l135 235q22 37 52 52q32 16 77 16h323q48 0 53 -28q5 -27 -38 -48z" />
    <glyph glyph-name="lacute" unicode="&#x13a;" horiz-adv-x="716" 
d="M682 0h-643v90h135v1350h-135v90q187 0 292 6q104 6 152 23l64 -19v-1450h135v-90zM360 1610h-96l135 235q22 36 53 52q32 16 76 16h324q47 0 52 -28q5 -27 -38 -48z" />
    <glyph glyph-name="uni013B" unicode="&#x13b;" horiz-adv-x="1134" 
d="M803 -315q0 -119 -50 -211q-50 -93 -155 -162l-53 53q64 53 91 97q28 45 40 98q-2 0 -8.5 -1t-8.5 -2q-5 -1 -14 -1q-74 0 -117 46t-43 111q0 68 43 114t117 46q72 0 115 -52t43 -136zM1108 0h-1051v90h138v1233h-138v90h731v-90h-210v-1233h139q153 0 227 80t74 250v39
h90v-459z" />
    <glyph glyph-name="uni013C" unicode="&#x13c;" horiz-adv-x="716" 
d="M559 -315q0 -119 -50 -211q-50 -93 -155 -162l-53 53q64 53 91 97q28 45 40 98q-3 0 -8 -1t-8 -2q-5 -1 -15 -1q-73 0 -116 46t-43 111q0 68 43 114t116 46q72 0 115 -52t43 -136zM682 0h-643v90h135v1350h-135v90q187 0 292 6q104 6 152 23l64 -19v-1450h135v-90z" />
    <glyph glyph-name="Lcaron" unicode="&#x13d;" horiz-adv-x="1271" 
d="M1219 1231q0 -137 -57 -244q-57 -106 -171 -184l-61 61q66 55 100 108q32 50 47 115q-7 -2 -16 -3q-7 -1 -19 -1q-82 0 -130 53q-48 52 -48 126q0 78 47 131t131 53q80 0 128 -60q49 -61 49 -155zM1108 0h-1051v90h138v1233h-138v90h731v-90h-210v-1233h139q153 0 227 80
t74 250v39h90v-459z" />
    <glyph glyph-name="lcaron" unicode="&#x13e;" horiz-adv-x="995" 
d="M985 1337q0 -138 -56 -243q-57 -107 -171 -185l-62 62q70 57 101 107t47 116q-5 -1 -17 -3q-7 -1 -18 -1q-82 0 -130 52t-48 126q0 78 47 131t131 53q81 0 128 -59q48 -60 48 -156zM682 0h-643v90h135v1350h-135v90q187 0 292 6q104 6 152 23l64 -19v-1450h135v-90z" />
    <glyph glyph-name="Lslash" unicode="&#x141;" horiz-adv-x="1144" 
d="M1116 459v-459h-1048v90h137v356l-139 -133v152l139 133v725h-137v90h731v-90h-211v-393l211 196v-149l-211 -197v-690h139q153 0 227 80t74 250v39h88z" />
    <glyph glyph-name="lslash" unicode="&#x142;" horiz-adv-x="772" 
d="M711 90v-90h-643v90h135v434l-183 -186v151l183 185v766h-135v90q186 0 291 6t153 23l63 -19v-510l177 176v-147l-177 -178v-791h136z" />
    <glyph glyph-name="Nacute" unicode="&#x143;" horiz-adv-x="1404" 
d="M305 90h203v-90h-451v90h138v1233h-138v90h447l602 -960v870h-203v90h451v-90h-140v-1329h-231l-678 1059v-963zM659 1516h-96l135 235q22 36 53 52q32 16 76 16h324q47 0 52 -28q5 -27 -38 -48z" />
    <glyph glyph-name="nacute" unicode="&#x144;" horiz-adv-x="1417" 
d="M561 90h107v-90h-615v90h135v858h-135v90q152 0 248 8q95 8 133 21l62 -18v-267q24 139 122 214q100 77 254 77q186 0 278 -99q91 -98 91 -302v-582h135v-90h-614v90h106v602q0 110 -37 163q-38 54 -110 54q-79 0 -119 -65q-41 -67 -41 -191v-563zM655 1208h-96l154 254
q23 38 52 54t79 16h317q46 0 51 -28q5 -27 -38 -48z" />
    <glyph glyph-name="uni0145" unicode="&#x145;" horiz-adv-x="1404" 
d="M901 -315q0 -119 -50 -211q-50 -93 -155 -162l-53 53q64 53 91 97q28 45 40 98q-3 0 -8 -1t-8 -2q-5 -1 -15 -1q-73 0 -116 46t-43 111q0 68 43 114t116 46q72 0 115 -52t43 -136zM305 90h203v-90h-451v90h138v1233h-138v90h447l602 -960v870h-203v90h451v-90h-140v-1329
h-231l-678 1059v-963z" />
    <glyph glyph-name="uni0146" unicode="&#x146;" horiz-adv-x="1417" 
d="M881 -315q0 -117 -51 -211t-154 -162l-53 53q64 53 91 97q28 45 40 98q-3 0 -9 -1t-8 -2q-5 -1 -14 -1q-74 0 -117 46t-43 111q0 68 43 114t117 46q72 0 115 -52t43 -136zM561 90h107v-90h-615v90h135v858h-135v90q152 0 248 8q95 8 133 21l62 -18v-267q24 139 122 214
q100 77 254 77q186 0 278 -99q91 -98 91 -302v-582h135v-90h-614v90h106v602q0 110 -37 163q-38 54 -110 54q-79 0 -119 -65q-41 -67 -41 -191v-563z" />
    <glyph glyph-name="Ncaron" unicode="&#x147;" horiz-adv-x="1404" 
d="M305 90h203v-90h-451v90h138v1233h-138v90h447l602 -960v870h-203v90h451v-90h-140v-1329h-231l-678 1059v-963zM1069 1915l-291 -375h-125l-309 375h84l293 -146l274 146h74z" />
    <glyph glyph-name="ncaron" unicode="&#x148;" horiz-adv-x="1417" 
d="M561 90h107v-90h-615v90h135v858h-135v90q152 0 248 8q95 8 133 21l62 -18v-267q24 139 122 214q100 77 254 77q186 0 278 -99q91 -98 91 -302v-582h135v-90h-614v90h106v602q0 110 -37 163q-38 54 -110 54q-79 0 -119 -65q-41 -67 -41 -191v-563zM1038 1565l-290 -375
h-125l-310 375h84l293 -146l275 146h73z" />
    <glyph glyph-name="Omacron" unicode="&#x14c;" horiz-adv-x="1411" 
d="M707 1448q286 0 461 -210q175 -209 175 -531q0 -323 -175 -532q-175 -210 -461 -210q-287 0 -463 210q-176 211 -176 532q0 320 176 531q176 210 463 210zM707 1356q-130 0 -183 -151t-53 -498q0 -348 53 -499t183 -151q129 0 182 151t53 499q0 347 -53 498t-182 151z
M987 1645h-618v153h618v-153z" />
    <glyph glyph-name="omacron" unicode="&#x14d;" horiz-adv-x="1243" 
d="M621 1073q237 0 399 -159t162 -400q0 -237 -162 -393t-399 -156q-240 0 -401 158t-161 401q0 240 161 395q160 154 401 154zM621 977q-95 0 -137 -105t-42 -348q0 -250 42 -356q42 -107 137 -107q92 0 136 110q44 111 44 343q0 239 -44 351t-136 112zM915 1341h-618v154
h618v-154z" />
    <glyph glyph-name="Ohungarumlaut" unicode="&#x150;" horiz-adv-x="1411" 
d="M707 1448q286 0 461 -210q175 -209 175 -531q0 -323 -175 -532q-175 -210 -461 -210q-287 0 -463 210q-176 211 -176 532q0 320 176 531q176 210 463 210zM707 1356q-130 0 -183 -151t-53 -498q0 -348 53 -499t183 -151q129 0 182 151t53 499q0 347 -53 498t-182 151z
M616 1516h-96l64 249q6 26 30 40q25 14 70 14h154q53 0 59 -19q6 -18 -35 -51zM840 1516h-109l252 249q31 29 59 41q31 13 62 13h250q56 0 54 -23q-2 -24 -50 -47z" />
    <glyph glyph-name="ohungarumlaut" unicode="&#x151;" horiz-adv-x="1236" 
d="M621 1073q237 0 399 -159t162 -400q0 -237 -162 -393t-399 -156q-240 0 -401 158t-161 401q0 240 161 395q160 154 401 154zM621 977q-95 0 -137 -105t-42 -348q0 -250 42 -356q42 -107 137 -107q92 0 136 110q44 111 44 343q0 239 -44 351t-136 112zM526 1208h-96
l68 271q6 26 30 40q23 13 70 13h162q53 0 59 -16t-35 -54zM750 1208h-111l262 271q30 28 60 41q28 12 61 12h252q56 0 54 -23q-2 -24 -50 -47z" />
    <glyph glyph-name="OE" unicode="&#x152;" horiz-adv-x="1898" 
d="M707 1356q-130 0 -183 -151t-53 -498q0 -348 53 -499t183 -151q129 0 182 151t53 499q0 347 -53 498t-182 151zM1839 459v-459h-921q-56 -20 -102 -27q-56 -8 -109 -8q-287 0 -463 210q-176 211 -176 532q0 320 176 531q176 210 463 210q53 0 109 -8q46 -7 102 -27h884
v-450h-90v51q0 156 -84 232q-85 77 -258 77h-291q117 -91 184 -234t78 -323h168v143h99v-399h-99v166h-166q-5 -186 -73 -339q-69 -155 -191 -247h369q153 0 227 80t74 250v39h90z" />
    <glyph glyph-name="oe" unicode="&#x153;" horiz-adv-x="1929" 
d="M1401 -33q-129 0 -222 45t-163 138q-74 -94 -166 -138q-94 -45 -215 -45q-245 0 -411 158q-165 157 -165 401q0 240 165 395q164 154 411 154q119 0 215 -44q94 -43 160 -132q62 89 149 132q90 44 209 44q225 0 364 -137q138 -136 138 -354q0 -26 -1 -38t-3 -34h-656
q0 -222 65 -328q64 -104 202 -104q112 0 180 62q70 64 100 192l92 -10q-29 -169 -148 -263t-300 -94zM1366 983q-78 0 -114 -86q-35 -84 -40 -295h295q0 224 -31 302q-31 79 -110 79zM635 971q-100 0 -147 -103q-46 -101 -46 -342q0 -246 46 -350t147 -104q100 0 146 104
t46 338q0 242 -46 349q-47 108 -146 108z" />
    <glyph glyph-name="Racute" unicode="&#x154;" horiz-adv-x="1445" 
d="M1176 -35q-133 0 -208 69q-76 70 -128 253q-26 98 -28 107q-17 69 -32 118q-28 78 -63 108q-37 31 -96 31h-43v-561h147v-90h-668v90h138v1233h-138v90h566q305 0 461 -93q157 -94 157 -273q0 -144 -116 -239t-320 -116q102 -30 168 -57t108 -53q55 -38 84 -84
q30 -49 58 -166l16 -66q3 -11 6 -23.5t5 -20t3 -11.5q17 -66 28 -82q12 -18 30 -18q28 0 40 48q11 44 11 152h88q0 -192 -64 -270q-63 -76 -210 -76zM864 1044q0 147 -58 212q-59 67 -183 67h-45v-584h38q126 0 187 75q61 74 61 230zM664 1516h-97l135 235q22 36 53 52
q32 16 76 16h324q47 0 52 -28q5 -27 -38 -48z" />
    <glyph glyph-name="racute" unicode="&#x155;" horiz-adv-x="1118" 
d="M561 90h232v-90h-740v90h135v858h-135v90q154 0 250 8q95 8 133 21l62 -18v-318q24 160 112 251t224 91q120 0 194 -66t74 -178q0 -105 -50 -166t-139 -61q-93 0 -145 52q-53 53 -53 145q0 55 24 97t70 65q-6 2 -9 2h-18q-107 0 -164 -128q-57 -127 -57 -374v-371z
M561 1208h-96l153 254q22 37 53 54q29 16 79 16h317q46 0 51 -28q4 -27 -39 -48z" />
    <glyph glyph-name="uni0156" unicode="&#x156;" horiz-adv-x="1445" 
d="M907 -315q0 -119 -50 -211q-50 -93 -155 -162l-53 53q64 53 91 97q28 45 40 98q-3 0 -8.5 -1t-7.5 -2q-5 -1 -14 -1q-74 0 -117 46t-43 111q0 68 43 114t117 46q71 0 114 -52t43 -136zM1176 -35q-133 0 -208 69q-76 70 -128 253q-26 98 -28 107q-17 69 -32 118
q-28 78 -63 108q-37 31 -96 31h-43v-561h147v-90h-668v90h138v1233h-138v90h566q305 0 461 -93q157 -94 157 -273q0 -144 -116 -239t-320 -116q102 -30 168 -57t108 -53q55 -38 84 -84q30 -49 58 -166l16 -66q3 -11 6 -23.5t5 -20t3 -11.5q17 -66 28 -82q12 -18 30 -18
q28 0 40 48q11 44 11 152h88q0 -192 -64 -270q-63 -76 -210 -76zM864 1044q0 147 -58 212q-59 67 -183 67h-45v-584h38q126 0 187 75q61 74 61 230z" />
    <glyph glyph-name="uni0157" unicode="&#x157;" horiz-adv-x="1118" 
d="M557 -317q0 -119 -50 -211q-50 -93 -155 -162l-53 53q64 53 91 97q28 45 40 98q-3 0 -8.5 -1t-7.5 -2q-5 -1 -15 -1q-73 0 -116 46t-43 111q0 68 43 114t116 46q72 0 115 -52t43 -136zM561 90h232v-90h-740v90h135v858h-135v90q154 0 250 8q95 8 133 21l62 -18v-318
q24 160 112 251t224 91q120 0 194 -66t74 -178q0 -105 -50 -166t-139 -61q-93 0 -145 52q-53 53 -53 145q0 55 24 97t70 65q-6 2 -9 2h-18q-107 0 -164 -128q-57 -127 -57 -374v-371z" />
    <glyph glyph-name="Rcaron" unicode="&#x158;" horiz-adv-x="1445" 
d="M1176 -35q-133 0 -208 69q-76 70 -128 253q-26 98 -28 107q-17 69 -32 118q-28 78 -63 108q-37 31 -96 31h-43v-561h147v-90h-668v90h138v1233h-138v90h566q305 0 461 -93q157 -94 157 -273q0 -144 -116 -239t-320 -116q102 -30 168 -57t108 -53q55 -38 84 -84
q30 -49 58 -166l16 -66q3 -11 6 -23.5t5 -20t3 -11.5q17 -66 28 -82q12 -18 30 -18q28 0 40 48q11 44 11 152h88q0 -192 -64 -270q-63 -76 -210 -76zM864 1044q0 147 -58 212q-59 67 -183 67h-45v-584h38q126 0 187 75q61 74 61 230zM1026 1915l-291 -375h-125l-309 375h84
l293 -146l274 146h74z" />
    <glyph glyph-name="rcaron" unicode="&#x159;" horiz-adv-x="1118" 
d="M561 90h232v-90h-740v90h135v858h-135v90q154 0 250 8q95 8 133 21l62 -18v-318q24 160 112 251t224 91q120 0 194 -66t74 -178q0 -105 -50 -166t-139 -61q-93 0 -145 52q-53 53 -53 145q0 55 24 97t70 65q-6 2 -9 2h-18q-107 0 -164 -128q-57 -127 -57 -374v-371z
M870 1565l-290 -375h-125l-310 375h84l293 -146l275 146h73z" />
    <glyph glyph-name="Sacute" unicode="&#x15a;" horiz-adv-x="1089" 
d="M520 1516h-96l135 235q22 37 52 52q32 16 77 16h324q47 0 52 -28q5 -27 -38 -48zM1032 412q0 -207 -128 -327t-357 -120q-103 0 -192 27q-88 27 -146 74l-82 -86h-59v473h90q0 -173 106 -278t277 -105q129 0 197 52q69 52 69 150q0 67 -30 110q-32 46 -97 75
q-34 18 -131 50l-96 32q-206 69 -300 190q-96 123 -96 299q0 182 129 301q130 119 336 119q88 0 171 -25q78 -24 128 -69l80 80h57v-471h-88q0 171 -94 275q-95 105 -244 105q-118 0 -183 -52q-66 -53 -66 -144q0 -65 25 -105q26 -41 87 -71q17 -10 72 -32q66 -26 139 -52
q248 -90 337 -199t89 -276z" />
    <glyph glyph-name="sacute" unicode="&#x15b;" horiz-adv-x="942" 
d="M123 -35h-64v385h91q0 -123 81 -205q83 -84 215 -84q86 0 133 39q46 39 46 111q0 60 -43 94q-45 36 -193 70q-155 34 -238 125t-83 229q0 161 100 252q101 92 276 92q80 0 140 -18q56 -17 108 -58l70 76h61v-364h-90q0 134 -65 203q-66 71 -189 71q-78 0 -120 -33
t-42 -92q0 -58 39 -93q39 -34 170 -69q186 -50 271 -139q86 -91 86 -227q0 -176 -102 -270q-103 -95 -289 -95q-95 0 -167 24q-75 25 -124 68zM492 1208h-97l154 254q23 38 52 54t79 16h317q47 0 52 -28q5 -27 -39 -48z" />
    <glyph glyph-name="Scaron" unicode="&#x160;" horiz-adv-x="1089" 
d="M1032 412q0 -207 -128 -327t-357 -120q-103 0 -192 27q-88 27 -146 74l-82 -86h-59v473h90q0 -173 106 -278t277 -105q129 0 197 52q69 52 69 150q0 67 -30 110q-32 46 -97 75q-34 18 -131 50l-96 32q-206 69 -300 190q-96 123 -96 299q0 182 129 301q130 119 336 119
q88 0 171 -25q78 -24 128 -69l80 80h57v-471h-88q0 171 -94 275q-95 105 -244 105q-118 0 -183 -52q-66 -53 -66 -144q0 -65 25 -105q26 -41 87 -71q17 -10 72 -32q66 -26 139 -52q248 -90 337 -199t89 -276zM895 1915l-291 -375h-125l-309 375h84l293 -146l274 146h74z" />
    <glyph glyph-name="scaron" unicode="&#x161;" horiz-adv-x="942" 
d="M123 -35h-64v385h91q0 -123 81 -205q83 -84 215 -84q86 0 133 39q46 39 46 111q0 60 -43 94q-45 36 -193 70q-155 34 -238 125t-83 229q0 161 100 252q101 92 276 92q80 0 140 -18q56 -17 108 -58l70 76h61v-364h-90q0 134 -65 203q-66 71 -189 71q-78 0 -120 -33
t-42 -92q0 -58 39 -93q39 -34 170 -69q186 -50 271 -139q86 -91 86 -227q0 -176 -102 -270q-103 -95 -289 -95q-95 0 -167 24q-75 25 -124 68zM836 1565l-291 -375h-125l-309 375h84l292 -146l275 146h74z" />
    <glyph glyph-name="Tcaron" unicode="&#x164;" horiz-adv-x="1204" 
d="M948 0h-692v90h154v1233h-35q-135 0 -197 -74q-61 -73 -61 -235v-51h-90v450h1151v-450h-91v51q0 163 -62 235q-63 74 -198 74h-34v-1233h155v-90zM956 1915l-290 -375h-125l-310 375h84l293 -146l275 146h73z" />
    <glyph glyph-name="tcaron" unicode="&#x165;" horiz-adv-x="991" 
d="M1028 1599q0 -144 -61 -254q-62 -111 -185 -194l-65 63q68 54 108 113q37 55 52 121q-7 -1 -20 -3q-8 -1 -19 -1q-91 0 -142 55t-51 133q0 82 51 137q51 56 142 56q88 0 139 -63t51 -163zM555 -35q-181 0 -276 86t-95 254v643h-184v70q196 0 309 101q114 102 135 286h84
v-367h322v-90h-293v-702q0 -88 25 -129q24 -39 84 -39q62 0 87 64q25 63 25 218h88q0 -224 -72 -309q-72 -86 -239 -86z" />
    <glyph glyph-name="Umacron" unicode="&#x16a;" horiz-adv-x="1359" 
d="M1178 1323v-827q0 -288 -107 -410q-106 -121 -356 -121q-275 0 -404 131q-129 130 -129 412v815h-137v90h694v-90h-174v-895q0 -186 59 -272t183 -86q131 0 195 93q65 94 65 292v868h-174v90h422v-90h-137zM1071 1645h-618v153h618v-153z" />
    <glyph glyph-name="umacron" unicode="&#x16b;" horiz-adv-x="1363" 
d="M950 -29l-63 19v262q-24 -139 -119 -213t-252 -74q-185 0 -273 98q-89 100 -89 304v581h-142v90q182 0 297 8t154 21l63 -18v-703q0 -111 35 -164t109 -53q73 0 112 66t39 190v563h-180v90q193 0 323 8q126 8 166 21l64 -18v-959h135v-90q-138 0 -226 -7q-99 -8 -153 -22
zM1014 1341h-619v154h619v-154z" />
    <glyph glyph-name="Uring" unicode="&#x16e;" horiz-adv-x="1359" 
d="M1178 1323v-827q0 -288 -107 -410q-106 -121 -356 -121q-275 0 -404 131q-129 130 -129 412v815h-137v90h694v-90h-174v-895q0 -186 59 -272t183 -86q131 0 195 93q65 94 65 292v868h-174v90h422v-90h-137zM803 1901q93 0 149 -57q56 -58 56 -136q0 -76 -56 -134
q-55 -56 -149 -56q-97 0 -152 55t-55 135q0 84 55 138q57 55 152 55zM803 1790q-40 0 -64 -22q-22 -21 -22 -60q0 -37 22 -59q23 -23 64 -23t63 24q23 25 23 58q0 36 -23 59t-63 23z" />
    <glyph glyph-name="uring" unicode="&#x16f;" horiz-adv-x="1363" 
d="M950 -29l-63 19v262q-24 -139 -119 -213t-252 -74q-185 0 -273 98q-89 100 -89 304v581h-142v90q182 0 297 8t154 21l63 -18v-703q0 -111 35 -164t109 -53q73 0 112 66t39 190v563h-180v90q193 0 323 8q126 8 166 21l64 -18v-959h135v-90q-138 0 -226 -7q-99 -8 -153 -22
zM664 1573q94 0 149 -56t55 -137q0 -78 -55 -134t-149 -56q-97 0 -152 55t-55 135q0 85 55 139q56 54 152 54zM664 1462q-42 0 -64 -21t-22 -61q0 -37 22 -59q23 -23 64 -23q40 0 63 24q23 25 23 58q0 37 -23 60q-22 22 -63 22z" />
    <glyph glyph-name="Uhungarumlaut" unicode="&#x170;" horiz-adv-x="1359" 
d="M1178 1323v-827q0 -288 -107 -410q-106 -121 -356 -121q-275 0 -404 131q-129 130 -129 412v815h-137v90h694v-90h-174v-895q0 -186 59 -272t183 -86q131 0 195 93q65 94 65 292v868h-174v90h422v-90h-137zM700 1516h-96l64 249q6 26 30 40q25 14 70 14h154q53 0 59 -19
q6 -18 -35 -51zM924 1516h-109l252 249q31 29 59 41q31 13 62 13h250q56 0 54 -23q-2 -24 -50 -47z" />
    <glyph glyph-name="uhungarumlaut" unicode="&#x171;" horiz-adv-x="1363" 
d="M950 -29l-63 19v262q-24 -139 -119 -213t-252 -74q-185 0 -273 98q-89 100 -89 304v581h-142v90q182 0 297 8t154 21l63 -18v-703q0 -111 35 -164t109 -53q73 0 112 66t39 190v563h-180v90q193 0 323 8q126 8 166 21l64 -18v-959h135v-90q-138 0 -226 -7q-99 -8 -153 -22
zM616 1208h-96l68 271q6 26 30 40q23 13 70 13h162q53 0 59 -16t-35 -54zM840 1208h-111l262 271q30 28 60 41q29 12 61 12h252q56 0 54 -23q-2 -24 -50 -47z" />
    <glyph glyph-name="Uogonek" unicode="&#x172;" horiz-adv-x="1359" 
d="M768 -297q-128 0 -195 37t-67 106q0 43 29 74q30 31 86 49q-225 21 -332 152t-107 387v815h-137v90h694v-90h-174v-895q0 -186 59 -272t183 -86q131 0 195 93q65 94 65 292v868h-174v90h422v-90h-137v-827q0 -249 -77 -371q-76 -121 -253 -150q-39 -5 -62 -29
q-24 -26 -24 -61q0 -42 34 -66t93 -24q35 0 65 9q32 10 50 26l26 -39q-40 -46 -105 -67t-157 -21z" />
    <glyph glyph-name="uogonek" unicode="&#x173;" horiz-adv-x="1363" 
d="M1206 -276q-124 0 -187 30t-63 92q0 56 48 95q45 36 141 53q-58 -1 -113 -8q-34 -4 -82 -15l-63 19v262q-24 -139 -119 -213t-252 -74q-185 0 -273 98q-89 100 -89 304v581h-142v90q182 0 297 8t154 21l63 -18v-703q0 -111 35 -164t109 -53q73 0 112 66t39 190v563h-180
v90q193 0 323 8q126 8 166 21l64 -18v-959h135v-90q-50 0 -85 -29q-34 -28 -34 -75q0 -39 29 -60q27 -20 82 -20q41 0 75 10t56 27l27 -41q-35 -40 -108 -64q-72 -24 -165 -24z" />
    <glyph glyph-name="Ydieresis" unicode="&#x178;" horiz-adv-x="1341" 
d="M1038 0h-694v90h156v533l-363 700h-127v90h742v-90h-195l268 -526l269 526h-170v90h407v-90h-123l-325 -631v-602h155v-90zM700 1702q0 -81 -49 -131q-49 -51 -135 -51q-88 0 -136 50t-48 132q0 86 48 136t136 50t136 -52t48 -134zM1171 1702q0 -82 -48 -132t-136 -50
q-89 0 -135 49q-47 50 -47 133q0 86 47 136t135 50t136 -51t48 -135z" />
    <glyph glyph-name="Zacute" unicode="&#x179;" horiz-adv-x="1114" 
d="M1067 0h-1020v70l612 1253h-194q-160 0 -234 -74q-73 -73 -73 -235v-51h-90v450h981v-70l-617 -1253h258q145 0 216 80t71 250v39h90v-459zM549 1516h-96l135 235q22 37 52 52q32 16 77 16h323q48 0 53 -28q5 -27 -38 -48z" />
    <glyph glyph-name="zacute" unicode="&#x17a;" horiz-adv-x="964" 
d="M922 0h-879v70l510 878h-166q-123 0 -172 -46t-49 -193v-39h-90v368h837v-69l-510 -879h207q121 0 171 50t50 204v39h91v-383zM475 1210h-96l153 254q22 37 53 54q29 16 79 16h317q46 0 51 -28q4 -27 -39 -48z" />
    <glyph glyph-name="Zdotaccent" unicode="&#x17b;" horiz-adv-x="1114" 
d="M1067 0h-1020v70l612 1253h-194q-160 0 -234 -74q-73 -73 -73 -235v-51h-90v450h981v-70l-617 -1253h258q145 0 216 80t71 250v39h90v-459zM578 1894q101 0 158 -54t57 -140t-57 -138q-58 -53 -158 -53q-103 0 -161 53q-57 52 -57 138q0 88 57 141q58 53 161 53z" />
    <glyph glyph-name="zdotaccent" unicode="&#x17c;" horiz-adv-x="964" 
d="M922 0h-879v70l510 878h-166q-123 0 -172 -46t-49 -193v-39h-90v368h837v-69l-510 -879h207q121 0 171 50t50 204v39h91v-383zM504 1583q102 0 159 -54q56 -53 56 -140t-56 -139t-159 -52q-105 0 -161 52t-56 139q0 89 56 141q58 53 161 53z" />
    <glyph glyph-name="Zcaron" unicode="&#x17d;" horiz-adv-x="1114" 
d="M1067 0h-1020v70l612 1253h-194q-160 0 -234 -74q-73 -73 -73 -235v-51h-90v450h981v-70l-617 -1253h258q145 0 216 80t71 250v39h90v-459zM928 1915l-291 -375h-125l-309 375h84l293 -146l274 146h74z" />
    <glyph glyph-name="zcaron" unicode="&#x17e;" horiz-adv-x="964" 
d="M922 0h-879v70l510 878h-166q-123 0 -172 -46t-49 -193v-39h-90v368h837v-69l-510 -879h207q121 0 171 50t50 204v39h91v-383zM866 1565l-291 -375h-124l-310 375h84l293 -146l275 146h73z" />
    <glyph glyph-name="uni0192" unicode="&#x192;" horiz-adv-x="1099" 
d="M125 -532q-164 0 -254 65q-92 66 -92 182q0 85 49 135q50 52 129 52q72 0 116 -44t44 -114q0 -65 -35 -108q-34 -41 -100 -56q16 -12 42 -18t60 -6q94 0 146 73q52 72 73 238l135 1083h-231v88h242q33 260 171 393q139 134 367 134q178 0 283 -69q104 -68 104 -191
q0 -80 -46 -126t-126 -46q-75 0 -119 43q-45 44 -45 114q0 64 36 106q35 41 104 56q-18 12 -44 18q-30 7 -55 7q-105 0 -165 -77q-60 -76 -78 -233l-17 -129h285v-88h-295l-121 -960q-33 -259 -176 -390q-144 -132 -387 -132z" />
    <glyph glyph-name="circumflex" unicode="&#x2c6;" horiz-adv-x="909" 
d="M461 1335l-285 -145h-84l305 375h125l295 -375h-74z" />
    <glyph glyph-name="caron" unicode="&#x2c7;" horiz-adv-x="909" 
d="M817 1565l-291 -375h-125l-309 375h84l293 -146l274 146h74z" />
    <glyph glyph-name="breve" unicode="&#x2d8;" horiz-adv-x="897" 
d="M705 1567h69q0 -182 -81 -281q-80 -98 -234 -98q-159 0 -247 102q-89 103 -89 277h70q0 -99 69 -156t197 -57q120 0 183 54t63 159z" />
    <glyph glyph-name="dotaccent" unicode="&#x2d9;" horiz-adv-x="614" 
d="M276 1583q102 0 159 -54t57 -140q0 -87 -57 -139q-56 -52 -159 -52q-104 0 -160 52q-57 52 -57 139q0 89 57 141q58 53 160 53z" />
    <glyph glyph-name="ring" unicode="&#x2da;" horiz-adv-x="593" 
d="M299 1573q95 0 150 -56t55 -137q0 -78 -55 -134t-150 -56q-97 0 -152 55t-55 135q0 85 55 139q56 54 152 54zM299 1462q-41 0 -63 -21q-23 -21 -23 -61q0 -36 23 -59t63 -23q41 0 63 24q23 25 23 58q0 37 -23 60q-22 22 -63 22z" />
    <glyph glyph-name="ogonek" unicode="&#x2db;" horiz-adv-x="1003" 
d="M760 -147l26 -39q-43 -49 -103 -69q-63 -21 -157 -21q-121 0 -191 40q-71 41 -71 113q0 82 89 120q90 38 284 38v-35q-49 0 -84 -26t-35 -66q0 -44 35 -68t94 -24q37 0 66 10q31 11 47 27z" />
    <glyph glyph-name="tilde" unicode="&#x2dc;" horiz-adv-x="931" 
d="M748 1567h75q0 -183 -46 -257q-46 -75 -154 -75q-53 0 -100 19q-45 18 -124 77q-47 35 -72 48q-24 12 -44 12q-47 0 -68 -33q-20 -31 -20 -109h-74q0 179 49 256q50 78 156 78q52 0 99 -19q46 -19 126 -77q43 -32 72 -48q23 -12 43 -12q44 0 63 31q19 32 19 109z" />
    <glyph glyph-name="hungarumlaut" unicode="&#x2dd;" horiz-adv-x="1024" 
d="M156 1208h-97l68 271q6 26 31 40q23 13 69 13h162q54 0 60 -16t-35 -54zM379 1208h-111l262 271q30 28 60 41q29 12 61 12h252q56 0 54 -23q-2 -24 -50 -47z" />
    <glyph glyph-name="pi" unicode="&#x3c0;" horiz-adv-x="1619" 
d="M1251 -35q-182 0 -274 86t-92 254v639h-250v-579q0 -202 -71 -302q-70 -98 -216 -98q-125 0 -202 71q-76 70 -76 189q0 83 47 133t129 50q76 0 118 -42t42 -118q0 -66 -35 -107q-34 -40 -105 -57q6 -10 31 -18q29 -9 51 -9q92 0 136 71t44 216v600h-28q-126 0 -203 -34
q-80 -35 -150 -113l-38 26q72 122 171 169q98 46 259 46h972v-94h-254v-698q0 -92 23 -130t80 -38q59 0 83 62q23 60 23 220h88q0 -227 -69 -311t-234 -84z" />
    <glyph glyph-name="uni0401" unicode="&#x401;" horiz-adv-x="1193" 
d="M1135 0h-1078v90h138v1233h-138v90h1041v-450h-90v51q0 156 -84 232q-85 77 -258 77h-88v-557h227v143h100v-399h-100v166h-227v-586h165q154 0 228 80q73 79 73 250v39h91v-459zM569 1702q0 -81 -49 -131q-50 -51 -135 -51q-88 0 -136 50t-48 132q0 86 48 136t136 50
t136 -52t48 -134zM1040 1702q0 -82 -48 -132t-136 -50q-89 0 -135 49q-47 50 -47 133q0 86 47 136t135 50t136 -51t48 -135z" />
    <glyph glyph-name="uni0402" unicode="&#x402;" horiz-adv-x="1579" 
d="M793 1323v-549q51 59 132 89q79 30 179 30q196 0 309 -116t113 -324q0 -215 -110 -340t-277 -125q-69 0 -115 12t-76 37l23 55q16 -4 31 -7q5 -1 14 -1q69 0 99 77t30 269q0 151 -44 225t-134 74q-84 0 -129 -52q-45 -53 -45 -151v-436h94v-90h-631v90h154v1233h-43
q-140 0 -195 -59t-55 -207v-33h-90v389h1151v-389h-91v33q0 148 -55 207t-196 59h-43z" />
    <glyph glyph-name="uni0403" unicode="&#x403;" horiz-adv-x="1120" 
d="M809 0h-752v90h138v1233h-138v90h1022v-450h-90v51q0 156 -84 233q-83 76 -256 76h-71v-1233h231v-90zM535 1516h-97l135 235q22 36 53 52q32 16 76 16h324q47 0 52 -28q5 -27 -38 -48z" />
    <glyph glyph-name="uni0404" unicode="&#x404;" horiz-adv-x="1232" 
d="M1020 459h90v-479h-59l-82 81q-48 -47 -119 -72q-68 -24 -160 -24q-274 0 -448 214q-174 215 -174 528t174 527t444 214q92 0 160 -21q69 -21 112 -63l82 70h60v-471h-90q0 169 -71 275q-71 105 -191 105q-146 0 -210 -135q-66 -137 -67 -446h440v-90h-440
q1 -315 67 -460q64 -142 210 -142q128 0 200 105t72 284z" />
    <glyph glyph-name="uni0405" unicode="&#x405;" horiz-adv-x="1089" 
d="M1032 412q0 -207 -128 -327t-357 -120q-103 0 -192 27q-88 27 -146 74l-82 -86h-59v473h90q0 -173 106 -278t277 -105q129 0 197 52q69 52 69 150q0 67 -30 110q-32 46 -97 75q-34 18 -131 50l-96 32q-206 69 -300 190q-96 123 -96 299q0 182 129 301q130 119 336 119
q88 0 171 -25q78 -24 128 -69l80 80h57v-471h-88q0 171 -94 275q-95 105 -244 105q-118 0 -183 -52q-66 -53 -66 -144q0 -65 25 -105q26 -41 87 -71q17 -10 72 -32q66 -26 139 -52q248 -90 337 -199t89 -276z" />
    <glyph glyph-name="uni0406" unicode="&#x406;" horiz-adv-x="780" 
d="M723 90v-90h-666v90h142v1233h-142v90h666v-90h-141v-1233h141z" />
    <glyph glyph-name="uni0407" unicode="&#x407;" horiz-adv-x="780" 
d="M723 90v-90h-666v90h142v1233h-142v90h666v-90h-141v-1233h141zM340 1702q0 -81 -49 -131q-49 -51 -135 -51q-89 0 -137 50t-48 132q0 86 48 136t137 50q88 0 136 -52t48 -134zM811 1702q0 -82 -48 -132t-136 -50q-89 0 -135 49q-48 51 -48 133q0 85 48 136q47 50 135 50
t136 -51t48 -135z" />
    <glyph glyph-name="uni0408" unicode="&#x408;" horiz-adv-x="1052" 
d="M893 1323v-881q0 -246 -118 -361q-119 -116 -367 -116q-188 0 -292 82q-106 83 -106 229q0 97 52 156q52 60 141 60q81 0 131 -52q49 -50 49 -133q0 -82 -45 -130q-44 -47 -131 -58q15 -22 53 -37q36 -14 84 -14q91 0 128 62q38 64 38 224v969h-211v90h733v-90h-139z" />
    <glyph glyph-name="uni0409" unicode="&#x409;" horiz-adv-x="2004" 
d="M920 1323h-297q0 -291 -3 -465q-2 -140 -12 -297q-21 -339 -91 -467q-71 -129 -232 -129q-110 0 -183 70q-71 68 -71 184q0 87 50 145q49 56 134 56t131 -46q47 -47 47 -126q0 -72 -38 -119t-107 -59q14 -6 22 -7q16 -2 23 -2q100 0 147 132t62 456q7 129 8 276
q2 212 2 398h-180v90h1106v-90h-140v-492h91q265 0 420 -114t155 -311t-139 -302q-138 -104 -402 -104h-645v90h142v1233zM1298 741v-651h54q124 0 181 75q56 74 56 243q0 162 -60 248q-60 85 -177 85h-54z" />
    <glyph glyph-name="uni040A" unicode="&#x40a;" horiz-adv-x="2041" 
d="M1335 727v-637h54q123 0 180 74t57 237q0 161 -60 243q-60 83 -177 83h-54zM688 0h-631v90h138v1233h-138v90h631v-90h-110v-557h374v557h-108v90h631v-90h-140v-506h90q267 0 421 -112q155 -113 155 -306t-140 -296t-401 -103h-616v90h108v586h-374v-586h110v-90z" />
    <glyph glyph-name="uni040B" unicode="&#x40b;" horiz-adv-x="1640" 
d="M793 1323v-559q51 57 131 87t180 30q187 0 282 -101t95 -301v-389h135v-90h-623v90h107v412q0 112 -35 164q-35 51 -113 51t-119 -50q-40 -49 -40 -153v-424h108v-90h-645v90h154v1233h-45q-141 0 -194 -59q-54 -60 -54 -207v-33h-90v389h1151v-389h-91v33q0 148 -55 207
t-198 59h-41z" />
    <glyph glyph-name="uni040C" unicode="&#x40c;" horiz-adv-x="1429" 
d="M1169 -35q-139 0 -221 66q-82 65 -125 215q-5 18 -27 124q-18 87 -30 126q-23 91 -63 137q-37 43 -91 43h-37v-586h117v-90h-635v90h138v1233h-138v90h635v-90h-117v-557h78q53 0 86 49t66 219q23 122 40 177q18 56 42 100q38 69 95 103q58 34 138 34q100 0 162 -57
q61 -57 61 -154t-49 -153t-131 -56q-80 0 -129 43t-49 111q0 53 17 86q18 35 53 53q-47 -5 -77 -55q-30 -51 -60 -213q-34 -179 -71 -246q-36 -66 -91 -84q138 -40 210 -74q67 -32 111 -76q39 -44 69 -109q27 -59 66 -216q27 -106 40 -127q14 -23 32 -23q27 0 39 54
q12 52 12 165h88q0 -200 -59 -275q-60 -77 -195 -77zM729 1516h-96l135 235q22 37 52 52q32 16 77 16h324q47 0 52 -28q5 -27 -38 -48z" />
    <glyph glyph-name="uni040E" unicode="&#x40e;" horiz-adv-x="1232" 
d="M358 -35q-110 0 -184 74t-74 201q0 88 52 145q51 55 137 55q81 0 127 -49q47 -50 47 -129q0 -76 -43 -122t-125 -52q10 -13 35 -21q24 -8 55 -8q70 0 117 44q48 45 100 167l-493 1053h-111v90h684v-90h-176l280 -594l226 594h-166v90h395v-90h-119l-305 -788
q-152 -387 -230 -477q-81 -93 -229 -93zM979 1976q67 0 106 -42t39 -109q0 -142 -110 -239t-283 -97q-172 0 -282 97q-111 98 -111 239q0 67 39 109t106 42q65 0 100 -32t35 -89q0 -71 -51 -112q-52 -41 -135 -25q30 -30 113 -50q80 -19 186 -19q109 0 189 19q81 19 112 50
q-86 -16 -138 24t-52 113q0 54 37 88q36 33 100 33z" />
    <glyph glyph-name="uni040F" unicode="&#x40f;" horiz-adv-x="1507" 
d="M920 -299q0 -68 -46 -112t-120 -44q-75 0 -121 44q-45 43 -45 112q0 32 10 61q12 35 43 91q33 61 43 86q12 29 18 61h-645v90h138v1233h-138v90h625v-90h-104v-1233h352v1233h-105v90h625v-90h-137v-1233h137v-90h-641q6 -32 18 -61q13 -32 41 -84q32 -60 42 -93t10 -61z
" />
    <glyph glyph-name="uni0410" unicode="&#x410;" horiz-adv-x="1351" 
d="M365 520h331l-168 510zM389 0h-391v90h121l444 1344h217l457 -1344h117v-90h-703v90h185l-111 340h-389l-109 -340h162v-90z" />
    <glyph glyph-name="uni0411" unicode="&#x411;" horiz-adv-x="1296" 
d="M647 0h-590v90h138v1233h-138v90h1076v-444h-91v45q0 156 -84 232q-85 77 -258 77h-122v-500h96q264 0 420 -114q155 -113 155 -308q0 -197 -154 -299q-155 -102 -448 -102zM874 403q0 160 -61 245t-176 85h-59v-643h59q121 0 179 76t58 237z" />
    <glyph glyph-name="uni0412" unicode="&#x412;" horiz-adv-x="1349" 
d="M694 0h-637v90h138v1233h-138v90h559q309 0 464 -87t155 -259q0 -132 -97 -220q-99 -90 -266 -112q205 -27 316 -117q110 -89 110 -233q0 -196 -149 -290q-151 -95 -455 -95zM860 1065q0 135 -57 197q-57 61 -185 61h-40v-553h61q110 0 166 73q55 71 55 222zM905 395
q0 150 -62 221q-63 72 -192 72h-73v-598h79q134 0 191 71t57 234z" />
    <glyph glyph-name="uni0413" unicode="&#x413;" horiz-adv-x="1120" 
d="M809 0h-752v90h138v1233h-138v90h1022v-450h-90v51q0 156 -84 233q-83 76 -256 76h-71v-1233h231v-90z" />
    <glyph glyph-name="uni0414" unicode="&#x414;" horiz-adv-x="1353" 
d="M768 90v1233h-322q-2 -525 -39 -807q-37 -280 -124 -426h485zM96 -338v-31h-90v459h146q101 130 142 393q40 263 42 840h-166v90h1118v-90h-139v-1233h178v-459h-90v31q0 175 -77 257q-76 81 -245 81h-497q-168 0 -245 -81q-77 -82 -77 -257z" />
    <glyph glyph-name="uni0415" unicode="&#x415;" horiz-adv-x="1193" 
d="M1135 0h-1078v90h138v1233h-138v90h1041v-450h-90v51q0 156 -84 232q-85 77 -258 77h-88v-557h227v143h100v-399h-100v166h-227v-586h165q154 0 228 80q73 79 73 250v39h91v-459z" />
    <glyph glyph-name="uni0416" unicode="&#x416;" horiz-adv-x="2088" 
d="M1804 -35q-131 0 -208 65q-75 63 -119 216q-11 38 -30 127q-13 62 -26 119q-22 99 -56 141q-34 43 -83 43h-45v-586h111v-90h-600v90h110v586h-49q-49 0 -83 -43t-58 -141q-13 -57 -26 -119q-19 -89 -30 -127q-44 -156 -118 -217q-78 -64 -207 -64q-150 0 -214 73
q-63 72 -63 279h88q0 -108 13 -165q12 -54 41 -54q18 0 30 23t39 127q40 156 67 220q26 61 64 99q37 39 103 73q62 33 209 83q-57 17 -91 78q-35 63 -65 237q-29 163 -61 223q-29 55 -76 70q33 -21 52 -60t19 -87q0 -72 -44 -114q-43 -42 -122 -42q-87 0 -136 56
q-50 58 -50 153q0 97 62 154t159 57q81 0 139 -34t97 -103q22 -42 40 -100q17 -55 40 -177q33 -172 65 -219q33 -49 86 -49h80v557h-110v90h600v-90h-111v-557h74q53 0 86 49q32 47 65 219q23 122 40 177q18 56 42 100q38 69 95 103q58 34 139 34q100 0 161 -57
q62 -57 62 -154t-49 -153t-131 -56q-80 0 -129 43q-50 44 -50 111q0 52 18 86q19 36 52 53q-47 -5 -77 -55q-30 -51 -60 -213q-34 -179 -71 -246q-36 -66 -91 -84q138 -44 212 -80q70 -33 110 -72t67 -100q28 -65 68 -223q27 -106 40 -127q14 -23 32 -23q26 0 38 54
q13 57 13 165h88q0 -205 -63 -278q-63 -74 -214 -74z" />
    <glyph glyph-name="uni0417" unicode="&#x417;" horiz-adv-x="1169" 
d="M1120 362q0 -190 -135 -293q-136 -104 -383 -104q-101 0 -191 23q-91 23 -161 67l-82 -75h-59v473h90q0 -174 81 -279q80 -104 224 -104q111 0 167 78t56 235q0 158 -70 234q-69 75 -221 75h-96v90h98q127 0 187 71q59 69 59 224q0 134 -50 201q-49 65 -153 65
q-125 0 -193 -101q-69 -102 -69 -279h-90v471h59l82 -76q64 44 146 67q81 23 180 23q215 0 339 -91t124 -253q0 -145 -103 -239t-290 -122q218 -24 336 -121t118 -260z" />
    <glyph glyph-name="uni0418" unicode="&#x418;" horiz-adv-x="1558" 
d="M694 90v-90h-637v90h138v1233h-138v90h637v-90h-116v-807l403 631v176h-117v90h637v-90h-139v-1233h139v-90h-637v90h117v873l-403 -631v-242h116z" />
    <glyph glyph-name="uni0419" unicode="&#x419;" horiz-adv-x="1558" 
d="M694 90v-90h-637v90h138v1233h-138v90h637v-90h-116v-807l403 631v176h-117v90h637v-90h-139v-1233h139v-90h-637v90h117v873l-403 -631v-242h116zM1022 1976q67 0 106 -42t39 -109q0 -142 -110 -239t-283 -97q-172 0 -282 97q-111 98 -111 239q0 67 39 109t106 42
q65 0 100 -32q36 -33 36 -89q0 -71 -52 -112t-135 -25q30 -30 113 -50q80 -19 186 -19q109 0 189 19q81 19 112 50q-85 -16 -138 24q-52 40 -52 113q0 54 37 88q36 33 100 33z" />
    <glyph glyph-name="uni041A" unicode="&#x41a;" horiz-adv-x="1429" 
d="M1169 -35q-139 0 -221 66q-82 65 -125 215q-5 18 -27 124q-18 87 -30 126q-23 91 -63 137q-37 43 -91 43h-37v-586h117v-90h-635v90h138v1233h-138v90h635v-90h-117v-557h78q53 0 86 49t66 219q23 122 40 177q18 56 42 100q38 69 95 103q58 34 138 34q100 0 162 -57
q61 -57 61 -154t-49 -153t-131 -56q-80 0 -129 43t-49 111q0 53 17 86q18 35 53 53q-47 -5 -77 -55q-30 -51 -60 -213q-34 -179 -71 -246q-36 -66 -91 -84q138 -40 210 -74q67 -32 111 -76q39 -44 69 -109q27 -59 66 -216q27 -106 40 -127q14 -23 32 -23q27 0 39 54
q12 52 12 165h88q0 -200 -59 -275q-60 -77 -195 -77z" />
    <glyph glyph-name="uni041B" unicode="&#x41b;" horiz-adv-x="1495" 
d="M920 90v1233h-297q0 -291 -3 -465q-2 -140 -12 -297q-21 -339 -91 -467q-71 -129 -232 -129q-110 0 -183 70q-71 68 -71 184q0 87 50 145q49 56 134 56q82 0 130 -49t48 -123q0 -67 -41 -119q-40 -51 -92 -57q7 -7 19 -10t26 -3q95 0 139 131q43 129 58 459q7 134 8 282
q2 214 2 392h-180v90h1106v-90h-140v-1233h140v-90h-660v90h142z" />
    <glyph glyph-name="uni041C" unicode="&#x41c;" horiz-adv-x="1783" 
d="M305 90h215v-90h-463v90h138v1233h-138v90h547l283 -747l291 747h548v-90h-139v-1233h139v-90h-671v90h151v1118l-397 -1022h-115l-389 1028v-1124z" />
    <glyph glyph-name="uni041D" unicode="&#x41d;" horiz-adv-x="1531" 
d="M688 0h-631v90h138v1233h-138v90h631v-90h-110v-557h374v557h-108v90h631v-90h-140v-1233h140v-90h-631v90h108v586h-374v-586h110v-90z" />
    <glyph glyph-name="uni041E" unicode="&#x41e;" horiz-adv-x="1411" 
d="M707 1448q286 0 461 -210q175 -209 175 -531q0 -323 -175 -532q-175 -210 -461 -210q-287 0 -463 210q-176 211 -176 532q0 320 176 531q176 210 463 210zM707 1356q-130 0 -183 -151t-53 -498q0 -348 53 -499t183 -151q129 0 182 151t53 499q0 347 -53 498t-182 151z
" />
    <glyph glyph-name="uni041F" unicode="&#x41f;" horiz-adv-x="1507" 
d="M688 0h-631v90h138v1233h-138v90h1393v-90h-137v-1233h137v-90h-631v90h111v1233h-352v-1233h110v-90z" />
    <glyph glyph-name="uni0420" unicode="&#x420;" horiz-adv-x="1288" 
d="M795 0h-738v90h138v1233h-138v90h566q305 0 461 -102q157 -103 157 -303q0 -204 -155 -318q-156 -115 -437 -115h-71v-485h217v-90zM864 1006q0 170 -57 243q-57 74 -184 74h-45v-657h43q125 0 184 80t59 260z" />
    <glyph glyph-name="uni0421" unicode="&#x421;" horiz-adv-x="1232" 
d="M1051 -20l-82 81q-49 -47 -120 -72q-69 -24 -159 -24q-274 0 -448 214q-174 215 -174 528t174 527t444 214q92 0 160 -21q69 -21 112 -63l82 70h60v-471h-90q0 169 -71 275q-71 105 -191 105q-150 0 -213 -147q-64 -149 -64 -489q0 -337 65 -488q64 -149 212 -149
q128 0 200 105t72 284h90v-479h-59z" />
    <glyph glyph-name="uni0422" unicode="&#x422;" horiz-adv-x="1204" 
d="M948 0h-692v90h154v1233h-35q-135 0 -197 -74q-61 -73 -61 -235v-51h-90v450h1151v-450h-91v51q0 163 -62 235q-63 74 -198 74h-34v-1233h155v-90z" />
    <glyph glyph-name="uni0423" unicode="&#x423;" horiz-adv-x="1232" 
d="M358 -35q-110 0 -184 74t-74 201q0 88 52 145q51 55 137 55q81 0 127 -49q47 -50 47 -129q0 -76 -43 -122t-125 -52q10 -13 35 -21q24 -8 55 -8q70 0 117 44q48 45 100 167l-493 1053h-111v90h684v-90h-176l280 -594l226 594h-166v90h395v-90h-119l-305 -788
q-152 -387 -230 -477q-81 -93 -229 -93z" />
    <glyph glyph-name="uni0424" unicode="&#x424;" horiz-adv-x="1771" 
d="M1282 -20h-793v90h205v172q-304 17 -482 145q-179 129 -179 342q0 215 177 341q176 125 484 140v133h-205v91h793v-91h-205v-133q310 -15 485 -140q177 -126 177 -341q0 -213 -178 -342q-178 -128 -484 -145v-172h205v-90zM1350 729q0 189 -65 284q-65 96 -208 103v-776
q141 11 206 107q67 99 67 282zM422 729q0 -181 66 -279t206 -110v776q-143 -7 -208 -103q-64 -94 -64 -284z" />
    <glyph glyph-name="uni0425" unicode="&#x425;" horiz-adv-x="1372" 
d="M434 0h-411v90h139l336 567l-363 666h-119v90h701v-90h-160l213 -393l229 393h-118v90h389v-90h-158l-287 -492l408 -741h123v-90h-717v90h168l-254 467l-274 -467h155v-90z" />
    <glyph glyph-name="uni0426" unicode="&#x426;" horiz-adv-x="1544" 
d="M1518 -369h-91v31q0 177 -76 257q-77 81 -245 81h-1049v90h138v1233h-138v90h625v-90h-104v-1233h352v1233h-105v90h625v-90h-137v-1233h205v-459z" />
    <glyph glyph-name="uni0427" unicode="&#x427;" horiz-adv-x="1439" 
d="M1382 0h-772v90h254v572q-58 -35 -138 -52q-83 -18 -163 -18q-212 0 -311 96q-98 95 -98 299v336h-140v90h625v-90h-107v-373q0 -119 43 -180t125 -61q56 0 94 11q42 12 70 34v569h-106v90h624v-90h-139v-1233h139v-90z" />
    <glyph glyph-name="uni0428" unicode="&#x428;" horiz-adv-x="2086" 
d="M2030 0h-1973v90h138v1233h-138v90h609v-90h-88v-1233h274v1233h-92v90h561v-90h-86v-1233h274v1233h-86v90h607v-90h-138v-1233h138v-90z" />
    <glyph glyph-name="uni0429" unicode="&#x429;" horiz-adv-x="2123" 
d="M2097 -369h-90v31q0 175 -77 257q-76 81 -244 81h-1629v90h138v1233h-138v90h609v-90h-88v-1233h274v1233h-92v90h561v-90h-86v-1233h274v1233h-86v90h607v-90h-138v-1233h205v-459z" />
    <glyph glyph-name="uni042A" unicode="&#x42a;" horiz-adv-x="1488" 
d="M1448 406q0 -202 -152 -304t-450 -102h-584v90h137v1231h-22q-135 0 -198 -71q-62 -69 -62 -222v-65h-90v450h966v-90h-211v-492h90q266 0 421 -114t155 -311zM836 741h-54v-651h54q124 0 181 75q56 74 56 243q0 162 -60 248q-60 85 -177 85z" />
    <glyph glyph-name="uni042B" unicode="&#x42b;" horiz-adv-x="1918" 
d="M641 0h-584v90h138v1233h-138v90h731v-90h-210v-492h90q266 0 421 -114q154 -114 154 -311q0 -202 -151 -304q-152 -102 -451 -102zM631 741h-53v-651h53q124 0 181 75q56 74 56 243q0 162 -60 248q-60 85 -177 85zM1862 90v-90h-666v90h141v1233h-141v90h666v-90h-142
v-1233h142z" />
    <glyph glyph-name="uni042C" unicode="&#x42c;" horiz-adv-x="1284" 
d="M641 0h-584v90h138v1233h-138v90h731v-90h-210v-492h90q266 0 421 -114q154 -114 154 -311q0 -202 -151 -304q-152 -102 -451 -102zM631 741h-53v-651h53q124 0 181 75q56 74 56 243q0 162 -60 248q-60 85 -177 85z" />
    <glyph glyph-name="uni042D" unicode="&#x42d;" horiz-adv-x="1222" 
d="M1155 707q0 -319 -171 -530q-171 -212 -445 -212q-84 0 -158 23q-71 22 -131 67l-82 -75h-59v479h90q0 -180 74 -284q75 -105 210 -105q143 0 206 140q64 142 65 466h-430v90h430q-4 310 -66 444q-61 133 -205 133q-125 0 -199 -104q-75 -105 -75 -276h-90v471h59l82 -76
q50 44 123 67q74 23 160 23q272 0 442 -212t170 -529z" />
    <glyph glyph-name="uni042E" unicode="&#x42e;" horiz-adv-x="2041" 
d="M1974 707q0 -325 -169 -533q-170 -209 -449 -209q-273 0 -441 200q-169 200 -176 511h-161v-586h110v-90h-631v90h138v1233h-138v90h631v-90h-110v-557h161q16 302 185 492t432 190q279 0 449 -209q169 -208 169 -532zM1356 1352q-116 0 -166 -150q-49 -148 -49 -495
t49 -495q50 -151 166 -151t166 149q49 147 49 497q0 349 -49 496q-50 149 -166 149z" />
    <glyph glyph-name="uni042F" unicode="&#x42f;" horiz-adv-x="1439" 
d="M563 1034q0 -150 65 -232q64 -81 189 -81h47v602h-47q-126 0 -190 -73t-64 -216zM621 254q-49 -157 -124 -223t-206 -66q-149 0 -215 77q-66 76 -66 275h88q0 -105 14 -156q14 -50 44 -50q25 0 44 29q20 30 42 114q34 135 63 195q27 57 74 96q40 35 104 60q74 28 201 61
q-230 12 -363 114q-135 103 -135 256q0 176 165 277q164 100 450 100h581v-90h-139v-1233h139v-90h-639v90h121v543h-43q-49 0 -82 -35q-31 -32 -59 -121q-26 -98 -27 -103q-21 -86 -32 -120z" />
    <glyph glyph-name="uni0430" unicode="&#x430;" horiz-adv-x="1275" 
d="M993 -35q-124 0 -194 64q-69 63 -84 190q-33 -120 -125 -187q-93 -67 -230 -67q-143 0 -227 69t-84 189q0 137 116 217q117 81 361 115l148 20v150q0 122 -53 184t-162 62q-45 0 -87 -12q-45 -13 -63 -27q69 -25 99 -65q30 -41 30 -103q0 -78 -46 -123t-126 -45
q-84 0 -132 45t-48 123q0 138 146 223q148 86 364 86q213 0 332 -86t119 -242v-557q0 -44 13 -64q14 -22 42 -22q38 0 59 55q21 54 21 154h88q0 -182 -66 -264t-211 -82zM424 279q0 -64 25 -95q24 -30 75 -30q73 0 111 68q39 69 39 198v67l-72 -16q-95 -21 -136 -65
q-42 -45 -42 -127z" />
    <glyph glyph-name="uni0431" unicode="&#x431;" horiz-adv-x="1251" 
d="M649 1024q230 0 386 -144q157 -145 157 -366q0 -231 -165 -390t-400 -159q-255 0 -411 178q-157 180 -157 482q0 406 151 614q150 207 478 234q32 4 108 7q43 2 93 5q91 7 128 26q36 18 36 54h86q0 -125 -31 -202q-30 -74 -98 -112q-36 -19 -95 -32q-63 -14 -258 -31
q-171 -15 -251 -41q-86 -28 -136 -76q-55 -55 -82 -149q-26 -91 -26 -240h22q39 160 162 251q122 91 303 91zM627 926q-95 0 -139 -99q-44 -100 -44 -315q0 -227 45 -338t138 -111q89 0 136 110q46 108 46 327q0 217 -44 322q-44 104 -138 104z" />
    <glyph glyph-name="uni0432" unicode="&#x432;" horiz-adv-x="1253" 
d="M651 0h-598v90h135v858h-135v90h598q265 0 383 -64q119 -65 119 -200q0 -102 -77 -161q-74 -57 -230 -72q180 -12 264 -75t84 -177q0 -145 -128 -217t-415 -72zM788 768q0 92 -47 136t-147 44h-33v-370h55q92 0 133 44q39 42 39 146zM561 489v-399h41q120 0 172 47
q51 47 51 152q0 107 -49 153q-50 47 -174 47h-41z" />
    <glyph glyph-name="uni0433" unicode="&#x433;" horiz-adv-x="1026" 
d="M778 90v-90h-725v90h135v858h-135v90h932v-397h-88v39q0 130 -60 199t-175 69h-101v-858h217z" />
    <glyph glyph-name="uni0434" unicode="&#x434;" horiz-adv-x="1236" 
d="M676 90v858h-252q-5 -301 -49 -528q-45 -227 -115 -330h416zM1049 948v-858h170v-416h-91v43q0 138 -72 210q-73 73 -210 73h-481q-133 0 -201 -71t-68 -212v-43h-90v416h100q90 90 150 321q59 229 61 537h-145v90h1018v-90h-141z" />
    <glyph glyph-name="uni0435" unicode="&#x435;" 
d="M633 -35q-253 0 -413 156q-161 156 -161 405q0 240 154 394q153 153 387 153q225 0 364 -137q138 -136 138 -352q0 -27 -1 -39q-2 -24 -3 -35h-656v-23q0 -207 66 -307t199 -100q111 0 181 63q71 63 101 191l92 -10q-29 -170 -148 -264q-121 -95 -300 -95zM598 983
q-78 0 -114 -86q-36 -85 -42 -297h297q0 226 -31 304q-31 79 -110 79z" />
    <glyph glyph-name="uni0436" unicode="&#x436;" horiz-adv-x="1964" 
d="M1681 -35q-127 0 -196 54q-71 55 -111 204q-2 6 -20 78q-15 59 -27 88q-18 50 -49 75q-29 23 -76 23h-35v-397h103v-90h-576v90h103v397h-35q-47 0 -76 -23q-30 -24 -51 -75q-14 -34 -28 -89l-8.5 -34l-7 -28t-3.5 -15q-39 -147 -109 -203q-68 -55 -194 -55
q-141 0 -204 77t-63 269h88q0 -106 14 -160q14 -53 42 -53q13 0 25 14q11 13 22 46q3 7 10 40t10 40q27 103 56 145q30 42 82 72q34 19 97 41q47 17 159 47q-44 23 -69 63q-29 47 -58 148q-22 79 -41 113q-18 31 -41 48q6 -8 9 -19q3 -12 3 -24q0 -67 -44 -109t-114 -42
q-73 0 -115 44q-42 43 -42 122q0 87 55 136q56 50 143 50q98 0 160 -58q64 -60 121 -239q39 -124 73 -164q31 -37 76 -37h58v373h-97v90h564v-90h-97v-373h58q47 0 80 38q30 34 75 167q57 179 120 236t155 57q87 0 143 -50q55 -49 55 -136q0 -78 -41 -122t-114 -44
q-72 0 -116 42t-44 109q0 14 3 25t9 21q-25 -16 -43 -47q-19 -33 -45 -119q-30 -105 -57 -147q-26 -41 -64 -62q111 -30 160 -47q61 -21 96 -41q55 -28 84 -71q30 -44 56 -146q28 -109 38 -123q12 -17 27 -17q28 0 42 54t14 159h88q0 -193 -62 -270q-61 -76 -203 -76z" />
    <glyph glyph-name="uni0437" unicode="&#x437;" horiz-adv-x="1105" 
d="M1049 285q0 -160 -138 -240q-137 -80 -407 -80q-210 0 -321 75t-111 216q0 78 45 125t123 47q81 0 124 -43q44 -44 44 -119q0 -57 -31 -99q-29 -39 -94 -61q34 -25 78 -36q50 -13 110 -13q102 0 155 56q52 55 52 168q0 110 -52 158t-173 48h-109v88h111q101 0 145 46
q43 44 43 161q0 93 -43 139t-127 46q-104 0 -170 -74q-66 -73 -72 -201h-90v377h74l66 -86q50 42 131 67q76 23 180 23q204 0 310 -71t106 -207q0 -107 -84 -173q-85 -67 -236 -83q175 -17 267 -82q94 -67 94 -172z" />
    <glyph glyph-name="uni0438" unicode="&#x438;" horiz-adv-x="1452" 
d="M561 90h111v-90h-619v90h135v858h-135v90h619v-90h-111v-579l330 469v110h-111v90h619v-90h-135v-858h135v-90h-619v90h111v588l-330 -469v-119z" />
    <glyph glyph-name="uni0439" unicode="&#x439;" horiz-adv-x="1452" 
d="M561 90h111v-90h-619v90h135v858h-135v90h619v-90h-111v-579l330 469v110h-111v90h619v-90h-135v-858h135v-90h-619v90h111v588l-330 -469v-119zM950 1634q67 0 108 -41q40 -40 40 -110q0 -137 -107 -232q-106 -94 -270 -94t-270 94q-107 95 -107 232q0 68 40 109
q40 42 108 42q65 0 99 -33q36 -35 36 -90q0 -75 -63 -109q-61 -33 -163 -3q45 -39 128 -59q85 -21 192 -21t193 21q83 20 128 61q-104 -33 -165 0q-62 33 -62 110q0 55 36 90q34 33 99 33z" />
    <glyph glyph-name="uni043A" unicode="&#x43a;" horiz-adv-x="1361" 
d="M1083 -35q-123 0 -195 60q-74 62 -112 198q-1 5 -3.5 15t-7 29.5t-8.5 35.5q-14 59 -28 94q-23 50 -54 69q-35 21 -87 21h-27v-397h117v-90h-625v90h135v858h-135v90h625v-90h-117v-373h64q44 0 74 36q31 37 65 161q23 85 43 134q19 45 41 75q36 48 84 70t115 22
q95 0 151 -50q55 -49 55 -138q0 -79 -42 -125q-42 -47 -111 -47q-78 0 -124 43t-46 116q0 26 7 46q7 19 19 34q-26 -16 -44 -48q-21 -37 -44 -128q-30 -116 -59 -164q-28 -45 -70 -67q91 -22 162 -46q58 -20 100 -44q53 -30 83 -77t57 -151q23 -96 35 -113q11 -16 26 -16
q29 0 41 53t12 160h88q0 -193 -61 -269q-62 -77 -199 -77z" />
    <glyph glyph-name="uni043B" unicode="&#x43b;" horiz-adv-x="1282" 
d="M721 948h-219q0 -210 -4 -331q-4 -136 -15 -232q-22 -231 -83 -326q-60 -94 -191 -94q-85 0 -140 53t-55 142q0 75 42 122q42 46 114 46q65 0 103 -41t38 -103q0 -31 -8 -58q-8 -26 -24 -44q51 40 79 136q27 94 33 282q2 64 3 134q1 50 1 314h-170v90h1004v-90h-137v-858
h137v-90h-615v90h107v858z" />
    <glyph glyph-name="uni043C" unicode="&#x43c;" horiz-adv-x="1650" 
d="M299 90h160v-90h-406v90h135v858h-135v90h549l227 -499l234 499h534v-90h-135v-858h135v-90h-647v90h140v766l-347 -750h-118l-326 748v-764z" />
    <glyph glyph-name="uni043D" unicode="&#x43d;" horiz-adv-x="1437" 
d="M561 90h107v-90h-615v90h135v858h-135v90h615v-90h-107v-368h316v368h-107v90h614v-90h-135v-858h135v-90h-614v90h107v399h-316v-399z" />
    <glyph glyph-name="uni043E" unicode="&#x43e;" horiz-adv-x="1243" 
d="M621 1073q237 0 399 -159t162 -400q0 -237 -162 -393t-399 -156q-240 0 -401 158t-161 401q0 240 161 395q160 154 401 154zM621 977q-95 0 -137 -105t-42 -348q0 -250 42 -356q42 -107 137 -107q92 0 136 110q44 111 44 343q0 239 -44 351t-136 112z" />
    <glyph glyph-name="uni043F" unicode="&#x43f;" horiz-adv-x="1396" 
d="M561 90h96v-90h-604v90h135v858h-135v90h1290v-90h-135v-858h135v-90h-604v90h97v858h-275v-858z" />
    <glyph glyph-name="uni0440" unicode="&#x440;" horiz-adv-x="1329" 
d="M721 90q89 0 126 91q38 93 38 315q2 225 -35 320q-37 97 -123 97q-79 0 -123 -95q-43 -93 -43 -275v-144q0 -161 38 -235t122 -74zM561 -420h240v-92h-748v92h135v1366h-135v92q144 0 242 8q99 8 139 21l62 -18v-314q29 160 124 249t240 89q180 0 295 -157t115 -394
q0 -232 -128 -395q-128 -162 -315 -162q-94 0 -160 29t-106 88v-502z" />
    <glyph glyph-name="uni0441" unicode="&#x441;" horiz-adv-x="1071" 
d="M920 334l98 -10q-29 -171 -138 -265t-280 -94q-239 0 -390 154t-151 403q0 246 158 399q156 152 404 152q188 0 291 -82q104 -83 104 -233q0 -78 -46 -124t-128 -46q-85 0 -132 44q-46 43 -46 124q0 75 39 118q41 46 116 56q-23 26 -60 40q-35 13 -81 13
q-125 0 -180 -104q-56 -106 -56 -357q0 -220 59 -332q58 -110 175 -110q95 0 157 65q63 66 87 189z" />
    <glyph glyph-name="uni0442" unicode="&#x442;" horiz-adv-x="1126" 
d="M905 90v-90h-684v90h156v858h-37q-104 0 -156 -64q-53 -65 -53 -190v-39h-90v383h1044v-383h-90v39q0 124 -52 189t-155 65h-38v-858h155z" />
    <glyph glyph-name="uni0443" unicode="&#x443;" horiz-adv-x="1052" 
d="M246 -532q-115 0 -180 61q-66 61 -66 170q0 83 45 133q45 49 123 49q72 0 111 -41q38 -39 38 -112q0 -65 -35 -104q-36 -40 -100 -42q11 -10 28 -15t36 -5q63 0 114 64q52 66 113 231l29 77l-414 1014h-121v90h592v-90h-117l220 -545l190 545h-131v90h369v-90h-113
l-348 -979q-107 -302 -188 -403q-79 -98 -195 -98z" />
    <glyph glyph-name="uni0444" unicode="&#x444;" horiz-adv-x="1785" 
d="M442 524q0 -221 33 -317t105 -96q58 0 93 93q34 92 34 259v110q0 168 -34 258q-35 93 -98 93q-65 0 -99 -102q-34 -101 -34 -298zM1210 111q71 0 102 94q31 93 31 319q0 207 -32 302q-33 98 -99 98q-64 0 -98 -91q-35 -93 -35 -260v-110q0 -166 36 -259t95 -93zM1067 156
q1 -218 33 -380q30 -156 102 -292l-18 -21q-72 43 -162 171q-90 127 -129 233q-39 -103 -130 -234q-87 -125 -161 -170l-18 21q72 146 102 300q32 163 33 372q-35 -99 -94 -144q-61 -47 -148 -47q-181 0 -299 166q-119 167 -119 393q0 228 117 388q117 161 297 161
q89 0 150 -49t96 -152q0 216 -31 377q-30 154 -104 301l18 21q71 -40 162 -169q90 -128 131 -235q38 107 127 233q90 128 162 171l18 -21q-74 -148 -104 -305q-31 -163 -31 -373q34 102 94 151q62 50 152 50q180 0 297 -161q116 -159 116 -388q0 -230 -116 -394
q-117 -165 -297 -165q-88 0 -150 47q-61 46 -96 144z" />
    <glyph glyph-name="uni0445" unicode="&#x445;" horiz-adv-x="1171" 
d="M416 0h-412v90h133l295 389l-319 469h-97v90h564v-90h-99l185 -266l196 266h-127v90h379v-90h-123l-266 -354l348 -504h90v-90h-571v90h104l-198 293l-219 -293h137v-90z" />
    <glyph glyph-name="uni0446" unicode="&#x446;" horiz-adv-x="1409" 
d="M1391 90v-416h-91v43q0 138 -72 210q-73 73 -210 73h-965v90h135v858h-135v90h609v-90h-101v-858h287v858h-100v90h608v-90h-135v-858h170z" />
    <glyph glyph-name="uni0447" unicode="&#x447;" horiz-adv-x="1366" 
d="M1313 90v-90h-719v90h211v402q-65 -47 -141 -70q-81 -25 -164 -25q-176 0 -264 79q-89 80 -89 237v235h-131v90h602v-90h-100v-250q0 -88 33 -126q33 -37 106 -37q44 0 85 16q42 17 63 39v358h-100v90h608v-90h-135v-858h135z" />
    <glyph glyph-name="uni0448" unicode="&#x448;" horiz-adv-x="1949" 
d="M1896 0h-1843v90h135v858h-135v90h586v-90h-78v-858h227v858h-83v90h540v-90h-84v-858h228v858h-78v90h585v-90h-137v-858h137v-90z" />
    <glyph glyph-name="uni0449" unicode="&#x449;" horiz-adv-x="1949" 
d="M1929 90v-416h-88v43q0 137 -73 210t-209 73h-1506v90h135v858h-135v90h586v-90h-78v-858h227v858h-83v90h540v-90h-84v-858h228v858h-78v90h585v-90h-137v-858h170z" />
    <glyph glyph-name="uni044A" unicode="&#x44a;" horiz-adv-x="1441" 
d="M1401 322q0 -156 -123 -239q-124 -83 -348 -83h-664v90h135v858h-28q-119 0 -180 -65q-62 -67 -62 -189v-39h-90v383h907v-90h-174v-311h156q222 0 347 -81q124 -81 124 -234zM836 547h-62v-457h64q89 0 139 61q49 59 49 173q0 113 -46 168t-144 55z" />
    <glyph glyph-name="uni044B" unicode="&#x44b;" horiz-adv-x="1832" 
d="M561 948v-311h156q223 0 347 -81t124 -234q0 -156 -123 -239q-124 -83 -348 -83h-664v90h135v858h-135v90h682v-90h-174zM1780 0h-615v90h107v858h-115v90h623v-90h-135v-858h135v-90zM625 547h-64v-457h66q89 0 138 61q48 60 48 173t-46 168t-142 55z" />
    <glyph glyph-name="uni044C" unicode="&#x44c;" horiz-adv-x="1228" 
d="M561 948v-311h156q223 0 347 -81t124 -234q0 -156 -123 -239q-124 -83 -348 -83h-664v90h135v858h-135v90h682v-90h-174zM625 547h-64v-457h66q89 0 138 61q48 60 48 173t-46 168t-142 55z" />
    <glyph glyph-name="uni044D" unicode="&#x44d;" horiz-adv-x="1093" 
d="M1034 524q0 -245 -155 -401q-156 -158 -400 -158q-197 0 -305 73q-106 72 -106 206q0 73 45 118q46 46 123 46q80 0 123 -43q44 -44 44 -119q0 -62 -30 -102q-29 -40 -92 -58q17 -19 55 -29q37 -10 84 -10q122 0 174 97q52 98 57 348h-327v90h327q-6 206 -61 295
q-56 90 -170 90q-91 0 -148 -74q-57 -73 -63 -205h-88v381h74l63 -82q45 42 112 64t154 22q215 0 363 -157q147 -156 147 -392z" />
    <glyph glyph-name="uni044E" unicode="&#x44e;" horiz-adv-x="1837" 
d="M1776 516q0 -238 -157 -395q-156 -156 -386 -156q-220 0 -377 148q-156 147 -166 376h-123v-399h101v-90h-609v90h136v858h-136v90h609v-90h-101v-368h123q18 219 172 356t371 137q230 0 387 -157q156 -156 156 -400zM1071 526q0 -251 38 -354q37 -102 124 -102
q84 0 123 104q39 105 39 342q0 242 -39 347q-39 106 -123 106q-87 0 -124 -99q-38 -100 -38 -344z" />
    <glyph glyph-name="uni044F" unicode="&#x44f;" horiz-adv-x="1325" 
d="M707 561h57v387h-55q-91 0 -149 -54t-58 -144q0 -91 55 -140t150 -49zM608 379q-8 -21 -26 -86q-5 -18 -9.5 -34t-8.5 -29t-5 -17q-39 -135 -107 -191q-69 -57 -186 -57q-136 0 -196 76q-60 77 -60 270h88q0 -102 14 -158q14 -55 38 -55q12 0 22 15q11 16 39 116
q35 133 89 179q55 48 220 98q-191 17 -292 82t-101 178q0 129 126 201q124 71 347 71h672v-90h-137v-858h137v-90h-623v90h115v383h-25q-47 0 -79 -21q-30 -20 -52 -73z" />
    <glyph glyph-name="uni0451" unicode="&#x451;" 
d="M633 -35q-253 0 -413 156q-161 156 -161 405q0 240 154 394q153 153 387 153q225 0 364 -137q138 -136 138 -352q0 -27 -1 -39q-2 -24 -3 -35h-656v-23q0 -207 66 -307t199 -100q111 0 181 63q71 63 101 191l92 -10q-29 -170 -148 -264q-121 -95 -300 -95zM598 983
q-78 0 -114 -86q-36 -85 -42 -297h297q0 226 -31 304q-31 79 -110 79zM543 1360q0 -81 -49 -131q-49 -51 -136 -51q-88 0 -136 50t-48 132q0 86 48 136t136 50q89 0 137 -52t48 -134zM1014 1360q0 -82 -48 -132t-137 -50t-135 49q-47 50 -47 133q0 86 47 136t135 50
q89 0 137 -51t48 -135z" />
    <glyph glyph-name="uni0452" unicode="&#x452;" horiz-adv-x="1339" 
d="M1280 522q0 -264 -143 -410q-144 -147 -369 -147l-18 55q77 43 116 164q39 122 39 328q0 186 -43 276q-44 93 -127 93q-84 0 -129 -53q-45 -52 -45 -150v-588h107v-90h-615v90h135v1139h-135v90h135v121h-135v90q190 0 289 7q109 8 156 22l63 -19v-221h281v-90h-281v-17
q0 -83 -4 -168q-5 -100 -10 -133q49 65 132 100q79 33 193 33q191 0 299 -137q109 -138 109 -385z" />
    <glyph glyph-name="uni0453" unicode="&#x453;" horiz-adv-x="1026" 
d="M778 90v-90h-725v90h135v858h-135v90h932v-397h-88v39q0 130 -60 199t-175 69h-101v-858h217zM479 1208h-96l154 254q23 38 52 54t79 16h317q46 0 51 -28q4 -27 -39 -48z" />
    <glyph glyph-name="uni0454" unicode="&#x454;" horiz-adv-x="1075" 
d="M926 334l92 -10q-29 -171 -138 -265t-280 -94q-241 0 -391 155q-150 154 -150 406q0 244 158 396q157 151 404 151q177 0 283 -73t106 -197q0 -81 -44 -128q-43 -46 -124 -46q-83 0 -129 43q-47 44 -47 114q0 62 34 102q33 38 99 54q-17 20 -51 31q-31 10 -82 10
q-113 0 -165 -94q-53 -95 -59 -311h297v-91h-297q4 -204 63 -306q58 -101 171 -101q96 0 162 66q65 65 88 188z" />
    <glyph glyph-name="uni0455" unicode="&#x455;" horiz-adv-x="942" 
d="M123 -35h-64v385h91q0 -123 81 -205q83 -84 215 -84q86 0 133 39q46 39 46 111q0 60 -43 94q-45 36 -193 70q-155 34 -238 125t-83 229q0 161 100 252q101 92 276 92q80 0 140 -18q56 -17 108 -58l70 76h61v-364h-90q0 134 -65 203q-66 71 -189 71q-78 0 -120 -33
t-42 -92q0 -58 39 -93q39 -34 170 -69q186 -50 271 -139q86 -91 86 -227q0 -176 -102 -270q-103 -95 -289 -95q-95 0 -167 24q-75 25 -124 68z" />
    <glyph glyph-name="uni0456" unicode="&#x456;" horiz-adv-x="741" 
d="M696 90v-90h-643v90h135v858h-135v90q179 0 293 8q113 8 152 21l63 -18v-959h135zM360 1583q102 0 159 -54q56 -53 56 -140t-56 -139t-159 -52q-104 0 -160 52q-57 52 -57 139q0 89 57 141q58 53 160 53z" />
    <glyph glyph-name="uni0457" unicode="&#x457;" horiz-adv-x="727" 
d="M696 90v-90h-643v90h135v858h-135v90q179 0 293 8q113 8 152 21l63 -18v-959h135zM313 1397q0 -81 -49 -131q-50 -52 -135 -52q-87 0 -136 51q-48 49 -48 132q0 87 48 136q48 50 136 50t136 -52q48 -53 48 -134zM784 1397q0 -83 -48 -132q-49 -51 -136 -51q-88 0 -135 50
t-47 133q0 86 47 136t135 50t136 -51t48 -135z" />
    <glyph glyph-name="uni0458" unicode="&#x458;" horiz-adv-x="700" 
d="M344 1583q103 0 160 -54t57 -140q0 -85 -57 -138q-58 -53 -160 -53t-159 51q-56 50 -56 140t56 142t159 52zM57 -535q-170 0 -263 70q-91 69 -91 201q0 85 47 135q46 49 133 49q75 0 115 -43q41 -44 41 -117t-38 -114q-39 -42 -114 -52q16 -18 46 -28q29 -10 65 -10
q97 0 137 87q41 88 41 314v991h-178v90q207 0 321 6q113 6 166 23l64 -18v-1039q0 -257 -132 -401t-360 -144z" />
    <glyph glyph-name="uni0459" unicode="&#x459;" horiz-adv-x="1759" 
d="M721 948h-223q0 -210 -4 -331q-4 -136 -15 -232q-22 -231 -83 -326q-60 -94 -191 -94q-85 0 -140 53t-55 142q0 75 42 122q42 46 114 46q65 0 103 -41t38 -103q0 -31 -8 -58q-7 -25 -25 -44q53 41 80 136q27 94 33 282q2 64 3 134q1 50 1 314h-166v90h1004v-90h-137v-311
h157q223 0 347 -81t124 -234q0 -157 -124 -239q-125 -83 -347 -83h-635v90h107v858zM1141 547h-49v-457h51q95 0 148 61q52 59 52 173q0 113 -49 168t-153 55z" />
    <glyph glyph-name="uni045A" unicode="&#x45a;" horiz-adv-x="1916" 
d="M1311 543h-62v-453h64q92 0 140 60t48 172q0 113 -46 166q-47 55 -144 55zM1249 948v-315h156q225 0 348 -81t123 -233q0 -155 -123 -237q-122 -82 -348 -82h-635v90h107v399h-316v-399h107v-90h-615v90h135v858h-135v90h615v-90h-107v-368h316v368h-107v90h614v-90h-135
z" />
    <glyph glyph-name="uni045B" unicode="&#x45b;" horiz-adv-x="1409" 
d="M561 90h107v-90h-615v90h135v1139h-135v90h135v121h-135v90q190 0 289 7q109 8 156 22l63 -19v-221h281v-90h-281v-27q0 -81 -4 -162q-5 -96 -10 -129q49 65 132 100q79 33 193 33q186 0 278 -99q91 -98 91 -302v-553h135v-90h-614v90h106v576q0 113 -34 163
q-35 52 -113 52t-120 -51q-40 -49 -40 -152v-588z" />
    <glyph glyph-name="uni045C" unicode="&#x45c;" horiz-adv-x="1361" 
d="M1083 -35q-123 0 -195 60q-74 62 -112 198q-1 5 -3.5 15t-7 29.5t-8.5 35.5q-14 59 -28 94q-23 50 -54 69q-35 21 -87 21h-27v-397h117v-90h-625v90h135v858h-135v90h625v-90h-117v-373h64q44 0 74 36q31 37 65 161q23 85 43 134q19 45 41 75q36 48 84 70t115 22
q95 0 151 -50q55 -49 55 -138q0 -79 -42 -125q-42 -47 -111 -47q-78 0 -124 43t-46 116q0 26 7 46q7 19 19 34q-26 -16 -44 -48q-21 -37 -44 -128q-30 -116 -59 -164q-28 -45 -70 -67q91 -22 162 -46q58 -20 100 -44q53 -30 83 -77t57 -151q23 -96 35 -113q11 -16 26 -16
q29 0 41 53t12 160h88q0 -193 -61 -269q-62 -77 -199 -77zM672 1208h-97l154 254q23 38 52 54t79 16h318q46 0 51 -28q5 -27 -39 -48z" />
    <glyph glyph-name="uni045E" unicode="&#x45e;" horiz-adv-x="1052" 
d="M246 -532q-115 0 -180 61q-66 61 -66 170q0 83 45 133q45 49 123 49q72 0 111 -41q38 -39 38 -112q0 -65 -35 -104q-36 -40 -100 -42q11 -10 28 -15t36 -5q63 0 114 64q52 66 113 231l29 77l-414 1014h-121v90h592v-90h-117l220 -545l190 545h-131v90h369v-90h-113
l-348 -979q-107 -302 -188 -403q-79 -98 -195 -98zM850 1634q66 0 107 -41q40 -40 40 -110q0 -138 -106 -232t-270 -94q-165 0 -271 94t-106 232q0 68 40 109q40 42 107 42q65 0 99 -33q36 -35 36 -90q0 -75 -62 -109q-61 -33 -163 -3q45 -39 128 -59q85 -21 192 -21t193 21
q83 20 128 61q-105 -33 -166 0t-61 110q0 55 36 90q34 33 99 33z" />
    <glyph glyph-name="uni045F" unicode="&#x45f;" horiz-adv-x="1409" 
d="M809 -143q33 -61 42 -91q9 -32 9 -63q0 -65 -42 -106q-43 -41 -116 -41q-70 0 -114 42q-43 42 -43 105q0 32 10 61q13 37 43 93q30 55 41 83q12 30 18 60h-604v90h135v858h-135v90h609v-90h-101v-858h287v858h-100v90h608v-90h-135v-858h135v-90h-604q7 -35 17 -60
q14 -35 40 -83z" />
    <glyph glyph-name="uni0462" unicode="&#x462;" horiz-adv-x="1484" 
d="M834 0h-578v90h139v995h-26q-143 -8 -192 -64q-50 -58 -50 -187v-27h-90v371h358v165h-139v91h659v-91h-139v-165h359v-371h-91v27q0 132 -50 188t-189 63h-29v-350h84q280 0 432 -99t152 -286q0 -185 -140 -267q-142 -83 -470 -83zM1067 352q0 152 -58 222
q-59 71 -186 71h-47v-555h47q139 0 192 57q52 56 52 205z" />
    <glyph glyph-name="uni0463" unicode="&#x463;" horiz-adv-x="1425" 
d="M1380 307q0 -147 -128 -227t-355 -80h-657v90h141v858h-51q-98 0 -148 -60q-49 -59 -49 -179v-25h-88v354h334q-7 145 -39 269q-29 113 -98 245l18 19q67 -39 168 -186q98 -142 137 -254q44 115 138 257q94 141 165 183l17 -19q-65 -129 -94 -246q-29 -118 -35 -268h334
v-354h-91v25q0 119 -50 180q-49 59 -152 59h-43v-340h143q227 0 355 -78t128 -223zM815 518h-61v-428h63q91 0 138 56q49 58 49 163q0 106 -47 158q-47 51 -142 51z" />
    <glyph glyph-name="uni0472" unicode="&#x472;" horiz-adv-x="1411" 
d="M707 1448q286 0 461 -210q175 -209 175 -531q0 -323 -175 -532q-175 -210 -461 -210q-287 0 -463 210q-176 211 -176 532q0 320 176 531q176 210 463 210zM707 1356q-126 0 -179 -137q-52 -136 -57 -453h471q-5 317 -57 453q-53 137 -178 137zM707 57q127 0 180 146
q54 148 55 473h-471q1 -327 55 -474q53 -145 181 -145z" />
    <glyph glyph-name="uni0473" unicode="&#x473;" horiz-adv-x="1243" 
d="M621 1073q237 0 399 -159t162 -400q0 -237 -162 -393t-399 -156q-240 0 -401 158t-161 401q0 240 161 395q160 154 401 154zM621 977q-91 0 -133 -94q-41 -93 -46 -310h359q-6 206 -50 306q-43 98 -130 98zM621 61q89 0 133 101q42 98 47 321h-359q1 -223 45 -322
q44 -100 134 -100z" />
    <glyph glyph-name="uni0474" unicode="&#x474;" horiz-adv-x="1486" 
d="M1122 1112l-336 -1132h-219l-452 1343h-123v90h708v-90h-188l295 -901l231 774q41 137 102 195q60 57 165 57q94 0 151 -58t57 -161q0 -96 -47 -149q-46 -52 -127 -52q-78 0 -131 47t-53 127v9v10q-11 -40 -13 -45q-1 -5 -5 -17t-7.5 -23.5t-7.5 -23.5z" />
    <glyph glyph-name="uni0475" unicode="&#x475;" horiz-adv-x="1241" 
d="M924 831l-291 -851h-146l-383 968h-114v90h592v-90h-123l211 -538l139 424q41 125 102 182t152 57t143 -47q51 -46 51 -135q0 -84 -40 -133t-111 -49q-67 0 -113 41q-45 41 -45 106q0 8 1 13q1 2 2 7.5t1 8.5q-5 -5 -15 -21q-7 -11 -13 -33z" />
    <glyph glyph-name="uni0490" unicode="&#x490;" horiz-adv-x="1107" 
d="M809 90v-90h-752v90h138v1233h-138v90h592q172 0 250 72t78 227v55h90v-444h-489v-1233h231z" />
    <glyph glyph-name="uni0491" unicode="&#x491;" horiz-adv-x="1040" 
d="M778 0h-725v90h135v858h-135v90h568q134 0 205 74t71 213v41h88v-418h-424v-858h217v-90z" />
    <glyph glyph-name="endash" unicode="&#x2013;" horiz-adv-x="1179" 
d="M1087 571h-995v97h995v-97z" />
    <glyph glyph-name="emdash" unicode="&#x2014;" horiz-adv-x="1486" 
d="M1395 571h-1303v97h1303v-97z" />
    <glyph glyph-name="quoteleft" unicode="&#x2018;" horiz-adv-x="681" 
d="M145 997q0 143 62 255t184 194l66 -64q-72 -57 -109 -112q-35 -52 -51 -121q8 2 19 3q8 1 20 1q90 0 141 -55q51 -56 51 -133q0 -83 -51 -138t-141 -55q-88 0 -139 63q-52 64 -52 162z" />
    <glyph glyph-name="quoteright" unicode="&#x2019;" horiz-adv-x="681" 
d="M528 1223q0 -145 -61 -255q-62 -112 -184 -194l-66 64q72 57 109 112q35 52 51 121q-7 -1 -20 -3q-8 -1 -19 -1q-90 0 -141 55q-52 57 -52 133q0 81 52 138q51 55 141 55q88 0 139 -63t51 -162z" />
    <glyph glyph-name="quotesinglbase" unicode="&#x201a;" horiz-adv-x="681" 
d="M528 121q0 -145 -61 -255q-62 -112 -184 -194l-66 64q72 57 109 112q35 52 51 121q-7 -1 -20 -3q-8 -1 -19 -1q-90 0 -141 55q-52 57 -52 134q0 80 52 137q51 55 141 55q89 0 139 -62q51 -63 51 -163z" />
    <glyph glyph-name="quotedblleft" unicode="&#x201c;" horiz-adv-x="1177" 
d="M145 1001q0 143 62 255t184 194l66 -64q-72 -57 -109 -112q-35 -52 -51 -121q8 2 19 3q8 1 20 1q90 0 141 -55q51 -56 51 -133q0 -83 -51 -138t-141 -55q-88 0 -139 63q-52 64 -52 162zM641 1001q0 145 61 255q62 111 185 194l65 -64q-70 -55 -108 -112q-35 -52 -51 -121
q8 2 19 3q8 1 19 1q91 0 142 -55q51 -56 51 -133q0 -83 -51 -138t-142 -55q-88 0 -139 63t-51 162z" />
    <glyph glyph-name="quotedblright" unicode="&#x201d;" horiz-adv-x="1191" 
d="M1038 1223q0 -145 -61 -255q-62 -112 -184 -194l-66 64q72 57 109 112q35 52 51 121q-7 -1 -20 -3q-8 -1 -19 -1q-90 0 -141 55q-52 57 -52 133q0 81 52 138q51 55 141 55q88 0 139 -63t51 -162zM528 1223q0 -145 -61 -255q-62 -112 -184 -194l-66 64q72 57 109 112
q35 52 51 121q-7 -1 -20 -3q-8 -1 -19 -1q-90 0 -141 55q-52 57 -52 133q0 81 52 138q51 55 141 55q88 0 139 -63t51 -162z" />
    <glyph glyph-name="quotedblbase" unicode="&#x201e;" horiz-adv-x="1247" 
d="M1038 121q0 -145 -61 -255q-62 -112 -184 -194l-66 64q72 57 109 112q35 52 51 121q-7 -1 -20 -3q-8 -1 -19 -1q-90 0 -141 55q-52 57 -52 134q0 80 52 137q51 55 141 55q89 0 139 -62q51 -63 51 -163zM528 121q0 -145 -61 -255q-62 -112 -184 -194l-66 64q72 57 109 112
q35 52 51 121q-7 -1 -20 -3q-8 -1 -19 -1q-90 0 -141 55q-52 57 -52 134q0 80 52 137q51 55 141 55q89 0 139 -62q51 -63 51 -163z" />
    <glyph glyph-name="dagger" unicode="&#x2020;" horiz-adv-x="1130" 
d="M446 766q52 63 65 92q15 33 15 64q-27 0 -63 -14q-39 -15 -105 -54q-69 -43 -98 -53q-36 -13 -59 -13q-45 0 -98 55q-52 53 -52 115q0 58 53 116q52 56 97 56q29 0 61 -13q34 -14 100 -58q69 -46 102 -59t62 -13q0 31 -14 59t-61 78q-44 49 -60 77q-14 25 -14 54
q0 47 62 112q64 67 124 67q58 0 122 -67q63 -66 63 -112q0 -28 -14 -56q-15 -29 -58 -77q-46 -51 -59 -78t-13 -57q30 0 63 13q30 12 101 59q66 44 100 58q32 13 62 13q44 0 96 -56q53 -58 53 -116q0 -62 -52 -115q-53 -55 -97 -55q-24 0 -60 13q-29 10 -98 53
q-68 40 -104 54t-64 14q0 -34 14 -63t62 -91q42 -50 55 -78q13 -29 13 -51q0 -2 -4 -22l-13 -66q-70 -307 -98 -558q-29 -259 -29 -505h-78q0 252 -30 509q-29 249 -103 560q-7 31 -13 61q-3 15 -3 21q0 23 13 48q17 32 56 79z" />
    <glyph glyph-name="daggerdbl" unicode="&#x2021;" horiz-adv-x="1130" 
d="M451 -203q46 49 61 79q14 28 14 58q-29 0 -62 -13q-36 -14 -102 -58q-70 -47 -100 -59q-32 -13 -61 -13q-45 0 -97 56q-53 58 -53 116q0 63 52 116q53 54 98 54q26 0 59 -12q29 -10 98 -53q71 -42 105 -55q33 -13 63 -13q0 30 -15 62q-15 31 -65 92q-42 48 -56 74
q-13 25 -13 48q0 28 34 93q13 25 28.5 56t19.5 38q-3 6 -11 21.5t-17.5 33.5t-19.5 37q-34 62 -34 90q0 23 13 48q15 28 56 75q51 62 65 91q15 31 15 63q-27 0 -63 -14q-39 -15 -105 -54q-69 -43 -98 -53q-36 -13 -59 -13q-45 0 -98 55q-52 53 -52 115q0 58 53 116
q52 56 97 56q29 0 61 -13q34 -14 100 -58q69 -46 102 -59t62 -13q0 31 -14 59t-61 78q-44 49 -60 77q-14 25 -14 54q0 47 62 112q64 67 124 67q58 0 122 -67q63 -66 63 -112q0 -28 -14 -56q-15 -29 -58 -77q-46 -51 -59 -78t-13 -57q30 0 63 13q30 12 101 59q66 44 100 58
q32 13 62 13q44 0 96 -56q53 -58 53 -116q0 -62 -52 -115q-53 -55 -97 -55q-24 0 -60 13q-29 10 -98 53q-68 40 -104 54t-64 14q0 -34 14 -62q15 -31 62 -88q42 -49 55 -77t13 -50q0 -29 -33 -93q-22 -43 -45 -89q13 -32 45 -95q33 -65 33 -92q0 -22 -13 -50
q-12 -26 -55 -76q-45 -55 -62 -89q-14 -28 -14 -61q31 0 64 13q31 12 104 55q69 43 98 53q33 12 60 12q44 0 97 -54q52 -53 52 -116q0 -58 -53 -116q-52 -56 -96 -56q-30 0 -62 13q-30 12 -100 59q-67 45 -101 58q-33 13 -63 13q0 -30 13 -57t59 -78q43 -48 58 -77
q14 -28 14 -56q0 -45 -63 -111q-64 -67 -122 -67q-60 0 -124 67q-62 65 -62 111q0 29 14 54q16 28 60 77z" />
    <glyph glyph-name="bullet" unicode="&#x2022;" horiz-adv-x="735" 
d="M369 930q121 0 191 -79q71 -80 71 -185q0 -104 -71 -183q-70 -77 -191 -77q-125 0 -194 75q-71 77 -71 185q0 110 71 187t194 77z" />
    <glyph glyph-name="ellipsis" unicode="&#x2026;" horiz-adv-x="1892" 
d="M1550 418q106 0 168 -68t62 -160q0 -90 -63 -157q-63 -68 -167 -68q-107 0 -167 66t-60 159q0 96 60 162t167 66zM938 418q106 0 168 -68q61 -67 61 -160q0 -91 -62 -157q-63 -68 -167 -68q-107 0 -167 66t-60 159q0 96 60 162t167 66zM340 418q106 0 168 -68
q61 -67 61 -160q0 -91 -62 -157q-63 -68 -167 -68q-107 0 -167 66t-60 159q0 96 60 162t167 66z" />
    <glyph glyph-name="perthousand" unicode="&#x2030;" horiz-adv-x="2650" 
d="M1227 1057l-738 -1092l-112 76l725 1065q12 18 18 31q2 4 7.5 13t7.5 15q-80 -14 -165 -6q-75 7 -147 39q11 -30 15 -64q4 -31 4 -71q0 -179 -100 -282q-98 -101 -277 -101q-166 0 -283 111q-116 110 -116 272q0 164 117 274q119 111 282 111q74 0 140 -23t130 -71
q89 -68 200 -86q114 -18 245 14q34 110 66 137q35 29 91 29q51 0 83 -30t32 -79q0 -42 -20 -75q-22 -36 -91 -93q-49 -39 -74 -64q-24 -24 -40 -50zM582 1354q-68 0 -103 -73t-35 -218q0 -144 35 -217q35 -72 105 -72q65 0 106 80t41 209q0 131 -41 211t-108 80zM1335 733
q179 0 278 -102t99 -283q0 -180 -98 -281q-99 -102 -279 -102q-165 0 -282 111t-117 272q0 164 118 275q117 110 281 110zM2216 733q178 0 277 -102q100 -103 100 -283q0 -178 -100 -281q-99 -102 -277 -102q-166 0 -283 111q-116 110 -116 272q0 165 117 275t282 110z
M1454 639q-68 0 -103 -72q-34 -71 -34 -219q0 -149 34 -218q35 -71 105 -71q66 0 106 79t40 210q0 132 -40 211q-41 80 -108 80zM2333 639q-69 0 -104 -72q-34 -71 -34 -219q0 -149 34 -218q35 -71 106 -71q65 0 106 80t41 209q0 131 -41 211t-108 80z" />
    <glyph glyph-name="guilsinglleft" unicode="&#x2039;" horiz-adv-x="675" 
d="M397 539l219 -387v-80l-565 432v69l565 388v-91z" />
    <glyph glyph-name="guilsinglright" unicode="&#x203a;" horiz-adv-x="675" 
d="M625 573v-69l-566 -432v80l220 387l-220 331v91z" />
    <glyph glyph-name="fraction" unicode="&#x2044;" horiz-adv-x="978" 
d="M907 1536l-714 -1536h-121l714 1536h121z" />
    <glyph glyph-name="Euro" unicode="&#x20ac;" horiz-adv-x="1423" 
d="M1210 459h90v-479h-59l-82 81q-63 -48 -130 -71q-72 -25 -146 -25q-222 0 -385 145q-162 144 -215 388h-211v90h194q-4 28 -6 51q-2 30 -2 41q0 31 1 45t1 39h-127v90h135q40 263 208 429q166 165 401 165q91 0 159 -21q71 -22 113 -63l82 70h59v-471h-90q0 169 -71 275
q-71 105 -191 105q-136 0 -199 -114t-75 -375h471l-50 -90h-423v-176h331l-49 -90h-274q17 -221 80 -325q63 -103 188 -103q129 0 201 105q71 104 71 284z" />
    <glyph glyph-name="uni20B4" unicode="&#x20b4;" horiz-adv-x="1247" 
d="M1196 850v-90h-1143v90h561q133 61 191 131q59 71 59 168q0 95 -56 144q-58 50 -163 50q-159 0 -253 -106q-95 -107 -95 -274h-90v471h59l80 -80q62 44 150 69q89 25 184 25q204 0 317 -95t113 -261q0 -75 -30 -141q-31 -67 -76 -101h192zM1010 453h90v-473h-60l-82 86
q-51 -44 -142 -72q-93 -29 -183 -29q-239 0 -369 95q-129 94 -129 268q0 66 23 129q22 61 59 98h-166v88h1145v-88h-592q-101 -39 -159 -115t-58 -172q0 -100 66 -149q65 -49 196 -49q163 0 262 106t99 277z" />
    <glyph glyph-name="uni20B8" unicode="&#x20b8;" horiz-adv-x="1204" 
d="M27 1323v90h1151v-90h-1151zM948 0h-692v90h154v1047h-35q-135 0 -197 -74q-61 -73 -61 -236v-51h-90v451h1151v-451h-91v51q0 164 -62 236q-63 74 -198 74h-34v-1047h155v-90z" />
    <glyph glyph-name="uni20BD" unicode="&#x20bd;" horiz-adv-x="1273" 
d="M578 90h217v-90h-738v90h138v293h-138v90h138v102h-138v91h138v657h-138v90h566q305 0 461 -102q157 -103 157 -303q0 -204 -155 -318q-156 -115 -437 -115h-71v-102h391v-90h-391v-293zM864 1006q0 170 -57 243q-57 74 -184 74h-45v-657h43q125 0 184 80t59 260z" />
    <glyph glyph-name="uni2116" unicode="&#x2116;" horiz-adv-x="2492" 
d="M305 90h203v-90h-451v90h138v1233h-138v90h447l602 -960v870h-203v90h451v-90h-140v-1329h-231l-678 1059v-963zM1898 1305q192 0 317 -117q124 -117 124 -303q0 -187 -124 -302q-125 -116 -317 -116q-189 0 -313 118q-125 119 -125 300q0 183 125 302q124 118 313 118z
M1898 1231q-88 0 -130 -79q-42 -80 -42 -267q0 -188 41 -267q40 -77 131 -77q87 0 132 88t45 256q0 169 -45 257q-45 89 -132 89zM2324 229h-866v97h866v-97zM2324 0h-866v96h866v-96z" />
    <glyph glyph-name="trademark" unicode="&#x2122;" horiz-adv-x="1460" 
d="M496 1024h-336v41h61v305h-18q-50 0 -66 -16t-16 -64v-57h-43v180h500v-180h-43v57q0 47 -17 64q-16 16 -65 16h-19v-305h62v-41zM776 1065h60v-41h-201v41h76v305h-72v43h276l89 -164l67 164h311v-43h-75v-305h75v-41h-348v41h62v260l-109 -248h-90l-121 244v-256z" />
    <glyph glyph-name="uni2126" unicode="&#x2126;" horiz-adv-x="1572" 
d="M721 90v-90h-653v90h440q-203 90 -323 256q-117 161 -117 363q0 146 53 281q53 136 151 235q101 102 232 155q134 54 284 54q315 0 516 -209t201 -516q0 -203 -116 -365q-118 -165 -322 -254h438v-90h-651v90q123 77 186 235q64 162 64 384q0 307 -81 471
q-81 163 -235 163q-153 0 -235 -162q-82 -163 -82 -472q0 -223 64 -383q63 -158 186 -236z" />
    <glyph glyph-name="partialdiff" unicode="&#x2202;" horiz-adv-x="1345" 
d="M1262 627q-38 -301 -213 -474q-176 -173 -435 -173q-251 0 -407 159q-155 158 -131 402q22 227 178 365t377 138q117 0 197 -49q81 -50 108 -131q18 303 -49 446q-68 144 -230 144q-65 0 -121 -23q-59 -24 -112 -71l-37 63q74 73 156 107q84 35 172 35q150 0 271 -88
q122 -89 198 -250q57 -124 78 -280q21 -154 0 -320zM690 944q-93 0 -153 -105q-59 -104 -82 -309q-22 -233 18 -347q40 -113 150 -113q102 0 158 98t79 334q23 228 -19 335t-151 107z" />
    <glyph glyph-name="uni2206" unicode="&#x2206;" horiz-adv-x="1183" 
d="M1153 0h-1122v84l450 1350h217l455 -1350v-84zM143 90h609l-308 940z" />
    <glyph glyph-name="product" unicode="&#x220f;" horiz-adv-x="1665" 
d="M664 1323v-1835h-398v1835h-174v90h1481v-90h-174v-1835h-395v1835h-340z" />
    <glyph glyph-name="summation" unicode="&#x2211;" horiz-adv-x="1212" 
d="M1049 18h88v-530h-1098v90h156l421 713l-462 1032h-117v90h1063v-450h-88v94q0 153 -59 210q-57 56 -255 56h-166l345 -799l-447 -751h444q102 0 138 29q37 30 37 120v96z" />
    <glyph glyph-name="minus" unicode="&#x2212;" horiz-adv-x="946" 
d="M854 682v-96h-762v96h762z" />
    <glyph glyph-name="radical" unicode="&#x221a;" horiz-adv-x="1114" 
d="M606 -20h-143l-385 968h-109v90h428l250 -639l404 1174h376v-90h-290z" />
    <glyph glyph-name="infinity" unicode="&#x221e;" horiz-adv-x="1306" 
d="M1235 592q0 -120 -81 -200q-80 -79 -214 -79q-80 0 -154 38t-170 134q-92 -92 -157 -128q-68 -38 -131 -38q-112 0 -185 71q-71 70 -71 192q0 121 85 200q86 80 210 80q78 0 154 -38q74 -37 173 -136q91 92 157 130q67 38 132 38q119 0 185 -69q67 -70 67 -195zM750 633
q89 -91 139 -120q51 -30 100 -30q71 0 117 41q45 40 45 109q0 67 -45 107q-44 40 -117 40q-49 0 -105 -34q-57 -34 -134 -113zM156 543q0 -64 46 -106q47 -42 115 -42q53 0 109 33q57 34 135 115q-91 91 -142 120t-102 29q-68 0 -114 -43q-47 -44 -47 -106z" />
    <glyph glyph-name="integral" unicode="&#x222b;" horiz-adv-x="1103" 
d="M127 -532q-163 0 -253 65q-91 66 -91 182q0 84 48 135q49 52 128 52q72 0 116 -44t44 -114q0 -68 -35 -109q-34 -40 -100 -55q16 -12 42 -18t54 -6q98 0 152 73t75 238l144 1157q33 262 175 401q143 140 363 140q180 0 285 -69q104 -68 104 -191q0 -79 -46 -125
q-47 -47 -128 -47q-75 0 -119 43q-45 44 -45 114q0 65 37 106t103 56q-17 12 -43 18q-28 7 -54 7q-104 0 -164 -77q-61 -78 -79 -233l-148 -1177q-33 -259 -176 -390q-144 -132 -389 -132z" />
    <glyph glyph-name="approxequal" unicode="&#x2248;" horiz-adv-x="1069" 
d="M881 578h77q0 -229 -53 -314q-53 -84 -174 -84q-69 0 -136 28q-66 28 -157 111q-63 57 -91 71q-32 16 -58 16q-53 0 -78 -48t-25 -161h-75q0 219 56 307q57 90 181 90q65 0 130 -28t155 -109q61 -55 92 -72q29 -16 59 -16q52 0 74 48q23 49 23 161zM881 1044h77
q0 -228 -53 -313q-53 -84 -174 -84q-69 0 -136 28q-66 28 -157 111q-63 57 -91 71q-30 15 -58 15q-54 0 -78 -47q-25 -48 -25 -161h-75q0 219 56 307q57 90 181 90q65 0 130 -28t155 -109q61 -55 92 -72q29 -16 59 -16q52 0 74 48q23 49 23 160z" />
    <glyph glyph-name="notequal" unicode="&#x2260;" horiz-adv-x="954" 
d="M842 502v-96h-469l-185 -246h-110l184 246h-149v96h221l190 252h-411v96h483l170 227h111l-170 -227h135v-96h-207l-191 -252h398z" />
    <glyph glyph-name="lessequal" unicode="&#x2264;" horiz-adv-x="913" 
d="M739 463v-127l-647 366v68l647 367v-123l-508 -275zM739 127h-647v96h647v-96z" />
    <glyph glyph-name="greaterequal" unicode="&#x2265;" horiz-adv-x="913" 
d="M821 702l-647 -366v123l504 276l-504 275v127l647 -367v-68zM821 223v-96h-647v96h647z" />
    <glyph glyph-name="lozenge" unicode="&#x25ca;" horiz-adv-x="1277" 
d="M1210 475l-487 -1007h-182l-473 958l487 1008h182zM520 1116l-215 -442l445 -897l211 450z" />
    <glyph glyph-name="uni00200326" horiz-adv-x="856" 
d="M616 -352q0 -145 -61 -255q-62 -112 -184 -194l-66 64q72 57 109 112q35 52 51 121q-7 -1 -20 -3q-8 -1 -19 -1q-90 0 -141 55q-52 57 -52 134q0 80 52 137q51 55 141 55q89 0 139 -62q51 -63 51 -163z" />
    <glyph glyph-name="c_t" horiz-adv-x="1910" 
d="M1542 -35q-176 0 -268 87t-92 253v643h-101v84q150 0 228 54q77 53 77 161t-79 171t-211 63q-171 0 -263 -79q-94 -80 -94 -228q0 -28 2 -64q1 -19 7 -47q121 -22 190 -84q70 -62 70 -145q0 -66 -36 -103t-98 -37q-94 0 -146 69q-53 70 -71 218q-109 -21 -161 -134
q-54 -117 -54 -325q0 -220 59 -332q58 -110 175 -110q95 0 157 65q63 66 87 189l98 -10q-29 -177 -135 -268t-283 -91q-239 0 -390 154t-151 403q0 241 155 394q154 152 398 157h13q4 0 18 -2q-7 32 -8 53q-2 32 -2 50q0 180 124 289q125 110 326 110q238 0 355 -102
q116 -101 116 -312v-121h293v-90h-293v-702q0 -88 25 -129q24 -39 84 -39q62 0 87 64q26 66 26 218h88q0 -224 -75 -310q-75 -85 -247 -85z" />
    <glyph glyph-name="f_f" horiz-adv-x="1626" 
d="M586 1038h360q0 99 25 188q24 84 73 150q-30 19 -69 29t-84 10q-147 0 -226 -85t-79 -247v-45zM702 90v-90h-651v90h164v858h-164v90h166q0 225 147 348t392 123q116 0 199 -16q85 -16 151 -51q67 63 152 92q90 31 194 31q166 0 255 -71t89 -204q0 -77 -44 -121
q-43 -43 -124 -43q-80 0 -124 42t-44 118q0 67 34 107q35 41 99 57q-17 12 -40 18q-28 7 -50 7q-95 0 -141 -72q-47 -73 -47 -215v-150h246v-90h-246v-858h190v-90h-698v90h137v858h-358v-858h116z" />
    <glyph glyph-name="f_f_i" horiz-adv-x="2236" 
d="M891 1415q-147 0 -226 -85t-79 -247v-45h356q0 101 26 184q26 81 81 150q-26 19 -72 32q-40 11 -86 11zM586 90h116v-90h-651v90h164v858h-164v90h166q0 225 147 348t392 123q124 0 205 -17q89 -19 155 -56q77 63 182 96q106 33 230 33q228 0 364 -78q138 -79 138 -211
q0 -80 -47 -122t-136 -42q-91 0 -143 41q-51 41 -51 117q0 58 33 95t98 58q-34 23 -75 35q-42 12 -93 12q-147 0 -226 -85t-79 -246v-101h219q303 0 385 5q71 4 88 18l35 -19v-952h164v-90h-652v90h115v858h-354v-858h116v-90h-610v90h123v858h-354v-858z" />
    <glyph glyph-name="f_f_l" horiz-adv-x="2289" 
d="M586 1038h385q0 99 26 173q28 80 86 145q-34 29 -85 44q-53 15 -107 15q-147 0 -226 -85t-79 -247v-45zM586 90h129v-90h-664v90h164v858h-164v90h166q0 228 150 350q149 121 407 121q120 0 212 -21q87 -20 163 -69q84 73 193 110q112 38 239 38q57 0 174 -13
q123 -14 127 -14q90 5 132 10q50 6 59 15l20 -19v-1456h164v-90h-666v90h129v1372q-37 10 -53 12q-27 3 -55 3q-131 0 -202 -98t-71 -283v-58h252v-90h-252v-858h129v-90h-637v90h138v858h-383v-858z" />
    <glyph glyph-name="f_j" horiz-adv-x="1458" 
d="M821 -535q-171 0 -264 70q-92 69 -92 201q0 86 45 135t123 49q81 0 124 -42q44 -42 44 -118q0 -68 -36 -108q-35 -40 -106 -55q17 -20 49 -31q29 -10 68 -10q88 0 126 90q38 91 38 311v991h-354v-858h116v-90h-651v90h164v858h-164v90h166q0 257 155 392t431 135
q227 0 364 -78q138 -79 138 -211q0 -80 -47 -122q-46 -42 -136 -42q-92 0 -144 42t-52 116q0 59 33 95q34 37 100 58q-23 23 -69 35t-99 12q-147 0 -226 -85t-79 -246v-101h219h10t28 -0.5t44 -0.5t63 -0.5t79 -0.5q221 -2 249 25l33 -19v-1032q0 -256 -131 -401
q-130 -144 -359 -144z" />
    <glyph glyph-name="f_t" horiz-adv-x="1636" 
d="M1280 -35q-184 0 -279 86q-94 85 -94 254v643h-348v-858h191v-90h-699v90h135v858h-135v90h137q0 244 165 385q166 142 435 142q249 0 370 -95q120 -94 120 -296v-136h295v-90h-293v-702q0 -88 25 -129q24 -39 84 -39q62 0 87 64q25 63 25 218h88q0 -225 -71 -309
q-72 -86 -238 -86zM559 1038h90q271 0 376 54q101 52 101 176q0 98 -61 150t-176 52q-168 0 -249 -90t-81 -268v-74z" />
    <glyph glyph-name="g_j" horiz-adv-x="1783" 
d="M1425 1583q102 0 160 -53q57 -52 57 -141q0 -87 -57 -139q-56 -52 -160 -52q-102 0 -158 52q-57 52 -57 139q0 89 57 141q58 53 158 53zM1141 -535q-91 0 -157 19q-64 18 -110 57q-62 -37 -144 -55q-81 -18 -181 -18q-265 0 -402 75q-139 76 -139 217q0 97 76 164t201 82
q-107 17 -160 68t-53 137q0 84 64 141q65 58 169 74q-118 43 -184 123q-66 79 -66 182q0 156 133 249q134 93 353 93q68 0 127 -10q62 -11 116 -31l424 6q129 1 229 10q90 8 132 19l63 -18v-1039q0 -267 -125 -406t-366 -139zM426 731q0 -130 28 -197q27 -65 87 -65t87 65
q27 64 27 197q0 139 -25 199q-25 61 -89 61q-61 0 -88 -62q-27 -63 -27 -198zM952 -403q20 -20 52 -31q29 -10 69 -10q100 0 144 86q43 85 43 315v991l-336 2q51 -43 76 -98q26 -57 26 -121q0 -147 -138 -245q-137 -97 -347 -97q-120 0 -171 -16q-53 -17 -53 -54
q0 -39 50 -54t196 -15q249 0 382 -91q134 -92 134 -261q0 -95 -32 -169q-33 -76 -95 -132zM299 -231q0 -100 76 -152q77 -53 211 -53q139 0 221 57t82 150q0 91 -72 132q-71 40 -268 46l-168 6q-42 -28 -62 -73q-20 -44 -20 -113z" />
    <glyph glyph-name="s_t" horiz-adv-x="1767" 
d="M123 -35h-64v385h91q0 -114 84 -198q86 -86 217 -86q91 0 132 31q42 31 42 100q0 41 -36 71q-39 33 -163 72q-112 36 -161 61q-51 26 -91 60q-54 48 -80 109t-26 145q0 160 105 256q106 97 284 98h28q-5 18 -6 45q-2 36 -2 59q0 181 126 290q127 110 325 110
q240 0 361 -103q120 -102 120 -311v-121h295v-90h-293v-702q0 -88 25 -129q24 -39 84 -39q62 0 87 64q25 63 25 218h88q0 -226 -74 -310q-75 -85 -247 -85q-177 0 -269 87t-92 253v643h-100v84q149 0 227 54t78 159q0 110 -85 173q-86 63 -230 63q-160 0 -252 -80t-92 -227
q0 -52 1 -68q2 -29 5 -41q132 -15 202 -71q72 -57 72 -142q0 -64 -42 -102q-41 -37 -107 -37q-95 0 -147 63q-51 62 -68 207q-86 0 -134 -33q-49 -34 -49 -92q0 -61 44 -103q45 -44 192 -96q104 -39 147 -61q48 -25 82 -53q53 -45 76 -100q25 -59 25 -130q0 -172 -101 -261
t-290 -89q-86 0 -160 24q-77 25 -131 68z" />
    <glyph glyph-name="hyphen.cap" horiz-adv-x="727" 
d="M635 694h-543v97h543v-97z" />
    <glyph glyph-name="endash.cap" horiz-adv-x="1179" 
d="M1087 694h-995v97h995v-97z" />
    <glyph glyph-name="emdash.cap" horiz-adv-x="1486" 
d="M1395 694h-1303v97h1303v-97z" />
    <glyph glyph-name="parenleft.cap" horiz-adv-x="878" 
d="M731 -184q35 -43 84 -92l53 -54l-57 -80q-284 129 -469 408q-184 278 -184 588q0 332 194 657q196 328 459 445l57 -80q-99 -93 -142 -156t-75 -137q-29 -75 -50 -163q-23 -95 -34 -198q-10 -79 -15 -173q-5 -103 -5 -195q0 -40 2 -106q1 -16 2 -49t2 -50q6 -68 11 -102
q3 -19 9 -54.5t7 -40.5q12 -65 23 -103q13 -46 30 -91q22 -53 44 -92q23 -42 54 -82z" />
    <glyph glyph-name="parenright.cap" horiz-adv-x="878" 
d="M723 596q0 -311 -185 -591q-186 -281 -468 -415l-60 80q56 59 91 97t44 51q36 47 56 83q24 43 45 93q6 17 30 93q14 45 25 103q6 38 15 97q8 52 12 106q0 14 1.5 47.5t2.5 51.5q2 68 2 104q0 93 -5 195q-4 81 -16 172q-12 105 -33 194q-18 77 -53 162q-29 70 -71 132
q-41 61 -146 157l60 80q266 -117 459 -441q194 -325 194 -651z" />
    <glyph glyph-name="bracketleft.cap" horiz-adv-x="733" 
d="M684 -299v-90h-565v2048h565v-90h-188v-1868h188z" />
    <glyph glyph-name="bracketright.cap" horiz-adv-x="733" 
d="M614 1659v-2048h-563v90h187v1868h-187v90h563z" />
    <glyph glyph-name="braceleft.cap" horiz-adv-x="784" 
d="M580 -188q15 -77 56 -112q42 -36 118 -36v-74q-178 0 -298 39t-186 117q-56 68 -73 174q-17 105 12 330q14 103 16 156t-2 81q-11 72 -50 102q-41 32 -116 32v81q73 0 114 30q39 29 50 93q6 35 3 80q-4 59 -17 152q-32 215 -14 320q18 102 79 169q68 72 187 107
q120 35 295 35v-84q-78 0 -124 -33t-61 -105q-8 -38 -9 -88q-1 -41 7 -166q12 -152 7 -230q-5 -76 -25 -130q-33 -84 -104 -131t-185 -59q118 -15 191 -67t106 -146q21 -60 27 -139q6 -82 -4 -244q-9 -137 -9 -166q0 -43 9 -88z" />
    <glyph glyph-name="braceright.cap" horiz-adv-x="784" 
d="M725 702v-81q-75 0 -116 -32q-39 -30 -50 -102q-4 -28 -2 -81t16 -156q31 -228 15 -328q-16 -104 -74 -174q-64 -80 -184 -119q-122 -39 -299 -39v74q75 0 117 36q43 37 55 110q8 42 8 89q0 42 -8 164q-10 163 -4 246q6 84 26 140q32 93 107 146q73 52 192 67
q-114 12 -185 59q-70 46 -103 131q-22 57 -26 130q-5 78 7 230q8 125 7 166q-1 50 -9 88q-15 73 -60 105q-47 33 -124 33v84q175 0 295 -35q117 -34 184 -107q63 -67 81 -170q17 -99 -13 -321q-18 -113 -19 -150q-2 -51 2 -78q10 -66 50 -95q41 -30 114 -30z" />
    <glyph glyph-name="guilsinglleft.cap" horiz-adv-x="675" 
d="M397 662l219 -388v-79l-565 432v69l565 387v-90z" />
    <glyph glyph-name="guilsinglright.cap" horiz-adv-x="696" 
d="M625 696v-69l-566 -432v79l220 388l-220 331v90z" />
    <glyph glyph-name="guillemotleft.cap" horiz-adv-x="1148" 
d="M403 702l261 -454v-80l-613 494v81l613 449v-90zM870 702l220 -387v-79l-566 432v69l566 387v-90z" />
    <glyph glyph-name="guillemotright.cap" horiz-adv-x="1148" 
d="M1098 743v-81l-613 -494v80l260 454l-260 400v90zM625 737v-69l-566 -432v79l220 387l-220 332v90z" />
    <glyph glyph-name="slash.cap" horiz-adv-x="937" 
d="M856 1694l102 -49l-876 -1743l-102 49z" />
    <glyph glyph-name="backslash.cap" horiz-adv-x="942" 
d="M86 1694l877 -1743l-107 -49l-876 1743z" />
    <glyph glyph-name="bar.cap" horiz-adv-x="468" 
d="M295 1946v-2335h-121v2335h121z" />
    <glyph glyph-name="at.cap" horiz-adv-x="2160" 
d="M1073 -285q-441 0 -689 217q-249 217 -249 611q0 180 80 345q78 160 227 279q135 109 307 166q176 58 365 58q417 0 664 -211t247 -557q0 -236 -122 -385q-123 -150 -338 -150q-167 0 -252 83t-64 226q-39 -156 -119 -233q-79 -76 -202 -76q-179 0 -298 137t-98 338
q22 188 170 324q147 135 334 135q101 0 167 -48q67 -49 91 -134l222 182h45l-76 -621q-17 -124 20 -172q37 -49 131 -49q121 0 193 123t72 311q0 324 -207 505q-206 181 -580 181q-361 0 -609 -216q-247 -216 -247 -541q0 -353 217 -545q219 -193 598 -193q203 0 332 31
q123 30 209 94l28 -61q-75 -70 -230 -112q-156 -42 -339 -42zM856 565q-21 -186 12 -280q33 -95 117 -95q83 0 136 90q52 88 79 283q24 179 -10 277t-123 98q-82 0 -136 -97t-75 -276z" />
    <glyph glyph-name="i.dot" horiz-adv-x="733" 
d="M696 90v-90h-643v90h135v858h-135v90q179 0 293 8q113 8 152 21l63 -18v-959h135zM360 1583q102 0 159 -54q56 -53 56 -140t-56 -139t-159 -52q-104 0 -160 52q-57 52 -57 139q0 89 57 141q58 53 160 53z" />
    <glyph glyph-name="uni0402.alt" horiz-adv-x="1579" 
d="M793 1323v-549q51 59 132 89q79 30 179 30q196 0 309 -116t113 -324q0 -215 -110 -340t-277 -125q-69 0 -115 12t-76 37l23 55q16 -4 31 -7q5 -1 14 -1q69 0 99 77t30 269q0 151 -44 225t-134 74q-84 0 -129 -52q-45 -53 -45 -151v-436h94v-90h-631v90h154v1233h-43
q-140 0 -195 -59t-55 -207v-33h-90v389h1151v-389h-91v33q0 148 -55 207t-196 59h-43z" />
    <glyph glyph-name="uni0404.alt" horiz-adv-x="1193" 
d="M1071 459v-479h-59l-82 81q-41 -47 -107 -72q-63 -24 -151 -24q-266 0 -435 214t-169 528q0 313 169 527t431 214q83 0 145 -20t107 -64l81 70h60v-471h-90q0 170 -66 275t-176 105q-137 0 -197 -135q-59 -134 -61 -446h387v-90h-387q1 -314 63 -460q60 -142 195 -142
q119 0 185 105q67 107 67 284h90z" />
    <glyph glyph-name="uni0405.alt" horiz-adv-x="1019" 
d="M571 883q224 -80 311 -191t87 -280q0 -207 -120 -327t-335 -120q-92 0 -175 27q-82 27 -138 74l-82 -86h-58v473h89q0 -180 97 -281q97 -102 265 -102q111 0 170 52t59 150q0 67 -25 110q-26 44 -83 77q-19 10 -52 25q-36 16 -163 59q-185 63 -276 184t-91 301
q0 190 115 305t311 115q89 0 164 -26t117 -74l80 86h57v-471h-88q0 177 -84 279q-83 101 -227 101q-105 0 -163 -52q-59 -53 -59 -144q0 -63 23 -106q21 -40 74 -74q28 -16 63 -31q28 -12 137 -53z" />
    <glyph glyph-name="uni0406.alt" horiz-adv-x="862" 
d="M805 90v-90h-748v90h183v1233h-183v90h748v-90h-182v-1233h182z" />
    <glyph glyph-name="uni0407.alt" horiz-adv-x="862" 
d="M367 1702q0 -79 -50 -131q-49 -51 -135 -51q-88 0 -136 50t-48 132q0 86 48 136t136 50t136 -52q49 -54 49 -134zM838 1702q0 -82 -48 -132t-137 -50t-135 49q-47 50 -47 133q0 86 47 136t135 50q89 0 137 -51t48 -135zM805 90v-90h-748v90h183v1233h-183v90h748v-90
h-182v-1233h182z" />
    <glyph glyph-name="uni0408.alt" horiz-adv-x="1052" 
d="M893 1323v-881q0 -246 -118 -361q-119 -116 -367 -116q-188 0 -292 82q-106 83 -106 229q0 97 52 156q52 60 141 60q81 0 131 -52q49 -50 49 -133q0 -82 -45 -130q-44 -47 -131 -58q15 -22 53 -37q36 -14 84 -14q91 0 128 62q38 64 38 224v969h-211v90h733v-90h-139z" />
    <glyph glyph-name="uni0409.alt" horiz-adv-x="2076" 
d="M991 90v1233h-233q-6 -262 -17 -464t-26 -322q-40 -311 -134 -442q-93 -130 -276 -130q-125 0 -200 78q-74 77 -74 211q0 90 51 145q51 56 137 56q81 0 127 -49q47 -50 47 -123q0 -88 -48 -133q-49 -46 -148 -52q11 -19 37 -30q27 -11 71 -11q139 0 210 128
q70 126 103 431q16 135 23 303q7 172 12 404h-196v90h1052v-90h-139v-492h88q268 0 423 -114t155 -311t-140 -302q-138 -104 -401 -104h-618v90h114zM1370 741v-651h53q125 0 182 75q56 74 56 243q0 162 -60 248q-60 85 -178 85h-53z" />
    <glyph glyph-name="uni040A.alt" horiz-adv-x="2041" 
d="M1335 727v-637h54q123 0 180 74t57 237q0 161 -60 243q-60 83 -177 83h-54zM688 0h-631v90h138v1233h-138v90h631v-90h-110v-557h374v557h-108v90h631v-90h-140v-506h90q267 0 421 -112q155 -113 155 -306t-140 -296t-401 -103h-616v90h108v586h-374v-586h110v-90z" />
    <glyph glyph-name="uni040B.alt" horiz-adv-x="1640" 
d="M793 1323v-559q51 57 131 87t180 30q187 0 282 -101t95 -301v-389h135v-90h-623v90h107v412q0 112 -35 164q-35 51 -113 51t-119 -50q-40 -49 -40 -153v-424h108v-90h-645v90h154v1233h-45q-141 0 -194 -59q-54 -60 -54 -207v-33h-90v389h1151v-389h-91v33q0 148 -55 207
t-198 59h-41z" />
    <glyph glyph-name="uni040F.alt" horiz-adv-x="1507" 
d="M920 -299q0 -68 -46 -112t-120 -44q-75 0 -121 44q-45 43 -45 112q0 32 10 61q12 35 43 91q33 61 43 86q12 29 18 61h-645v90h138v1233h-138v90h625v-90h-104v-1233h352v1233h-105v90h625v-90h-137v-1233h137v-90h-641q6 -32 18 -61q13 -32 41 -84q32 -60 42 -93t10 -61z
" />
    <glyph glyph-name="uni0410.alt" horiz-adv-x="1357" 
d="M410 645h252l-127 385zM395 0h-391v90h121l444 1344h217l457 -1344h117v-90h-703v90h185l-154 471h-305l-150 -471h162v-90z" />
    <glyph glyph-name="uni0411.alt" horiz-adv-x="1269" 
d="M633 0h-576v90h138v1233h-138v90h1047v-444h-90v45q0 156 -84 232q-85 77 -258 77h-94v-528h81q258 0 411 -111t153 -295q0 -191 -152 -290q-151 -99 -438 -99zM846 389q0 152 -58 236q-57 82 -165 82h-45v-617h45q115 0 169 72t54 227z" />
    <glyph glyph-name="uni0412.alt" horiz-adv-x="1302" 
d="M1253 385q0 -188 -150 -287q-148 -98 -444 -98h-602v90h138v1233h-138v90h525q294 -1 447 -90t153 -256q0 -123 -99 -214q-100 -92 -262 -116q204 -27 318 -119t114 -233zM807 1065q0 127 -56 192q-57 66 -165 66h-8v-553h26q98 0 150 78q53 79 53 217zM578 688v-598h47
q121 0 179 73q56 71 56 232q0 155 -57 224t-185 69h-40z" />
    <glyph glyph-name="uni0413.alt" horiz-adv-x="1136" 
d="M809 0h-752v90h138v1233h-138v90h1045v-450h-90v51q0 156 -84 232q-85 77 -258 77h-92v-1233h231v-90z" />
    <glyph glyph-name="uni0403.alt" horiz-adv-x="1136" 
d="M809 0h-752v90h138v1233h-138v90h1045v-450h-90v51q0 156 -84 232q-85 77 -258 77h-92v-1233h231v-90zM551 1516h-96l135 235q22 37 52 52q32 16 77 16h323q48 0 53 -28q5 -27 -38 -48z" />
    <glyph glyph-name="uni0414.alt" horiz-adv-x="1384" 
d="M307 90h486v1233h-218q-12 -536 -74 -817q-63 -287 -194 -416zM102 -338v-31h-90v459h135q161 106 234 391q73 286 84 842h-221v90h1069v-90h-139v-1233h186v-459h-90v31q0 179 -76 258q-77 80 -244 80h-526q-169 0 -245 -81q-77 -82 -77 -257z" />
    <glyph glyph-name="uni0415.alt" horiz-adv-x="1120" 
d="M1061 0h-1004v90h138v1233h-138v90h967v-450h-90v51q0 151 -78 229t-231 78h-47v-555h165v143h101v-399h-101v166h-165v-586h92q153 0 227 80t74 250v39h90v-459z" />
    <glyph glyph-name="uni0401.alt" horiz-adv-x="1120" 
d="M520 1702q0 -81 -49 -131q-49 -51 -135 -51q-88 0 -136 50t-48 132q0 86 48 136t136 50t136 -52t48 -134zM991 1702q0 -82 -48 -132t-136 -50q-89 0 -135 49q-47 50 -47 133q0 86 47 136t135 50t136 -51t48 -135zM1061 0h-1004v90h138v1233h-138v90h967v-450h-90v51
q0 151 -78 229t-231 78h-47v-555h165v143h101v-399h-101v166h-165v-586h92q153 0 227 80t74 250v39h90v-459z" />
    <glyph glyph-name="uni0416.alt" horiz-adv-x="1980" 
d="M1690 -35q-130 0 -209 68t-113 213q-7 30 -21 128q-15 105 -16 113q-17 102 -45 145q-29 44 -74 44h-34v-586h96v-90h-572v90h97v586h-35q-46 0 -73 -44t-44 -145q-2 -9 -14 -111q-10 -86 -21 -130q-35 -148 -111 -214q-78 -67 -208 -67q-148 0 -212 76q-65 77 -65 276
h88q0 -108 13 -165q12 -54 41 -54q18 0 30 25q14 27 37 125q33 146 58 212q23 61 55 99q34 41 93 75q51 30 196 89q-47 12 -77 72t-54 227q-10 81 -18 115q-8 35 -17 53v-12q0 -63 -53 -107q-52 -43 -129 -43q-88 0 -138 56q-51 57 -51 153q0 98 60 155q59 56 161 56
q78 0 136 -35q57 -35 90 -106q16 -34 34 -101q14 -52 31 -176q22 -168 51 -216t78 -48h68v557h-111v90h594v-90h-104v-557h67q49 0 78 48t51 216q17 124 31 176q16 63 35 101q33 72 89 106q58 35 136 35q103 0 162 -56t59 -155q0 -96 -51 -153q-50 -56 -137 -56
q-81 0 -131 46q-51 47 -51 124v7v7q-16 -19 -23 -53t-18 -125q-16 -159 -48 -226q-29 -62 -86 -83q137 -51 203 -88q61 -34 96 -74t59 -99q23 -57 58 -216q24 -106 38 -128t32 -22q27 0 39 54q12 52 12 165h88q0 -199 -64 -275q-65 -77 -212 -77z" />
    <glyph glyph-name="uni0417.alt" horiz-adv-x="1177" 
d="M1120 362q0 -190 -135 -293q-136 -104 -383 -104q-101 0 -191 23q-91 23 -161 67l-82 -75h-59v473h90q0 -174 81 -279q80 -104 224 -104q111 0 167 78t56 235q0 158 -70 234q-69 75 -221 75h-96v90h98q127 0 187 71q59 69 59 224q0 134 -50 201q-49 65 -153 65
q-125 0 -193 -101q-69 -102 -69 -279h-90v471h59l82 -76q64 44 146 67q81 23 180 23q215 0 339 -91t124 -253q0 -145 -103 -239t-290 -122q218 -24 336 -121t118 -260z" />
    <glyph glyph-name="uni0418.alt" horiz-adv-x="1411" 
d="M662 90v-90h-605v90h138v1233h-138v90h605v-90h-84v-735l253 528v207h-83v90h606v-90h-140v-1233h140v-90h-606v90h83v828l-253 -529v-299h84z" />
    <glyph glyph-name="uni0419.alt" horiz-adv-x="1411" 
d="M451 1509q-68 0 -107 42t-39 110q0 141 111 239q110 97 282 97q173 0 283 -97q111 -98 111 -239q0 -68 -39 -110t-107 -42q-63 0 -99 33t-36 88q0 73 51 113q51 41 135 24q-32 32 -112 51t-187 19q-108 0 -188 -19q-81 -19 -113 -51q87 17 139 -23t52 -114q0 -53 -37 -87
t-100 -34zM662 90v-90h-605v90h138v1233h-138v90h605v-90h-84v-735l253 528v207h-83v90h606v-90h-140v-1233h140v-90h-606v90h83v828l-253 -529v-299h84z" />
    <glyph glyph-name="uni041A.alt" horiz-adv-x="1429" 
d="M1169 -35q-139 0 -221 66q-82 65 -125 215q-5 18 -27 124q-18 87 -30 126q-23 91 -63 137q-37 43 -91 43h-37v-586h117v-90h-635v90h138v1233h-138v90h635v-90h-117v-557h78q53 0 86 49t66 219q23 122 40 177q18 56 42 100q38 69 95 103q58 34 138 34q100 0 162 -57
q61 -57 61 -154t-49 -153t-131 -56q-80 0 -129 43t-49 111q0 53 17 86q18 35 53 53q-47 -5 -77 -55q-30 -51 -60 -213q-34 -179 -71 -246q-36 -66 -91 -84q138 -40 210 -74q67 -32 111 -76q39 -44 69 -109q27 -59 66 -216q27 -106 40 -127q14 -23 32 -23q27 0 39 54
q12 52 12 165h88q0 -200 -59 -275q-60 -77 -195 -77z" />
    <glyph glyph-name="uni040C.alt" horiz-adv-x="1429" 
d="M715 1516h-97l136 235q22 37 52 52q32 16 77 16h323q47 0 52 -28t-37 -48zM1169 -35q-139 0 -221 66q-82 65 -125 215q-5 18 -27 124q-18 87 -30 126q-23 91 -63 137q-37 43 -91 43h-37v-586h117v-90h-635v90h138v1233h-138v90h635v-90h-117v-557h78q53 0 86 49t66 219
q23 122 40 177q18 56 42 100q38 69 95 103q58 34 138 34q100 0 162 -57q61 -57 61 -154t-49 -153t-131 -56q-80 0 -129 43t-49 111q0 53 17 86q18 35 53 53q-47 -5 -77 -55q-30 -51 -60 -213q-34 -179 -71 -246q-36 -66 -91 -84q138 -40 210 -74q67 -32 111 -76
q39 -44 69 -109q27 -59 66 -216q27 -106 40 -127q14 -23 32 -23q27 0 39 54q12 52 12 165h88q0 -200 -59 -275q-60 -77 -195 -77z" />
    <glyph glyph-name="uni041B.alt" horiz-adv-x="1566" 
d="M991 90v1233h-233q-6 -262 -17 -464t-26 -322q-40 -311 -134 -442q-93 -130 -276 -130q-125 0 -200 78q-74 77 -74 211q0 86 50 144q49 57 134 57q82 0 130 -49q48 -50 48 -123q0 -81 -47 -130q-48 -49 -135 -55q7 -16 36 -29q27 -12 60 -12q137 0 209 129t102 430
q16 135 23 303q7 172 12 404h-196v90h1052v-90h-139v-1233h139v-90h-632v90h114z" />
    <glyph glyph-name="uni041C.alt" horiz-adv-x="1566" 
d="M305 90h201v-90h-449v90h138v1233h-138v90h539l170 -637l186 637h557v-90h-139v-1233h139v-90h-671v90h149v1077l-287 -981h-116l-279 985v-1081z" />
    <glyph glyph-name="uni041D.alt" horiz-adv-x="1531" 
d="M688 0h-631v90h138v1233h-138v90h631v-90h-110v-557h374v557h-108v90h631v-90h-140v-1233h140v-90h-631v90h108v586h-374v-586h110v-90z" />
    <glyph glyph-name="uni041E.alt" horiz-adv-x="1585" 
d="M793 1448q323 0 524 -212t201 -529q0 -319 -201 -530q-201 -212 -524 -212q-324 0 -525 212q-200 210 -200 530t200 530q201 211 525 211zM793 1352q-169 0 -245 -156q-77 -157 -77 -489q0 -333 78 -489q79 -157 244 -157q167 0 244 156q77 157 77 490q0 332 -77 489
q-77 156 -244 156z" />
    <glyph glyph-name="uni041F.alt" horiz-adv-x="1507" 
d="M688 0h-631v90h138v1233h-138v90h1393v-90h-137v-1233h137v-90h-631v90h111v1233h-352v-1233h110v-90z" />
    <glyph glyph-name="uni0420.alt" horiz-adv-x="1288" 
d="M795 0h-738v90h138v1233h-138v90h566q305 0 461 -102q157 -103 157 -303q0 -204 -155 -318q-156 -115 -437 -115h-71v-485h217v-90zM864 1006q0 170 -57 243q-57 74 -184 74h-45v-657h43q125 0 184 80t59 260z" />
    <glyph glyph-name="uni0421.alt" horiz-adv-x="1232" 
d="M1051 -20l-82 81q-49 -47 -120 -72q-69 -24 -159 -24q-274 0 -448 214q-174 215 -174 528t174 527t444 214q92 0 160 -21q69 -21 112 -63l82 70h60v-471h-90q0 169 -71 275q-71 105 -191 105q-150 0 -213 -147q-64 -149 -64 -489q0 -337 65 -488q64 -149 212 -149
q128 0 200 105t72 284h90v-479h-59z" />
    <glyph glyph-name="uni0422.alt" horiz-adv-x="1988" 
d="M645 0h-588v90h138v1233h-138v90h1874v-90h-137v-1233h137v-90h-588v90h72v1233h-231v-1233h71v-90h-522v90h72v1233h-230v-1233h70v-90z" />
    <glyph glyph-name="uni0423.alt" horiz-adv-x="1280" 
d="M420 -532q-144 0 -224 74q-81 75 -81 208q0 93 54 148t146 55q87 0 134 -48q47 -49 47 -132q0 -84 -44 -126q-43 -42 -143 -57q4 -14 35 -23q30 -9 68 -9q121 0 170 88t49 288v86l-545 1303h-123v90h737v-90h-215l326 -799l266 799h-186v90h426v-90h-129l-447 -1296v-84
q0 -246 -77 -360q-78 -115 -244 -115z" />
    <glyph glyph-name="uni040E.alt" horiz-adv-x="1280" 
d="M477 1509q-67 0 -106 42t-39 110q0 142 110 239t283 97t283 -97t110 -239q0 -68 -39 -110t-106 -42q-64 0 -100 33q-35 32 -35 88q0 73 51 113q51 41 135 24q-32 32 -113 51q-80 19 -186 19q-108 0 -188 -19q-81 -19 -113 -51q87 17 138 -23q52 -40 52 -114
q0 -54 -36 -87q-37 -34 -101 -34zM420 -532q-144 0 -224 74q-81 75 -81 208q0 93 54 148t146 55q87 0 134 -48q47 -49 47 -132q0 -84 -44 -126q-43 -42 -143 -57q4 -14 35 -23q30 -9 68 -9q121 0 170 88t49 288v86l-545 1303h-123v90h737v-90h-215l326 -799l266 799h-186v90
h426v-90h-129l-447 -1296v-84q0 -246 -77 -360q-78 -115 -244 -115z" />
    <glyph glyph-name="uni0424.alt" horiz-adv-x="1622" 
d="M1235 -20h-848v90h234v254q-285 12 -454 121t-169 284q0 174 167 281q166 106 456 121v212h-234v91h848v-91h-231v-212q287 -15 453 -121q167 -107 167 -281q0 -175 -169 -284t-451 -121v-254h231v-90zM1235 729q0 145 -54 220t-177 87v-616q119 15 175 90t56 219z
M387 729q0 -143 57 -219q56 -75 177 -90v616q-124 -11 -179 -85t-55 -222z" />
    <glyph glyph-name="uni0425.alt" horiz-adv-x="1372" 
d="M434 0h-411v90h139l336 567l-363 666h-119v90h701v-90h-160l213 -393l229 393h-118v90h389v-90h-158l-287 -492l408 -741h123v-90h-717v90h168l-254 467l-274 -467h155v-90z" />
    <glyph glyph-name="uni0426.alt" horiz-adv-x="1544" 
d="M1518 -369h-91v31q0 177 -76 257q-77 81 -245 81h-1049v90h138v1233h-138v90h625v-90h-104v-1233h352v1233h-105v90h625v-90h-137v-1233h205v-459z" />
    <glyph glyph-name="uni0427.alt" horiz-adv-x="1439" 
d="M1382 0h-772v90h254v572q-58 -35 -138 -52q-83 -18 -163 -18q-212 0 -311 96q-98 95 -98 299v336h-140v90h625v-90h-107v-373q0 -119 43 -180t125 -61q56 0 94 11q42 12 70 34v569h-106v90h624v-90h-139v-1233h139v-90z" />
    <glyph glyph-name="uni0428.alt" horiz-adv-x="2086" 
d="M2030 0h-1973v90h138v1233h-138v90h609v-90h-88v-1233h274v1233h-92v90h561v-90h-86v-1233h274v1233h-86v90h607v-90h-138v-1233h138v-90z" />
    <glyph glyph-name="uni0429.alt" horiz-adv-x="1892" 
d="M1866 90v-459h-90v31q0 179 -76 258q-77 80 -244 80h-1399v90h138v1233h-138v90h588v-90h-70v-1233h201v1233h-69v90h462v-90h-69v-1233h200v1233h-69v90h588v-90h-140v-1233h187z" />
    <glyph glyph-name="uni042A.alt" horiz-adv-x="1468" 
d="M1427 406q0 -202 -151 -304q-152 -102 -451 -102h-583v90h137v1231h-4q-132 0 -195 -76q-63 -77 -63 -231v-51h-90v450h946v-90h-211v-492h90q266 0 421 -114q154 -114 154 -311zM815 741h-53v-651h53q124 0 181 75t57 243q0 161 -61 248q-60 85 -177 85z" />
    <glyph glyph-name="uni042B.alt" horiz-adv-x="1839" 
d="M602 0h-545v90h138v1233h-138v90h1727v-90h-139v-1233h139v-90h-629v90h107v1233h-684v-555h34q259 0 411 -106q153 -106 153 -287q0 -185 -147 -280q-148 -95 -427 -95zM578 678v-588h14q116 0 162 60q47 61 47 225q0 154 -49 228q-49 75 -152 75h-22z" />
    <glyph glyph-name="uni042C.alt" horiz-adv-x="1284" 
d="M641 0h-584v90h138v1233h-138v90h731v-90h-210v-492h90q266 0 421 -114q154 -114 154 -311q0 -202 -151 -304q-152 -102 -451 -102zM631 741h-53v-651h53q124 0 181 75q56 74 56 243q0 162 -60 248q-60 85 -177 85z" />
    <glyph glyph-name="uni042D.alt" horiz-adv-x="1216" 
d="M1155 707q0 -319 -171 -530q-171 -212 -445 -212q-84 0 -158 23q-71 22 -131 67l-82 -75h-59v479h90q0 -180 74 -284q75 -105 210 -105q143 0 206 140q64 142 65 466h-430v90h430q-4 310 -66 444q-61 133 -205 133q-125 0 -199 -104q-75 -105 -75 -276h-90v471h59l82 -76
q50 44 123 67q74 23 160 23q272 0 442 -212t170 -529z" />
    <glyph glyph-name="uni042E.alt" horiz-adv-x="2105" 
d="M2038 707q0 -320 -169 -531t-444 -211q-266 0 -433 200t-177 511h-237v-586h110v-90h-631v90h138v1233h-138v90h631v-90h-110v-557h239q17 299 182 490q167 192 426 192q275 0 444 -211t169 -530zM1425 1352q-113 0 -160 -148q-46 -145 -46 -497q0 -351 46 -496
q47 -148 160 -148q116 0 163 148q46 145 46 496q0 352 -46 497q-47 148 -163 148z" />
    <glyph glyph-name="uni042F.alt" horiz-adv-x="1425" 
d="M575 1008q0 -170 63 -255t185 -85h29v655h-33q-124 0 -184 -76q-60 -77 -60 -239zM696 461q-1 -5 -6.5 -26t-9.5 -38q-20 -79 -31 -125q-43 -169 -123 -238t-227 -69q-149 0 -215 77q-66 76 -66 275h88q0 -104 15 -155t45 -51q29 0 47 28q19 29 35 101q29 128 52 176
q25 54 56 86q37 34 97 61q59 27 165 55q-195 30 -307 136q-110 104 -110 256q0 191 163 297t455 106h551v-90h-139v-1233h139v-90h-633v90h115v490h-21q-45 0 -79 -28q-33 -27 -56 -91z" />
    <glyph glyph-name="uni0462.alt" horiz-adv-x="1394" 
d="M750 0h-535v90h139v987h-24q-101 0 -149 -64q-48 -65 -48 -200v-12h-88v370h309v166h-139v90h659v-90h-139v-166h312v-370h-91v12q0 134 -49 199t-151 65h-21v-377h37q282 0 432 -90t150 -262q0 -183 -137 -266q-136 -82 -467 -82zM735 610v-520h21q115 0 169 63t54 195
q0 125 -58 193q-59 69 -161 69h-25z" />
    <glyph glyph-name="uni0472.alt" horiz-adv-x="1585" 
d="M793 1448q323 0 524 -212t201 -529q0 -319 -201 -530q-201 -212 -524 -212q-324 0 -525 212q-200 210 -200 530t200 530q201 211 525 211zM1112 770q-11 302 -86 441q-76 141 -233 141q-165 0 -241 -144q-77 -144 -81 -448q52 53 106 79q57 27 109 27q39 0 81 -9t112 -38
q31 -14 49 -19q15 -4 28 -9q51 -20 82 -24q37 -4 74 3zM471 664q6 -311 84 -457t238 -146q162 0 244 151q81 150 75 439q-48 -53 -93 -76q-47 -24 -95 -24q-53 0 -96 11q-49 13 -121 48q-33 17 -54 26q-12 5 -32 11q-48 19 -79 22q-32 3 -71 -5z" />
    <glyph glyph-name="uni0474.alt" horiz-adv-x="1542" 
d="M1122 1112l-364 -1132h-219l-453 1343h-123v90h709v-90h-185l299 -920l238 746q50 154 128 227q76 72 194 72q110 0 178 -60q67 -60 67 -163q0 -95 -48 -149t-130 -54q-89 0 -144 50t-55 134q0 32 10 64q9 28 27 49q-36 -17 -68 -66q-32 -50 -61 -141z" />
    <glyph glyph-name="uni0490.alt" horiz-adv-x="1124" 
d="M809 90v-90h-752v90h138v1233h-138v90h609q167 0 248 73q79 72 79 226v55h90v-444h-505v-1233h231z" />
    <glyph glyph-name="A.alt" horiz-adv-x="1351" 
d="M403 645h252l-127 385zM389 0h-391v90h121l444 1344h217l457 -1344h117v-90h-703v90h185l-154 471h-305l-150 -471h162v-90z" />
    <glyph glyph-name="Agrave.alt" horiz-adv-x="1351" 
d="M403 645h252l-127 385zM389 0h-391v90h121l444 1344h217l457 -1344h117v-90h-703v90h185l-154 471h-305l-150 -471h162v-90zM805 1516h-100l-515 227q-40 18 -34 47t53 29h338q44 0 74 -16q28 -15 49 -52z" />
    <glyph glyph-name="Aacute.alt" horiz-adv-x="1351" 
d="M403 645h252l-127 385zM389 0h-391v90h121l444 1344h217l457 -1344h117v-90h-703v90h185l-154 471h-305l-150 -471h162v-90zM629 1516h-97l136 235q22 37 52 52q32 16 77 16h323q47 0 52 -28t-37 -48z" />
    <glyph glyph-name="Acircumflex.alt" horiz-adv-x="1351" 
d="M676 1671l-285 -145h-84l305 375h125l295 -375h-74zM403 645h252l-127 385zM389 0h-391v90h121l444 1344h217l457 -1344h117v-90h-703v90h185l-154 471h-305l-150 -471h162v-90z" />
    <glyph glyph-name="Atilde.alt" horiz-adv-x="1351" 
d="M940 1874h76q0 -183 -46 -257q-46 -75 -155 -75q-50 0 -99 20q-48 20 -124 76q-49 37 -73 49q-22 11 -44 11q-46 0 -67 -33t-21 -109h-74q0 179 49 256q50 78 156 78q52 0 99 -19q46 -19 126 -77q43 -32 72 -48q21 -11 43 -11q46 0 64 30t18 109zM403 645h252l-127 385z
M389 0h-391v90h121l444 1344h217l457 -1344h117v-90h-703v90h185l-154 471h-305l-150 -471h162v-90z" />
    <glyph glyph-name="Adieresis.alt" horiz-adv-x="1351" 
d="M614 1702q0 -81 -49 -131q-49 -51 -135 -51q-88 0 -136 50t-48 132q0 86 48 136t136 50t136 -52t48 -134zM1085 1702q0 -82 -48 -132t-136 -50q-89 0 -135 49q-47 50 -47 133q0 86 47 136t135 50t136 -51t48 -135zM403 645h252l-127 385zM389 0h-391v90h121l444 1344h217
l457 -1344h117v-90h-703v90h185l-154 471h-305l-150 -471h162v-90z" />
    <glyph glyph-name="Aring.alt" horiz-adv-x="1351" 
d="M670 1901q94 0 149 -57q55 -56 55 -136q0 -78 -55 -134t-149 -56q-97 0 -152 55t-55 135q0 84 55 138q57 55 152 55zM670 1790q-40 0 -64 -22q-22 -21 -22 -60q0 -37 22 -59q23 -23 64 -23q40 0 63 24q23 25 23 58q0 36 -23 59t-63 23zM403 645h252l-127 385zM389 0h-391
v90h121l444 1344h217l457 -1344h117v-90h-703v90h185l-154 471h-305l-150 -471h162v-90z" />
    <glyph glyph-name="Amacron.alt" horiz-adv-x="1351" 
d="M985 1645h-618v153h618v-153zM403 645h252l-127 385zM389 0h-391v90h121l444 1344h217l457 -1344h117v-90h-703v90h185l-154 471h-305l-150 -471h162v-90z" />
    <glyph glyph-name="Aogonek.alt" horiz-adv-x="1351" 
d="M1231 -276q-121 0 -185 34q-65 35 -65 101q0 53 39 87q36 32 125 54h-494v90h185l-154 471h-305l-150 -471h162v-90h-391v90h121l444 1344h217l457 -1344h117v-90q-50 0 -85 -26q-34 -25 -34 -66q0 -43 31 -68q30 -24 86 -24q39 0 72 11q39 13 53 26l26 -39
q-42 -49 -108 -69q-67 -21 -164 -21zM403 645h252l-127 385z" />
    <glyph glyph-name="B.alt" horiz-adv-x="1302" 
d="M1253 385q0 -188 -150 -287q-148 -98 -444 -98h-602v90h138v1233h-138v90h525q294 -1 447 -90t153 -256q0 -123 -99 -214q-100 -92 -262 -116q204 -27 318 -119t114 -233zM807 1065q0 127 -56 192q-57 66 -165 66h-8v-553h26q98 0 150 78q53 79 53 217zM578 688v-598h47
q121 0 179 73q56 71 56 232q0 155 -57 224t-185 69h-40z" />
    <glyph glyph-name="C.alt" horiz-adv-x="1232" 
d="M1051 -20l-82 81q-49 -47 -120 -72q-69 -24 -159 -24q-274 0 -448 214q-174 215 -174 528t174 527t444 214q92 0 160 -21q69 -21 112 -63l82 70h60v-471h-90q0 169 -71 275q-71 105 -191 105q-150 0 -213 -147q-64 -149 -64 -489q0 -337 65 -488q64 -149 212 -149
q128 0 200 105t72 284h90v-479h-59z" />
    <glyph glyph-name="Ccedilla.alt" horiz-adv-x="1232" 
d="M1051 -20l-82 81q-49 -47 -120 -72q-69 -24 -159 -24q-274 0 -448 214q-174 215 -174 528t174 527t444 214q92 0 160 -21q69 -21 112 -63l82 70h60v-471h-90q0 169 -71 275q-71 105 -191 105q-150 0 -213 -147q-64 -149 -64 -489q0 -337 65 -488q64 -149 212 -149
q128 0 200 105t72 284h90v-479h-59zM934 -274q0 -80 -72 -125t-203 -45q-106 0 -175 23q-73 24 -105 67l35 65q24 -23 58 -35q36 -12 79 -12q55 0 82 18q26 17 26 54q0 40 -35 60q-38 22 -104 22l-8 45l133 149h131l-110 -114q103 0 187 -48q81 -46 81 -124z" />
    <glyph glyph-name="Cacute.alt" horiz-adv-x="1232" 
d="M1051 -20l-82 81q-49 -47 -120 -72q-69 -24 -159 -24q-274 0 -448 214q-174 215 -174 528t174 527t444 214q92 0 160 -21q69 -21 112 -63l82 70h60v-471h-90q0 169 -71 275q-71 105 -191 105q-150 0 -213 -147q-64 -149 -64 -489q0 -337 65 -488q64 -149 212 -149
q128 0 200 105t72 284h90v-479h-59zM621 1516h-97l135 235q22 36 53 52q32 16 76 16h324q47 0 52 -28q5 -27 -38 -48z" />
    <glyph glyph-name="Ccaron.alt" horiz-adv-x="1232" 
d="M1051 -20l-82 81q-49 -47 -120 -72q-69 -24 -159 -24q-274 0 -448 214q-174 215 -174 528t174 527t444 214q92 0 160 -21q69 -21 112 -63l82 70h60v-471h-90q0 169 -71 275q-71 105 -191 105q-150 0 -213 -147q-64 -149 -64 -489q0 -337 65 -488q64 -149 212 -149
q128 0 200 105t72 284h90v-479h-59zM1028 1915l-291 -375h-125l-309 375h84l293 -146l274 146h74z" />
    <glyph glyph-name="D.alt" horiz-adv-x="1552" 
d="M702 0h-645v90h138v1233h-138v90h645q344 0 564 -199q219 -198 219 -505q0 -310 -219 -509q-220 -200 -564 -200zM647 1323h-69v-1233h69q217 0 319 152q101 150 101 467q0 312 -101 462q-102 152 -319 152z" />
    <glyph glyph-name="Dcaron.alt" horiz-adv-x="1552" 
d="M702 0h-645v90h138v1233h-138v90h645q344 0 564 -199q219 -198 219 -505q0 -310 -219 -509q-220 -200 -564 -200zM647 1323h-69v-1233h69q217 0 319 152q101 150 101 467q0 312 -101 462q-102 152 -319 152zM1047 1915l-291 -375h-125l-309 375h84l292 -146l275 146h74z
" />
    <glyph glyph-name="E.alt" horiz-adv-x="1120" 
d="M1061 0h-1004v90h138v1233h-138v90h967v-450h-90v51q0 151 -78 229t-231 78h-47v-555h165v143h101v-399h-101v166h-165v-586h92q153 0 227 80t74 250v39h90v-459z" />
    <glyph glyph-name="Egrave.alt" horiz-adv-x="1120" 
d="M1061 0h-1004v90h138v1233h-138v90h967v-450h-90v51q0 151 -78 229t-231 78h-47v-555h165v143h101v-399h-101v166h-165v-586h92q153 0 227 80t74 250v39h90v-459zM686 1516h-100l-514 227q-41 18 -35 47t53 29h338q44 0 74 -16q28 -15 49 -52z" />
    <glyph glyph-name="Eacute.alt" horiz-adv-x="1120" 
d="M1061 0h-1004v90h138v1233h-138v90h967v-450h-90v51q0 151 -78 229t-231 78h-47v-555h165v143h101v-399h-101v166h-165v-586h92q153 0 227 80t74 250v39h90v-459zM563 1516h-96l135 235q22 37 52 52q32 16 77 16h324q47 0 52 -28q5 -27 -38 -48z" />
    <glyph glyph-name="Ecircumflex.alt" horiz-adv-x="1120" 
d="M1061 0h-1004v90h138v1233h-138v90h967v-450h-90v51q0 151 -78 229t-231 78h-47v-555h165v143h101v-399h-101v166h-165v-586h92q153 0 227 80t74 250v39h90v-459zM580 1671l-285 -145h-84l305 375h125l295 -375h-74z" />
    <glyph glyph-name="Edieresis.alt" horiz-adv-x="1120" 
d="M520 1702q0 -81 -49 -131q-49 -51 -135 -51q-88 0 -136 50t-48 132q0 86 48 136t136 50t136 -52t48 -134zM991 1702q0 -82 -48 -132t-136 -50q-89 0 -135 49q-47 50 -47 133q0 86 47 136t135 50t136 -51t48 -135zM1061 0h-1004v90h138v1233h-138v90h967v-450h-90v51
q0 151 -78 229t-231 78h-47v-555h165v143h101v-399h-101v166h-165v-586h92q153 0 227 80t74 250v39h90v-459z" />
    <glyph glyph-name="Emacron.alt" horiz-adv-x="1120" 
d="M1061 0h-1004v90h138v1233h-138v90h967v-450h-90v51q0 151 -78 229t-231 78h-47v-555h165v143h101v-399h-101v166h-165v-586h92q153 0 227 80t74 250v39h90v-459zM879 1704h-619v154h619v-154z" />
    <glyph glyph-name="Edotaccent.alt" horiz-adv-x="1120" 
d="M571 1888q102 0 159 -54q56 -53 56 -140t-56 -139t-159 -52q-104 0 -160 52q-57 53 -57 139q0 88 57 141q58 53 160 53zM1061 0h-1004v90h138v1233h-138v90h967v-450h-90v51q0 151 -78 229t-231 78h-47v-555h165v143h101v-399h-101v166h-165v-586h92q153 0 227 80t74 250
v39h90v-459z" />
    <glyph glyph-name="Eogonek.alt" horiz-adv-x="1120" 
d="M1176 -147l26 -39q-34 -43 -103 -67q-66 -23 -167 -23q-122 0 -187 34t-65 103q0 53 40 86q39 32 124 53h-787v90h138v1233h-138v90h967v-450h-90v51q0 151 -78 229t-231 78h-47v-555h165v143h101v-399h-101v166h-165v-586h92q153 0 227 80t74 250v39h90v-459
q-54 0 -91 -28q-36 -27 -36 -72q0 -40 33 -62q32 -22 90 -22q37 0 67 11q37 13 52 26z" />
    <glyph glyph-name="Ecaron.alt" horiz-adv-x="1120" 
d="M1061 0h-1004v90h138v1233h-138v90h967v-450h-90v51q0 151 -78 229t-231 78h-47v-555h165v143h101v-399h-101v166h-165v-586h92q153 0 227 80t74 250v39h90v-459zM922 1915l-291 -375h-125l-309 375h84l292 -146l275 146h74z" />
    <glyph glyph-name="F.alt" horiz-adv-x="1169" 
d="M836 90v-90h-779v90h138v1233h-138v90h1071v-450h-90v51q0 156 -84 232q-85 77 -258 77h-118v-557h247v143h101v-403h-101v170h-247v-586h258z" />
    <glyph glyph-name="G.alt" horiz-adv-x="1275" 
d="M1143 -20h-80l-156 69q-61 -44 -128 -64q-66 -20 -156 -20q-247 0 -401 213q-154 212 -154 529q0 313 175 527t447 214q81 0 144 -21q64 -21 114 -61l82 68h60v-471h-91q0 173 -66 277q-66 103 -181 103q-148 0 -214 -153q-67 -155 -67 -483q0 -338 48 -488
q48 -149 161 -149q37 0 62 7q31 9 46 21v492h-120v90h581v-90h-106v-610z" />
    <glyph glyph-name="uni0122.alt" horiz-adv-x="1275" 
d="M844 -315q0 -119 -50 -211q-50 -93 -155 -162l-53 53q64 53 91 97q28 45 40 98q-3 0 -9 -1t-8 -2q-5 -1 -14 -1q-74 0 -117 46t-43 111q0 68 43 114t117 46q72 0 115 -52t43 -136zM1143 -20h-80l-156 69q-61 -44 -128 -64q-66 -20 -156 -20q-247 0 -401 213
q-154 212 -154 529q0 313 175 527t447 214q81 0 144 -21q64 -21 114 -61l82 68h60v-471h-91q0 173 -66 277q-66 103 -181 103q-148 0 -214 -153q-67 -155 -67 -483q0 -338 48 -488q48 -149 161 -149q37 0 62 7q31 9 46 21v492h-120v90h581v-90h-106v-610z" />
    <glyph glyph-name="H.alt" horiz-adv-x="1531" 
d="M688 0h-631v90h138v1233h-138v90h631v-90h-110v-557h374v557h-108v90h631v-90h-140v-1233h140v-90h-631v90h108v586h-374v-586h110v-90z" />
    <glyph glyph-name="I.alt" horiz-adv-x="862" 
d="M805 90v-90h-748v90h183v1233h-183v90h748v-90h-182v-1233h182z" />
    <glyph glyph-name="Igrave.alt" horiz-adv-x="862" 
d="M805 90v-90h-748v90h183v1233h-183v90h748v-90h-182v-1233h182zM578 1516h-101l-514 227q-41 18 -35 47t54 29h337q44 0 74 -16q28 -15 49 -52z" />
    <glyph glyph-name="Iacute.alt" horiz-adv-x="862" 
d="M805 90v-90h-748v90h183v1233h-183v90h748v-90h-182v-1233h182zM385 1516h-96l135 235q22 37 52 52q32 16 77 16h324q47 0 52 -28q5 -27 -38 -48z" />
    <glyph glyph-name="Icircumflex.alt" horiz-adv-x="862" 
d="M805 90v-90h-748v90h183v1233h-183v90h748v-90h-182v-1233h182zM428 1671l-285 -145h-84l306 375h124l295 -375h-73z" />
    <glyph glyph-name="Idieresis.alt" horiz-adv-x="862" 
d="M367 1702q0 -79 -50 -131q-49 -51 -135 -51q-88 0 -136 50t-48 132q0 86 48 136t136 50t136 -52q49 -54 49 -134zM838 1702q0 -82 -48 -132t-137 -50t-135 49q-47 50 -47 133q0 86 47 136t135 50q89 0 137 -51t48 -135zM805 90v-90h-748v90h183v1233h-183v90h748v-90
h-182v-1233h182z" />
    <glyph glyph-name="Imacron.alt" horiz-adv-x="862" 
d="M805 90v-90h-748v90h183v1233h-183v90h748v-90h-182v-1233h182zM721 1645h-619v153h619v-153z" />
    <glyph glyph-name="Iogonek.alt" horiz-adv-x="862" 
d="M682 -276q-126 0 -186 33q-64 35 -64 100q0 57 40 91t132 52h-547v90h183v1233h-183v90h748v-90h-182v-1233h182v-90q-51 0 -85 -27t-34 -71q0 -41 32 -64q31 -22 87 -22q38 0 69 10q33 10 54 27l26 -39q-37 -43 -106 -67q-66 -23 -166 -23z" />
    <glyph glyph-name="J.alt" horiz-adv-x="1052" 
d="M893 1323v-881q0 -246 -118 -361q-119 -116 -367 -116q-188 0 -292 82q-106 83 -106 229q0 97 52 156q52 60 141 60q81 0 131 -52q49 -50 49 -133q0 -82 -45 -130q-44 -47 -131 -58q15 -22 53 -37q36 -14 84 -14q91 0 128 62q38 64 38 224v969h-211v90h733v-90h-139z" />
    <glyph glyph-name="K.alt" horiz-adv-x="1406" 
d="M578 90h94v-90h-615v90h138v1233h-138v90h688v-90h-167v-602l423 602h-137v90h439v-90h-170l-250 -356l411 -877h92v-90h-581v90h88l-279 586l-36 -51v-535z" />
    <glyph glyph-name="uni0136.alt" horiz-adv-x="1406" 
d="M895 -315q0 -119 -50 -211q-50 -93 -155 -162l-53 53q64 53 91 97q28 45 40 98q-2 0 -8 -1t-8 -2q-5 -1 -15 -1q-73 0 -116 46t-43 111q0 68 43 114t116 46q72 0 115 -52t43 -136zM578 90h94v-90h-615v90h138v1233h-138v90h688v-90h-167v-602l423 602h-137v90h439v-90
h-170l-250 -356l411 -877h92v-90h-581v90h88l-279 586l-36 -51v-535z" />
    <glyph glyph-name="L.alt" horiz-adv-x="1198" 
d="M1169 0h-1112v90h138v1233h-138v90h731v-90h-210v-1233h200q154 0 228 80q73 79 73 250v39h90v-459z" />
    <glyph glyph-name="Lacute.alt" horiz-adv-x="1198" 
d="M408 1516h-97l135 235q22 36 53 52q32 16 76 16h324q47 0 52 -28q5 -27 -38 -48zM1169 0h-1112v90h138v1233h-138v90h731v-90h-210v-1233h200q154 0 228 80q73 79 73 250v39h90v-459z" />
    <glyph glyph-name="uni013B.alt" horiz-adv-x="1198" 
d="M823 -315q0 -119 -50 -211q-50 -93 -155 -162l-53 53q64 53 91 97q28 45 40 98q-2 0 -8 -1t-8 -2q-5 -1 -14 -1q-74 0 -117 46t-43 111q0 68 43 114t117 46q71 0 114 -52t43 -136zM1169 0h-1112v90h138v1233h-138v90h731v-90h-210v-1233h200q154 0 228 80q73 79 73 250
v39h90v-459z" />
    <glyph glyph-name="Lcaron.alt" horiz-adv-x="1331" 
d="M1214 1227q0 -137 -55 -241t-170 -183l-59 59q69 60 101 110q32 51 44 111q-7 -2 -16 -3q-7 -1 -19 -1q-82 0 -129 53t-47 125q0 79 46 131t130 52q80 0 127 -59t47 -154zM1169 0h-1112v90h138v1233h-138v90h731v-90h-210v-1233h200q154 0 228 80q73 79 73 250v39h90
v-459z" />
    <glyph glyph-name="M.alt" horiz-adv-x="1566" 
d="M305 90h201v-90h-449v90h138v1233h-138v90h539l170 -637l186 637h557v-90h-139v-1233h139v-90h-671v90h149v1077l-287 -981h-116l-279 985v-1081z" />
    <glyph glyph-name="N.alt" horiz-adv-x="1404" 
d="M305 90h203v-90h-451v90h138v1233h-138v90h447l602 -960v870h-203v90h451v-90h-140v-1329h-231l-678 1059v-963z" />
    <glyph glyph-name="Ntilde.alt" horiz-adv-x="1404" 
d="M305 90h203v-90h-451v90h138v1233h-138v90h447l602 -960v870h-203v90h451v-90h-140v-1329h-231l-678 1059v-963zM991 1874h76q0 -183 -46 -257q-47 -75 -155 -75q-50 0 -99 20q-48 20 -124 76q-49 37 -73 49q-22 11 -44 11q-46 0 -67 -33t-21 -109h-73q0 179 49 256
q50 78 155 78q53 0 100 -19q46 -19 126 -77q45 -34 71 -48q21 -11 43 -11q46 0 64 30t18 109z" />
    <glyph glyph-name="Nacute.alt" horiz-adv-x="1404" 
d="M305 90h203v-90h-451v90h138v1233h-138v90h447l602 -960v870h-203v90h451v-90h-140v-1329h-231l-678 1059v-963zM659 1516h-96l135 235q22 36 53 52q32 16 76 16h324q47 0 52 -28q5 -27 -38 -48z" />
    <glyph glyph-name="uni0145.alt" horiz-adv-x="1404" 
d="M901 -315q0 -119 -50 -211q-50 -93 -155 -162l-53 53q64 53 91 97q28 45 40 98q-3 0 -8 -1t-8 -2q-5 -1 -15 -1q-73 0 -116 46t-43 111q0 68 43 114t116 46q72 0 115 -52t43 -136zM305 90h203v-90h-451v90h138v1233h-138v90h447l602 -960v870h-203v90h451v-90h-140v-1329
h-231l-678 1059v-963z" />
    <glyph glyph-name="Ncaron.alt" horiz-adv-x="1404" 
d="M305 90h203v-90h-451v90h138v1233h-138v90h447l602 -960v870h-203v90h451v-90h-140v-1329h-231l-678 1059v-963zM1069 1915l-291 -375h-125l-309 375h84l293 -146l274 146h74z" />
    <glyph glyph-name="O.alt" horiz-adv-x="1585" 
d="M793 1448q323 0 524 -212t201 -529q0 -319 -201 -530q-201 -212 -524 -212q-324 0 -525 212q-200 210 -200 530t200 530q201 211 525 211zM793 1352q-169 0 -245 -156q-77 -157 -77 -489q0 -333 78 -489q79 -157 244 -157q167 0 244 156q77 157 77 490q0 332 -77 489
q-77 156 -244 156z" />
    <glyph glyph-name="Ograve.alt" horiz-adv-x="1585" 
d="M793 1448q323 0 524 -212t201 -529q0 -319 -201 -530q-201 -212 -524 -212q-324 0 -525 212q-200 210 -200 530t200 530q201 211 525 211zM793 1352q-169 0 -245 -156q-77 -157 -77 -489q0 -333 78 -489q79 -157 244 -157q167 0 244 156q77 157 77 490q0 332 -77 489
q-77 156 -244 156zM874 1516h-100l-514 227q-41 18 -35 47t54 29h337q44 0 74 -16q28 -15 49 -52z" />
    <glyph glyph-name="Oacute.alt" horiz-adv-x="1585" 
d="M793 1448q323 0 524 -212t201 -529q0 -319 -201 -530q-201 -212 -524 -212q-324 0 -525 212q-200 210 -200 530t200 530q201 211 525 211zM793 1352q-169 0 -245 -156q-77 -157 -77 -489q0 -333 78 -489q79 -157 244 -157q167 0 244 156q77 157 77 490q0 332 -77 489
q-77 156 -244 156zM756 1516h-97l136 235q22 37 52 52q32 16 77 16h323q47 0 52 -28t-37 -48z" />
    <glyph glyph-name="Ocircumflex.alt" horiz-adv-x="1585" 
d="M793 1448q323 0 524 -212t201 -529q0 -319 -201 -530q-201 -212 -524 -212q-324 0 -525 212q-200 210 -200 530t200 530q201 211 525 211zM793 1352q-169 0 -245 -156q-77 -157 -77 -489q0 -333 78 -489q79 -157 244 -157q167 0 244 156q77 157 77 490q0 332 -77 489
q-77 156 -244 156zM774 1671l-285 -145h-83l305 375h125l294 -375h-73z" />
    <glyph glyph-name="Otilde.alt" horiz-adv-x="1585" 
d="M793 1448q323 0 524 -212t201 -529q0 -319 -201 -530q-201 -212 -524 -212q-324 0 -525 212q-200 210 -200 530t200 530q201 211 525 211zM793 1352q-169 0 -245 -156q-77 -157 -77 -489q0 -333 78 -489q79 -157 244 -157q167 0 244 156q77 157 77 490q0 332 -77 489
q-77 156 -244 156zM1061 1874h76q0 -183 -46 -257q-47 -75 -155 -75q-50 0 -99 20q-48 20 -124 76q-49 37 -73 49q-22 11 -44 11q-47 0 -68 -33q-20 -31 -20 -109h-74q0 179 49 256q49 78 156 78q52 0 99 -19q46 -19 126 -77q43 -32 72 -48q21 -11 43 -11q45 0 63 30
q19 32 19 109z" />
    <glyph glyph-name="Odieresis.alt" horiz-adv-x="1585" 
d="M793 1448q323 0 524 -212t201 -529q0 -319 -201 -530q-201 -212 -524 -212q-324 0 -525 212q-200 210 -200 530t200 530q201 211 525 211zM793 1352q-169 0 -245 -156q-77 -157 -77 -489q0 -333 78 -489q79 -157 244 -157q167 0 244 156q77 157 77 490q0 332 -77 489
q-77 156 -244 156zM725 1702q0 -81 -49 -131q-50 -51 -135 -51q-89 0 -137 50t-48 132q0 86 48 136t137 50q88 0 136 -52t48 -134zM1196 1702q0 -82 -48 -132t-136 -50q-89 0 -135 49q-48 51 -48 133q0 85 48 136q47 50 135 50t136 -51t48 -135z" />
    <glyph glyph-name="Omacron.alt" horiz-adv-x="1585" 
d="M793 1448q323 0 524 -212t201 -529q0 -319 -201 -530q-201 -212 -524 -212q-324 0 -525 212q-200 210 -200 530t200 530q201 211 525 211zM793 1352q-169 0 -245 -156q-77 -157 -77 -489q0 -333 78 -489q79 -157 244 -157q167 0 244 156q77 157 77 490q0 332 -77 489
q-77 156 -244 156zM1071 1645h-618v153h618v-153z" />
    <glyph glyph-name="Ohungarumlaut.alt" horiz-adv-x="1585" 
d="M793 1448q323 0 524 -212t201 -529q0 -319 -201 -530q-201 -212 -524 -212q-324 0 -525 212q-200 210 -200 530t200 530q201 211 525 211zM793 1352q-169 0 -245 -156q-77 -157 -77 -489q0 -333 78 -489q79 -157 244 -157q167 0 244 156q77 157 77 490q0 332 -77 489
q-77 156 -244 156zM702 1516h-96l64 249q6 26 30 40q25 14 70 14h154q53 0 59 -19q6 -18 -35 -51zM926 1516h-109l252 249q31 29 59 41q31 13 62 13h250q56 0 54 -23q-2 -24 -50 -47z" />
    <glyph glyph-name="P.alt" horiz-adv-x="1261" 
d="M795 0h-738v90h138v1233h-138v90h559q306 0 462 -99q157 -100 157 -292q0 -195 -154 -307q-153 -111 -438 -111h-65v-514h217v-90zM860 1020q0 162 -58 232q-59 71 -186 71h-38v-631h36q127 0 187 78q59 77 59 250z" />
    <glyph glyph-name="Q.alt" horiz-adv-x="1585" 
d="M1065 -319q-113 0 -168 54q-55 53 -100 230h-4q-324 0 -525 212q-200 210 -200 530t200 530q201 211 525 211q323 0 524 -212t201 -529q0 -247 -128 -440q-126 -190 -348 -263q22 -126 41 -165q18 -38 58 -38q42 0 61 54q19 55 19 172h88q0 -187 -58 -268
q-56 -78 -186 -78zM500 362q21 75 78 119q56 43 139 43q122 0 190 -80t107 -268q52 75 76 205q24 131 24 326q0 332 -77 489q-77 156 -244 156q-169 0 -245 -156q-77 -157 -77 -489q0 -109 7 -189q8 -92 22 -156zM571 295q0 -96 47 -155t142 -77h-2q6 0 10 -1t8 -1
q-14 88 -17 104q-4 24 -9.5 54t-6.5 37q-17 89 -37 124q-21 36 -55 36q-37 0 -59 -31q-21 -30 -21 -90z" />
    <glyph glyph-name="R.alt" horiz-adv-x="1439" 
d="M1149 -35q-134 0 -217 76q-84 77 -135 246q-13 43 -19 75q-5 29 -18 103q-15 94 -23 128q-7 30 -12 50q-17 58 -47 86q-28 27 -74 27h-26v-666h147v-90h-668v90h138v1233h-138v90h547q319 0 465 -76q148 -77 148 -235q0 -139 -121 -218q-120 -78 -353 -89
q134 -49 209 -92q74 -42 117 -93q30 -40 54 -98q22 -53 73 -254q23 -87 41 -117t47 -30q30 0 45 50q14 46 14 150h89q0 -189 -67 -268q-66 -78 -216 -78zM840 1100q0 124 -53 174q-52 49 -185 49h-24v-477h24q129 0 183 57q55 58 55 197z" />
    <glyph glyph-name="Racute.alt" horiz-adv-x="1439" 
d="M1149 -35q-134 0 -217 76q-84 77 -135 246q-13 43 -19 75q-5 29 -18 103q-15 94 -23 128q-7 30 -12 50q-17 58 -47 86q-28 27 -74 27h-26v-666h147v-90h-668v90h138v1233h-138v90h547q319 0 465 -76q148 -77 148 -235q0 -139 -121 -218q-120 -78 -353 -89
q134 -49 209 -92q74 -42 117 -93q30 -40 54 -98q22 -53 73 -254q23 -87 41 -117t47 -30q30 0 45 50q14 46 14 150h89q0 -189 -67 -268q-66 -78 -216 -78zM840 1100q0 124 -53 174q-52 49 -185 49h-24v-477h24q129 0 183 57q55 58 55 197zM635 1516h-96l135 235q22 37 52 52
q32 16 77 16h323q48 0 53 -28q5 -27 -38 -48z" />
    </font>
</defs>
</svg>
