<?xml version="1.0" standalone="no"?>
<!DOCTYPE svg PUBLIC "-//W3C//DTD SVG 1.1//EN" "http://www.w3.org/Graphics/SVG/1.1/DTD/svg11.dtd" >
<svg xmlns="http://www.w3.org/2000/svg" xmlns:xlink="http://www.w3.org/1999/xlink" version="1.1">
<metadata>
Created by FontForge 20170731 at Wed Feb 24 17:58:26 2021
 By Aleksey,,,
Copyright (c) 2007 by Blue Vinyl Fonts. All rights reserved.
</metadata>
<defs>
<font id="LearningCurvePro" horiz-adv-x="647" >
  <font-face 
    font-family="Learning Curve Pro"
    font-weight="400"
    font-stretch="normal"
    units-per-em="2048"
    panose-1="2 0 0 0 0 0 0 0 0 0"
    ascent="1536"
    descent="-512"
    x-height="608"
    cap-height="1235"
    bbox="-405.13 -525.446 1950.06 1513.56"
    underline-thickness="102"
    underline-position="-307"
    unicode-range="U+0020-FB02"
  />
<missing-glyph horiz-adv-x="544" 
 />
    <glyph glyph-name="fi" unicode="fi" horiz-adv-x="737" 
d="M877 365q15 -13 -5 -43l-36 -41q-70 -82 -109 -121q-57 -57 -94 -78q-56 -31 -86 -16q-27 13 -31 55q-6 46 23 131q35 95 77 184l-92 -108l-10 -9q-24 -30 -61 -67q-71 -67 -131 -98q-64 -36 -134 -39q-12 -2 -36 -2q-13 0 -19 2q-2 -2 -2 -9q-2 -19 -2.5 -23t2 -23
t2.5 -23q2 -16 11.5 -91.5t12 -107.5t-0.5 -88t-17 -100q-21 -65 -65.5 -112t-104.5 -48q-39 0 -68 22t-38 58q-7 36 10 117q23 95 109 305l145 334q-15 -2 -21.5 12.5t3.5 26.5l20 22l25 25q2 3 11 13t11 17q14 24 27 58l30 73q39 97 170 412q23 59 66 154q37 84 104 102
q29 10 59 1.5t50 -32.5q41 -49 14 -141q-30 -88 -125 -219q-66 -94 -190 -248l-94 -108l-43 -50l-19 -20q-10 -13 -16 -27q-39 -86 -113 -258q8 19 49 19q34 0 52 2q46 6 96 28q53 26 99 69.5t97 104.5q7 7 9 7l22 26l139 160l46 53q12 15 24 13q11 -3 15.5 -12.5t0.5 -18.5
q-1 -2 -12 -25q-76 -139 -127 -266q-30 -72 -41 -119q-7 -27 -4 -49q0 -25 8 -25q8 -2 33 11q23 13 49 35q33 29 90 90q41 44 78 90q2 2 7 8.5t8.5 10.5t9.5 9.5t10.5 7.5t11 1.5t11.5 -4.5zM379 805l-107 -258q152 180 224 276q35 46 94 135q38 61 59 115q14 26 12.5 68
t-32.5 55q-28 12 -58 -5t-47 -46q-16 -26 -35 -74l-32 -78q-15 -33 -40.5 -97t-37.5 -91zM111 -229q2 56 -15 188q-8 59 -10 88q-6 35 0 72q-63 -143 -100 -242q-48 -117 -66 -188q-7 -33 -10 -60q-8 -39 4 -63q11 -23 39 -27.5t49 6.5q57 24 83 88.5t26 137.5zM827 895
q-20 15 -19 38t21 40t41 6q20 -15 19 -38t-21 -40t-41 -6z" />
    <glyph glyph-name="fl" unicode="fl" horiz-adv-x="790" 
d="M1057 1235q32 -16 36.5 -59t-10.5 -72q-9 -25 -51 -98q-56 -92 -155 -226q-87 -118 -207 -272q-9 -9 -15 -21l-8 -24l-18 -49q-22 -61 -31 -95q-13 -42 -18 -79q-8 -60 6 -93q6 -15 16.5 -22t24 -4.5t27.5 8.5t31.5 19t31 24t30.5 28.5t26 27t22 23.5t14 15l63 70
q1 1 9.5 12t13.5 15.5t13.5 11t15.5 5.5t14 -9q11 -16 -6 -37q-34 -40 -35 -41l-68 -72q-60 -66 -112 -106q-59 -41 -96 -39q-44 0 -66.5 33.5t-24.5 80.5v21.5t2 23t3 20.5t5 23t5 20.5t6.5 23t6 20.5t7 22.5t6.5 20.5q-16 -18 -39 -49q-4 -4 -12 -8q-52 -61 -67 -76
q-71 -67 -131 -98q-64 -36 -134 -39q-12 -2 -36 -2q-13 0 -19 2q-2 -2 -2 -9q-2 -19 -2.5 -23t2 -23t2.5 -23q2 -16 11.5 -91.5t12 -107.5t-0.5 -88t-17 -100q-21 -65 -65.5 -112t-104.5 -48q-39 0 -68 22t-38 58q-7 36 10 117q23 95 109 305l145 334q-15 -2 -21.5 12.5
t3.5 26.5l20 22l25 25q2 3 11 13t11 17q14 24 27 58l30 73q39 97 170 412q23 59 66 154q37 84 104 102q29 10 59 1.5t50 -32.5q41 -49 14 -141q-30 -88 -125 -219q-66 -94 -190 -248l-94 -108l-43 -50l-19 -20q-10 -13 -16 -27q-39 -86 -113 -258q8 19 49 19q34 0 52 2
q46 6 96 28q53 26 99 69.5t97 104.5l7 7q4 5 13.5 14.5t12.5 13.5l49 64q5 5 11 12t13 15.5t11 13.5q1 2 5 6t6.5 8t3.5 8q2 3 5 11.5t5 11.5q24 66 57 143q61 156 90 219q40 86 72 148q47 88 80 125q28 33 61.5 51.5t65.5 1.5zM379 805l-107 -258q152 180 224 276
q35 46 94 135q38 61 59 115q14 26 12.5 68t-32.5 55q-28 12 -58 -5t-47 -46q-16 -26 -35 -74l-32 -78q-15 -33 -40.5 -97t-37.5 -91zM111 -229q2 56 -15 188q-8 59 -10 88q-6 35 0 72q-63 -143 -100 -242q-48 -117 -66 -188q-7 -33 -10 -60q-8 -39 4 -63q11 -23 39 -27.5
t49 6.5q57 24 83 88.5t26 137.5zM1034 1104q26 60 6 86q-7 9 -26 4q-42 -17 -86 -94q-34 -50 -64 -119q-34 -65 -82 -178l-61 -154q142 189 186 252q99 145 127 203z" />
    <glyph glyph-name=".notdef" horiz-adv-x="544" 
 />
    <glyph glyph-name=".null" horiz-adv-x="0" 
 />
    <glyph glyph-name="nonmarkingreturn" horiz-adv-x="682" 
 />
    <glyph glyph-name="space" unicode=" " horiz-adv-x="544" 
 />
    <glyph glyph-name="exclam" unicode="!" horiz-adv-x="1024" 
d="M752 1225q24 -10 2 -54q-1 -1 -35 -79l-166 -392l-117 -268q-4 -11 -14 -14q-13 -6 -24 5.5t-5 25.5l10 22l56 131l172 402l67 155l19 43q14 32 35 23zM332 127q0 17 -11 28t-26 11q-17 0 -28 -11t-11 -28q0 -15 11 -26t28 -11q15 0 26 11t11 26z" />
    <glyph glyph-name="quotedbl" unicode="&#x22;" horiz-adv-x="430" 
d="M567 1268q9 -4 12.5 -14t-1.5 -17q0 -3 -3 -6l-22 -49q-6 -11 -35 -72l-29 -61l-8 -17l-2 -2q-3 -11 -16 -14q-16 0 -25 12q-7 10 0 21l4 10l25 53l35 72l28 59l7 12q4 8 6 9q11 11 24 4zM696 1268q8 -5 11.5 -14t-0.5 -17q-2 -2 -2 -6l-25 -49l-33 -72l-39 -78v-2
q-5 -10 -16 -14q-19 0 -25 12q-6 9 -2 21l6 10l25 53q29 61 35 72l26 59l7 12l6 9q10 10 26 4z" />
    <glyph glyph-name="numbersign" unicode="#" horiz-adv-x="989" 
d="M897 981q12 0 19 -10t4 -21q-3 -12 -19 -16h-182l-2 -4l-19 -43l-30 -68l-33 -74l-27 -59q-2 -3 -5 -11t-5 -11h162q15 -4 18 -19q3 -11 -3.5 -20t-18.5 -9h-178l-3 -2l-6 -14l-24 -55q-13 -31 -33 -74l-31 -68l-18 -45q-1 -1 -2.5 -4.5t-3.5 -5.5q-11 -11 -25 -6
q-12 3 -16 18q0 9 4 17l8 16l27 62l32 73q8 20 29 62q2 10 10 26h-266l-2 -2l-6 -14l-25 -55q-18 -44 -32 -74l-31 -68l-19 -45q-1 -1 -2.5 -4.5t-3.5 -5.5q-11 -11 -24 -6q-13 3 -17 18q0 9 4 17l9 16l26 62l33 73q8 20 29 62q2 10 10 26h-158q-12 0 -18.5 9.5t-3.5 21.5
q3 13 18 17h182l2 4l19 43l31 67l32 74l27 57l10 25h-162q-15 4 -18 16t4 21.5t19 9.5h178l2 2l6 14l24 56q10 26 33 73l31 68l18 43q5 10 7 12q11 11 24 6q13 -3 16 -20q0 -6 -4 -14q-3 -5 -8 -19l-26 -59l-33 -74q-6 -15 -29 -61q-2 -12 -10 -27h266l2 2l6 14l25 56
q10 26 33 73l30 68l19 43l6 12q11 11 25 6q13 -3 16 -20q0 -6 -4 -14q-3 -5 -8 -19l-27 -59l-33 -74l-28 -61q-2 -8 -11 -27h158zM547 664q2 2 2 4l18 43l31 67l33 74l26 57l11 25h-267l-2 -4l-18 -43l-31 -68l-33 -74l-26 -59q-2 -3 -5.5 -11t-4.5 -11h266z" />
    <glyph glyph-name="dollar" unicode="$" horiz-adv-x="638" 
d="M492 1128q43 -24 67 -67q19 -32 29 -78q4 -12 2 -18t-7.5 -11.5t-11.5 -5.5q-14 -3 -24 10l-4 15q0 2 -1 7t-1 7q-11 34 -23 55q-17 26 -43 45l-2 -2q-7 -15 -10 -28l-27 -60l-30 -75l-29 -70l-21 -49q-4 -8 -4 -12q-3 0 0 -3l25 -30q56 -64 76 -107q26 -50 20 -96
q-3 -27 -14 -49q-17 -29 -31 -41q-37 -34 -98 -41q-57 -9 -113 6q-4 0 -12 4q-2 0 -2 -2q-4 -8 -4 -10l-17 -37q0 -4 -4 -12l-6 -11q-10 -13 -25 -6q-12 3 -16 21q0 4 4 12t4 12l17 37q0 3 4 11v2l-15 8q-29 18 -45 37q-41 41 -41 100q0 8 2 12q4 8 9 13q16 8 26 0
q3 -2 8 -11q2 -4 2 -12q0 -18 5 -31q13 -45 67 -73l2 4l19 43l26 67l31 74l27 63q2 7 7.5 18.5t6.5 14.5q0 2 -2 4l-25 29q-26 27 -39 49q-38 53 -41 119q0 64 37 113q40 50 99 65q31 7 59 4q19 0 37 -6q4 0 16 -4l13 -2q7 22 22 55q7 13 10 27q4 7 9 10q12 9 26 2
q13 -9 10 -22q0 -2 -1 -5t-1 -4l-12 -28zM410 514q13 19 16 41q7 34 -16 82q-20 31 -33 47q-8 12 -25 32.5t-20 24.5q-2 0 -2 -2l-15 -37q-4 -9 -9 -19.5t-10 -24t-9 -21.5l-31 -74l-25 -61l-10 -25q44 -14 96 -8q36 4 56 14q26 11 37 31zM317 827q0 1 1 4t1 5l19 43l29 69
l30 74l25 59l10 25q-9 3 -39 8q-12 2 -39 2q-64 -6 -96 -63q-17 -27 -20 -56q-3 -32 6 -59q10 -33 30 -59q8 -12 43 -52z" />
    <glyph glyph-name="percent" unicode="%" horiz-adv-x="962" 
d="M831 1235q-4 -6 -8 -14l-12 -23l-18 -33l-25 -41l-27 -47l-30 -55q-7 -11 -19.5 -33t-15.5 -26q-26 -43 -35 -64q-25 -40 -39 -68l-41 -67l-39 -72q-4 -7 -19 -32t-22 -39l-41 -70q-5 -9 -18.5 -32.5t-20.5 -37.5l-36 -65l-37 -62l-33 -59l-29 -51q-1 -2 -26 -45l-23 -39
q-3 -7 -16 -29l-11 -20l-6 -9q-8 -12 -20 -12t-19 12t0 23q0 1 1 2t2 2.5t2 3.5l10 21l43 71l28 51l33 58q8 16 35 61q14 27 39 68q5 10 18.5 32.5t20.5 36.5l41 70q7 15 22.5 40.5t18.5 31.5l39 69l37 66l36 63q22 39 33 56l27 49l24 41q14 23 17 31l12 20l4 6
q-46 -29 -94 -49q-72 -27 -133 -35h-4v-4q-2 -4 -2 -10q-4 -12 -4 -19q-10 -30 -11 -36l-26 -64q-22 -50 -64 -106q-40 -50 -80 -76q-48 -27 -82 -29q-28 0 -55 15q-26 16 -41 40q-26 44 -29 107q-3 67 17 141t51 127q26 54 70 101q44 44 82 61q45 24 90 12q51 -13 78 -80
q19 -52 12 -133q2 0 6 1t6 1q53 9 109 31q54 23 102 62q50 41 82 86l16 26q4 4 4 8q3 3 3 4q4 4 4 5q4 4 6 4q2 2 4 2l4 2h6q2 -2 4 -2q4 0 6 -2l6 -6q0 -1 1.5 -4t1.5 -5v-8q0 -5 -3 -8zM770 674q26 0 47 -12q45 -23 64 -89q13 -53 6 -127q-9 -71 -37 -141
q-28 -68 -62 -112q-32 -49 -75 -84q-44 -32 -82 -39q-27 -3 -49 2q-30 7 -50 30q-32 32 -43 101q-8 59 9 135q11 64 45 133q32 69 65 107q36 46 80 71q49 27 82 25zM825 375q22 81 19 141q-3 26 -13 57q-12 31 -28 43q-32 26 -86 -2q-46 -29 -76 -69q-44 -57 -66 -111
q-30 -75 -38 -141q-4 -45 -2 -68q4 -39 10 -57q9 -24 28 -43q19 -13 50 -10q37 5 75 43q46 43 74 92q34 58 53 125zM401 954l9 35h-21q-78 4 -127 37q-22 19 -37 43q-13 26 -10 51q-36 -45 -61 -102q-32 -73 -41 -144q-4 -48 -2 -69q0 -25 10 -55q11 -30 29 -43
q22 -16 47 -13q37 7 77 43q42 39 74 92q34 58 53 125zM416 1034q5 31 2 70q-3 30 -15 57q-10 29 -34 41q-23 13 -60 0l-16 -8l-10 -6q-2 -2 -4 -2q0 -2 -3 -2v-2l-6 -15l-6 -16q-7 -29 -2 -49q6 -24 29 -37q21 -18 55 -25q34 -6 70 -6z" />
    <glyph glyph-name="ampersand" unicode="&#x26;" horiz-adv-x="739" 
d="M889 535q-2 -10 -10 -21q-2 -4 -5 -8t-7.5 -9t-6.5 -8q-12 -15 -74 -77q-50 -46 -102 -90l-55 -48q-6 -4 -29 -22l-8 -6q-2 0 -2 -2q-2 0 -2 -2l6 -19l43 -112l12 -27q0 -4 2 -6q3 -17 -10 -27q-15 -7 -27 2q-3 3 -8 13l-12 28q-24 58 -45 117q-75 -54 -103 -72
q-54 -37 -120 -65q-77 -26 -127 -31q-65 -7 -111 6q-53 14 -80 45q-35 40 -31 105q5 53 39 112q26 50 74 105q33 38 103 96q50 45 118 96q26 18 62 47q5 3 30 23l9 6q4 0 0 4v4l-4 21q-15 99 -15 157q-3 77 8 140q9 64 39 116q12 21 37 50q19 22 51 43q54 35 109 32
q56 0 104 -41q47 -41 66 -102q6 -30 6 -64q-3 -32 -16 -61q-18 -44 -62 -92q-46 -49 -98 -92q-61 -52 -121 -97l-33 -22l-16 -12l-2 -2v-2v-7q0 -1 1 -4t1 -4q15 -69 18 -78q23 -94 41 -149l43 -135q70 56 113 94l98 88l35 37l23 26l6 11q0 2 2 4l6 12q16 8 27 0
q13 -10 10 -24zM393 160q13 8 90 61l41 31q1 0 2 1t2 1q0 1 1.5 2t0.5 2l-4 14q-19 55 -22 66q-28 82 -43 141q-21 77 -39 156q-2 -4 -10 -8q-109 -84 -127 -99q-85 -67 -115 -96q-56 -56 -86 -98q-17 -22 -35 -58q-16 -33 -22 -61q-6 -31 0 -59q10 -27 30 -41
q30 -23 82 -27q52 -5 119 12q63 16 135 60zM500 1133l-8 -13q-32 -42 -46 -110q-11 -63 -8 -140q2 -62 17 -155l90 67q59 47 110 95q53 49 80 88q20 35 23 43q11 29 8 63q-7 67 -57 105q-23 20 -52 26q-25 6 -53 0q-48 -9 -104 -69z" />
    <glyph glyph-name="quotesingle" unicode="'" horiz-adv-x="440" 
d="M592 1268q9 -4 12 -14t-2 -17q0 -4 -2 -6l-22 -49q-6 -11 -35 -72l-29 -61l-8 -17l-2 -2q-3 -10 -17 -14q-15 0 -24 12q-7 10 0 21l4 10l25 53l34 72l29 59l6 12q4 8 6 9q11 11 25 4z" />
    <glyph glyph-name="parenleft" unicode="(" horiz-adv-x="716" 
d="M915 1262q-21 0 -45 -7q-42 -17 -59 -28q-24 -14 -66 -47q-32 -25 -67 -66q-35 -37 -70 -82q-15 -19 -69 -96q-34 -48 -68 -107q-14 -22 -37.5 -64t-30.5 -54l-61 -127q-30 -68 -57 -135q-29 -77 -52 -146q-28 -86 -43 -147q-16 -62 -30 -138q-14 -77 -19 -127
q-4 -37 -4 -110q0 -53 8 -94q11 -47 23 -74q26 -53 63 -66q6 -2 16.5 -4t12.5 -2q10 0 14 -2q9 -5 11 -8q7 -15 -2 -27q-3 -3 -13 -8h-14q-25 0 -55 15q-27 15 -47 38q-18 20 -37 68q-14 46 -19 82q-6 33 -6 100q0 57 6 115q5 50 19 127q11 64 30 139q19 68 46 146
q28 86 53 147q16 44 57 133q27 65 62 127q46 89 63 117l68 108q48 70 69 95q46 59 70 84l70 67q28 25 65 51q34 24 66 35q32 14 59 17q26 4 37 -7t4 -24q-7 -14 -21 -14z" />
    <glyph glyph-name="parenright" unicode=")" horiz-adv-x="849" 
d="M598 1300q50 0 88 -30q34 -27 51 -72q15 -35 25 -78q8 -44 8 -96q2 -37 -2 -111q-8 -82 -16 -125q-14 -79 -29 -135q-21 -88 -41 -145q-12 -44 -51 -150q-16 -45 -56 -135q-24 -59 -61 -129l-63 -121q-28 -53 -68 -108q-16 -28 -68 -98q-43 -58 -69 -86q-30 -35 -70 -72
q-35 -35 -67 -58q-35 -25 -66 -38q-27 -15 -61 -21q-20 -4 -29 -4q-15 0 -21 6q-13 10 -6 25q5 12 21 16h14q15 0 27 6q28 5 61 27q22 12 64 45q34 28 67 65q13 12 70 80q14 18 38 52t31 43q22 31 70 108q46 78 66 117q36 67 61 127q27 58 57 133q4 11 24.5 63.5t29.5 81.5
q27 83 43 148q15 57 32 139q14 70 19 127q7 61 4 113q0 53 -8 94q-6 37 -21 76q-22 49 -59 67l-29 6h-14l-12 7q-10 14 -4 26q7 14 20 14z" />
    <glyph glyph-name="asterisk" unicode="*" horiz-adv-x="841" 
d="M737 1108q13 6 25 0q11 -6 11.5 -18.5t-9.5 -20.5l-43 -29l-59 -39l-68 -43l-64 -43l-47 -30l-18 -13l14 -16l51 -49l70 -70l4 -4q6 -3 6 -14q4 -15 -12 -23q-16 -7 -27 4q-3 7 -8 9l-100 100l-27 27h-2l-14 -35q-2 -5 -29 -66q-10 -25 -33 -73l-20 -50q-4 -4 -4 -8
q-7 -14 -21 -14q-16 0 -22 14q-3 10 0 19q2 2 2 4l8 18q4 8 10 21t10.5 24t8.5 21l30 69l15 33q-13 -9 -17 -10q-19 -14 -49 -33l-67 -45l-64 -43l-47 -31l-12 -6l-2 -2q-11 -8 -23 0q-12 4 -12.5 18t10.5 21l43 29l58 37q48 34 67 45l66 43l47 30l18 13l-16 16l-51 49
q-9 10 -29 29t-25 24l-18 19q-4 4 -8 16q0 16 14 23t25 -4l8 -9l47 -45l82 -82l14 33l31 68l31 71l22 52l4 8q2 10 19 14q15 0 22 -14q6 -9 0 -19q0 -2 -2 -4q-4 -12 -8 -18q-9 -26 -29 -66l-30 -69q-6 -18 -15 -33l10 6l46 29l63 43l66 43l53 35q18 12 20 14z" />
    <glyph glyph-name="plus" unicode="+" horiz-adv-x="786" 
d="M686 594q9 0 16.5 -8t6.5 -17q0 -9 -7 -15.5t-16 -6.5h-289h-4q-1 -2 -2 -5.5t-2 -4.5l-20 -54q-2 -5 -13 -30.5t-16 -40.5l-29 -72l-20 -47q0 -1 -1 -3.5t-1 -4.5q-6 -12 -21 -15q-14 0 -22 15q-3 9 0 18l2 2l6 17l25 59q7 23 28 76l27 63q2 12 10 27h-264q-12 0 -20 11
t-3 22q7 14 23 14h282l5 8l18 45l27 72l30 74l25 59q2 12 10 27q3 10 15 14q13 3 24 -8q7 -14 4 -23l-2 -2l-14 -39l-27 -65l-31 -76l-24 -62l-10 -24h274z" />
    <glyph glyph-name="comma" unicode="," horiz-adv-x="477" 
d="M342 109q-4 -43 -59 -125l-33 -47q-15 -18 -33 -9q-8 5 -10 14t2 17q4 7 14.5 21.5t14.5 21.5q12 14 26 39q2 4 10 17.5t11 21.5q2 5 0 6l-9 6q-7 5 -10 14q-7 20 5.5 37t33.5 15q17 -1 26 -14t11 -27v-8z" />
    <glyph glyph-name="hyphen" unicode="-" horiz-adv-x="892" 
d="M707 559q9 0 18 -6q11 -11 4 -27q-6 -12 -22 -12h-422q-20 0 -23 2q-14 7 -14 21q0 15 14 22h445z" />
    <glyph glyph-name="period" unicode="." horiz-adv-x="284" 
d="M266 150q0 -20 -13.5 -34t-33.5 -14q-19 0 -32 14t-13 34q0 19 13 32t32 13q20 0 33.5 -13t13.5 -32z" />
    <glyph glyph-name="slash" unicode="/" horiz-adv-x="718" 
d="M-23 1200v47h799q2 0 1.5 -23.5t0.5 -23.5h-264h-33l-6 -18l-43 -107q-29 -69 -80.5 -197.5t-70.5 -175.5l-162 -395l-74 -184h678q4 -47 0 -47h-797q-2 0 -2 20v25q0 2 6 2h50h16l6 20l43 105q30 73 87 213t65 160l161 395l74 184h-455z" />
    <glyph glyph-name="zero" unicode="0" horiz-adv-x="731" 
d="M578 1221q47 0 82.5 -23.5t56 -62.5t31.5 -80t14 -86q11 -175 -60 -387q-66 -198 -165 -332q-100 -140 -207 -191q-63 -25 -111 -20q-78 11 -123 90q-61 112 -37 320q22 185 117 387q80 167 191 278q111 107 211 107zM672 637l24 94q21 110 21 195t-25 153
q-35 87 -102 95q-46 5 -105 -27q-100 -57 -202 -215q-103 -161 -152 -357q-29 -118 -31 -202q-6 -83 15 -164q25 -90 75 -113q48 -26 117 4q101 46 205 195q102 151 160 342z" />
    <glyph glyph-name="one" unicode="1" horiz-adv-x="528" 
d="M524 1210l-49 -120l-147 -367q-22 -55 -82.5 -203.5t-89.5 -222.5q-53 -125 -90 -221l-3 -4q-7 -19 -27 -14t-18 24q3 9 9 18l36 97q128 310 160 389l160 397l76 188q-19 -11 -76 -38q-15 -6 -28 2t-7 24q3 8 25 21l92 45l27 14q14 6 26 -4t6 -25z" />
    <glyph glyph-name="two" unicode="2" horiz-adv-x="864" 
d="M678 1225q70 -41 103 -117t30 -164q-2 -70 -37 -188q-23 -77 -63 -158q-127 -244 -396 -410q17 -5 58 -19t63.5 -21t57.5 -13.5t65 -7.5q67 -3 113 27q12 6 24 18t23 10q8 0 14 -5.5t6 -12.5q3 -13 -10 -25q-98 -95 -305 -35q-21 5 -44.5 13t-52 19t-44.5 16q-5 0 -17 4
q-3 1 -12 -2l-23 -13l-45 -22q-1 0 -31 -13t-46 -18q-30 -9 -46 -12.5t-42.5 -2t-43.5 14.5q-26 25 -19.5 55.5t34.5 51.5q87 72 258 14q7 -2 18 4q10 5 13 8q12 6 24 15l53 34q84 66 109 88q106 97 182 224q95 170 115 336q8 91 -24.5 169.5t-110.5 110.5q-81 32 -170 -5
t-148 -110q-58 -69 -55 -129q0 -16 4 -24q9 -18 4 -29q-4 -9 -15 -11.5t-18 3.5q-6 4 -16 25q-18 54 18 131q39 76 115 133q49 36 103 56t114.5 18t112.5 -31zM72 125q52 15 127 51q-110 25 -168 -10q-10 -5 -22.5 -18t-4.5 -21q14 -16 68 -2z" />
    <glyph glyph-name="three" unicode="3" horiz-adv-x="827" 
d="M406 1219q77 41 163 53q101 17 181 -15q77 -31 108 -108q33 -82 0 -191q-25 -85 -81.5 -160.5t-131.5 -131.5q22 -19 41 -48q76 -124 -18 -317q-77 -152 -230 -213q-127 -50 -268 -31q-53 8 -99.5 24.5t-89.5 51.5t-59 82q-8 25 -2 35q6 8 15.5 10t17.5 -2q4 -4 6.5 -9
t4.5 -12t3 -10q5 -13 15 -26q38 -57 127 -82q150 -48 301 8q71 26 131 80q60 55 98 145q44 98 31 180q-10 50 -39 84l-21 19q-5 5 -8 2l-10 -6q-32 -18 -43 -23q-109 -50 -184 -35q-27 4 -41 21q-24 27 2 65q38 48 123 60q53 9 102 -2q24 -6 47 -19q8 -2 10 0l10 7
q15 10 19 14q74 60 125.5 139t62.5 164q18 105 -49 166q-48 43 -137 43q-78 3 -164 -31q-35 -12 -80 -41q-39 -23 -53 -47q-3 -6 -4 -17t-4 -18t-12 -10q-20 -7 -26.5 8.5t-2.5 34.5q13 56 113 109zM432 621q66 9 127 45q-41 15 -90.5 10t-87.5 -29l-4.5 -3t-5.5 -4t-6 -5.5
t-3.5 -5t-0.5 -5t4 -3.5q22 -9 67 0z" />
    <glyph glyph-name="four" unicode="4" horiz-adv-x="780" 
d="M805 1229q2 -4 2 -12q-1 -4 -5 -13.5t-5 -13.5q-7 -14 -27 -64q-31 -67 -82 -192l-119 -281q45 0 68 2q21 0 31 2h24q9 -2 14.5 -11t2.5 -19q-4 -13 -29 -17q-29 -2 -88 -2q-2 -1 -12.5 -1h-20.5t-10 -1q0 -2 -2 -2l-6 -14q-37 -95 -64 -152q-84 -201 -143 -338
q0 -1 -1 -3t-1 -3q-6 -14 -18.5 -15t-21 9t-3.5 23l12 28l72 168l125 297q-113 -2 -338 -2h-84q-21 0 -24 17.5t11 29.5l216 178l335 283l119 98q3 2 12 10.5t16.5 13.5t16.5 9.5t16 1.5t11 -14zM518 651q5 13 35 84.5t47 108.5l125 299l-66 -56q-212 -180 -321 -268
l-205 -172q127 0 385 4z" />
    <glyph glyph-name="five" unicode="5" horiz-adv-x="804" 
d="M285 801q65 26 126.5 34.5t127 -8.5t110.5 -65q41 -42 56.5 -102t10 -116.5t-25.5 -115.5q-30 -86 -84.5 -161.5t-126.5 -127.5q-77 -55 -164.5 -70t-175.5 19q-81 35 -110 102q-19 44 -11 82q7 28 17 43q16 27 26 29q10 3 19.5 -3t9.5 -15q1 -6 -2 -13t-8.5 -14.5
t-7.5 -11.5q-18 -34 -2 -74q18 -54 92 -84q57 -25 117.5 -19t113.5 31.5t99 67.5q68 61 114.5 143t59.5 170q15 105 -23 174q-36 65 -108 84q-98 32 -240 -24q-32 -14 -55 -27q-25 -14 -35 12q-3 10 4 23l184 309l82 139q15 25 29 25h352q23 0 23 -23.5t-23 -23.5h-336
q-5 0 -10 -10l-18 -31l-64 -107z" />
    <glyph glyph-name="six" unicode="6" horiz-adv-x="696" 
d="M614 1233q19 12 31.5 -7t-6.5 -32l-6 -6l-47 -37q-256 -206 -396 -469q67 49 144 65t158 -12q61 -25 97 -80.5t44 -124.5q18 -146 -68 -294q-41 -73 -102 -123.5t-137 -63.5q-84 -15 -160 20.5t-111 110.5q-60 122 11 332q87 269 321 518q113 123 227 203zM401 707
q-117 6 -219 -86q-20 -20 -41 -48q-11 -14 -28 -63q-30 -88 -37 -145q-11 -111 24 -175q40 -74 123 -94q89 -21 174 27q61 33 105 96q97 139 88 287q-7 81 -47 135q-54 63 -142 66z" />
    <glyph glyph-name="seven" unicode="7" horiz-adv-x="673" 
d="M743 1208q4 -13 -6 -30l-116 -236q-76 -158 -187 -375l-178 -358l-51 -105l-12 -24q0 -1 -3 -4q-6 -13 -18 -13t-20 10t-2 23q5 15 24 47l62 125l186 377l178 361l86 170h-438h-6h-7t-7 0.5t-7 1t-5.5 2t-5.5 3.5t-3.5 5.5t-1.5 7.5q-2 12 5.5 18.5t15 7.5t20.5 1h459
q32 0 38 -15z" />
    <glyph glyph-name="eight" unicode="8" horiz-adv-x="671" 
d="M819 1128q16 -18 -6 -61q-10 -20 -47 -61q-22 -23 -45.5 -46t-53.5 -49t-48 -41t-56.5 -45.5t-50.5 -40.5l-86 -69l-14 -10q-4 -3 0 -11l14 -22l25 -45l55 -95q94 -162 33 -294q-32 -68 -101 -111.5t-151 -58.5q-101 -17 -183 0q-79 18 -110 75q-32 56 0 158
q29 84 90 164q33 48 117 123q11 11 80 69l45 37l20 17q4 3 0 10l-6 12q-23 50 -38 92t-25 94t-1 101t37 90q42 63 114.5 98t154.5 41q90 4 153 -22q38 -13 64 -39q30 -35 20 -60zM436 561q-23 37 -63 111q-141 -114 -197 -170t-102 -137q-49 -88 -49 -148q-1 -46 26.5 -73
t73 -33.5t85.5 -4.5t79 9q89 19 153.5 73.5t71.5 137.5q10 84 -37 163zM780 1110q0 6 2 8q1 2 -3 6q-2 2 -3 4l-4 17q-7 11 -24 24q-39 24 -93 31q-78 11 -155.5 -12t-128.5 -78q-34 -38 -46 -85t-2.5 -98.5t25 -93t39.5 -90.5q235 191 258 211q73 69 96 93l9 9
q9 10 11.5 14t8.5 12t8 14.5t2 13.5z" />
    <glyph glyph-name="nine" unicode="9" horiz-adv-x="600" 
d="M354 1190l33 16q93 38 178 8q77 -29 107 -100q58 -126 -25 -328q-48 -118 -155 -274q-77 -114 -189 -242q-94 -106 -143 -157l-31 -31q-12 -13 -29 -2t-8 29q1 3 12 14q228 228 388 473q-41 -29 -87 -42t-96 -6.5t-90 36.5q-48 38 -68.5 97t-17.5 115.5t21 118.5
q26 87 77.5 160.5t122.5 114.5zM621 846q57 175 0 266q-46 73 -140 70q-88 -6 -159 -74q-67 -61 -106.5 -153t-37.5 -183q3 -95 64 -147q61 -49 147 -29q75 21 135 84q57 59 97 166z" />
    <glyph glyph-name="colon" unicode=":" horiz-adv-x="598" 
d="M438 180q0 -25 -16 -41t-41 -16q-22 0 -37.5 16.5t-15.5 40.5q0 22 15.5 37.5t37.5 15.5q24 0 40.5 -15.5t16.5 -37.5zM702 825q0 -22 -16 -38.5t-39 -16.5t-39 16.5t-16 38.5q0 24 16 41t39 17t39 -17t16 -41z" />
    <glyph glyph-name="semicolon" unicode=";" horiz-adv-x="856" 
d="M317 131q-1 -9 -2.5 -18t-5 -18.5t-5.5 -16.5t-8 -18t-8.5 -16.5t-10 -17t-9.5 -15.5t-10.5 -16.5t-9.5 -14.5q-6 -9 -20.5 -28t-20.5 -28q-16 -23 -39 -10q-21 14 -10 37l35 51q10 11 32 47q3 7 12 22.5t13 24.5q2 5 0 6l-10 9q-9 5 -13 16q-9 25 6.5 45t40.5 16
q38 -5 43 -47v-10zM557 698q0 -20 -14 -33.5t-33 -13.5t-33 13.5t-14 33.5q0 18 14 30.5t33 12.5t33 -12.5t14 -30.5z" />
    <glyph glyph-name="less" unicode="&#x3c;" 
d="M2 1200v43q0 4 4 4h639v-43q0 -4 -4 -4h-639zM2 76v43q0 4 4 4h639v-43q0 -4 -4 -4h-639zM330 655v-39q0 -8 -4 -8h-324v33q0 14 4 14h324z" />
    <glyph glyph-name="equal" unicode="=" horiz-adv-x="792" 
d="M680 762q10 0 16 -6q11 -11 4 -27q-6 -12 -20 -12h-502q-19 0 -22 2q-15 7 -15 20q0 15 15 23h524zM594 578q9 0 16 -7q10 -7 6 -26q-6 -13 -22 -13h-500q-18 0 -22 3q-15 6 -15 20q0 15 15 23h522z" />
    <glyph glyph-name="greater" unicode="&#x3e;" 
d="M2 1200v43q0 4 4 4h639v-43q0 -4 -4 -4h-639zM2 76v43q0 4 4 4h639v-43q0 -4 -4 -4h-639zM330 655v-39q0 -8 -4 -8h-324v33q0 14 4 14h324z" />
    <glyph glyph-name="question" unicode="?" horiz-adv-x="1003" 
d="M332 121q0 15 -11 26t-28 11q-15 0 -26 -11t-11 -26q0 -17 11 -28t26 -11q17 0 28 11t11 28zM944 1096q23 -124 -74 -273q-54 -79 -118 -137q-28 -26 -83 -69t-73 -58q-86 -75 -127 -137q-5 -8 -15 -9.5t-18 5.5q-16 13 -4 33q21 33 57 69q44 47 148.5 132.5t150.5 138.5
q110 131 113 253q3 74 -45 117q-31 26 -77.5 35t-86.5 0q-80 -16 -146.5 -81t-103.5 -148q-10 -26 -16 -54q0 -21 -18 -26q-9 -2 -17.5 3.5t-9.5 14.5q-3 12 8 51q13 37 29 64q43 82 113 143.5t155 77.5q101 18 172 -24q70 -42 86 -121z" />
    <glyph glyph-name="at" unicode="@" horiz-adv-x="1263" 
d="M1219 813q10 -56 4 -108q-5 -48 -23 -111q-9 -31 -39 -102q-6 -15 -41 -82q-5 -7 -16.5 -27t-18.5 -29q-6 -13 -28 -43q-49 -70 -88 -112q-49 -57 -80 -80q-33 -30 -72 -47q-34 -15 -63 -15q-26 3 -45 17q-23 16 -29 45q-5 27 -2 61q3 36 12 74q-43 -59 -88 -104
q-52 -56 -104 -76q-68 -27 -117 -6q-41 20 -55 73q-10 39 2 99q12 50 45 114q41 67 86 115q52 52 104 90q55 35 99 53q51 19 81 23q35 6 68 6q24 0 45 -6q6 0 18 -4h3l2 -2l2 -2l6 -6q1 -1 2 -4.5t2 -4.5q0 -2 -1 -4.5t-1 -3.5v-4q-2 -2 -2 -4l-2 -4l-6 -12q-8 -14 -25 -48
q-31 -61 -51 -104q-40 -101 -43 -109q-22 -60 -31 -98q-9 -57 -6 -76q0 -14 6 -26q12 -19 35 -15q26 0 61 23q32 19 74 61q24 26 84 99q5 7 25.5 35t29.5 45q19 28 25 39q33 54 41 71q32 71 39 94q20 54 28 105q11 66 7 104q-3 31 -15 54q-10 25 -28 47q-33 38 -99 63
q-52 18 -112 21q-54 3 -127 -11q-58 -10 -135 -39q-65 -26 -132 -65q-71 -47 -102 -72q-46 -34 -90 -78q-26 -26 -76 -84q-38 -48 -61 -90q-31 -49 -49 -90q-26 -57 -37 -94q-21 -81 -23 -92q-6 -32 -10 -92q0 -59 2 -88q7 -50 14 -82q13 -44 29 -80q27 -55 61 -92
q42 -42 82 -60q43 -19 101 -26q51 -3 110 10q22 4 31 8q23 5 29 2q14 -4 14 -20q-3 -17 -16 -23q-62 -19 -117 -22q-60 -3 -109 8q-46 11 -94 41q-45 26 -80 67q-38 51 -57 99q-19 40 -27 75q-9 32 -16 84q-4 58 -2 88q0 31 8 93q3 21 21 92q7 30 32 94q11 31 45 92
q7 15 16.5 29.5t22.5 34l19 28.5q21 30 69 86q44 47 82 80q48 42 97 76q65 44 112 68q76 39 137 57q69 22 133 31q75 7 125 0q58 -6 111 -27q59 -21 100 -68t52 -100zM473 113q21 10 51 28q40 32 76 74q26 28 72 90q6 9 26.5 40.5t30.5 49.5q9 18 23 39q1 3 8 17l4 8l4 4
q0 1 1 2t1 2q1 1 2 4t2 4q27 61 57 117q-2 2 -8 2q-20 2 -59 -2q-24 -2 -78 -19q-26 -9 -94 -49q-61 -44 -103 -92q-54 -57 -86 -117q-26 -57 -34 -108q-4 -49 10 -76q15 -24 41 -27q22 -2 53 9z" />
    <glyph glyph-name="A" unicode="A" horiz-adv-x="995" 
d="M1104 362q8 10 21 8t18 -14q2 -3 1.5 -7.5t-1 -7.5t-3.5 -7l-4.5 -6t-5 -5.5t-4.5 -5.5l-59 -69q-79 -89 -147 -142q-64 -49 -121 -57q-37 -5 -68 12t-41 52q-16 48 8 137q17 66 66 190q-83 -113 -168 -196q-159 -155 -293 -176q-88 -14 -147 26q-61 40 -84 115
q-37 107 -4 260q38 172 153 336q100 147 235 256t294 158q97 27 180 30q103 0 155 -22q46 -23 48 -39q0 -18 -13 -25l-73 -176q-133 -311 -146 -344q-67 -153 -84 -194q-43 -101 -67 -183q-27 -91 -19 -129q4 -22 17 -33q21 -16 57 -8q39 8 106 62q84 72 193 204zM248 111
q50 -3 102 16q107 41 236 170q112 118 202 258q68 101 91 156l69 161l129 308q1 1 -10 4.5t-23 6.5t-14 3q-39 8 -90 8q-36 0 -74 -6q-110 -14 -221 -70q-149 -72 -272 -204q-146 -156 -221 -342q-63 -153 -52 -289q9 -71 46 -123.5t102 -56.5z" />
    <glyph glyph-name="B" unicode="B" horiz-adv-x="960" 
d="M926 1237q22 -5 43 -23q40 -29 56.5 -79t12 -99t-21.5 -98q-57 -162 -217 -264q50 -8 92.5 -37t66.5 -74q46 -85 25 -205q-14 -79 -58 -145.5t-112 -108.5q-130 -78 -301 -65q-71 7 -131 29q-55 18 -86 49q-33 37 -23 71q8 27 27 37q7 5 17 2t14 -12q2 -3 2.5 -6.5t0 -6
t-2 -5.5t-3 -5t-4.5 -5.5t-4 -4.5q-9 -14 7 -30q18 -18 32 -25q102 -59 254 -41q83 8 156 45.5t115 101.5q43 63 56 138.5t-11 148.5q-30 74 -97 98q-44 13 -77 13t-47 -6l-45 -19q-66 -20 -101 -26q-21 -4 -29 10q-8 16 5 26q12 12 43 21q26 11 43 16l45 13q28 5 39 10
q166 81 241 225q35 62 41 131q11 92 -39 139q-28 25 -66.5 29t-73.5 -7t-67 -32q-95 -60 -211 -217q-94 -129 -194 -328q-64 -125 -109 -231l-77 -188l-56 -134q-8 -17 -25 -14.5t-20 19.5q0 6 4 18l27 64q88 212 149 356q26 64 75 180.5t69 165.5q74 180 96 240
q16 41 10 65q-8 27 -49 35q-89 15 -184 -41q-37 -22 -53 -49q-1 -2 -6 -14t-11 -17t-16.5 -4t-14.5 8q-17 20 19 68q24 29 61 49q78 46 166 49q94 0 125 -53q12 -20 10.5 -47t-5.5 -39t-17 -47q-16 -46 -68 -170q125 190 232 278q141 115 256 74z" />
    <glyph glyph-name="C" unicode="C" horiz-adv-x="735" 
d="M844 365q15 15 32.5 -0.5t2.5 -32.5l-27 -27q-100 -116 -193 -180q-135 -98 -290 -98q-179 0 -258 112q-71 103 -56 277q15 140 76 282q62 145 158 273q103 132 219 205q63 41 125 57q85 29 149 8q45 -14 71.5 -54.5t29.5 -92.5q6 -68 -20.5 -139.5t-74.5 -123.5
q-6 -8 -21 -21t-34.5 -26t-35 -14t-23.5 14q-5 13 1.5 21t24 15.5t19.5 8.5q30 23 49 48q44 53 61 131q19 76 -2 131q-14 35 -41.5 51t-62.5 13.5t-65.5 -11t-63.5 -23.5q-119 -53 -227 -176q-104 -119 -172 -264q-72 -147 -91 -285q-19 -155 27 -249q31 -64 94 -95
q62 -32 166 -28q148 9 281 118q67 54 172 175z" />
    <glyph glyph-name="D" unicode="D" horiz-adv-x="1146" 
d="M657 1239q122 10 226 -10q151 -38 239 -142q113 -133 113 -323q0 -191 -109 -381q-92 -159 -233 -248q-144 -91 -334 -78q-79 5 -178 33l-39 12l-18 7q-5 3 -9 -3l-8 -8q-27 -32 -80 -49q-88 -31 -143 6q-28 19 -32 51t16 58q25 35 63 41q26 4 76 -8l49 -15l25 -10
q18 -9 20 -4q11 18 37 68q51 107 149.5 368.5t169.5 394.5q41 81 82 129q35 41 54 31q9 -4 11.5 -16t-3.5 -19l-21 -18q-36 -41 -78 -119q-36 -65 -77 -164q-47 -108 -152 -385q-6 -16 -22.5 -56.5t-25.5 -62.5t-23.5 -55t-28.5 -60.5t-29 -53.5q178 -59 309 -46
q132 8 254 97q137 102 215 276q95 209 58 389q-15 79 -59 146.5t-109 111.5q-114 76 -295 72q-203 -4 -309 -90q-45 -39 -64 -80q-14 -43 -6 -63q1 -3 6.5 -10.5t5.5 -14.5q-2 -9 -8.5 -16t-15.5 -7q-18 1 -27.5 21t-9.5 39q-3 35 14 69q19 44 64 86q102 95 290 109z
M250 106q14 11 22 21q-7 2 -34 12t-44.5 14.5t-35.5 6.5q-19 3 -37 -6q-28 -18 -25 -39q2 -28 49 -33q46 -3 105 24z" />
    <glyph glyph-name="E" unicode="E" horiz-adv-x="806" 
d="M913 362q11 14 26.5 7.5t14.5 -23.5q-2 -10 -16 -29l-23 -26q-46 -55 -98 -98q-115 -97 -231 -148q-158 -69 -301 -55q-92 10 -150 55q-63 48 -86 135q-22 88 10 176.5t101 157.5q114 120 305 172q-69 107 -66 236q2 90 39 167t109 119q73 42 168 35t149 -53
q33 -29 41 -64q8 -24 -4 -34q-19 -15 -33 2q-4 4 -6.5 16t-5.5 16q-7 17 -22 29q-32 26 -74 35q-89 24 -164 -10q-76 -29 -119 -117q-38 -80 -31.5 -176t54.5 -172q11 -17 16 -17q16 4 25 4q4 1 45 7q47 0 76 -7q72 -13 77 -63q4 -28 -18 -44t-50.5 -17t-52.5 0
q-50 10 -83 36q-18 10 -37 33l-45 -12q-182 -55 -289 -182q-63 -80 -74 -160q-17 -108 45 -182q74 -94 244 -74q139 17 274 96q155 89 260 229zM692 637q-8 16 -39 20q-44 11 -102 0q42 -33 98 -36q29 0 42 9q4 3 1 7z" />
    <glyph glyph-name="F" unicode="F" horiz-adv-x="737" 
d="M1329 1219q2 -7 3 -11.5t-3 -9.5t-7 -7.5t-9.5 -6t-11 -5.5t-10.5 -4.5t-9 -3.5q-39 -15 -80 -24q-84 -19 -166 -19q-16 2 -51 2q-17 6 -22 0q-2 -6 -13 -10q-9 -5 -28 -28q-31 -36 -70 -115q-66 -137 -147 -356q51 3 104 12l65 14q11 2 19 -5t8 -17q1 -8 -4.5 -14.5
t-13.5 -8.5q-15 -5 -70 -14q-58 -11 -100 -13q-25 0 -27 -2q-2 -10 -10 -26l-19 -49q-59 -157 -77 -195q-5 -12 -16.5 -39.5t-18.5 -43.5t-18 -38t-23 -39q-45 -69 -123 -100q-74 -30 -158.5 -9t-134.5 85q-31 44 -35 69q-2 9 5.5 18t17.5 9q17 0 24 -22q27 -74 109 -107
q77 -28 158 0q74 30 114 109q9 16 76 170l80 204q-68 -3 -133 0l-58 6q-3 1 -11 2.5t-12.5 3t-9.5 5t-7 8.5q-6 12 2 23.5t20 9.5l49 -9q41 -4 121 -4q9 0 27.5 1t27.5 1l21 52l37 98q66 158 71 168q29 68 62 125q28 51 57 80q-41 5 -167.5 28.5t-196.5 28.5q-25 1 -49 1.5
t-50 -5t-45 -18.5q-51 -35 -45 -89q3 -43 43 -59q24 -12 15 -31q-3 -9 -12.5 -13t-16.5 1q-38 15 -58.5 51t-15.5 76q6 59 62 98q60 40 165 33q78 -3 218.5 -29t197.5 -32q118 -10 203 2q53 10 98 26q36 13 51 21q8 4 17 1t14 -11z" />
    <glyph glyph-name="G" unicode="G" horiz-adv-x="1406" 
d="M1516 369q8 10 20.5 7.5t17.5 -14.5q7 -16 -26 -49q-42 -49 -88 -86q-87 -71 -180 -96q-124 -37 -277 -4q-13 3 -18 0l-23 -12q-21 -12 -45 -21q-46 -18 -98 -24q-84 -13 -152 16q-52 19 -86 59q-33 42 -43 76q-15 37 -4 64q9 30 59 26q34 0 78 -14q38 -13 103.5 -41.5
t85.5 -36.5q85 -29 102 -33q18 -9 27 -4l12 11l29 18q50 39 102 98q94 109 166 252q112 222 168 465q-54 -32 -160 -59q-108 -25 -207 -31q-69 -4 -104 0l-25 4q0 -1 -3.5 -5.5t-4.5 -8.5l-16 -27q-43 -70 -78 -121q-98 -142 -193 -256q-122 -144 -211 -235
q-122 -122 -198 -178q-98 -72 -156 -80q-39 -5 -39 22q0 8 4 13t8 6.5t13.5 3t11.5 2.5q25 4 64 24q62 36 176 138q103 97 207 217q232 261 370 497q-68 23 -92 82q-39 80 16 174q23 42 62.5 69t81.5 19q45 -10 63 -45q15 -35 8 -84q-12 -79 -69 -184q31 -2 92 -2
q99 6 199 27q92 22 143 51q30 15 43 28q1 1 6 6.5t8 8t7.5 5.5t9.5 2t10 -5q4 -2 6.5 -5.5t3 -8.5t1 -9t-0.5 -10l-1.5 -9t-2.5 -9.5t-2 -8.5q-40 -197 -137 -419q-140 -316 -336 -461q140 -21 244 18q132 46 248 187zM928 993q52 95 67 166q14 56 -6 78q-23 29 -71 4
q-32 -22 -52 -60t-20 -77q-3 -81 82 -111zM840 123q14 4 65 24q-37 11 -114 43q-12 5 -43 19t-48.5 21t-44 16t-49.5 14q-15 6 -35 6q-10 0 -16 -2q0 -6 2 -10q4 -30 35 -74q29 -34 72.5 -51t86.5 -16t89 10z" />
    <glyph glyph-name="H" unicode="H" horiz-adv-x="1044" 
d="M1153 365q9 10 21 5.5t16 -15.5t-4 -23l-25 -29q-10 -11 -29 -31.5t-34 -36.5t-29 -30q-69 -69 -117 -99q-71 -40 -116 -36q-63 0 -84 53q-14 42 2 127q13 77 53 176q23 62 78 201q-60 -33 -176 -37q0 -2 -91 -1l-92 1q-41 0 -69.5 -2t-66 -9.5t-66.5 -26t-48 -46.5
q-6 -12 -36 -78l-19 -45l-24 -61l-80 -195l-19 -43q-6 -14 -19 -15t-21.5 8.5t-2.5 22.5q4 8 4 13l74 176q88 214 207 497l106 269q1 3 8 19.5t9.5 24.5t5.5 21.5t-0.5 24t-11.5 18.5q-21 21 -66 21q-38 2 -98 -17q-43 -12 -80 -41q-32 -21 -41 -51q-3 -15 -15.5 -17.5
t-22 6.5t-5.5 23q8 33 39 64q64 55 145 70q107 25 164 -15q29 -21 36 -56.5t-7 -68.5q-14 -42 -43 -110q-46 -117 -152 -373q62 32 146 35q71 5 161 2q43 0 83 -1t85.5 8t79.5 28q50 26 72 84l23 51l83 196l41 99l56 129q6 13 19 16t22 -8q8 -10 0 -31l-17 -39l-43 -96
l-37 -88l-139 -330q-45 -100 -94 -239q-39 -111 -51 -154q-18 -77 -10 -110q11 -42 65 -35q52 10 117 63q66 55 180 187z" />
    <glyph glyph-name="I" unicode="I" horiz-adv-x="665" 
d="M891 1163q19 -75 -19 -227q-38 -141 -114 -293q-82 -167 -178 -297q-49 -64 -107 -125q-7 -8 -6 -12q0 -2 1 -5t1 -5q4 -16 4 -23q9 -27 14 -37q17 -34 39 -41q3 -1 10 -2.5t12 -3.5t9 -6q6 -8 5 -17.5t-9 -15.5q-14 -12 -51 4q-57 30 -76 117q-162 -146 -307 -139
q-80 3 -141 56t-60 132q0 43 23 84q16 20 34 10q18 -14 7 -32q-22 -38 -16 -80t36 -74q40 -40 97 -47t108.5 9t99.5 46q34 21 82 62l23 20q6 6 6 10q0 1 -1 5t-1 6q-2 14 -2 45q-3 61 4 139q14 146 57 301q41 161 103 285q65 134 135 188q38 30 75 35q38 6 66 -14.5
t37 -57.5zM461 272q128 139 233 344q81 160 123 299q22 75 29 125q14 90 -6 129q-17 38 -78 11q-36 -20 -66 -62q-63 -80 -121 -231q-56 -145 -88 -309q-34 -170 -26 -306z" />
    <glyph glyph-name="J" unicode="J" horiz-adv-x="804" 
d="M834 1219q76 -32 110 -105q37 -77 4 -192q-38 -127 -121 -349q-77 -197 -159 -393q163 78 235 172q11 15 27 10q8 -2 12.5 -9.5t3.5 -16.5q-2 -11 -22 -31q-3 -4 -25 -26q-47 -47 -111 -86q-13 -8 -75 -43l-43 -19q-26 -10 -29 -18l-66 -154q-81 -195 -149 -289
q-101 -140 -225 -151q-43 -3 -79 13.5t-54 53.5q-31 64 2 150q29 72 106 149q83 76 164 129q62 40 156 88l73 33q36 14 39 21l19 45q116 282 155 385q87 229 119 340q31 108 2 170q-35 69 -110 88q-69 19 -138 2.5t-125 -60.5q-116 -91 -141 -272q-21 -130 14 -301
q46 -203 146 -373q7 -10 4 -22q-3 -15 -19.5 -16.5t-23.5 12.5l-21 36q-38 70 -83 189q-125 343 -35 592q63 170 200 233q62 30 130 35t133 -20zM272 -410q88 48 160 177q64 110 150 323q-138 -66 -181 -92q-93 -57 -163 -119q-87 -80 -119 -149q-40 -91 -2 -138
q18 -22 47.5 -26.5t56 3t51.5 21.5z" />
    <glyph glyph-name="K" unicode="K" horiz-adv-x="911" 
d="M1092 1198q6 9 17.5 9.5t18.5 -7.5q9 -15 -2 -33l-30 -34q-53 -57 -92 -91q-125 -112 -250 -204q-161 -118 -283 -179q56 -12 92 -54.5t49 -102.5q12 -52 21 -105q11 -76 31 -159q10 -43 22 -70q12 -32 27 -43q29 -25 102 18q53 38 115 111q16 17 43 49t33 39q1 1 5 7.5
t7 9.5t8 7t10 5q18 3 24 -13t-5 -28q-6 -7 -34 -41.5t-39 -48t-34 -39t-43 -44t-41 -34.5q-72 -60 -133 -53q-53 8 -82 65q-23 44 -43 148l-24 135q-13 71 -21 96q-13 40 -40.5 67.5t-67.5 34.5q-41 6 -91 -8l-38 -16q-8 -3 -13 -12l-10 -25l-61 -145l-138 -330l-6 -17
q-6 -14 -21.5 -14.5t-21.5 14.5q-5 10 13 46l77 188q141 333 195 467q109 264 117 283q2 5 10 23.5t11.5 28.5t6 25t0.5 27q-11 59 -135 39q-112 -25 -151 -84q-3 -4 -6.5 -14.5t-6.5 -14.5q-14 -17 -32 -6q-25 17 10 66q44 57 133 86q102 35 172 8q32 -12 49 -39.5
t12 -61.5q-2 -18 -8 -37.5t-17 -46.5t-14 -36q-75 -189 -147 -355q82 26 182 84q87 53 197 131q112 82 229 187q103 90 142 141z" />
    <glyph glyph-name="L" unicode="L" horiz-adv-x="1110" 
d="M1219 362q13 17 30 4.5t6 -30.5q-3 -6 -10.5 -14.5t-9.5 -10.5l-76 -90q-72 -79 -119 -112q-71 -49 -149 -52q-33 -1 -68 5.5t-58.5 13.5t-64.5 28.5t-54.5 29.5t-60.5 37.5t-53 33.5q-1 1 -4 3t-4 2t-4 -1l-8 -10l-14 -19l-33 -35q-34 -34 -70 -57q-87 -54 -180 -51
q-90 0 -135 65q-25 35 -28 79.5t16 84.5q26 51 79.5 75t109.5 22t110 -21q35 -11 94 -41l47 -27q3 -1 6 5l6 8l12 20q40 64 91 174q33 76 87.5 220t69.5 182q-173 -27 -315 0q-91 18 -148 57q-38 27 -51 59q-17 39 -2 56q6 7 17 7t18 -7q5 -6 6 -19.5t2 -17.5q13 -29 55 -51
q49 -27 146 -43q90 -14 199 -4l55 6l26 4q2 0 6.5 1t6.5 1l6 12q13 35 43 92q43 90 94 152.5t125 87.5q84 27 131 -12q25 -20 30.5 -56t-5.5 -65q-44 -133 -262 -215q-59 -21 -101 -31l-28 -6l-9 -25q-7 -12 -20 -47l-78 -205q-101 -252 -178 -366q82 -52 149 -90
q103 -56 187 -56q82 3 151 62q44 35 131 139zM332 109q73 30 151 127q-50 30 -80 43q-104 49 -188 36q-39 -6 -70.5 -28.5t-42.5 -57.5q-12 -40 4 -79t54 -56q69 -31 172 15zM1051 1219q-52 -28 -105 -103q-37 -56 -90 -172q108 27 180 68q83 44 123 100q42 68 19 107
q-28 48 -127 0z" />
    <glyph glyph-name="M" unicode="M" horiz-adv-x="1380" 
d="M1518 362l6 -8q1 -6 2 -9.5t-3 -9.5t-6 -8.5t-7 -8t-7 -7.5q-40 -46 -41 -47q-86 -94 -135 -135q-75 -67 -133 -76q-32 -5 -62 9.5t-42 43.5q-14 35 -7 78q5 35 31 119q43 123 143 350q61 143 84 201q50 113 64 190q7 26 6.5 64t-16.5 61q-34 48 -135 7
q-108 -45 -222 -187q-78 -99 -143 -223q-25 -44 -47.5 -94.5t-50.5 -117.5t-41 -97q-61 -156 -160 -383l-14 -35q-12 -23 -25 -21q-10 0 -17 8t-5 19q0 2 12 31l71 168q82 200 168 399q10 25 35 82t38.5 89.5t29.5 81.5t24 91q19 90 2 148q-11 36 -36 49q-26 15 -68 8
q-102 -14 -223 -154q-107 -126 -203 -309q-28 -53 -58.5 -120t-48.5 -110t-52.5 -129t-47.5 -116q-68 -161 -76 -178l-6 -17q-5 -12 -18.5 -15t-22.5 9q-3 12 -3 16t5 17t6 16l136 324q178 420 254 612q2 5 9.5 23.5t11 28t7 24.5t2.5 27q-2 26 -26 38.5t-51.5 10.5
t-49.5 -4q-110 -20 -155 -80q-3 -4 -9.5 -19.5t-14.5 -21t-21 -0.5q-12 5 -13 17.5t4.5 24t12.5 21.5q39 59 129 89q101 34 172 10q33 -11 51.5 -36t17.5 -58q-2 -28 -22 -78l-35 -88q41 59 86 110q157 178 295 162q49 -6 77 -37.5t33 -78.5t1.5 -89t-13.5 -86
q144 213 293 271q94 40 154 8q44 -24 55 -90q9 -61 -18 -164q-27 -87 -76 -195q-24 -60 -75.5 -178.5t-76.5 -179.5q-43 -110 -57 -156q-25 -73 -25 -112q0 -22 7 -31q20 -29 59 -21q22 5 46 18.5t37.5 24.5t37.5 33q44 42 123 129l37 41q1 1 5 5.5t6 6t6 5t6.5 4t6.5 1
t7.5 -1t7.5 -4.5z" />
    <glyph glyph-name="N" unicode="N" horiz-adv-x="876" 
d="M989 367q9 11 21.5 7.5t16.5 -15t-3 -23.5l-27 -29l-100 -110q-78 -74 -123 -101q-73 -46 -127 -28q-55 17 -61 67q-5 37 10 94q14 57 47 138q30 75 78 184q9 20 41.5 95.5t46.5 109t36.5 92t37.5 106.5q32 107 28 170q-8 73 -63 76q-65 3 -143 -49q-57 -38 -111 -98
q-91 -97 -168 -234q-39 -63 -49 -90l-84 -199q-46 -107 -78 -188l-84 -201l-29 -69l-6 -13q-8 -18 -27 -12.5t-16 25.5q0 7 7 21.5t8 17.5l36 86l80 192q23 57 113.5 272.5t138.5 333.5q2 4 20 48.5t25 68.5q12 46 -16 66q-23 14 -74 14q-107 -7 -174 -66q-16 -16 -22 -26
q-10 -25 -13 -29q-8 -7 -18.5 -6.5t-16.5 8.5q-9 11 0 33q27 65 117 100q89 44 172 29q35 -5 60.5 -24.5t31.5 -51.5q8 -34 -10 -82l-33 -82q83 116 174 181q31 22 67.5 39.5t79.5 28.5t80 -2t56 -52q24 -48 12 -131q-11 -78 -55 -197q-22 -59 -49 -124t-62.5 -146.5
t-52.5 -122.5q-4 -8 -69 -170q-32 -98 -35 -133q-4 -21 4 -37q15 -26 55 -18q49 7 115 65q19 16 38 33.5t41 41t33 35.5t38 42.5t34 38.5z" />
    <glyph glyph-name="O" unicode="O" horiz-adv-x="774" 
d="M1081 1116q22 3 26.5 -20.5t-1.5 -38.5q-6 -25 -29 -68q-46 -70 -116 -121q-22 -15 -39 -22l-19 -8q-6 -4 -8 -13l-18 -73q-39 -154 -113 -308q-84 -162 -184 -264q-130 -130 -265 -143q-95 -7 -155 45q-48 40 -78 108q-49 128 -19 326q32 190 136 389q80 152 182 244
q150 138 299 125q36 0 45 -14q5 -9 2 -20t-12 -15q-8 -3 -21 2q-3 0 -8.5 1t-7.5 1q-50 5 -119 -21q-208 -79 -348 -383q-94 -207 -109 -368q-17 -146 23 -248q14 -39 45 -74q53 -59 137 -53q133 10 258 151q98 103 176 277q70 148 105 311q-101 -12 -166 72q-56 73 -27 182
q26 97 95 135q60 31 106 -6q40 -30 55 -108q14 -81 -4 -205q76 40 125 115q20 26 29 57q2 5 2.5 19.5t4.5 23t15 10.5zM856 872q17 106 12 187q-10 100 -53 117q-35 13 -65.5 -19.5t-44.5 -73.5q-35 -96 10 -157q51 -76 141 -54z" />
    <glyph glyph-name="P" unicode="P" horiz-adv-x="671" 
d="M922 1233q87 -60 43 -242q-39 -170 -164 -325q-121 -155 -273 -215q-61 -26 -116 -29q-60 -7 -97 20q-14 10 -20.5 30.5t4.5 35.5q6 6 17 5.5t18 -7.5q2 -4 3 -12t3 -11q16 -26 82 -14q123 16 250 127q150 131 219 317q31 81 39 146q9 91 -25 127q-16 18 -41.5 22.5
t-48.5 -1.5t-45 -19q-41 -22 -92 -70q-100 -94 -191 -237q-88 -130 -165 -287q-36 -76 -89 -201l-77 -184l-58 -141q-6 -12 -20.5 -13.5t-22.5 11.5q-5 10 2 24l25 60l145 352l146 346q50 118 98 244q16 40 14 61q-5 33 -43 41q-48 10 -94 0.5t-88 -33.5q-43 -22 -59 -49
q-5 -5 -9 -15.5t-6 -13.5q-5 -8 -13.5 -10t-16.5 2q-26 15 6 66q20 25 57 51q73 46 164 53q98 4 133 -45q13 -20 14 -46.5t-3 -41t-15 -45.5l-68 -166q112 171 222 268q152 132 256 64z" />
    <glyph glyph-name="Q" unicode="Q" horiz-adv-x="864" 
d="M969 356q11 12 26 6.5t15 -20.5q0 -12 -17 -29l-22 -28q-4 -4 -36 -42.5t-52 -58.5q-87 -87 -181 -108q-88 -21 -200 10l-86 27l-21 6l-12 4l-10 -6q-12 -8 -47 -25q-89 -46 -160 -43q-80 0 -105 41q-18 29 -1 56.5t49 41.5q63 30 157 15l53 -13l23 -6l23 -8q13 -3 20 0
q67 46 109 80q128 109 221 251.5t135 301.5q61 233 -29 346q-53 63 -131 72q-87 9 -172 -43q-126 -72 -213 -230q-69 -129 -90 -270q-21 -134 6 -203q16 -37 37 -35q19 4 27 -12q7 -21 -13 -31q-16 -8 -47 5q-30 13 -47 53q-28 68 -12 201q15 136 76 268q71 148 178 241
q76 62 163 90t167 -1q76 -26 120 -95t50 -153q7 -73 -21 -197q-20 -87 -59 -176q-64 -145 -169 -269.5t-237 -213.5q5 -2 22.5 -7.5t24 -7.5t22.5 -7t24 -7t22.5 -5.5t25 -5t23.5 -2.5t25 -1q77 0 137 32q47 25 98 80q49 52 111 131zM174 94q58 0 150 47q-114 32 -181 13
q-8 -3 -13 -5.5t-16 -8.5t-14.5 -12.5t0.5 -12.5q15 -21 74 -21z" />
    <glyph glyph-name="R" unicode="R" horiz-adv-x="1019" 
d="M1126 360q10 12 25.5 5.5t13.5 -21.5q0 -6 -14 -25q-103 -129 -160 -176q-63 -50 -140.5 -69.5t-152.5 -1.5q-144 34 -262 184q-51 64 -92 152q-22 59 -27 84q-8 27 -10 43q-4 22 4 30q2 3 5.5 5t6 2.5t6.5 0t6.5 -1t7.5 -2t7 -2.5q18 -6 39 -6q48 -5 115 6
q175 36 297 158q125 125 143 287q6 30 1 64.5t-16 63.5t-37.5 47t-64.5 15q-98 -7 -200 -121q-82 -87 -183 -254q-8 -13 -100 -178q-26 -48 -92 -207q-35 -88 -57 -137l-80 -194l-19 -43q-6 -17 -25.5 -14t-19.5 22q0 4 6 16l138 332l43 104q12 24 22 54q17 39 19 43
q7 12 22 53l21 51q98 231 137 334q1 3 5.5 13t6.5 15t6 15.5t5 16.5t2.5 15.5t0 16t-4.5 13.5t-9 12q-18 16 -70 20q-39 0 -98 -18q-50 -18 -78 -43q-25 -18 -39 -52q-3 -10 -13 -13.5t-19 1.5q-17 8 -9 31q7 31 41 61q51 49 146 70q106 25 162 -16q29 -22 34.5 -59.5
t-8.5 -69.5q-11 -30 -34 -87.5t-27 -66.5q100 153 178 219q107 95 209 90q79 -3 117 -69q27 -47 30 -113q6 -145 -92 -289q-103 -151 -283 -223q-139 -57 -260 -35q29 -140 136 -260q97 -108 206 -139q74 -21 147.5 1t133.5 75q24 22 47.5 48t54.5 64.5t43 52.5z" />
    <glyph glyph-name="S" unicode="S" horiz-adv-x="942" 
d="M1051 362q6 8 17 9t17 -6q14 -16 -8 -43q-56 -71 -139 -119q-32 -18 -78 -35l-41 -12q-4 -2 -8 -6.5t-8.5 -12t-7.5 -10.5q-81 -96 -244 -125q-70 -10 -123 -2q-84 14 -84 70q0 36 27.5 57.5t66.5 28.5q27 5 57.5 7.5t70 4t57.5 2.5q53 3 106 12l31 6q22 5 24 9
q10 17 21 47q26 80 -10 186q-27 75 -103.5 202.5t-101.5 184.5l-168 -256l-238 -364l-88 -134q-7 -14 -20 -14q-15 -1 -22 12t1 25l27 39l203 309q28 42 93 143.5t101 155.5l60 88l28 45q3 4 -4 25q-4 9 -8 27q-29 111 18 204q40 83 101 127q57 40 104 27q46 -14 49 -59
q6 -40 -22 -87q-8 -14 -25.5 -37.5t-23.5 -33.5l-56 -78l-59 -88l-18 -27q-1 -4 -0.5 -6.5t3 -7.5t3.5 -8l20 -43q25 -50 109 -193q24 -42 40.5 -73.5t34 -76t24.5 -81.5t4.5 -80.5t-17.5 -83.5q129 45 207 149zM590 997q0 -41 12 -79q4 8 16 24q82 122 113 164q4 6 16 21
t19.5 27t11.5 24q14 53 -20 55q-43 5 -96 -57q-72 -86 -72 -179zM399 57q21 -14 66 -14q39 -3 90 8q119 25 186 86q-59 -9 -233 -18q-59 -4 -88 -17q-16 -6 -26 -19.5t5 -25.5z" />
    <glyph glyph-name="T" unicode="T" horiz-adv-x="491" 
d="M995 1214q19 11 31.5 -7t-4.5 -31q-19 -13 -74 -31q-79 -20 -170 -17q-16 0 -22.5 1t-16 2.5t-22.5 3.5q-4 0 -14 1t-15 1q-8 3 -12 -2q-2 -2 -6.5 -9.5t-5.5 -9.5q-12 -21 -23.5 -46t-25.5 -58t-21 -49q-5 -14 -59 -146l-138 -330l-110 -262l-58 -135
q-6 -13 -20.5 -14.5t-20.5 10.5q-7 9 0 27l25 55l129 307l135 326l47 112l47 111q32 83 58 123l-205 31q-108 15 -178 8q-88 -4 -127 -51q-18 -21 -20 -47.5t16 -49.5q12 -15 30 -24q28 -9 31 -21q2 -9 -4 -18t-16 -10q-13 -3 -37 12q-34 15 -52 48t-14 71q6 52 56 92
q51 41 155 45q62 3 129 -4t157 -22.5t128 -20.5q92 -14 156 -12q107 8 161 40z" />
    <glyph glyph-name="U" unicode="U" horiz-adv-x="1044" 
d="M1155 365q7 8 20 5.5t17 -12.5q5 -13 -6 -28l-37 -41q-5 -5 -26.5 -29.5t-28 -31.5t-26.5 -28t-29.5 -30t-28 -26t-32 -27t-31 -22t-34.5 -21q-76 -44 -151 -35q-47 7 -74 31q-23 23 -29 53q-7 41 7 104q9 42 43 142q22 58 48 118.5t63 142t52 115.5q-132 -220 -161 -262
q-69 -101 -144 -188q-112 -129 -209 -193q-123 -80 -206 -51q-32 12 -48 40.5t-14.5 69t6 69t13.5 65.5q5 21 10.5 41t13.5 44t13 40t15.5 43.5t15 39t17.5 43.5t15.5 39t18 43t16.5 40q16 38 51 119t61 144t47 122q3 13 10.5 36t10.5 33q11 42 -14 54q-25 14 -62 14
q-36 0 -84 -10q-39 -8 -86 -29q-49 -22 -69 -51q-11 -11 -11 -25q0 -9 -6.5 -15.5t-15.5 -6.5q-14 0 -19.5 10t-4 21t6.5 22q24 61 131 100q91 34 168 29q91 -4 111 -59q11 -30 -4 -78l-23 -72q-20 -55 -44.5 -114t-58 -135.5t-48.5 -112.5q-94 -226 -129 -345
q-22 -80 -27 -133q-5 -79 33 -92q39 -13 94 10q36 12 111 66q111 90 223 236q68 86 182 274q121 196 183 309q54 100 67 129l23 51q8 21 20 23q9 2 17.5 -3.5t9.5 -14.5q1 -5 -1 -12t-6.5 -16l-5.5 -11q-26 -60 -28 -64l-39 -92q-19 -47 -86 -199q-101 -232 -158 -372
q-49 -130 -57 -160q-19 -68 -12 -113q7 -35 34 -43q37 -12 78 -6q66 10 146 78q17 14 35.5 31.5t32 30.5t33.5 35.5t29.5 32.5t32 36.5t29.5 34.5z" />
    <glyph glyph-name="V" unicode="V" horiz-adv-x="731" 
d="M1081 1241q14 -14 17 -29v-24q0 -18 -19 -82q-39 -127 -129 -285q-89 -154 -213 -297q-82 -100 -211 -225q-122 -115 -225 -186q-60 -39 -98 -54q-46 -18 -78 -16q-35 3 -50.5 31t-13.5 65q1 37 12 83.5t19.5 72.5t28.5 80q43 115 151 354l90 199l35 84q24 64 25 82
q5 46 -25 64.5t-75.5 12.5t-86 -18.5t-67.5 -26.5q-41 -25 -59 -47q-7 -7 -11 -18q0 -2 -1 -7l-1.5 -7.5t-2 -6t-5.5 -6.5q-9 -5 -19.5 -2t-13.5 12q-8 13 0 33q8 30 41 56q47 41 123 65q95 30 164 14q68 -17 82 -75q2 -8 3 -16.5t1.5 -15t-1 -16.5t-2.5 -15.5t-4 -16.5
t-4 -15t-6 -16t-6 -14.5t-6 -16t-6 -14.5q-14 -35 -145 -326q-82 -188 -119 -282q-26 -70 -45 -131q-20 -76 -21 -99q0 -42 15 -51q16 -12 53 2q22 7 86 45q53 34 111 82q130 105 262 250q148 161 252 328q93 148 139 278q22 64 27 88q5 33 2 45q-15 24 -4 35q6 6 17 4
t17 -8z" />
    <glyph glyph-name="W" unicode="W" horiz-adv-x="1284" 
d="M1599 1217q16 13 31 1.5t21 -30.5q10 -22 6 -55q-7 -67 -49 -156q-78 -168 -258 -414l-56 -76l-37 -47q-15 -17 -77 -84q-88 -88 -172 -155q-109 -91 -197 -125q-47 -18 -84 -15q-33 4 -52 29.5t-22 61.5q-8 57 13 172q13 78 51 206q-81 -101 -150 -178
q-117 -131 -209 -205q-64 -48 -102 -69q-62 -30 -106 -23q-84 14 -66 146q2 15 5 30.5t7.5 32.5t7.5 29t9.5 32t9 29t10.5 31.5t10.5 29t11.5 31.5t11 29q47 129 153 387q48 113 74 180q1 3 8 23t9 28.5t4.5 25t-1 28.5t-12.5 22q-26 29 -84 25q-69 0 -139 -39
q-36 -18 -57 -39q-12 -12 -21 -24q-1 -2 -4 -6.5t-5 -6.5t-5.5 -4.5t-7.5 -3.5q-10 -3 -18.5 4.5t-8.5 16.5q0 12 12 28q16 23 48 45q57 45 133 64q73 20 135 4q45 -9 67 -51q28 -47 -6 -142q-17 -49 -38 -101.5t-49.5 -120.5t-41.5 -99q-61 -146 -112 -287
q-61 -168 -72 -248q-5 -49 4 -65q17 -35 90 -6q44 19 111 71q45 37 127 119q112 114 243 287l35 43l17 22q4 5 14 35q43 116 80 201q49 111 82 168q38 73 74 112q25 37 55 37q21 0 34 -14.5t15 -34.5q4 -34 -27 -102q-50 -109 -192 -299l-66 -88q-4 -4 -7.5 -8.5t-7 -10
t-5.5 -8.5t-5 -12t-5 -13l-17 -49q-40 -117 -57 -204q-23 -105 -23 -170q0 -43 9 -66t36 -23q39 0 99 33q58 34 123 82q114 90 243 230q38 43 119 155q49 67 111 164q111 175 153 281q23 59 25 94q0 19 -4 29l-8 10q-7 6 -8 16t5 17zM1059 1161q-16 -7 -35 -35
q-2 -3 -20.5 -33t-26.5 -46q-61 -113 -117 -248q100 137 146 213q34 57 45 86q19 56 8 63z" />
    <glyph glyph-name="X" unicode="X" horiz-adv-x="1001" 
d="M1110 362q12 15 29 5t10 -29q-6 -10 -23 -27l-71 -88q-74 -82 -119 -117q-70 -51 -127 -51q-64 0 -102 47q-32 41 -54 117q-30 109 -55 373q-171 -206 -242 -283q-126 -140 -188 -195q-22 -19 -43 -36q-31 -25 -43 -29q-10 -3 -19.5 3.5t-9.5 15.5q-2 13 15 26
q36 22 92 74q90 85 250 270l141 170q3 3 39 45q5 7 0 25q0 4 -1 13.5t-1 13.5q-2 33 -10 104q-9 102 -27 195q-14 83 -41 141q-18 37 -43 49q-26 14 -72 -2q-65 -23 -129 -98q-27 -33 -41 -62q-14 -36 -12 -51q6 -23 4 -27q-3 -9 -12.5 -13t-18.5 -1q-12 5 -16 22t-2 33
q5 62 68 133q60 73 139 107q95 33 145 -25q39 -42 58 -118q6 -20 11 -40.5t9 -44.5t7.5 -40.5t7 -45t5 -40.5t5 -45.5t4.5 -41t4.5 -45.5t3.5 -42q25 30 78 95.5t94.5 115t79.5 94.5q6 7 29 34t31 37t28 32.5t32 35.5t30 30.5t34 32.5q15 15 33 27q12 12 24 6
q9 -3 13.5 -11.5t1.5 -16.5q-1 -4 -5.5 -8.5t-8.5 -7.5t-10 -7l-9 -6l-37 -37q-75 -77 -233 -268l-142 -172q-36 -42 -39 -45q-3 -5 -16 -23q-3 -3 -3.5 -6t0.5 -8.5t1 -7.5l10 -101q8 -85 25 -188q14 -90 37 -150q23 -62 57 -75q63 -26 141 36q16 12 30.5 25.5t32.5 33.5
t25 27.5t30.5 35.5t25.5 30z" />
    <glyph glyph-name="Y" unicode="Y" horiz-adv-x="864" 
d="M1120 1202q25 -9 6 -47l-20 -49l-21 -47q-24 -57 -63.5 -155t-73.5 -179.5t-65 -153.5q-147 -337 -271 -551l13 7q122 81 268 241l49 58l21 24q2 2 7 8t8.5 9t8.5 4q11 2 19 -5.5t8 -17.5q0 -5 -2 -9.5t-7 -10t-6 -6.5q-24 -32 -45 -52q-136 -157 -256 -247
q-50 -36 -77 -52l-52 -28q-4 -2 -7.5 -10t-4.5 -9l-12 -20q-65 -110 -107 -172q-71 -102 -119 -152q-73 -81 -145 -90q-41 -5 -75 13.5t-44 56.5q-17 67 54 155q41 51 129 101q26 16 56.5 33t69 36.5t58.5 30.5l98 51q12 7 17 17l12 18l47 80q58 101 149 295
q103 227 160 364q-136 -224 -243 -358q-98 -124 -179 -197q-111 -103 -196 -125q-48 -13 -92 -2q-30 9 -48.5 33.5t-23.5 57.5q-5 44 10 112q20 82 57 170q23 57 73 176.5t87.5 213t67.5 179.5q28 74 43 132q11 37 -15 53q-15 9 -57 14q-83 3 -172 -39q-46 -18 -70 -49
q-12 -12 -12 -25q0 -21 -20 -24q-21 -3 -24.5 17t3.5 34q11 25 47 57q69 51 168 68q97 20 154 -8q30 -19 41 -43q11 -26 0 -74q-32 -113 -111 -307q-8 -21 -123 -301q-74 -178 -92 -258q-10 -42 -10 -74q0 -41 16 -57q31 -31 103 -8q49 17 114 67q53 41 125 117
q116 124 244 319q124 190 207 346q41 71 76 146q9 15 26 59q1 3 4.5 11t5.5 12t7 10.5t10 6t14 -0.5zM248 -426q63 58 125 143q33 48 114 181q-160 -84 -190 -101q-104 -59 -141 -100q-37 -37 -50 -74q-17 -50 7 -74q19 -18 45 -15.5t49 13.5t41 27z" />
    <glyph glyph-name="Z" unicode="Z" horiz-adv-x="876" 
d="M1016 367q7 -5 8 -11.5t-2.5 -14t-7 -13t-10.5 -13t-9 -10.5l-49 -57q-41 -47 -96 -98q-57 -54 -129 -107q-38 -27 -62 -41l-16 -12l-8 -4q0 -2 -1 -6.5t-1 -6.5q-3 -13 -17 -45q-70 -167 -186 -274q-59 -56 -135 -103q-95 -55 -154 -59q-46 0 -69 23q-36 36 -4 106
q31 68 110 133q58 51 176 123q30 19 90.5 51.5t87.5 48.5l50 29l10 6q6 4 6 13l6 24q9 51 -2 98q-8 39 -39 82q-18 22 -35 33q-8 8 -20 14q-8 4 -10 3l-11 -7q-107 -49 -202 -57q-120 -11 -138 49q-9 34 20.5 59.5t68.5 34.5q89 24 188 4q34 -9 47 -14l21 -8l10 -6l10 6
q39 22 74 47q155 111 248 264q47 72 79 164q40 106 27 193q-13 89 -86 137q-68 46 -168 39q-167 -10 -280 -111q-49 -49 -64 -82q-11 -19 -14 -35q-1 -4 -1 -12t-1 -14t-4 -10q-14 -21 -35 -7q-8 8 -8 25q0 19 6 37q9 36 45 84q77 101 223 147q210 66 338 -30q46 -35 71 -87
t26.5 -106.5t-9.5 -112.5q-41 -171 -166 -329q-113 -147 -266 -234q66 -50 88 -112q24 -63 14 -146q98 67 178 141l95 99l47 55q28 39 47 23zM246 -422q109 57 196 154q79 90 131 217q-24 -14 -85.5 -49t-92.5 -54q-114 -66 -176 -118q-76 -61 -104 -119q-6 -10 -11 -23
t-3.5 -27t14.5 -18q21 -5 49 2q24 5 82 35zM270 260q81 6 176 47q-72 22 -135 17q-44 0 -90 -19l-3 -3q-4 -2 -6.5 -3.5t-6.5 -4.5t-6 -5t-4.5 -5t-1.5 -5t2 -5q15 -19 75 -14z" />
    <glyph glyph-name="bracketleft" unicode="[" horiz-adv-x="727" 
d="M254 -428q14 -6 14 -23q0 -14 -12 -20q-6 -2 -16 -2h-222q-18 0 -22 18q0 9 4 17l4 14q4 7 8 21l13 26l14 37l18 41l19 49q4 9 11.5 27.5t10.5 25.5l25 58l24 61l27 66l29 69l30 72q27 66 29 74l31 73q16 32 33 76l61 152l62 147l57 140q22 55 26 63l25 61l25 58l20 51
l19 47l16 39l14 35l13 26l6 19q4 8 4 10q2 0 2 2q8 15 20 15h117q39 0 76 -3h35q13 0 20 -10q7 -14 -2 -26q-9 -9 -18 -9h-211l-2 -2q0 -2 -2 -4l-7 -16l-10 -25q-10 -26 -14 -32q-3 -11 -16 -41l-19 -48q-4 -9 -11.5 -27.5t-10.5 -25.5l-25 -57l-25 -64l-28 -67l-29 -70
l-31 -74l-61 -151l-66 -156l-30 -78q-5 -15 -17 -39.5t-16 -35.5l-31 -76l-29 -72l-28 -67l-27 -66l-24 -59q-17 -39 -23 -56q-6 -13 -20 -49l-19 -43l-14 -37l-12 -28q-4 -11 -9 -19q0 -6 -4 -10h49q16 0 48 -1t47 -1h57z" />
    <glyph glyph-name="backslash" unicode="\" 
d="M2 1200v43q0 4 4 4h639v-43q0 -4 -4 -4h-639zM2 76v43q0 4 4 4h639v-43q0 -4 -4 -4h-639zM330 655v-39q0 -8 -4 -8h-324v33q0 14 4 14h324z" />
    <glyph glyph-name="bracketright" unicode="]" horiz-adv-x="792" 
d="M817 1204l4 -8q0 -10 -4 -16q0 -5 -4 -13q-1 -5 -4 -11.5t-4 -8.5l-12 -29l-15 -35q-11 -26 -16 -43l-21 -47l-22 -53l-23 -57q-2 -4 -26 -64l-27 -65q-25 -57 -29 -70l-30 -70q-1 -3 -29 -73l-31 -76l-32 -76l-31 -74l-62 -151l-30 -72q-4 -11 -8.5 -23t-11 -26
t-9.5 -23q-1 -2 -29 -67l-26 -66l-25 -61q-15 -33 -22 -55l-23 -54l-18 -45q-16 -37 -17 -41l-14 -32q-9 -22 -10 -27q-6 -9 -9 -18q-4 -8 -4 -11l-2 -2q-3 -14 -20 -14h-227q-12 0 -19 10q-10 13 0 27q5 8 19 8h212v2q0 4 3 4l6 16l10 25q7 22 14 33q5 16 17 41l18 47
l23 53l24 57l25 64l28 68l29 69l31 74l31 76l32 78l31 77l33 78l31 76l32 78l31 74l29 71l28 68l27 65l25 62q15 33 22 55q10 21 21 49l18 43l14 35l13 29q1 2 4 8.5t4 11.5q1 1 2 4.5t2 5.5h-195q-13 0 -20 15q-3 17 6 26q12 4 16 4h228q11 0 18 -10z" />
    <glyph glyph-name="asciicircum" unicode="^" 
d="M2 1200v43q0 4 4 4h639v-43q0 -4 -4 -4h-639zM2 76v43q0 4 4 4h639v-43q0 -4 -4 -4h-639zM330 655v-39q0 -8 -4 -8h-324v33q0 14 4 14h324z" />
    <glyph glyph-name="underscore" unicode="_" horiz-adv-x="776" 
d="M-16 -8v45q0 2 2 2h792v-47h-794z" />
    <glyph glyph-name="grave" unicode="`" horiz-adv-x="337" 
d="M121 1196l39 -31l61 -49q4 -2 7.5 -4.5t7.5 -5.5t6 -4l4 -4q8 -5 8 -19q0 -17 -14 -20q-15 -4 -23 4l-12 8q-35 27 -55 45q-8 5 -17 12t-19.5 15t-15.5 12l-6 4q-4 5 -8 15q-3 14 10 24q13 7 27 -2z" />
    <glyph glyph-name="a" unicode="a" horiz-adv-x="663" 
d="M770 365q12 12 27 3t12 -24q-1 -4 -3.5 -8t-6 -8t-4.5 -6q-5 -5 -27 -30t-33 -38q-7 -8 -26 -30t-29.5 -33.5t-27 -29t-31.5 -31.5t-31 -26q-80 -67 -144 -36q-64 28 -47 143q-72 -91 -141 -127q-95 -46 -156 -4q-51 34 -51 113q3 67 47 147q43 85 127 162q64 61 140 98
q103 51 204 39q26 -4 37 -8q9 -3 13 -9.5t2 -16.5t-4.5 -16.5t-8.5 -18.5t-6 -13q-37 -81 -80 -160q-11 -21 -28 -49q-20 -40 -23 -49q-23 -70 -27 -94q-8 -52 5 -80q6 -12 20.5 -17t28.5 -2q24 4 57 29q30 24 63 60q42 42 152 170zM207 115q55 15 115 75q40 40 102 134
q9 11 22 41l19 38q5 14 35 76q34 67 63 113q-88 11 -182 -35q-71 -36 -139 -104q-81 -77 -119 -164q-33 -80 -21 -131q7 -34 33 -45q28 -10 72 2z" />
    <glyph glyph-name="b" unicode="b" horiz-adv-x="653" 
d="M760 365q9 9 23.5 4.5t17.5 -17.5q1 -6 -3 -13.5t-7.5 -11.5t-12.5 -12.5t-10 -9.5q-47 -47 -90 -69q-48 -23 -94 -15q-14 0 -29 6l-12 4q-7 2 -11 -4l-36 -51q-62 -80 -131 -106q-36 -15 -77 -10t-69 30q-53 46 -41 152q5 69 39 178l-51 -60q-21 -26 -33 -28
q-18 -1 -23.5 13.5t5.5 25.5l30 37q8 10 30 34.5t32 38.5l35 37q5 10 16 21q5 16 8 20q39 107 74 186q91 213 147 318q61 111 109 151q35 32 74 29q22 -3 40 -17t25 -34q10 -24 2 -68q-13 -61 -61 -135q-40 -69 -113 -160q-19 -25 -188 -223q-3 -4 -66 -78q-13 -18 -16 -26
l-8 -25q-3 -8 -9 -25t-8 -22q-33 -105 -41 -160q-14 -98 13 -137q22 -29 61.5 -29t71.5 21q66 36 125 133q-61 47 -68 141q-7 90 29 160q21 36 54.5 57.5t66.5 4.5q57 -31 47 -148q-7 -87 -68 -199q47 -18 94 0q46 23 107 91zM377 715l-29 -70l74 84q116 138 166 211
q51 70 74 117q32 58 32 94q4 23 -8 35q-17 17 -39 8q-12 -4 -33 -25q-38 -38 -75 -110q-68 -121 -162 -344zM520 297q55 108 62 186q0 53 -11 80q-11 25 -39 10q-22 -12 -38 -49q-16 -44 -19 -84q-4 -97 45 -143z" />
    <glyph glyph-name="c" unicode="c" horiz-adv-x="485" 
d="M594 365q8 9 21 5t18 -16q3 -12 -15 -30l-77 -82q-73 -71 -143 -116.5t-150 -57.5q-101 -16 -146 36q-37 45 -30 123q11 146 143 293q25 26 40.5 40.5t42 31.5t52.5 22q32 4 57.5 -12t36.5 -47q5 -11 7.5 -25t-3 -26.5t-22.5 -9.5q-3 1 -5.5 2t-4 2.5t-3 2.5t-2.5 3.5
t-1.5 4t-1.5 4t-1 4t-0.5 5t-0.5 4.5q-3 19 -17 33q-20 20 -59 -2q-25 -12 -74 -61q-60 -66 -102 -148q-34 -70 -37 -133q-4 -78 45 -98q29 -12 82 -4q44 9 82 26q22 10 43 22t43.5 29.5t37.5 29.5t39.5 36.5l34 34t37 39t33.5 35.5z" />
    <glyph glyph-name="d" unicode="d" horiz-adv-x="645" 
d="M815 1102q22 -11 12 -31q-160 -386 -223 -522l-43 -100l-37 -84q-24 -58 -45 -132q-10 -42 -10 -75t10 -43q4 -4 9 -6t11 -0.5t11 2.5t11.5 5.5t10.5 7.5t11 9t9.5 8t8.5 9l6 6q43 38 109 116l74 90q12 14 28.5 6t12.5 -26q0 -2 -27 -35q-62 -76 -113 -133
q-2 -2 -9.5 -10.5t-10.5 -11t-10 -10t-10.5 -11t-10.5 -10t-11 -10t-10.5 -9t-12 -9t-11.5 -8t-12 -7.5q-64 -35 -101 10q-16 20 -19 51.5t1 52.5t12 54q-11 -17 -28 -37q-65 -75 -136 -111q-96 -51 -159 -18q-40 19 -53 62t-5.5 84t25.5 81q40 83 119 166q63 67 133 105
q96 56 190 53q13 0 33 -4q9 -2 14 -7.5t5 -12.5t-3 -13.5t-10 -10t-16 -1.5q-1 0 -4.5 1t-5.5 1q-81 9 -164 -37q-69 -34 -127 -92q-83 -87 -121 -166q-36 -75 -21 -127q7 -32 33 -41q28 -13 80 2q127 44 234 227q71 119 157 318q54 117 123 288l37 88q1 3 5 14t7 17.5
t9.5 16.5t12 10.5t15.5 -0.5z" />
    <glyph glyph-name="e" unicode="e" horiz-adv-x="436" 
d="M575 367q17 -15 -10 -52l-49 -55q-47 -50 -90 -88q-136 -114 -242 -102q-72 10 -98 69q-24 56 -4 152q40 163 160 274q59 56 114 66q39 7 73.5 -6t45.5 -47q24 -87 -102 -175q-61 -38 -148 -65q-14 -5 -49 -14l-24 -7q-2 0 -6.5 -1t-6.5 -1q-1 0 -2 -4t-2 -4
q-16 -53 -16 -102q4 -48 22 -68q23 -20 52 -20q45 -5 112 26q63 36 131 101q18 17 70 73l37 45q15 19 32 5zM371 586q-54 -5 -117 -72q-53 -59 -94 -145q165 39 237 116q30 30 35 60q3 25 -15.5 34.5t-45.5 6.5z" />
    <glyph glyph-name="f" unicode="f" horiz-adv-x="385" 
d="M489 362q6 8 16.5 9t18.5 -6q13 -16 -2 -35q-52 -61 -69 -78q-71 -67 -131 -98q-64 -36 -134 -39q-12 -2 -36 -2q-13 0 -19 2q-2 -2 -2 -9q-2 -19 -2.5 -23t2 -23t2.5 -23q2 -16 11.5 -91.5t12 -107.5t-0.5 -88t-17 -100q-21 -65 -65.5 -112t-104.5 -48q-39 0 -68 22
t-38 58q-7 36 10 117q23 95 109 305l145 334q-15 -2 -21.5 12.5t3.5 26.5l20 22l25 25q2 3 11 13t11 17q14 24 27 58l30 73q39 97 170 412q23 59 66 154q37 84 104 102q29 10 59 1.5t50 -32.5q41 -49 14 -141q-30 -88 -125 -219q-66 -94 -190 -248l-94 -108l-43 -50l-19 -20
q-10 -13 -16 -27q-39 -86 -113 -258q8 19 49 19q34 0 52 2q46 6 96 28q53 26 99 69.5t97 104.5zM379 805l-107 -258q152 180 224 276q35 46 94 135q38 61 59 115q14 26 12.5 68t-32.5 55q-28 12 -58 -5t-47 -46q-16 -26 -35 -74l-32 -78q-15 -33 -40.5 -97t-37.5 -91z
M111 -229q2 56 -15 188q-8 59 -10 88q-6 35 0 72q-63 -143 -100 -242q-48 -117 -66 -188q-7 -33 -10 -60q-8 -39 4 -63q11 -23 39 -27.5t49 6.5q57 24 83 88.5t26 137.5z" />
    <glyph glyph-name="g" unicode="g" horiz-adv-x="534" 
d="M641 362q13 17 31 4t6 -30q-6 -10 -27 -31l-22 -26q-58 -58 -107 -99q-55 -44 -73 -57l-46 -31q-7 -6 -14 -22l-51 -117q-10 -21 -39 -88t-49.5 -111.5t-42.5 -85.5q-36 -73 -74 -119q-37 -46 -80 -51q-43 -6 -69 24t-29 75q-5 49 16 114q43 130 166 246q51 49 158 117
l61 41q4 3 11 16l30 74l-14 -17q-79 -91 -147 -114q-35 -14 -79.5 -10t-70.5 32q-40 43 -29 125q10 75 68 160q37 56 86.5 105.5t109 88t129 56t136.5 6.5q37 -5 39 -25q1 -10 -17 -47l-30 -69l-144 -326q122 91 207 192zM211 115q23 6 49 22q47 30 100 94q40 47 93 129
q64 113 116 232q-89 14 -186 -35q-74 -39 -139 -104q-78 -78 -119 -164q-33 -80 -21 -131q7 -33 35 -45q28 -10 72 2zM279 -66l47 105q-105 -69 -136 -96q-45 -37 -96 -99q-71 -92 -90 -182q-4 -28 -4 -45q-4 -51 23 -70q37 -23 86 45q29 38 79 144q45 89 91 198z" />
    <glyph glyph-name="h" unicode="h" horiz-adv-x="700" 
d="M809 358q11 12 25 6.5t14 -22.5q-2 -8 -31 -45q-10 -13 -65 -76q-114 -133 -181 -158q-43 -16 -69.5 14.5t-20.5 76.5q4 26 13.5 55.5t18.5 49.5t24 53.5t22 49.5q43 99 50 138q15 85 -57 76q-3 0 -7 -1q-43 -7 -99 -55q-61 -53 -122 -127q-70 -88 -123 -188
q-28 -55 -54 -121q-1 -3 -3 -9.5t-3 -9.5t-3.5 -8t-4.5 -7t-5 -4t-7.5 -1.5t-9.5 2.5q-24 10 -5 53q6 18 41 105l99 250l-105 -119q-11 -13 -24.5 -10t-17 14.5t6.5 24.5q78 90 119 135q7 9 54 61q22 25 49 90q77 185 135 312l72 143q20 34 29.5 49.5t30 38.5t42.5 35
q41 23 78.5 3t40.5 -67q1 -11 -0.5 -22.5t-3.5 -21t-7 -22.5t-8 -20.5t-11 -21.5t-11 -19.5t-12 -20.5t-11 -18q-72 -117 -221 -288l-104 -119q-21 -24 -36 -52.5t-34 -77.5t-23 -59q100 124 172 175q26 19 53.5 31t60 15t58.5 -14q19 -12 30 -29.5t11.5 -39.5t-1.5 -42.5
t-12 -48t-17 -45t-19 -44t-16 -35.5q-44 -99 -51 -121q-1 -3 -7 -19.5t-7 -21.5t-4 -22t1 -21q3 -14 15 -15.5t28 7t26.5 16t18.5 14.5q21 17 41.5 37t43 45.5t35.5 41t39.5 48t35.5 43.5zM604 1133q-35 -51 -84 -160q-20 -40 -40.5 -84.5t-47 -106t-37.5 -86.5
q59 67 94 108t82 103t82 119q3 5 12 19t13.5 21.5t12 21t11 23.5t6.5 22.5t3 23.5q0 19 -10.5 31t-28.5 6q-35 -10 -68 -61z" />
    <glyph glyph-name="i" unicode="i" horiz-adv-x="352" 
d="M492 365q15 -13 -5 -43l-36 -41q-70 -82 -109 -121q-57 -57 -94 -78q-56 -31 -86 -16q-27 13 -31 55q-6 46 23 131q35 95 77 184l-92 -108q-10 -12 -23.5 -10t-17.5 13.5t6 26.5l31 37l139 160l45 53q12 16 25 13q11 -3 15.5 -12.5t0.5 -18.5q0 -2 -12 -25
q-76 -139 -127 -266q-30 -72 -41 -119q-7 -27 -4 -49q0 -25 8 -25q8 -2 33 11q23 13 49 35q33 29 90 90q40 44 78 90q2 2 7 8.5t8.5 10.5t9.5 9.5t10.5 7.5t11 1.5t11.5 -4.5zM442 895q-20 15 -19 38t21 40t41 6q20 -15 19 -38t-21 -40t-41 -6z" />
    <glyph glyph-name="j" unicode="j" horiz-adv-x="303" 
d="M410 365q14 14 30 1t6 -30q-4 -7 -32 -35l-29 -31q-85 -85 -104 -102q-25 -25 -99 -90q-12 -12 -24 -21q-1 -2 -5.5 -5.5t-5.5 -4.5l-10 -24l-45 -103q-98 -221 -174 -336q-60 -92 -119 -96q-41 -3 -63.5 30t-22.5 76q5 122 144 261q58 58 147 133l98 82q9 9 25 47
q77 181 147 366q-15 -18 -106 -125l-23 -24q-11 -12 -26.5 -6.5t-14.5 22.5q2 12 31 41l64 74q61 71 120 141q1 1 7 6t10 6q11 3 21 -3.5t10 -18.5q0 -2 -5 -12l-30 -84q-70 -178 -144 -357q117 105 222 222zM-141 -420q40 53 98 166q62 124 111 236l-17 -15
q-94 -82 -139 -125q-80 -73 -119 -147q-40 -74 -33 -123q8 -42 39 -37q29 5 60 45zM471 961q20 -14 19 -36.5t-21 -39.5t-41 -6q-21 15 -20.5 38t21 39.5t42.5 4.5z" />
    <glyph glyph-name="k" unicode="k" horiz-adv-x="643" 
d="M745 358q9 11 24.5 6t16.5 -20q0 -8 -14 -27q-12 -15 -27 -30q-4 -4 -37 -43t-53 -60q-26 -28 -46.5 -46.5t-50 -39.5t-61 -29.5t-63.5 -2.5q-18 4 -34 12.5t-27.5 17.5t-23 25.5t-18.5 28t-16 33.5t-13 32t-12 34.5t-11 31.5q-1 2 -3.5 8.5t-3.5 9t-2 8.5t-0.5 9.5t3 8
t6.5 7.5l24 6q16 4 25 4l45 12q86 26 137 64q49 33 68 74q19 34 8 61q-12 32 -68 14q-39 -13 -94 -57q-51 -43 -105 -111q-109 -136 -180 -336v1l-4 -7l-6 -8q-5 -5 -12 -2q-13 3 -18.5 14t-0.5 23l47 119l93 235q-54 -62 -84 -92q-19 -24 -35 -22q-14 1 -17 16.5t7 24.5
q51 51 145 161l39 43q13 36 20 49q6 16 41 99l72 168q59 132 113 229q31 61 69 96q58 50 109 23q31 -19 36.5 -59.5t-10.5 -71.5q-4 -12 -10.5 -25t-12 -22.5t-15 -24t-13.5 -22.5q-72 -109 -198 -267q-56 -71 -117 -141q-1 -1 -29 -35l-14 -16q-2 -3 -5 -11.5t-5 -11.5
l-41 -100q88 110 168 160q29 18 58 28t62 4.5t52 -34.5q18 -27 13.5 -58.5t-19.5 -58.5t-37 -49q-82 -85 -258 -123q3 -8 13 -37.5t17 -46.5q35 -81 78 -96q43 -14 90 12q42 26 96 84q48 50 129 147zM602 1133q-27 -41 -86 -162q-23 -50 -125 -283q39 49 64 76
q158 199 217 299q0 1 5.5 9.5t6.5 10.5t5.5 10.5t6 12t5 11.5t4.5 12.5t3 12t2 13t-0.5 11.5t-2.5 12q-12 27 -45 12q-28 -11 -60 -57z" />
    <glyph glyph-name="l" unicode="l" horiz-adv-x="405" 
d="M672 1235q32 -16 36.5 -59t-10.5 -72q-9 -25 -51 -98q-56 -92 -155 -226q-87 -118 -207 -272q-9 -9 -15 -21l-8 -24l-18 -49q-22 -61 -31 -95q-13 -43 -18 -79q-8 -60 6 -93q6 -15 16.5 -22t24 -4.5t27.5 8.5t31.5 19t31 24t30.5 28.5t26 27t22 23.5t14 15l63 70
q1 1 9.5 12t13.5 15.5t13.5 11t15.5 5.5t14 -9q11 -16 -6 -37q-34 -40 -35 -41l-68 -72q-60 -66 -112 -106q-59 -41 -96 -39q-44 0 -66.5 33.5t-24.5 80.5v21.5t2 23t3 20.5t5 23t5 20.5t6.5 23t6 20.5t7 22.5t6.5 20.5q-16 -18 -39 -49q-9 -12 -24 -11t-19 17
q-2 6 1.5 14.5t8.5 14.5t13.5 15t9.5 11l49 64q5 5 11 12t13 15.5t11 13.5q1 2 5 6t6.5 8t3.5 8q2 3 5 11.5t5 11.5q24 66 57 143q61 156 90 219q40 86 72 148q47 88 80 125q28 33 61.5 51.5t65.5 1.5zM649 1104q26 60 6 86q-7 9 -26 4q-42 -17 -86 -94q-34 -50 -64 -119
q-34 -65 -82 -178l-61 -154q142 189 186 252q99 145 127 203z" />
    <glyph glyph-name="m" unicode="m" horiz-adv-x="1208" 
d="M1352 373q5 -4 7.5 -8t1.5 -8.5t-1.5 -8.5t-4.5 -9t-5.5 -7.5t-6.5 -8t-6 -6.5q-64 -79 -75 -92q-84 -96 -148 -133q-20 -12 -41 -18.5t-45.5 -3.5t-38.5 20q-15 17 -16.5 44.5t3.5 45t15 45.5q9 28 21.5 58.5t30 69t24.5 55.5q2 6 14 35t17 46q12 37 10 62q-4 47 -86 14
q-49 -22 -117 -86q-51 -51 -112 -133q-32 -42 -52 -72l-22 -34q-6 -11 -19 -45q-12 -33 -34 -84q-21 -36 -29 -43q-7 -6 -18 -6t-17 6q-12 12 -4 36q8 28 25 58l22 43q24 41 25 45q21 65 28 94q32 112 27 180q-5 58 -39 58q-12 0 -35 -9q-41 -18 -80 -61q-67 -67 -165 -223
l-68 -117l-29 -53q-2 -4 -6 -13.5t-8 -18t-8 -13.5q-7 -8 -18 -8t-19 8q-8 13 0 28l26 56q73 155 80 170q38 91 47 133q22 78 -2 102q-12 12 -32 0q-23 -10 -60 -43q-18 -16 -61 -65l-72 -82l-26 -31q-12 -16 -25 -16q-17 1 -21 16t7 25l18 20l70 82q7 7 22.5 25t24 27.5
t22.5 23t27 24t27 19.5q67 51 110 10q21 -19 25.5 -52t0.5 -57t-14 -59q63 88 117 135q68 60 117 64q36 1 60 -21.5t30 -58.5q10 -62 -14 -178q86 115 161 178q78 67 144 74q48 4 71 -17q23 -23 23 -59q0 -15 -3 -32.5t-5.5 -29t-10 -32.5t-10 -27.5t-13 -31.5t-11.5 -27
q-58 -131 -70 -172q-14 -42 -10 -62q2 -20 35 -16q39 8 102 67q48 46 109 117l43 53q20 24 32 24q6 -1 11 -5z" />
    <glyph glyph-name="n" unicode="n" horiz-adv-x="868" 
d="M979 367q9 11 23.5 7.5t17.5 -16.5q1 -5 -0.5 -9.5t-5 -9.5t-4.5 -7q-4 -9 -27 -37q-74 -93 -98 -117q-81 -81 -137 -100q-32 -14 -68.5 -5t-44.5 44q-7 26 4 67q5 25 31 88q40 95 73 179q19 47 23 73q5 34 -4 45q-14 14 -51 4q-20 -2 -47 -18q-89 -47 -189 -184
q-77 -105 -141 -219q-28 -54 -41 -70q-5 -8 -15.5 -12t-19.5 0q-8 3 -11 11t1 17l16 37q73 146 101 211q38 97 45 129q6 24 6 51q5 27 -13 39q-15 7 -41 -6q-26 -17 -53 -41q-61 -56 -127 -135l-30 -41q-17 -21 -31 -14q-10 3 -14 13t2 17q1 3 2.5 5.5t3 5.5t2.5 4l61 78
q51 58 92 94q52 48 97 63q30 9 56.5 -3.5t35.5 -43.5q7 -30 0 -76q-7 -37 -29 -98q38 51 74 92q78 86 141 119q93 48 143 8q42 -34 11 -139q-9 -30 -21.5 -60t-31 -70.5t-25.5 -57.5q-1 -4 -13.5 -34.5t-17.5 -47.5q-14 -42 -12 -62q1 -14 12 -18.5t27 0.5t27.5 9.5
t21.5 10.5q43 27 113 101q19 22 55.5 70.5t44.5 58.5z" />
    <glyph glyph-name="o" unicode="o" horiz-adv-x="591" 
d="M729 365q5 -4 7 -8.5t1.5 -9.5t-2 -9.5t-5.5 -9.5t-6 -8t-7 -8.5t-6 -6.5l-56 -55q-60 -53 -104 -66q-42 -11 -72 -6q-26 4 -37 8q-9 3 -18 9l-18 -19q-78 -82 -158 -100q-45 -9 -85 6t-61 53q-29 55 -14 144q26 144 143 268q34 34 66 59q3 2 10.5 8t14.5 9.5t12 3.5
q22 -3 22 -25q-1 -5 -2.5 -8.5t-4.5 -7t-5.5 -5.5t-7 -5.5t-6.5 -4.5q-21 -14 -33 -26q-32 -25 -61 -62q-57 -75 -80 -139q-29 -75 -27 -129q2 -43 26 -72.5t66 -23.5q80 10 162 100q-34 31 -46 81.5t-7 97t20 94.5q28 91 78 126q32 24 68.5 18.5t54.5 -40.5q42 -74 2 -188
q-29 -91 -98 -177q60 -22 125 19q40 26 69 59l43 45q18 27 37 11zM414 254q38 52 55 82q63 102 55 192q-5 49 -26 62q-24 11 -54 -19q-49 -52 -65 -155q-17 -110 35 -162z" />
    <glyph glyph-name="p" unicode="p" horiz-adv-x="688" 
d="M795 362q12 15 29 3t7 -29q-2 -3 -30 -37q-21 -21 -29 -33q-47 -49 -106 -96q-148 -111 -304 -125q-53 -5 -112 4l-33 6q-14 5 -16.5 17.5t6 22t22.5 5.5q21 -6 41 -6q13 0 33 4q31 5 66 23q54 26 110 86q94 105 129 239q10 27 13 54q4 54 -5 75q-12 27 -59 3
q-45 -18 -96 -62q-59 -50 -111 -108q-46 -52 -106 -146q-31 -48 -45 -80q-1 -3 -6.5 -10t-6.5 -12l-10 -23l-18 -45q-30 -73 -91 -212t-67 -154q-42 -104 -63 -146q-8 -24 -25 -24q-9 2 -16 8.5t-7 15.5q0 7 11 29l12 26l117 271l239 569q-67 -74 -114 -131q-23 -27 -41 -6
q-14 14 2 33l110 127q43 45 101 114q12 14 29 3.5t10 -27.5q-1 -2 -5.5 -12t-5.5 -15q-41 -95 -65 -158q103 130 200 191q96 61 144 29q40 -24 35 -103q-3 -66 -35 -151q-70 -178 -203 -267q188 49 365 260z" />
    <glyph glyph-name="q" unicode="q" horiz-adv-x="602" 
d="M715 371q9 11 21.5 7t16 -16t-4.5 -24q-3 -3 -8 -8.5t-10 -10t-9 -8.5q-5 -6 -37.5 -43t-44 -49t-38 -39t-48 -45.5t-45.5 -34.5q-15 -12 -35 -22l-18 -10q-14 -7 -15 -8t0 -3q11 -40 11 -92q0 -77 -17 -174q-18 -97 -43 -164q-34 -88 -88 -123q-62 -37 -110 2
q-54 44 -23 160q8 30 17.5 59t25 65.5t23 54.5t29 64t26.5 56q2 5 106 242q-47 -57 -92 -92q-84 -65 -162 -52q-35 6 -58.5 31.5t-29.5 61.5q-10 62 23 145q38 85 110 164q128 135 271 166q84 18 143 2q8 -2 12.5 -5.5t6 -9t1.5 -10.5t-3 -12.5t-4.5 -12t-5.5 -12t-5 -10.5
l-63 -145q-84 -187 -144 -326q62 27 105 62q47 36 96 92zM207 113q25 8 49 22q51 31 102 96q46 54 91 129q59 97 118 232q-91 12 -186 -37q-73 -36 -139 -102q-78 -78 -119 -164q-32 -83 -21 -131q7 -34 33 -45q27 -12 72 0zM326 -403q23 40 41 102q16 54 26 127
q11 76 13 125q0 80 -21 115q-7 -15 -15 -33.5t-17 -40.5t-15 -35q-11 -25 -34 -74.5t-40.5 -90t-30.5 -77.5q-20 -57 -26 -90q-8 -57 12 -80q18 -20 40.5 -11t40 27t26.5 36z" />
    <glyph glyph-name="r" unicode="r" horiz-adv-x="528" 
d="M639 369q9 11 21.5 7.5t16 -15t-4.5 -23.5l-21 -25l-71 -80q-72 -83 -125 -129q-59 -51 -99 -55t-60 28.5t-15 72.5q2 12 5.5 25t7 22.5t10.5 24.5t10.5 21.5t13 23t12 20.5t14.5 22.5t13 20.5q7 11 26 42t29 50q29 57 27 76q-1 4 -6 6t-13.5 2.5t-15.5 0.5t-15 -0.5
t-10 -0.5q-52 4 -63 37q-28 -35 -142 -164l-39 -41q-19 -19 -34 -10q-7 4 -10 9t-2 11t3.5 11t8.5 12t10 11t10.5 10t7.5 7q41 43 119 133l66 80l30 35q11 14 26.5 7.5t14.5 -23.5q-1 -6 -4 -13t-7.5 -15t-6.5 -13q0 -1 -3 -9.5t-3 -13.5q-2 -7 -0.5 -10t10.5 -4
q15 -1 26.5 0t26 -0.5t25.5 -5.5q21 -7 29.5 -25.5t5.5 -40.5q-8 -37 -33 -82q-9 -19 -29.5 -51.5t-25.5 -40.5q-4 -7 -21.5 -35.5t-25 -41.5t-17.5 -36.5t-14 -43.5q-6 -47 16 -54q12 -4 41 13q41 26 113 102z" />
    <glyph glyph-name="s" unicode="s" horiz-adv-x="497" 
d="M602 360q13 19 32 6t7 -32q-3 -3 -20.5 -26.5t-28.5 -35.5q-60 -69 -125 -118q-171 -133 -326 -97q-81 17 -151 84q-27 22 -29 35q0 9 6 17t15 8q6 1 11.5 -2t8.5 -6t8.5 -9t7.5 -8q17 -17 35 -29q39 -27 76 -38q17 -7 43 -11t39 -2q53 12 74 72q18 51 18 145q0 22 -3 92
t-1 109q-62 -75 -125 -143l-37 -39q-5 -6 -13.5 -7t-14.5 5q-6 4 -8.5 9t-1.5 10.5t3.5 10t7.5 10.5t8.5 9.5t9 8.5t7.5 7q32 35 184 215l25 29q13 15 30 3.5t9 -28.5q-3 -7 -13 -17t-12 -17q-10 -25 -14 -82q-1 -34 2 -102.5t2 -102.5q0 -116 -35 -174q89 34 174 112
q67 61 115 129z" />
    <glyph glyph-name="t" unicode="t" horiz-adv-x="444" 
d="M553 362q7 9 21 6.5t18 -14.5q4 -10 -8 -26q-36 -42 -39 -45q-7 -8 -26 -32t-29 -36t-27 -31t-32.5 -33.5t-31.5 -27.5q-79 -64 -149 -43q-57 14 -68 84q-8 54 6 121q13 68 52 182q-40 -59 -84 -117l-4 -4q-3 -4 -4 -5t-4 -5t-5 -5t-5 -3t-5.5 -2.5t-5.5 -0.5t-6 1t-6 4
q-20 14 10 49q96 129 151 227h-92q-14 0 -21 10.5t-1 22.5q5 12 32 12h109l20 43q39 76 105 236q6 16 24 14t19 -20q1 -6 -12 -39l-31 -78q-31 -70 -64 -156h142q2 0 13.5 0.5t17.5 0t13.5 -3.5t10.5 -9q6 -12 -2 -22.5t-20 -10.5h-193q-2 0 -5.5 -8.5t-6.5 -19t-4 -11.5
l-17 -43l-33 -90q-33 -102 -45 -168q-13 -82 2 -116q11 -24 36 -27.5t48.5 5.5t42.5 24q10 7 20.5 16t18 15.5t19 18.5t17 18t17.5 20t15.5 18.5t17 21t15.5 19.5z" />
    <glyph glyph-name="u" unicode="u" horiz-adv-x="712" 
d="M817 362q9 9 21 8t18 -12q7 -13 -6 -30q-36 -42 -39 -45q-59 -65 -111 -115q-58 -58 -108 -86q-87 -45 -117 6q-17 31 0 102q15 63 64 175q-107 -152 -203 -236q-70 -59 -127 -66q-32 -3 -56 13t-30 47q-7 43 18 119q14 46 70 178l-49 -64q-2 -2 -6.5 -7.5t-7 -9t-7.5 -8
t-9 -6t-9.5 -1t-11.5 3.5q-25 16 8 49l41 51q78 100 125 166q1 2 5 9t7 11q6 6 15.5 6t17.5 -6q12 -12 0 -32q-8 -19 -21.5 -53t-25.5 -62.5t-23 -52.5q-44 -92 -67 -164q-18 -50 -21 -72q-7 -28 -2 -49q9 -36 72 -8q42 19 84 61q79 73 178 215q85 126 133 211q11 19 25 19
q18 0 22 -19q1 -4 0 -8t-3 -10t-3 -8q-21 -46 -39 -93q-12 -31 -42.5 -104t-45.5 -113q-36 -97 -39 -131q-6 -24 4 -32q9 -5 29 2l22 10q42 24 119 96q74 74 131 145z" />
    <glyph glyph-name="v" unicode="v" horiz-adv-x="825" 
d="M930 365q13 12 28.5 2t10.5 -27q-2 -4 -21 -23l-24 -22q-67 -59 -113 -74q-67 -22 -113 21q-37 37 -20 114q-103 -127 -178 -192q-60 -51 -90 -68q-46 -26 -78 -28q-30 -3 -52 12.5t-26 44.5q-6 52 39 158q7 15 36 77.5t42 96.5q1 1 4.5 10.5t7 18t7.5 20.5t5.5 22
t1.5 19t-4 14.5t-12 5.5q-17 0 -35 -18q-24 -16 -51 -43l-102 -113q-5 -7 -15.5 -19t-11.5 -14q-20 -24 -29 -32q-17 -10 -29.5 5t1.5 29l28 37q109 121 113 125l11.5 11.5l12.5 12.5t12 11.5t13.5 12.5t13 10.5t14.5 10.5t14 8t15 7q30 11 56 -4t30 -45q2 -30 -12 -72
q-1 -5 -35 -92q-57 -125 -71 -164q-18 -42 -23 -69q-6 -33 4 -43q18 -20 60 4q39 18 84 59q94 80 194 205q53 63 82 107l33 47q2 3 5.5 10.5t6 12t7.5 12t9 9t10.5 4t12.5 -2.5q10 -4 11.5 -15t-3.5 -18l-24 -45q-28 -47 -43 -86q-33 -73 -31 -117q1 -24 19.5 -36t43.5 -7
q33 5 70 35q32 22 78 68z" />
    <glyph glyph-name="w" unicode="w" horiz-adv-x="993" 
d="M1102 365q9 9 23 3.5t14 -18.5q1 -6 -2.5 -12.5t-7 -10.5t-10.5 -10t-9 -8q-52 -48 -92 -69q-54 -34 -100 -23q-60 13 -72 70q-56 -89 -115 -146q-62 -62 -131 -73q-45 -7 -74 8q-33 14 -43 59q-2 30 -3 46.5t6.5 47t12.5 46t15 44.5q-91 -125 -174 -192
q-76 -64 -133 -64q-31 0 -52 18t-24 48q-1 9 -1.5 17t1 18.5t2.5 16.5t4 18.5t4 16t5.5 18t5.5 16.5q33 97 69 176l-47 -57l-27 -29q-12 -16 -24 -16q-18 4 -21 18q-2 14 11 27l49 57q79 93 125 164q1 1 6 9t7 9.5t8 8t9 5t11 -0.5q23 -10 12 -35l-37 -86q-87 -206 -98 -234
q-22 -68 -23 -73q-8 -37 -6 -56q3 -26 23 -26q15 -2 43 6q31 12 84 57q38 34 90 96q83 101 166 234q43 67 59 96q9 18 14 23q19 11 33 -7q8 -10 -4 -34q-9 -13 -16 -29q-88 -161 -125 -293q-21 -73 -15 -110q4 -30 25 -35q31 -9 65 6q63 23 123 98q50 60 105 158
q14 25 22 43l21 47l45 86q17 40 20 45q4 10 11 18q6 6 16 5t16 -7q3 -4 4.5 -8.5t0 -10.5t-2.5 -9t-4.5 -10.5t-3.5 -8.5q-2 -5 -10 -23.5t-14 -27.5l-43 -90q-26 -54 -33 -92q-8 -36 8 -55q19 -25 53 -17q32 5 70 35q26 18 80 68z" />
    <glyph glyph-name="x" unicode="x" horiz-adv-x="743" 
d="M856 362q7 9 20 7.5t19 -11.5q5 -13 -6 -28l-35 -43q-78 -94 -123 -137q-80 -76 -145 -78q-25 -1 -44 7.5t-31 20.5t-20.5 34.5t-12.5 39t-6.5 46t-2.5 42v39.5q-132 -105 -176 -143q-7 -6 -20.5 -18t-21.5 -20l-19 -19t-19 -21q-11 -15 -20 -17q-9 -1 -17 5.5t-10 15.5
q-1 5 1.5 11t5 9.5t8.5 10.5t7 8q31 31 115 102l82 68l45 37l21 16q18 12 18 19l-4 96q-4 48 -16 76q-14 31 -39 36q-28 2 -62 -20q-11 -8 -21.5 -16.5t-21.5 -19t-19 -18.5t-20 -21.5t-17.5 -20.5t-18.5 -22.5t-17 -20.5q-52 -61 -66 -76q-19 -19 -34 -10q-20 16 -7 32
q10 14 31 37t29 33l67 80q82 91 144 106q36 9 62.5 -4t40 -35t21.5 -59.5t10 -62t3 -58.5l158 123l116 90q2 2 7 5.5t8.5 6t8.5 4.5t9.5 2t9.5 -3q8 -5 10.5 -15.5t-3.5 -19.5q-5 -6 -19.5 -16t-15.5 -11q-33 -25 -164 -127q-10 -8 -39.5 -30t-44.5 -35l-25 -19
q-1 -1 -5.5 -4t-7.5 -6t-3 -6v-45q6 -87 6 -90q10 -51 19 -64q12 -18 34.5 -19t41 7t36.5 20q61 41 142 142z" />
    <glyph glyph-name="y" unicode="y" horiz-adv-x="780" 
d="M889 362q8 9 19.5 8t17.5 -10q9 -14 -15 -43l-75 -86q-91 -94 -168 -161l-41 -37q-7 -6 -23 -43q-3 -11 -16 -41q-2 -7 -29 -74q-62 -148 -76 -176q-43 -87 -84 -131q-58 -65 -123 -68q-42 -3 -69 26t-27 73q2 89 109 204q55 59 151 134l84 67l41 37q16 11 17 14l6 15
q91 226 125 307q-114 -157 -207 -236q-63 -55 -119 -65q-37 -7 -61 14q-23 17 -23 53q-2 26 10 80l33 99q47 116 57 178q9 39 0 57q-11 21 -41 8q-8 -4 -16.5 -10t-18 -14.5t-14.5 -12.5q-6 -7 -26 -27.5t-29 -31.5l-82 -96l-31 -37q-9 -12 -24.5 -11t-18.5 17
q-1 6 0.5 11.5t4 9t8 9t6.5 7.5l33 39q8 9 33.5 39t42 49t34.5 37q21 21 32 31t31.5 23t39.5 17q31 6 57 -10q29 -23 29 -63q1 -13 0.5 -26t-4 -28t-5.5 -25.5t-7.5 -28.5t-8 -25t-10 -27.5t-8.5 -24.5q-49 -121 -60 -176q-5 -41 2 -53q8 -10 39 -4q32 10 86 53
q85 76 201 232q53 73 90 131q12 20 20 30q13 21 25 21q13 1 19.5 -10.5t1.5 -24.5l-175 -432q133 123 230 239zM516 -109q4 11 8.5 23t11 26t9.5 23q-17 -14 -50.5 -40t-54 -43t-48.5 -41t-50 -46q-68 -68 -98 -135q-28 -63 -11 -94q18 -33 70 -10q27 8 51 32q44 42 82 123
q25 47 80 182z" />
    <glyph glyph-name="z" unicode="z" horiz-adv-x="624" 
d="M764 365q16 -16 -4 -39q-19 -22 -246 -265l-51 -51l-12 -10q-5 -10 -5 -12l-10 -21q-13 -35 -20 -47q-53 -123 -88 -186q-53 -101 -90 -150q-45 -64 -97 -90q-64 -33 -116 -10q-37 19 -46.5 61.5t5.5 79.5q30 80 114 160q37 37 154 123q53 37 86 61q15 10 45 35l20 16
q10 7 13 23q17 53 8 80q-3 11 -10 18l-6 9q-6 6 -9 2l-45 -29q-100 -63 -157 -45q-32 11 -37 35q-5 28 24 61q30 32 75.5 46.5t90.5 6.5q26 -7 49 -18q36 30 39 33q45 42 72 73q79 100 74 170q-1 46 -38 68t-85 20q-17 -1 -34.5 -5t-31.5 -8t-31.5 -14.5t-28 -17t-28.5 -22
t-25.5 -22t-26 -25.5t-23.5 -24.5t-24 -26.5t-22 -25l-26 -29q-21 -26 -31 -28q-19 -3 -24.5 13t4.5 28l32 36q4 4 27.5 30.5t31 33.5t28.5 29t33 31.5t31.5 25.5t37.5 26t37 19q87 34 163 14q42 -12 69.5 -44t31.5 -74q5 -76 -53 -164q-54 -79 -140 -148q39 -42 33 -98
l111 117l92 98l47 53q27 27 43 13zM63 -479q78 -7 160 125q60 88 152 293q-27 -20 -87 -61.5t-103.5 -75.5t-78.5 -72q-62 -65 -79 -121q-11 -26 -3.5 -55t39.5 -33zM215 121q19 -2 61 12q30 13 82 47q-50 14 -104 -12q-22 -8 -41 -31l-8 -10q-1 -4 2.5 -5t7.5 -1z" />
    <glyph glyph-name="braceleft" unicode="{" horiz-adv-x="608" 
d="M786 1196q-4 2 -9 3t-11.5 1.5t-9.5 1.5q-38 3 -78 -10q-52 -16 -100 -64q-42 -45 -70 -102q-34 -66 -55 -123q-26 -70 -45 -131q-10 -36 -41 -137q-16 -59 -43 -127q-17 -43 -50 -88q-12 -15 -30 -27q-26 -14 -60 -28q21 -14 33 -29q1 -3 3.5 -7.5t2.5 -6.5q9 -20 0 -60
q-11 -41 -30 -88q-18 -41 -58 -123q-41 -84 -59 -127q-37 -76 -56 -127q-28 -73 -36 -114q-7 -28 -7 -52q-4 -28 5 -51q11 -29 36 -37q21 -8 54 -8q17 0 45 4q4 2 10 2q8 0 12 -4q15 -7 11 -22q-3 -16 -17 -19q-1 0 -3 -1t-3 -1q-24 -4 -35 -4q-57 -7 -104 16q-26 13 -39 39
q-15 20 -19 56q-2 41 13 108q15 52 43 125q9 22 59 135l57 119q5 12 23.5 51t26.5 60q6 13 20 49q8 23 10 39q0 17 -2 20q-22 25 -47 31q-2 0 -6.5 1t-7.5 1h-13q-16 3 -16 20q-3 8 4 15v6l2 2q0 1 1 3t1 3q11 11 23 8h4q17 0 29 6q25 6 53 23q16 8 22 14q12 12 13 15
q11 13 26 43q18 41 23 57q20 52 47 143q2 9 41 133q26 80 47 130q25 65 57 116q38 61 80 103q45 39 101 57q40 12 81 12q36 -5 50 -8t18 -10q8 -17 -2 -27q-9 -12 -25 -8z" />
    <glyph glyph-name="bar" unicode="|" horiz-adv-x="770" 
d="M743 1194q9 -3 12.5 -12t0.5 -17v-2q-4 -8 -4 -10q-6 -9 -9 -18l-12 -27l-14 -35l-17 -41l-20 -47l-21 -53l-24 -58q-5 -13 -14.5 -34.5t-12.5 -28.5l-26 -66l-31 -69q-2 -7 -29 -74l-61 -147q-5 -15 -17 -40t-16 -36l-61 -152l-62 -143l-29 -70l-26 -65l-25 -62l-24 -57
q-2 -6 -10 -23.5t-11 -27.5q-3 -5 -20 -45q-1 -4 -17 -41l-12 -31q-8 -16 -10 -24l-8 -17q0 -1 -1 -4t-1 -4q-7 -14 -23 -14q-12 0 -18.5 10.5t-1.5 21.5q2 2 2 7l6 14l10 22l12 31l17 39l18 45l23 51l22 58l25 59l28 66l27 67l31 72l61 147l31 76q17 44 33 76l30 76l31 73
l31 72l29 70l26 67q16 31 27 64l24 59q5 9 13 28.5t10 24.5l20 49l19 41q9 27 14 37q6 13 10 27q5 7 9 20l6 11v2q3 9 12 12.5t18 -0.5z" />
    <glyph glyph-name="braceright" unicode="}" horiz-adv-x="919" 
d="M750 1133q2 -27 -11 -93q-13 -54 -41 -122q-14 -39 -57 -136q-9 -21 -59 -123q-6 -13 -24 -51t-26 -59q-6 -13 -20 -49q-9 -21 -12 -41q-4 -17 -2 -27q0 -1 1 -2t1 -2l12 -12q14 -11 25 -15q16 -4 26 -4q15 4 23 -8q9 -13 4 -31q-1 -2 -2.5 -5.5t-10 -8.5t-20.5 -4
q-10 0 -22 -4q-11 -3 -50 -17l-30 -18l-13 -12q-13 -13 -24 -39q-16 -25 -25 -53q-21 -55 -47 -142l-41 -135q-25 -75 -47 -129q-22 -58 -55 -121q-38 -62 -76 -102q-52 -48 -100 -64q-43 -16 -86 -16q-27 0 -54 6l-12 4q-12 6 -12 25q4 14 18 18q3 1 10.5 -0.5t10.5 -1.5
q12 -4 22 -4q43 -3 78 8q51 16 98 66q40 43 72 102q24 47 53 121q29 81 45 133l43 137q13 46 43 127q21 55 50 86q11 17 28 27q35 21 60 31q-18 12 -33 30l-6 13q-6 21 2 59q6 33 30 90q18 41 58 123q41 84 59 127q33 67 55 127q23 62 37 115q6 48 6 51q3 26 -6 51t-37 35
q-16 8 -55 8q-22 0 -43 -6h-10q-6 0 -14 4q-13 13 -7 25q3 13 17 16q4 0 6 2q24 4 35 4q61 7 104 -18q24 -12 41 -39q13 -22 17 -57z" />
    <glyph glyph-name="asciitilde" unicode="~" horiz-adv-x="90" 
d="M229 373q17 -17 -2 -39l-39 -47l-137 -162l-37 -45q-9 -11 -23.5 -8t-17.5 18q-2 10 9 25q5 6 211 247q22 25 36 11z" />
    <glyph glyph-name="exclamdown" unicode="&#xa1;" horiz-adv-x="774" 
d="M158 -285q-24 10 -2 54q6 15 34 79l166 392l117 268q4 11 14 14q13 6 24 -5t5 -25l-10 -23l-55 -131l-172 -401l-68 -156l-18 -43q-14 -32 -35 -23zM578 813q0 15 10.5 26t25.5 11q17 0 28 -11t11 -26q0 -17 -11 -28t-28 -11q-15 0 -25.5 11t-10.5 28z" />
    <glyph glyph-name="cent" unicode="&#xa2;" horiz-adv-x="632" 
d="M469 1034q47 -6 78 -28q23 -17 39 -43q11 -15 8 -29q-3 -12 -19 -16q-15 -4 -22 10l-16 24q-18 21 -45 31q-16 4 -27 4q-6 0 -8 2h-6v-2q0 -2 -2 -4q-1 -6 -11 -25l-16 -43l-25 -55l-26 -67l-31 -72l-31 -76l-30 -74l-29 -69l-27 -60l-18 -49q-8 -13 -15 -31l-4 -12
q42 -5 103 21q53 23 108 78q1 1 7 5.5t8 8.5l12 12q10 13 27 6q15 -8 12 -24q0 -5 -4 -13q-1 -1 -7 -5.5t-8 -8.5q-49 -52 -108 -88q-58 -33 -117 -39q-25 0 -37 2l-14 2l-6 -14l-25 -62l-31 -73l-18 -45l-2 -2q-8 -16 -23 -13q-12 0 -17.5 10t-0.5 21l14 39l31 72l27 65
l8 17v2q-10 6 -10 8q-6 3 -13 10q-43 35 -57 107q-13 60 0 135q15 72 45 139q25 60 72 123q48 65 100 106q59 48 111 66l26 10q2 0 7.5 1t7.5 1q6 0 6 2q0 6 4 10l25 62l30 74l17 36q5 12 17.5 15t21.5 -6q8 -8 4 -25q0 -1 -1 -2t-1 -2q-2 -6 -10 -23.5t-11 -27.5l-31 -72z
M143 367l7 14q9 26 14 35q3 10 10.5 28t9.5 23l27 63l31 72l30 76l31 74l29 71l26 62l21 49l12 33l6 12q-28 -9 -53 -25q-58 -35 -108 -92q-45 -48 -84 -117q-39 -73 -52 -131q-20 -79 -12 -143q7 -70 55 -104z" />
    <glyph glyph-name="sterling" unicode="&#xa3;" horiz-adv-x="968" 
d="M715 1180q52 -3 104 -25q49 -21 84 -65q37 -53 37 -109q3 -60 -31 -123l-18 -27l-4 -5q-4 -5 -8 -7t-13 -2q-17 0 -20 17q-3 6 0 12q3 10 8 12q44 57 41 121q-3 58 -45 100q-39 36 -98 49q-53 10 -93 5q-36 -9 -71 -27q-41 -23 -66 -51q-25 -25 -59 -76q-34 -62 -49 -100
q-28 -72 -43 -123l-17 -68q-9 -38 -20 -72h209q11 0 16 -8q11 -14 2 -26q-7 -11 -18 -11h-224l-2 -10l-6 -16l-10 -31l-49 -127q-12 -29 -59 -125q-35 -64 -66 -108l20 6q47 8 70 10q39 0 76 -6q64 -12 151 -41q14 -3 76 -23l70 -14q41 -4 59 0l25 6q13 7 24 -4
q14 -11 7 -25q-4 -7 -9 -10l-12 -6q-27 -8 -59 -8q-33 0 -68 6l-74 18q-20 6 -72.5 22.5t-80.5 23.5q-38 9 -74 12q-31 3 -66 0q-47 -5 -104 -33q-29 -13 -53 -31l-4 -4q-4 -4 -9 -4h-16q-16 0 -22 12q-4 17 6 27q4 4 16 8q4 1 8.5 4.5t5.5 3.5q17 10 29 25q31 31 59 78
q36 55 62 108q36 73 55 125q32 77 49 131h-147q-6 0 -11.5 5.5t-7.5 11.5q-3 15 9 24q4 4 14 4h158l2 5q0 2 1 5t1 5l6 18q35 139 37 144q18 57 43 116q14 39 47 92q24 43 51 70q18 24 51 49q32 24 52 33q24 12 51 18q18 5 45 9q22 3 41 0z" />
    <glyph glyph-name="currency" unicode="&#xa4;" 
d="M2 1200v43q0 4 4 4h639v-43q0 -4 -4 -4h-639zM2 76v43q0 4 4 4h639v-43q0 -4 -4 -4h-639zM330 655v-39q0 -8 -4 -8h-324v33q0 14 4 14h324z" />
    <glyph glyph-name="yen" unicode="&#xa5;" horiz-adv-x="847" 
d="M498 625q17 0 20 -17q7 -14 -6 -24q-6 -6 -14 -6h-183q-2 0 -2 -5l-6 -10l-14 -35l-23 -49h211q11 0 19 -8q9 -12 2 -27q-8 -12 -21 -12h-229q-2 0 -2 -2q-1 -1 -2 -4.5t-2 -5.5l-21 -45l-28 -68l-33 -74l-31 -69q-2 -5 -9.5 -23t-10.5 -28l-7 -13q-4 -8 -4 -10
q-11 -11 -24 -8q-16 3 -19 18q0 5 4 17l15 35q8 16 26 61l33 74l31 71q16 36 22 54l11 20h-131q-11 0 -21 10q-9 13 0 25q6 12 19 12h153l2 4q0 3 4 11l15 34l22 50h-182q-18 4 -21 16t4.5 21.5t18.5 9.5h197v2q0 16 -2 24q0 8 -1.5 23.5t-1.5 23.5l-4 64l-4 74q-4 54 -4 79
l-6 82q0 24 -4 78l-4 66q0 9 -1 27t-1 26q-2 10 -2 33q-2 2 -2 8q0 14 12 20q11 7 22 0.5t13 -18.5v-6q0 -5 1 -17t1 -18l4 -61l4 -80l6 -88l4 -93l6 -83q0 -7 5 -70q0 -7 1 -23t1 -24l6 8l30 35l39 49l50 59q5 7 24.5 30t28.5 36q38 44 57 70l55 67l54 62q27 35 45 55
q9 13 35 43l22 26q7 14 21 17q14 4 22 -12q10 -13 -2 -25q0 -2 -2 -2q-8 -12 -14 -18l-25 -31l-37 -45l-43 -51l-49 -60l-51 -61q-1 -2 -51 -64l-52 -61l-45 -56l-41 -49l-30 -39l-21 -24l-8 -8h156z" />
    <glyph glyph-name="brokenbar" unicode="&#xa6;" horiz-adv-x="770" 
d="M743 1194l7 -4q6 -4 6 -25v-2q-10 -17 -13 -28l-133 -316q0 -2 -1 -4.5t-1 -3.5l-57 -135q0 -7 -16 -43l-74 -178q-4 -8 -4 -13l-21 -45q-4 -6 -8 -18l-227 -549q-11 -21 -11 -23q-1 -1 -1 -2.5t-1 -1.5l-14 -36q-31 -54 -31 -74l-12 -31q-8 -16 -10 -24l-8 -17
q0 -3 -2 -6.5t-2 -5.5l-5 -4q-8 -4 -10 -4l-6 -2q-22 0 -22 22q0 3 2 9t2 8l311 747q0 2 2 6t2 6l2 2q0 2 1 5t1 4l197 466q0 7 2 9l24 59q3 7 9 22t8 19l55 131l4 8l6 15l2 4q0 2 -1 5t-1 5q0 5 13 18l6 13q3 9 16 14q8 0 14 -2z" />
    <glyph glyph-name="section" unicode="&#xa7;" horiz-adv-x="860" 
d="M567 1225q35 -2 84 -17q47 -15 84 -45q35 -27 56 -65q21 -34 30 -76q12 -37 15 -80l4 -39v-18q0 -9 -2 -13q0 -3 -7 -10q-14 -11 -26 -2q-5 3 -8 8q-4 8 -4 13q0 29 -2 43q-3 45 -15 86q-8 38 -35 77q-25 39 -65 60q-45 25 -105 31q-31 3 -53 -2q-24 -3 -53 -17
q-53 -26 -94 -80q-45 -55 -66 -118q-20 -70 -14 -132q3 -64 33 -133q18 -39 26 -53q25 -41 39 -68q46 -76 72 -124q37 -72 53 -111q26 -70 31 -102q9 -50 6 -97q-6 -47 -25 -94q-18 -35 -26 -47q-12 -22 -37 -47q-20 -23 -49 -39q-22 -13 -29 -16l-16 -7q-2 0 -4 -2h-3v-10
q6 -71 -14 -131q-3 -10 -33 -67q-23 -37 -36 -50q-38 -41 -91 -59q-52 -22 -104 -25t-104 9q-52 8 -103 38q-49 29 -82 70q-31 45 -43 94q-11 49 0 111q0 10 4 14q4 8 11 8q13 7 24 -4q6 -6 6 -12q1 -2 1 -4v-3.5t-0.5 -3.5t-0.5 -3q-4 -20 -4 -29q-3 -55 21 -104
q20 -46 65 -80q41 -30 103 -47q55 -13 108 -7q55 3 103 31q24 12 43 31q15 11 34 41q29 45 39 84q11 40 8 86q-2 34 -18 92q-16 45 -43 102q-7 15 -61 115l-74 125q-37 62 -51 127q-19 71 -13 137q6 64 35 131q25 61 68 107l45 41l24 18l15 6v19q6 70 37 137q30 64 79 113
q46 46 99 69q60 24 108 19zM307 627q-16 25 -24 47q-29 66 -39 141q-40 -25 -74 -74q-37 -52 -55 -116q-13 -50 -13 -99q0 -55 21 -123q10 -25 33 -69l30 -53q41 -65 74 -127q49 -96 57 -115q26 -64 35 -105l21 9q29 16 53 37q15 13 35 45q30 51 37 86q9 41 6 86
q-2 34 -21 92q-18 53 -45 102q-11 24 -34 66.5t-27 50.5z" />
    <glyph glyph-name="dieresis" unicode="&#xa8;" horiz-adv-x="403" 
d="M174 1450q17 -7 24.5 -24t2.5 -35q-14 -28 -43 -31q-32 0 -43 29q-13 26 8 51q24 20 51 10zM287 1401q17 -7 24 -24.5t2 -35.5q-13 -27 -43 -30q-33 0 -43 28q-13 26 9 52q24 20 51 10z" />
    <glyph glyph-name="copyright" unicode="&#xa9;" horiz-adv-x="1210" 
d="M805 1237q42 0 94 -10q56 -11 111 -43q52 -32 88 -76q41 -47 63 -109q24 -64 27 -133q6 -70 -10 -147q-10 -60 -41 -137q-12 -33 -54 -111q-27 -47 -67 -100q-45 -55 -82 -92q-42 -43 -92 -80q-55 -41 -99 -66q-56 -31 -102 -49q-64 -22 -106 -31q-58 -10 -105 -10
q-64 0 -125 18q-56 15 -106 50q-47 35 -82 82q-35 46 -54 108q-20 61 -20 129q-3 71 12 139q11 61 41 133q16 43 54 109q25 44 69 102q37 46 82 91q38 38 92 79q57 43 99 64q56 31 102 49q64 22 106 31q58 10 105 10zM1112 643q20 78 23 94q13 76 8 137q-6 62 -31 123
q-22 55 -63 99q-42 42 -97 63q-50 24 -118 31q-56 3 -111 -6q-53 -9 -105 -27q-7 -3 -104 -47q-54 -33 -98 -66q-57 -46 -90 -79q-39 -39 -80 -93t-68 -104q-37 -72 -51 -111q-27 -76 -35 -139q-9 -68 0 -137q9 -64 35 -117q27 -52 72 -94q44 -38 100 -59q58 -21 121 -21
q45 -2 106 8q53 12 107 33q46 18 102 49q47 28 96 68q53 43 91 84q42 45 77 94q37 49 64 104q32 66 49 113zM780 506q10 10 25 6q14 -7 14 -23q0 -6 -8 -18q-8 -8 -10 -12l-29 -29q-40 -44 -72 -65q-57 -40 -94 -50q-60 -19 -119 -10q-54 7 -92 39q-34 31 -47 86
q-10 42 -6 105q4 36 23 102q16 45 43 102q32 58 61 95q30 40 74 81q41 35 86 58q63 27 104 22q30 -4 47 -16q20 -17 29 -37q16 -42 6 -94q-13 -56 -45 -94q-18 -18 -39 -33q-8 -4 -10 -4q-8 -4 -12 -4q-16 -3 -23 10q-9 12 2 27q2 4 11 7.5t10 4.5q21 12 34 35q14 19 23 47
q8 29 6 49q0 27 -12 41q-11 16 -39 16q-21 0 -53 -12q-36 -16 -43 -20q-41 -24 -82 -68q-44 -44 -68 -88q-36 -55 -51 -100q-22 -53 -31 -103q-9 -52 -4 -100q7 -58 43 -84q18 -15 43 -21q18 -6 60 -6q52 3 108 33q41 24 82 65z" />
    <glyph glyph-name="ordfeminine" unicode="&#xaa;" horiz-adv-x="663" 
d="M770 365q12 12 27 3t12 -24q-1 -4 -3.5 -8t-6 -8t-4.5 -6q-5 -5 -27 -30t-33 -38q-7 -8 -26 -30t-29.5 -33.5t-27 -29t-31.5 -31.5t-31 -26q-80 -67 -144 -36q-64 28 -47 143q-72 -91 -141 -127q-95 -46 -156 -4q-51 34 -51 113q3 67 47 147q43 85 127 162q64 61 140 98
q103 51 204 39q26 -4 37 -8q9 -3 13 -9.5t2 -16.5t-4.5 -16.5t-8.5 -18.5t-6 -13q-37 -81 -80 -160q-11 -21 -28 -49q-20 -40 -23 -49q-23 -70 -27 -94q-8 -52 5 -80q6 -12 20.5 -17t28.5 -2q24 4 57 29q30 24 63 60q42 42 152 170zM207 115q55 15 115 75q40 40 102 134
q9 11 22 41l19 38q5 14 35 76q34 67 63 113q-88 11 -182 -35q-71 -36 -139 -104q-81 -77 -119 -164q-33 -80 -21 -131q7 -34 33 -45q28 -10 72 2zM606 -14q10 0 19 -6q11 -11 4 -27q-6 -12 -23 -12h-500q-19 0 -22 2q-14 7 -14 20q0 16 14 23h522z" />
    <glyph glyph-name="guillemotleft" unicode="&#xab;" horiz-adv-x="497" 
d="M119 342l2 -4l14 -129q4 -52 8 -80l7 -49q0 -31 -25 -31q-11 0 -15.5 5.5t-6.5 20t-3 19.5l-6 66l-16 149q-1 5 -2.5 14t-2.5 16t-1 11q0 6 6 12l6 11l76 100q29 36 47 66l43 57l33 43q8 8 16 8q10 0 17.5 -7.5t7.5 -16.5q0 -3 -5 -13l-10 -14l-82 -109l-88 -120
q-15 -20 -20 -25zM444 639q8 8 17 8t15.5 -6t8.5 -14q0 -9 -4 -17l-82 -108l-116 -158q-2 -2 -2 -4q0 -6 12 -96l8 -82q5 -68 10 -84v-4q0 -10 -6.5 -18.5t-17.5 -8.5q-19 0 -23 23v8l-14 127l-14 131q0 4 -3 10q0 8 7 19l22 26q24 35 39 53l94 127q5 7 22.5 33.5t26.5 34.5
z" />
    <glyph glyph-name="logicalnot" unicode="&#xac;" 
d="M2 1200v43q0 4 4 4h639v-43q0 -4 -4 -4h-639zM2 76v43q0 4 4 4h639v-43q0 -4 -4 -4h-639zM330 655v-39q0 -8 -4 -8h-324v33q0 14 4 14h324z" />
    <glyph glyph-name="registered" unicode="&#xae;" horiz-adv-x="1177" 
d="M778 1237q42 0 94 -10q56 -11 111 -43q52 -32 88 -76q42 -49 64 -109q23 -61 26 -133q6 -70 -10 -147q-10 -60 -41 -137q-14 -39 -53 -111q-24 -42 -68 -100q-45 -55 -82 -92q-42 -43 -92 -80q-59 -44 -98 -66q-54 -29 -103 -49q-64 -22 -106 -31q-58 -10 -105 -10
q-63 0 -124 18q-58 16 -107 50q-47 35 -82 82q-33 44 -53 108q-21 65 -21 129q-3 68 13 139q11 61 41 133q18 48 53 109q22 39 70 102q42 52 81 91q35 35 93 79q60 44 98 64q56 31 102 49q62 21 107 31q58 10 104 10zM1085 643q20 78 23 94q13 76 8 137q-6 62 -31 123
q-22 55 -63 99q-43 43 -96 63q-50 24 -119 31q-55 3 -111 -6q-50 -9 -104 -27q-13 -5 -105 -47q-54 -33 -98 -66q-57 -46 -90 -79q-39 -39 -80 -93q-38 -50 -67 -104q-40 -78 -52 -111q-25 -71 -34 -139t0 -137q10 -67 34 -117q27 -52 72 -94q44 -38 100 -59q58 -21 121 -21
q46 -2 107 8q51 11 106 33q49 20 103 49q47 28 96 68t90 84q47 50 78 94q35 46 63 104q32 66 49 113zM891 502q7 8 20 6.5t17 -10.5q5 -10 2 -23l-6 -8l-23 -27l-24 -28q-45 -49 -76 -66q-54 -28 -113 -22q-45 2 -100 38q-49 35 -86 91q-38 54 -53 114q-4 -13 -23 -55
l-25 -57l-30 -74l-19 -47q0 -2 -2 -2q-4 -15 -18 -15q-12 -2 -20.5 9.5t-2.5 21.5l15 37l30 72l27 65l22 58l17 36q1 1 2 5t2 6q2 2 2 4v4q4 4 4 8q4 4 4 8l31 74l51 125q11 26 16 43l7 14q5 18 -2 25q-4 2 -12 4t-9 2q-21 0 -31 -2q-34 -6 -63 -25q-13 -7 -19 -18l-4 -8
q0 -5 -8 -13q-13 -6 -26 0q-12 12 -9 25q5 21 29 45q15 13 51 29q36 12 62 12q32 4 57 -10q20 -10 29 -31q8 -26 -4 -57q2 0 2 2q51 62 102 84q59 29 104 4q28 -19 41 -51q14 -45 5 -93q-7 -48 -39 -106q-37 -55 -90 -96q-57 -37 -113 -51q-60 -15 -94 -11q1 -5 10 -32
q21 -55 67 -101q43 -43 89 -59q52 -16 104 6q38 18 82 70zM475 618q2 0 10 -4q7 0 11 -2q33 -2 84 9q59 15 106 53q56 43 82 100q25 56 23 98q0 56 -33 66q-23 8 -58 -10q-12 -5 -30 -19q-33 -26 -62 -63q-27 -34 -65 -96l-35 -62l-19 -33l-8 -18q-9 -14 -10 -16q3 -3 4 -3z
" />
    <glyph glyph-name="macron" unicode="&#xaf;" horiz-adv-x="743" 
d="M608 1165q10 0 19 -6q10 -10 4 -26q-7 -13 -23 -13h-499q-20 0 -23 2q-14 7 -14 21q0 15 14 22h522z" />
    <glyph glyph-name="degree" unicode="&#xb0;" horiz-adv-x="401" 
d="M190 1188q49 0 76 -35q19 -20 24 -48t-5 -54q-9 -26 -31.5 -43.5t-50.5 -20.5t-53.5 8.5t-40.5 34.5q-37 50 -7 105q12 24 36 38.5t52 14.5zM190 1032q13 0 19 2q29 11 35 39q9 26 -13 51q-20 23 -49 17q-13 -1 -24.5 -10t-16.5 -21q-13 -26 4 -53q18 -25 45 -25z" />
    <glyph glyph-name="plusminus" unicode="&#xb1;" horiz-adv-x="307" 
d="M582 1229q40 -19 47 -66t-13 -82q-21 -49 -61 -106q-84 -120 -221 -279l-64 -73l-32 -37q-8 -8 -23 -43l-53 -135l-109 -275q72 65 127 123l62 70q2 2 8 10.5t10 12.5t11.5 10.5t13 5t14.5 -4.5q17 -14 2 -36l-31 -37l-61 -66q-66 -69 -121 -119l-74 -65l-43 -103
q-54 -127 -77 -176q-45 -92 -72 -135q-31 -56 -62 -90q-47 -50 -96 -45q-42 5 -58 44.5t-9 82.5q10 81 81 166q46 57 144 147l80 72l41 37q2 2 12.5 9.5t16 13.5t8.5 12l81 209l80 200q-15 -16 -64 -68.5t-77 -80.5q-3 -3 -7 -5t-7.5 -2t-7.5 1.5t-7 3.5t-5.5 5t-3.5 6.5
t-1 7.5t1.5 8t4.5 8l15 14q15 15 30 31t33.5 36t28.5 31l67 74l39 43q9 7 15 22q7 15 10 25l80 195q88 214 114 266q33 64 81 107.5t102 19.5zM-299 -457q18 9 49 49q30 44 55 95q58 110 132 282q-172 -151 -238 -237q-49 -62 -57 -125q-4 -41 8 -60q17 -25 51 -4zM575 1102
q22 50 -2 76q-27 29 -77 -15q-37 -37 -76 -125q-49 -109 -139 -331q124 142 182 219q86 115 112 176z" />
    <glyph glyph-name="twosuperior" unicode="&#xb2;" horiz-adv-x="442" 
d="M319 1194q26 -14 43 -45q14 -29 17 -55q3 -29 -4 -64q-12 -67 -45 -119q-22 -40 -70 -88q-38 -35 -80 -61q4 -2 13 -2q62 -10 71 -10q19 0 29 4q2 0 10 4l10 8q15 8 27 -4q10 -14 4 -27l-12 -12q-6 -5 -13 -8q-16 -8 -26 -10q-22 -2 -64 2q-48 8 -69 10q-43 4 -62 -4
l-12 -8q-2 0 -4.5 -1.5t-3.5 -1.5q-4 0 -4 -2q-13 -7 -25 5q-13 9 -6 26q4 8 8 10l6 4l29 15q22 11 72 41q42 28 73 59q42 42 64 82q28 55 37 111q5 31 -4 59t-33 41q-30 15 -60.5 5t-54.5 -34q-22 -26 -24 -45v-8v-4q9 -12 -2 -27q-11 -11 -25 -6q-12 3 -16 19q-9 23 2 51
q22 60 86 90q31 14 61 14q32 0 57 -14z" />
    <glyph glyph-name="threesuperior" unicode="&#xb3;" horiz-adv-x="483" 
d="M371 932q17 -38 4 -86q-7 -28 -29 -64q-15 -24 -37 -43q-40 -34 -94 -43q-60 -7 -102 6q-64 19 -80 64q-7 14 -2 27q7 15 22 12q14 0 21 -14q0 -7 4 -11q0 -4 6 -10q15 -17 49 -25q23 -8 55 -4q61 3 99 41q21 18 35 54q15 33 12 59q-4 33 -31 45q-1 0 -3 1t-3 1h-4
q-4 0 -6 -2q-3 0 -9.5 -1t-9.5 -1q-21 -4 -32 -2q-13 2 -24.5 10t-12.5 21q-5 20 10 26q6 3 12 0q9 0 15 -6l4 -4q2 -2 8 -2q18 0 33 6q27 6 55 27q24 21 41 43q17 24 20 47q3 14 0 26q-3 14 -14 25q-21 16 -53 16q-38 0 -68 -12l-22 -12q-9 -5 -11 -8v4q-5 -18 -14 -23
q-11 -7 -25 2q-14 8 -4 33q8 22 39 37q48 25 103 25q65 0 96 -39q20 -20 20 -56q2 -25 -12 -61q-26 -57 -86 -94q18 -17 25 -35zM242 965q2 4 2 10q0 2 -2 2q0 4 -4 4q4 -4 4 -16z" />
    <glyph glyph-name="acute" unicode="&#xb4;" horiz-adv-x="352" 
d="M184 1415l39 31q12 9 27 2q14 -10 10 -25q-3 -9 -8 -14l-6 -4q-3 -3 -21.5 -17.5t-29.5 -21.5q-13 -12 -56 -45l-12 -8q-8 -8 -23 -4q-14 3 -14 20q0 14 8 19l4 4q2 1 6 4t7.5 5.5t7.5 4.5z" />
    <glyph glyph-name="mu" unicode="&#xb5;" horiz-adv-x="610" 
d="M324 1237q119 30 178 -14q52 -42 20 -131q-45 -120 -92 -232q-84 -206 -143 -344l-154 -369l-29 -67q0 -2 -4 -10q-5 -13 -17.5 -14t-21 8.5t-2.5 23.5l52 127l172 408l135 329q40 98 47 117q1 3 8 19.5t9.5 24.5t5.5 22t0.5 24.5t-9.5 18.5q-15 19 -61 24q-44 3 -99 -14
q-43 -12 -81 -39q-36 -28 -43 -51q-9 -26 -27 -23q-9 2 -15.5 9t-5.5 16q2 28 37 63q53 53 140 74z" />
    <glyph glyph-name="mu" unicode="&#x3bc;" horiz-adv-x="610" 
d="M324 1237q119 30 178 -14q52 -42 20 -131q-45 -120 -92 -232q-84 -206 -143 -344l-154 -369l-29 -67q0 -2 -4 -10q-5 -13 -17.5 -14t-21 8.5t-2.5 23.5l52 127l172 408l135 329q40 98 47 117q1 3 8 19.5t9.5 24.5t5.5 22t0.5 24.5t-9.5 18.5q-15 19 -61 24q-44 3 -99 -14
q-43 -12 -81 -39q-36 -28 -43 -51q-9 -26 -27 -23q-9 2 -15.5 9t-5.5 16q2 28 37 63q53 53 140 74z" />
    <glyph glyph-name="paragraph" unicode="&#xb6;" 
d="M2 1200v43q0 4 4 4h639v-43q0 -4 -4 -4h-639zM2 76v43q0 4 4 4h639v-43q0 -4 -4 -4h-639zM330 655v-39q0 -8 -4 -8h-324v33q0 14 4 14h324z" />
    <glyph glyph-name="periodcentered" unicode="&#xb7;" horiz-adv-x="284" 
d="M266 614q0 -20 -13.5 -33.5t-33.5 -13.5q-19 0 -32 13.5t-13 33.5q0 19 13 32t32 13q20 0 33.5 -13t13.5 -32z" />
    <glyph glyph-name="cedilla" unicode="&#xb8;" horiz-adv-x="389" 
d="M242 53q40 4 63 0q29 -7 41 -28q10 -17 10 -35q0 -22 -14 -47q-15 -27 -37 -49q-49 -49 -94 -72q-48 -31 -100 -43q-29 -4 -43 0q-13 0 -21 8q-9 12 -2 27q6 12 23 12q2 -2 8 -2q2 -2 6 -2q7 0 37 6q38 13 96 49l45 37q26 22 41 47q8 16 8 27q0 12 -4 16q-8 4 -16 4
q-13 3 -25 0q-35 -3 -63 -12q-20 -8 -29 -6q-16 6 -16 24q0 9 8 17q6 6 14 18l94 115l15 20l8 9q12 12 27 4q16 -8 12 -27q-4 -8 -8 -10l-9 -13z" />
    <glyph glyph-name="onesuperior" unicode="&#xb9;" horiz-adv-x="335" 
d="M283 1163q3 -10 0 -20l-13 -27l-20 -51l-27 -66l-28 -73l-31 -76q-17 -39 -27 -68l-22 -53l-13 -31l-2 -4q-4 -14 -18 -14q-16 -4 -23 10q-7 10 0 23q0 2 1 5t1 5l19 41l24 63l31 74l29 74l26 65q11 30 21 47l6 19q-1 0 -2 -1t-2 -1q-14 -3 -25 8q-8 16 0 27q3 6 11 10
l14 6l33 16q5 5 10 5h4h4q6 0 8 -2l7 -5q0 -2 4 -6z" />
    <glyph glyph-name="ordmasculine" unicode="&#xba;" horiz-adv-x="591" 
d="M729 365q5 -4 7 -8.5t1.5 -9.5t-2 -9.5t-5.5 -9.5t-6 -8t-7 -8.5t-6 -6.5l-56 -55q-60 -53 -104 -66q-42 -11 -72 -6q-26 4 -37 8q-9 3 -18 9l-18 -19q-78 -82 -158 -100q-45 -9 -85 6t-61 53q-29 55 -14 144q26 144 143 268q34 34 66 59q3 2 10.5 8t14.5 9.5t12 3.5
q22 -3 22 -25q-1 -5 -2.5 -8.5t-4.5 -7t-5.5 -5.5t-7 -5.5t-6.5 -4.5q-21 -14 -33 -26q-32 -25 -61 -62q-57 -75 -80 -139q-29 -75 -27 -129q2 -43 26 -72.5t66 -23.5q80 10 162 100q-34 31 -46 81.5t-7 97t20 94.5q28 91 78 126q32 24 68.5 18.5t54.5 -40.5q42 -74 2 -188
q-29 -91 -98 -177q60 -22 125 19q40 26 69 59l43 45q18 27 37 11zM414 254q38 52 55 82q63 102 55 192q-5 49 -26 62q-24 11 -54 -19q-49 -52 -65 -155q-17 -110 35 -162zM561 -4q10 0 19 -6q11 -11 4 -27q-6 -12 -23 -12h-500q-19 0 -22 2q-14 7 -14 20q0 16 14 23h522z
" />
    <glyph glyph-name="guillemotright" unicode="&#xbb;" horiz-adv-x="417" 
d="M287 621l10 -35l16 -68q12 -38 21 -78l18 -65q4 -22 8 -31q0 -11 -6 -20l-6 -13l-33 -45l-43 -63l-45 -66q-22 -29 -34 -51l-11 -12q-5 -9 -8 -11q-13 -10 -24 -2q-18 11 -11 29l6 10l29 41l43 64l47 67l37 54l10 14q2 2 0 4v4q-3 9 -14 53l-21 80l-20 76l-12 47
q-4 10 0 21q11 15 24 12q15 0 19 -16zM203 354q3 -10 -4 -18l-15 -23l-34 -51l-46 -65q-2 -2 -45 -64l-30 -43l-6 -10q-11 -18 -31 -8q-6 3 -9.5 11t-0.5 15q0 4 4 8l6 11l33 47l47 67l45 66l33 47q0 2 4 6l2 2q-4 12 -4 17l-17 61l-20 80l-19 72q-8 24 -10 36
q-3 10 4.5 19.5t18.5 9.5q17 0 20 -14l2 -4q2 -14 10 -37l17 -70q11 -36 20 -78q2 -6 8.5 -28.5t8.5 -34.5z" />
    <glyph glyph-name="onequarter" unicode="&#xbc;" horiz-adv-x="1036" 
d="M1083 1229q10 13 25 6q14 -6 14 -23q0 -10 -6 -16l-6 -6l-14 -12l-21 -21q-4 -5 -26 -27q-27 -27 -33 -32l-37 -37l-43 -41l-94 -94l-54 -52l-53 -55l-114 -110l-60 -60q-6 -6 -18 -17.5t-21.5 -21t-17.5 -18.5l-58 -55l-57 -58l-55 -53q-7 -8 -16 -17t-20 -19.5
t-17 -16.5l-50 -49l-47 -45l-82 -82q-27 -27 -32 -33l-29 -27q-3 -5 -12 -12.5t-11 -9.5q-1 -1 -5.5 -7t-8.5 -8l-8 -8v-2q-11 -11 -25 -4q-6 2 -11 8t-5 12q0 7 8 19q2 0 2 2q7 3 10 10l19 17l22 24l31 29l35 35l41 39l141 141l55 53l56 55l57 56l57 57l58 57l59 58
q48 48 58 57l55 55q24 21 53 54l53 49l47 49l46 43l40 41l37 35l74 73l10 13zM559 301q-17 0 -20 16q-4 7 0 15t8 12l16 12q40 34 41 35l58 49l61 52l59 49l45 37l21 18l8 4q10 4 16 -2q5 0 9 -4l4 -6q3 -10 0 -19l-2 -4l-21 -47l-31 -74l-28 -65l-12 -29h32q16 0 19 -12
q6 -13 -2 -25l-11 -8h-12q-12 -2 -35 -2h-10q0 -2 -2 -2q0 -4 -4 -12l-27 -60l-30 -73l-23 -56l-4 -8q-7 -14 -18 -14q-17 0 -23 12q-6 9 -2 21l2 2q1 5 4 11.5t4 8.5l29 66l29 69l14 33h-162zM451 1147q3 -11 0 -21l-13 -26l-20 -51l-27 -66l-29 -74l-30 -75
q-17 -39 -27 -68l-22 -53l-13 -31l-2 -4q-4 -14 -18 -14q-16 -4 -23 10q-6 9 0 22q0 2 1 5.5t1 5.5l19 41l24 63l31 74l29 73l26 66q11 30 21 47l6 19q-1 0 -2 -1.5t-2 -1.5q-13 -3 -25 9q-8 16 0 26q4 7 11 11l14 6l33 16q4 4 10 4h4h4q6 0 8 -2l6 -4q0 -1 5 -6zM805 500
l-43 -35l-60 -51l-55 -47q-12 -9 -24 -21q9 0 28.5 1t28.5 1h61l17 39l30 74z" />
    <glyph glyph-name="onehalf" unicode="&#xbd;" horiz-adv-x="1048" 
d="M1083 1229q10 13 25 6q14 -6 14 -23q0 -10 -6 -16l-6 -6l-14 -12l-21 -21q-4 -5 -26 -27q-27 -27 -33 -32l-37 -37l-43 -41l-94 -94l-54 -52l-53 -55l-114 -110l-60 -60q-6 -6 -18 -17.5t-21.5 -21t-17.5 -18.5l-58 -55l-57 -58l-55 -53q-7 -8 -16 -17t-20 -19.5
t-17 -16.5l-50 -49l-47 -45l-82 -82q-27 -27 -32 -33l-29 -27q-3 -5 -12 -12.5t-11 -9.5q-1 -1 -5.5 -7t-8.5 -8l-8 -8v-2q-11 -11 -25 -4q-6 2 -11 8t-5 12q0 7 8 19q2 0 2 2q7 3 10 10l19 17l22 24l31 29l35 35l41 39l141 141l55 53l56 55l57 56l57 57l58 57l59 58
q48 48 58 57l55 55q24 21 53 54l53 49l47 49l46 43l40 41l37 35l74 73l10 13zM854 586q26 -14 43 -45q13 -26 16 -56q3 -29 -4 -63q-12 -67 -45 -119q-23 -42 -69 -88q-38 -35 -80 -61q4 -2 12 -2q8 -1 23 -4.5t26.5 -5t22.5 -1.5q18 0 28 4q1 0 11 5l10 8q15 7 26 -4
q11 -15 5 -27q-2 -4 -7 -7.5t-6 -4.5q-8 -7 -12 -9q-15 -8 -27 -10q-21 -2 -63 2q-58 10 -70 11q-41 4 -61 -5l-12 -8q-2 0 -5 -1t-4 -1q-4 0 -4 -2q-13 -7 -24 4q-13 10 -6 27q4 8 8 10l6 4l29 15q17 8 71 41q45 30 74 59q40 40 63 82q29 56 37 110q5 31 -4 59.5t-33 41.5
q-31 14 -60 5t-54 -34q-23 -27 -25 -45v-8v-4q9 -12 -2 -27q-11 -11 -24 -6q-13 3 -17 18q-9 23 2 52q22 60 86 90q31 14 62 14q32 0 57 -14zM469 1174q3 -11 0 -21l-12 -27l-21 -51l-26 -65l-29 -74l-31 -76q-13 -31 -26 -67l-23 -54l-12 -30l-2 -4q-4 -15 -19 -15
q-15 -4 -22 10q-7 10 0 23q0 2 1 5t1 5l18 41l25 64l31 73l28 74l27 66q13 35 20 47l6 18q-1 0 -2 -1t-2 -1q-13 -3 -24 8q-8 16 0 27q3 7 10 10l14 6l33 17q4 4 10 4h4h5q6 0 8 -2l6 -4q0 -2 4 -6z" />
    <glyph glyph-name="threequarters" unicode="&#xbe;" horiz-adv-x="1116" 
d="M1122 1229q10 13 25 6q14 -6 14 -23q0 -10 -6 -16l-6 -6l-14 -12l-21 -21q-4 -4 -8.5 -9t-10 -10t-8.5 -8t-9.5 -10t-12 -12.5t-10.5 -9.5l-37 -37l-43 -41l-94 -94l-54 -52l-53 -55l-115 -110l-59 -60q-6 -6 -18 -17.5t-21.5 -21t-17.5 -18.5l-58 -55l-57 -58l-55 -53
q-9 -10 -29 -29t-25 -24l-49 -49l-47 -45l-82 -82q-27 -27 -32 -33l-29 -27q-3 -5 -12 -12.5t-11 -9.5q-1 -1 -5.5 -7t-8.5 -8l-8 -8v-2q-11 -11 -25 -4q-6 2 -11 8t-5 12q0 7 8 19q2 0 2 2q7 3 10 10l19 17l22 24l31 29l35 35l41 39l141 141l55 53l56 55l57 56l57 57l58 57
l59 58l57 57l56 55q24 21 53 54l53 49l47 49l45 43l41 41l37 35l74 73l10 13zM623 307q-6 0 -13 5t-8 12q-4 7 0 14q4 8 8 12l17 12q40 34 41 35l57 49l61 52l60 49l45 37l20 18q8 4 9 4q10 4 16 -2q4 0 8 -4l4 -6q3 -10 0 -19l-2 -4l-20 -47l-31 -73l-29 -66l-12 -29h33
q15 0 18 -12q6 -13 -2 -25l-10 -8h-12q-12 -2 -35 -2h-10q0 -2 -2 -2q0 -2 -5 -12l-26 -59l-31 -74l-22 -56l-5 -8q-7 -14 -18 -14q-16 0 -22 12q-7 10 -3 21l3 2q1 5 4 11.5t4 8.5l28 66l29 69l14 33h-161zM426 885q17 -38 4 -86q-7 -28 -29 -64q-16 -26 -36 -43
q-39 -33 -95 -43q-60 -7 -102 6q-64 19 -80 64q-7 14 -2 26q8 16 23 13q13 0 20 -15q0 -6 4 -10q0 -4 6 -10q15 -17 49 -25q23 -8 56 -4q60 3 98 41q21 19 35 53q15 33 12 60q-4 33 -31 45q-1 0 -3 1t-3 1h-4q-4 0 -6 -2q-3 0 -9 -1t-9 -1q-21 -4 -33 -2q-13 2 -24.5 10
t-12.5 21q-5 20 10 26q6 3 12 0q9 0 15 -6l4 -4q2 -2 8 -2q18 0 33 6q27 6 55 27q25 21 41 43q18 26 21 47q3 14 0 26q-3 13 -15 25q-21 16 -53 16q-38 0 -68 -12l-22 -12q-8 -4 -10 -8v4q-4 -18 -15 -23q-10 -7 -24 2q-14 8 -4 33q8 22 39 37q46 24 102 24q65 0 96 -39
q21 -21 21 -55q2 -23 -13 -61q-26 -57 -86 -94q18 -17 25 -35zM868 506l-43 -35l-59 -51l-55 -47q-16 -12 -25 -21q9 0 28.5 1t28.5 1h62l16 39l31 74zM297 918q2 4 2 10q0 2 -2 2q0 4 -4 4q4 -4 4 -16z" />
    <glyph glyph-name="questiondown" unicode="&#xbf;" horiz-adv-x="870" 
d="M713 885q0 17 11 28t28 11q15 0 25.5 -11t10.5 -28q0 -15 -10.5 -26t-25.5 -11q-17 0 -28 11t-11 26zM100 -90q-23 123 74 272q52 76 119 137q28 26 83 69t73 58q82 72 126 138q5 8 15 9.5t18 -5.5q16 -13 4 -33q-23 -36 -57 -70q-44 -47 -148.5 -132t-150.5 -138
q-110 -131 -113 -254q-3 -74 45 -117q31 -26 77.5 -34.5t86.5 0.5q80 16 146.5 81t103.5 148q10 28 16 53q0 22 19 27q9 2 17.5 -4t9.5 -15q3 -10 -9 -51q-14 -39 -28 -63q-43 -82 -113.5 -144t-155.5 -78q-100 -18 -172 25q-70 42 -86 121z" />
    <glyph glyph-name="Agrave" unicode="&#xc0;" horiz-adv-x="995" 
d="M1104 362q8 10 21 8t18 -14q2 -3 1.5 -7.5t-1 -7.5t-3.5 -7l-4.5 -6t-5 -5.5t-4.5 -5.5l-59 -69q-79 -89 -147 -142q-64 -49 -121 -57q-37 -5 -68 12t-41 52q-16 48 8 137q17 66 66 190q-83 -113 -168 -196q-159 -155 -293 -176q-88 -14 -147 26q-61 40 -84 115
q-37 107 -4 260q38 172 153 336q100 147 235 256t294 158q97 27 180 30q103 0 155 -22q46 -23 48 -39q0 -18 -13 -25l-73 -176q-133 -311 -146 -344q-67 -153 -84 -194q-43 -101 -67 -183q-27 -91 -19 -129q4 -22 17 -33q21 -16 57 -8q39 8 106 62q84 72 193 204zM248 111
q50 -3 102 16q107 41 236 170q112 118 202 258q68 101 91 156l69 161l129 308q1 1 -10 4.5t-23 6.5t-14 3q-39 8 -90 8q-36 0 -74 -6q-110 -14 -221 -70q-149 -72 -272 -204q-146 -156 -221 -342q-63 -153 -52 -289q9 -71 46 -123.5t102 -56.5zM999 1460l39 -30l62 -50
q5 -2 12 -7.5t8 -6.5l4 -4q9 -6 9 -19q0 -16 -15 -20q-14 -4 -22 4l-13 8q-35 27 -55 45q-11 7 -29 21.5t-22 17.5l-6 4q-5 5 -8 15q-3 14 10 24q8 4 10 4t16 -6z" />
    <glyph glyph-name="Aacute" unicode="&#xc1;" horiz-adv-x="995" 
d="M1104 362q8 10 21 8t18 -14q2 -3 1.5 -7.5t-1 -7.5t-3.5 -7l-4.5 -6t-5 -5.5t-4.5 -5.5l-59 -69q-79 -89 -147 -142q-64 -49 -121 -57q-37 -5 -68 12t-41 52q-16 48 8 137q17 66 66 190q-83 -113 -168 -196q-159 -155 -293 -176q-88 -14 -147 26q-61 40 -84 115
q-37 107 -4 260q38 172 153 336q100 147 235 256t294 158q97 27 180 30q103 0 155 -22q46 -23 48 -39q0 -18 -13 -25l-73 -176q-133 -311 -146 -344q-67 -153 -84 -194q-43 -101 -67 -183q-27 -91 -19 -129q4 -22 17 -33q21 -16 57 -8q39 8 106 62q84 72 193 204zM248 111
q50 -3 102 16q107 41 236 170q112 118 202 258q68 101 91 156l69 161l129 308q1 1 -10 4.5t-23 6.5t-14 3q-39 8 -90 8q-36 0 -74 -6q-110 -14 -221 -70q-149 -72 -272 -204q-146 -156 -221 -342q-63 -153 -52 -289q9 -71 46 -123.5t102 -56.5zM1104 1405l39 31q12 9 26 2
q15 -11 11 -25q-2 -8 -9 -14l-6 -4q-4 -3 -22 -17.5t-29 -21.5q-20 -18 -55 -45l-12 -8q-9 -9 -23 -5t-14 21q0 13 8 18l4 4q2 1 8.5 7t11.5 8z" />
    <glyph glyph-name="Acircumflex" unicode="&#xc2;" horiz-adv-x="995" 
d="M1104 362q8 10 21 8t18 -14q2 -3 1.5 -7.5t-1 -7.5t-3.5 -7l-4.5 -6t-5 -5.5t-4.5 -5.5l-59 -69q-79 -89 -147 -142q-64 -49 -121 -57q-37 -5 -68 12t-41 52q-16 48 8 137q17 66 66 190q-83 -113 -168 -196q-159 -155 -293 -176q-88 -14 -147 26q-61 40 -84 115
q-37 107 -4 260q38 172 153 336q100 147 235 256t294 158q97 27 180 30q103 0 155 -22q46 -23 48 -39q0 -18 -13 -25l-73 -176q-133 -311 -146 -344q-67 -153 -84 -194q-43 -101 -67 -183q-27 -91 -19 -129q4 -22 17 -33q21 -16 57 -8q39 8 106 62q84 72 193 204zM248 111
q50 -3 102 16q107 41 236 170q112 118 202 258q68 101 91 156l69 161l129 308q1 1 -10 4.5t-23 6.5t-14 3q-39 8 -90 8q-36 0 -74 -6q-110 -14 -221 -70q-149 -72 -272 -204q-146 -156 -221 -342q-63 -153 -52 -289q9 -71 46 -123.5t102 -56.5zM1128 1468q2 -2 2 -4
q5 -7 17 -27.5t20 -31.5l29 -47q5 -10 2 -17q-4 -18 -20 -18q-14 0 -21 10l-4 8q-3 5 -47 74l-4 8q-2 2 -2 4h-4q-3 -1 -9.5 -5t-7.5 -5q-29 -11 -45 -20q-24 -10 -33 -15l-8 -4q-18 0 -24 15q-8 16 6 26q0 1 3 2q1 1 1.5 1t1.5 1l20 11q30 12 70 32l23 11l8 4q16 3 26 -13z
" />
    <glyph glyph-name="Atilde" unicode="&#xc3;" horiz-adv-x="995" 
d="M1104 362q8 10 21 8t18 -14q2 -3 1.5 -7.5t-1 -7.5t-3.5 -7l-4.5 -6t-5 -5.5t-4.5 -5.5l-59 -69q-79 -89 -147 -142q-64 -49 -121 -57q-37 -5 -68 12t-41 52q-16 48 8 137q17 66 66 190q-83 -113 -168 -196q-159 -155 -293 -176q-88 -14 -147 26q-61 40 -84 115
q-37 107 -4 260q38 172 153 336q100 147 235 256t294 158q97 27 180 30q103 0 155 -22q46 -23 48 -39q0 -18 -13 -25l-73 -176q-133 -311 -146 -344q-67 -153 -84 -194q-43 -101 -67 -183q-27 -91 -19 -129q4 -22 17 -33q21 -16 57 -8q39 8 106 62q84 72 193 204zM248 111
q50 -3 102 16q107 41 236 170q112 118 202 258q68 101 91 156l69 161l129 308q1 1 -10 4.5t-23 6.5t-14 3q-39 8 -90 8q-36 0 -74 -6q-110 -14 -221 -70q-149 -72 -272 -204q-146 -156 -221 -342q-63 -153 -52 -289q9 -71 46 -123.5t102 -56.5zM1231 1389q8 -4 12 -21
l-6 -14l-7 -11q-8 -11 -13 -16q-10 -17 -35 -35q-32 -18 -56 -10q-30 8 -45 41q-3 5 -20 63q-2 4 -5 13t-5 12q-8 12 -13 12h-10q-1 2 -6 -4l-16 -18q-15 -25 -19 -35q-5 -9 -6 -10q-6 -6 -14 -6q-15 0 -21 12q-4 6 0 22q8 19 17 31q10 23 24 37q19 15 37 18q26 6 51 -16
q19 -19 25 -43q5 -12 10.5 -32t7.5 -25q3 -13 15 -25q8 -8 22 2q12 7 37 37q3 7 6 8l2 6q2 5 4 7q16 8 27 0z" />
    <glyph glyph-name="Adieresis" unicode="&#xc4;" horiz-adv-x="995" 
d="M1104 362q8 10 21 8t18 -14q2 -3 1.5 -7.5t-1 -7.5t-3.5 -7l-4.5 -6t-5 -5.5t-4.5 -5.5l-59 -69q-79 -89 -147 -142q-64 -49 -121 -57q-37 -5 -68 12t-41 52q-16 48 8 137q17 66 66 190q-83 -113 -168 -196q-159 -155 -293 -176q-88 -14 -147 26q-61 40 -84 115
q-37 107 -4 260q38 172 153 336q100 147 235 256t294 158q97 27 180 30q103 0 155 -22q46 -23 48 -39q0 -18 -13 -25l-73 -176q-133 -311 -146 -344q-67 -153 -84 -194q-43 -101 -67 -183q-27 -91 -19 -129q4 -22 17 -33q21 -16 57 -8q39 8 106 62q84 72 193 204zM248 111
q50 -3 102 16q107 41 236 170q112 118 202 258q68 101 91 156l69 161l129 308q1 1 -10 4.5t-23 6.5t-14 3q-39 8 -90 8q-36 0 -74 -6q-110 -14 -221 -70q-149 -72 -272 -204q-146 -156 -221 -342q-63 -153 -52 -289q9 -71 46 -123.5t102 -56.5zM1090 1413q17 -7 24 -24
t2 -35q-14 -28 -43 -31q-32 0 -43 29q-13 26 8 51q24 21 52 10zM1202 1364q17 -7 24.5 -24t2.5 -35q-14 -28 -43 -31q-32 0 -43 29q-13 26 8 51q24 20 51 10z" />
    <glyph glyph-name="Aring" unicode="&#xc5;" horiz-adv-x="995" 
d="M1104 362q8 10 21 8t18 -14q2 -3 1.5 -7.5t-1 -7.5t-3.5 -7l-4.5 -6t-5 -5.5t-4.5 -5.5l-59 -69q-79 -89 -147 -142q-64 -49 -121 -57q-37 -5 -68 12t-41 52q-16 48 8 137q17 66 66 190q-83 -113 -168 -196q-159 -155 -293 -176q-88 -14 -147 26q-61 40 -84 115
q-37 107 -4 260q38 172 153 336q100 147 235 256t294 158q97 27 180 30q103 0 155 -22q46 -23 48 -39q0 -18 -13 -25l-73 -176q-133 -311 -146 -344q-67 -153 -84 -194q-43 -101 -67 -183q-27 -91 -19 -129q4 -22 17 -33q21 -16 57 -8q39 8 106 62q84 72 193 204zM248 111
q50 -3 102 16q107 41 236 170q112 118 202 258q68 101 91 156l69 161l129 308q1 1 -10 4.5t-23 6.5t-14 3q-39 8 -90 8q-36 0 -74 -6q-110 -14 -221 -70q-149 -72 -272 -204q-146 -156 -221 -342q-63 -153 -52 -289q9 -71 46 -123.5t102 -56.5zM1094 1438q48 0 75 -35
q19 -20 24 -48.5t-5 -54.5q-9 -26 -31.5 -43t-50.5 -20t-53.5 8.5t-40.5 34.5q-36 49 -6 104q12 25 36 39.5t52 14.5zM1094 1282q12 0 18 2q29 11 35 39q9 27 -12 51q-20 24 -50 17q-13 -1 -24.5 -10t-16.5 -21q-12 -25 5 -53q18 -25 45 -25z" />
    <glyph glyph-name="AE" unicode="&#xc6;" horiz-adv-x="1802" 
d="M1909 362q11 14 26.5 7.5t14.5 -23.5q-1 -8 -17 -29l-22 -26q-44 -52 -99 -98q-115 -97 -231 -148q-158 -69 -301 -55q-92 10 -150 55q-63 48 -86 135q-4 9 -8 35q-71 -75 -116 -109q-64 -49 -121 -57q-37 -5 -68 12t-41 52q-16 48 8 137q17 66 66 190
q-83 -113 -168 -196q-159 -155 -293 -176q-88 -14 -147 26q-61 40 -84 115q-37 107 -4 260q38 172 153 336q100 147 235 256t294 158q97 27 180 30q103 0 155 -22q46 -23 48 -39q0 -18 -13 -25l-73 -176q-133 -311 -146 -344q-67 -153 -84 -194q-43 -101 -67 -183
q-27 -91 -19 -129q4 -22 17 -33q21 -16 57 -8q39 8 106 62q60 52 125 127q14 124 119 229q114 120 305 172q-68 106 -65 236q2 90 38.5 167t108.5 119q73 42 168 35q96 -7 150 -53q33 -29 41 -64q8 -24 -5 -34q-19 -15 -32 2q-4 4 -7.5 16t-5.5 16q-7 17 -22 29
q-32 26 -74 35q-89 24 -164 -10q-74 -28 -118 -117q-38 -80 -31.5 -176.5t53.5 -171.5q11 -17 16 -17q16 4 25 4q4 1 45 7q47 0 76 -7q30 -5 52.5 -20.5t25.5 -42.5q4 -28 -18 -44t-50.5 -17t-52.5 0q-51 10 -84 36q-18 10 -37 33l-45 -12q-182 -55 -289 -182
q-37 -47 -53 -88q7 8 20 4.5t17 -13.5q2 -3 1.5 -7.5t-1 -7.5t-3.5 -7l-4.5 -6t-5 -5.5t-4.5 -5.5l-45 -51q-3 -94 49 -155q74 -94 244 -74q140 17 275 96q155 89 260 229zM248 111q50 -3 102 16q107 41 236 170q112 118 202 258q68 101 91 156l69 161l129 308q1 1 -10 4.5
t-23 6.5t-14 3q-39 8 -90 8q-36 0 -74 -6q-110 -14 -221 -70q-149 -72 -272 -204q-146 -156 -221 -342q-63 -153 -52 -289q9 -71 46 -123.5t102 -56.5zM1688 637q-8 16 -39 20q-44 11 -103 0q41 -33 99 -36q29 0 42 9q4 3 1 7z" />
    <glyph glyph-name="Ccedilla" unicode="&#xc7;" horiz-adv-x="735" 
d="M332 -80q40 4 63 0q29 -7 41 -29q10 -17 10 -34q0 -23 -14 -47q-16 -29 -37 -50q-47 -47 -94 -71q-48 -31 -100 -43q-29 -4 -43 0q-13 0 -21 8q-9 12 -2 27q6 12 23 12q2 -2 8 -2q2 -2 6 -2q7 0 37 6q38 13 96 49l45 37q26 22 41 47q8 16 8 27q0 12 -4 16q-8 4 -16 4
q-13 3 -25 0q-34 -3 -63 -12q-20 -8 -29 -6q-16 6 -16 24q0 9 8 17q6 6 14 18l47 57q15 23 43 54q-172 4 -247 112q-71 103 -56 277q15 140 76 282q62 145 158 273q103 132 219 205q63 41 125 57q85 29 149 8q45 -14 71.5 -54.5t29.5 -92.5q6 -68 -20.5 -139.5t-74.5 -123.5
q-6 -8 -21 -21t-34.5 -26t-35 -14t-23.5 14q-5 13 1.5 21t24 15.5t19.5 8.5q30 23 49 48q44 53 61 131q19 76 -2 131q-14 35 -41.5 51t-62.5 13.5t-65.5 -11t-63.5 -23.5q-119 -53 -227 -176q-104 -119 -172 -264q-72 -147 -91 -285q-19 -155 27 -249q31 -64 94 -95
q62 -32 166 -28q148 9 281 118q67 54 172 175q15 15 32.5 -0.5t2.5 -32.5l-27 -27q-100 -116 -193 -180q-120 -85 -241 -96l-2 -2l-8 -13z" />
    <glyph glyph-name="Egrave" unicode="&#xc8;" horiz-adv-x="806" 
d="M913 362q11 14 26.5 7.5t14.5 -23.5q-2 -10 -16 -29l-23 -26q-46 -55 -98 -98q-115 -97 -231 -148q-158 -69 -301 -55q-92 10 -150 55q-63 48 -86 135q-22 88 10 176.5t101 157.5q114 120 305 172q-69 107 -66 236q2 90 39 167t109 119q73 42 168 35t149 -53
q33 -29 41 -64q8 -24 -4 -34q-19 -15 -33 2q-4 4 -6.5 16t-5.5 16q-7 17 -22 29q-32 26 -74 35q-89 24 -164 -10q-76 -29 -119 -117q-38 -80 -31.5 -176t54.5 -172q11 -17 16 -17q16 4 25 4q4 1 45 7q47 0 76 -7q72 -13 77 -63q4 -28 -18 -44t-50.5 -17t-52.5 0
q-50 10 -83 36q-18 10 -37 33l-45 -12q-182 -55 -289 -182q-63 -80 -74 -160q-17 -108 45 -182q74 -94 244 -74q139 17 274 96q155 89 260 229zM692 637q-8 16 -39 20q-44 11 -102 0q42 -33 98 -36q29 0 42 9q4 3 1 7zM813 1417l39 -31l61 -49q4 -2 7.5 -4.5t7.5 -5.5t6 -4
l4 -4q8 -5 8 -19q0 -16 -14 -20q-15 -4 -23 4l-12 8q-35 27 -55 45q-11 7 -29.5 21.5t-21.5 17.5l-7 4q-4 4 -8 15q-3 14 10 24q13 7 27 -2z" />
    <glyph glyph-name="Eacute" unicode="&#xc9;" horiz-adv-x="806" 
d="M913 362q11 14 26.5 7.5t14.5 -23.5q-2 -10 -16 -29l-23 -26q-46 -55 -98 -98q-115 -97 -231 -148q-158 -69 -301 -55q-92 10 -150 55q-63 48 -86 135q-22 88 10 176.5t101 157.5q114 120 305 172q-69 107 -66 236q2 90 39 167t109 119q73 42 168 35t149 -53
q33 -29 41 -64q8 -24 -4 -34q-19 -15 -33 2q-4 4 -6.5 16t-5.5 16q-7 17 -22 29q-32 26 -74 35q-89 24 -164 -10q-76 -29 -119 -117q-38 -80 -31.5 -176t54.5 -172q11 -17 16 -17q16 4 25 4q4 1 45 7q47 0 76 -7q72 -13 77 -63q4 -28 -18 -44t-50.5 -17t-52.5 0
q-50 10 -83 36q-18 10 -37 33l-45 -12q-182 -55 -289 -182q-63 -80 -74 -160q-17 -108 45 -182q74 -94 244 -74q139 17 274 96q155 89 260 229zM692 637q-8 16 -39 20q-44 11 -102 0q42 -33 98 -36q29 0 42 9q4 3 1 7zM872 1378l39 31q12 9 27 2q14 -10 10 -25q-3 -9 -8 -14
l-6 -4q-4 -3 -22 -17.5t-29 -21.5q-13 -12 -56 -45l-12 -8q-8 -8 -22 -4q-15 4 -15 20q0 14 8 19l5 4q1 1 8 6.5t12 7.5z" />
    <glyph glyph-name="Ecircumflex" unicode="&#xca;" horiz-adv-x="806" 
d="M913 362q11 14 26.5 7.5t14.5 -23.5q-2 -10 -16 -29l-23 -26q-46 -55 -98 -98q-115 -97 -231 -148q-158 -69 -301 -55q-92 10 -150 55q-63 48 -86 135q-22 88 10 176.5t101 157.5q114 120 305 172q-69 107 -66 236q2 90 39 167t109 119q73 42 168 35t149 -53
q33 -29 41 -64q8 -24 -4 -34q-19 -15 -33 2q-4 4 -6.5 16t-5.5 16q-7 17 -22 29q-32 26 -74 35q-89 24 -164 -10q-76 -29 -119 -117q-38 -80 -31.5 -176t54.5 -172q11 -17 16 -17q16 4 25 4q4 1 45 7q47 0 76 -7q72 -13 77 -63q4 -28 -18 -44t-50.5 -17t-52.5 0
q-50 10 -83 36q-18 10 -37 33l-45 -12q-182 -55 -289 -182q-63 -80 -74 -160q-17 -108 45 -182q74 -94 244 -74q139 17 274 96q155 89 260 229zM692 637q-8 16 -39 20q-44 11 -102 0q42 -33 98 -36q29 0 42 9q4 3 1 7zM899 1399q2 -2 2 -4q5 -8 17 -28.5t20 -31.5l29 -47
q5 -10 2 -16q-4 -19 -21 -19q-13 0 -20 11l-4 8q-3 4 -47 74l-5 8q-2 2 -2 4h-4q-3 -1 -9 -5t-7 -5q-24 -9 -45 -21q-29 -12 -33 -14l-8 -4q-19 0 -25 14q-8 16 6 27q0 1 1.5 1.5l3 1t2.5 1.5l20 10q20 8 70 33l22 10l8 4q18 4 27 -12z" />
    <glyph glyph-name="Edieresis" unicode="&#xcb;" horiz-adv-x="806" 
d="M913 362q11 14 26.5 7.5t14.5 -23.5q-2 -10 -16 -29l-23 -26q-46 -55 -98 -98q-115 -97 -231 -148q-158 -69 -301 -55q-92 10 -150 55q-63 48 -86 135q-22 88 10 176.5t101 157.5q114 120 305 172q-69 107 -66 236q2 90 39 167t109 119q73 42 168 35t149 -53
q33 -29 41 -64q8 -24 -4 -34q-19 -15 -33 2q-4 4 -6.5 16t-5.5 16q-7 17 -22 29q-32 26 -74 35q-89 24 -164 -10q-76 -29 -119 -117q-38 -80 -31.5 -176t54.5 -172q11 -17 16 -17q16 4 25 4q4 1 45 7q47 0 76 -7q72 -13 77 -63q4 -28 -18 -44t-50.5 -17t-52.5 0
q-50 10 -83 36q-18 10 -37 33l-45 -12q-182 -55 -289 -182q-63 -80 -74 -160q-17 -108 45 -182q74 -94 244 -74q139 17 274 96q155 89 260 229zM692 637q-8 16 -39 20q-44 11 -102 0q42 -33 98 -36q29 0 42 9q4 3 1 7zM815 1393q17 -7 24.5 -24.5t2.5 -35.5q-13 -27 -43 -30
q-33 0 -43 28q-13 26 8 51q24 21 51 11zM928 1343q17 -7 24 -24t2 -35q-14 -28 -43 -31q-32 0 -43 29q-13 26 9 51q24 20 51 10z" />
    <glyph glyph-name="Igrave" unicode="&#xcc;" horiz-adv-x="665" 
d="M891 1163q19 -75 -19 -227q-38 -141 -114 -293q-82 -167 -178 -297q-49 -64 -107 -125q-7 -8 -6 -12q0 -2 1 -5t1 -5q4 -16 4 -23q9 -27 14 -37q17 -34 39 -41q3 -1 10 -2.5t12 -3.5t9 -6q6 -8 5 -17.5t-9 -15.5q-14 -12 -51 4q-57 30 -76 117q-162 -146 -307 -139
q-80 3 -141 56t-60 132q0 43 23 84q16 20 34 10q18 -14 7 -32q-22 -38 -16 -80t36 -74q40 -40 97 -47t108.5 9t99.5 46q34 21 82 62l23 20q6 6 6 10q0 1 -1 5t-1 6q-2 14 -2 45q-3 61 4 139q14 146 57 301q41 161 103 285q65 134 135 188q38 30 75 35q38 6 66 -14.5
t37 -57.5zM461 272q128 139 233 344q81 160 123 299q22 75 29 125q14 90 -6 129q-17 38 -78 11q-36 -20 -66 -62q-63 -80 -121 -231q-56 -145 -88 -309q-34 -170 -26 -306zM788 1409l39 -31l62 -49q5 -2 12 -7.5t8 -6.5l4 -4q9 -6 9 -19q0 -16 -15 -20q-14 -4 -22 4l-13 8
q-35 27 -55 45q-11 7 -29.5 21.5t-21.5 17.5l-6 4q-5 5 -8 14q-4 15 10 25q8 4 10 4t16 -6z" />
    <glyph glyph-name="Iacute" unicode="&#xcd;" horiz-adv-x="665" 
d="M891 1163q19 -75 -19 -227q-38 -141 -114 -293q-82 -167 -178 -297q-49 -64 -107 -125q-7 -8 -6 -12q0 -2 1 -5t1 -5q4 -16 4 -23q9 -27 14 -37q17 -34 39 -41q3 -1 10 -2.5t12 -3.5t9 -6q6 -8 5 -17.5t-9 -15.5q-14 -12 -51 4q-57 30 -76 117q-162 -146 -307 -139
q-80 3 -141 56t-60 132q0 43 23 84q16 20 34 10q18 -14 7 -32q-22 -38 -16 -80t36 -74q40 -40 97 -47t108.5 9t99.5 46q34 21 82 62l23 20q6 6 6 10q0 1 -1 5t-1 6q-2 14 -2 45q-3 61 4 139q14 146 57 301q41 161 103 285q65 134 135 188q38 30 75 35q38 6 66 -14.5
t37 -57.5zM461 272q128 139 233 344q81 160 123 299q22 75 29 125q14 90 -6 129q-17 38 -78 11q-36 -20 -66 -62q-63 -80 -121 -231q-56 -145 -88 -309q-34 -170 -26 -306zM870 1389l39 30q12 9 27 2q13 -10 10 -24q-4 -11 -8 -15l-6 -4q-24 -18 -51 -39q-12 -8 -31 -24.5
t-25 -20.5l-12 -8q-8 -8 -22 -4q-15 4 -15 21q0 13 8 18l4 4l21 14z" />
    <glyph glyph-name="Icircumflex" unicode="&#xce;" horiz-adv-x="665" 
d="M891 1163q19 -75 -19 -227q-38 -141 -114 -293q-82 -167 -178 -297q-49 -64 -107 -125q-7 -8 -6 -12q0 -2 1 -5t1 -5q4 -16 4 -23q9 -27 14 -37q17 -34 39 -41q3 -1 10 -2.5t12 -3.5t9 -6q6 -8 5 -17.5t-9 -15.5q-14 -12 -51 4q-57 30 -76 117q-162 -146 -307 -139
q-80 3 -141 56t-60 132q0 43 23 84q16 20 34 10q18 -14 7 -32q-22 -38 -16 -80t36 -74q40 -40 97 -47t108.5 9t99.5 46q34 21 82 62l23 20q6 6 6 10q0 1 -1 5t-1 6q-2 14 -2 45q-3 61 4 139q14 146 57 301q41 161 103 285q65 134 135 188q38 30 75 35q38 6 66 -14.5
t37 -57.5zM461 272q128 139 233 344q81 160 123 299q22 75 29 125q14 90 -6 129q-17 38 -78 11q-36 -20 -66 -62q-63 -80 -121 -231q-56 -145 -88 -309q-34 -170 -26 -306zM907 1403q2 -2 2 -4q5 -8 17 -28.5t20 -31.5l29 -47q5 -10 2 -16q-4 -19 -21 -19q-13 0 -20 11l-4 8
q-3 5 -47 74l-4 8q-2 2 -2 4h-5q-3 -1 -9 -5t-7 -5q-24 -9 -45 -21q-29 -12 -33 -14l-8 -4q-18 0 -24 14q-8 16 6 27q0 1 3 2q1 1 1.5 1t1.5 1l20 10q20 8 70 33l22 10l9 4q17 3 26 -12z" />
    <glyph glyph-name="Idieresis" unicode="&#xcf;" horiz-adv-x="665" 
d="M891 1163q19 -75 -19 -227q-38 -141 -114 -293q-82 -167 -178 -297q-49 -64 -107 -125q-7 -8 -6 -12q0 -2 1 -5t1 -5q4 -16 4 -23q9 -27 14 -37q17 -34 39 -41q3 -1 10 -2.5t12 -3.5t9 -6q6 -8 5 -17.5t-9 -15.5q-14 -12 -51 4q-57 30 -76 117q-162 -146 -307 -139
q-80 3 -141 56t-60 132q0 43 23 84q16 20 34 10q18 -14 7 -32q-22 -38 -16 -80t36 -74q40 -40 97 -47t108.5 9t99.5 46q34 21 82 62l23 20q6 6 6 10q0 1 -1 5t-1 6q-2 14 -2 45q-3 61 4 139q14 146 57 301q41 161 103 285q65 134 135 188q38 30 75 35q38 6 66 -14.5
t37 -57.5zM461 272q128 139 233 344q81 160 123 299q22 75 29 125q14 90 -6 129q-17 38 -78 11q-36 -20 -66 -62q-63 -80 -121 -231q-56 -145 -88 -309q-34 -170 -26 -306zM858 1409q17 -7 24.5 -24t2.5 -35q-14 -28 -43 -31q-32 0 -43 29q-13 26 8 51q24 20 51 10z
M971 1360q17 -7 24 -24.5t2 -35.5q-13 -27 -43 -30q-33 0 -43 28q-13 26 9 52q24 20 51 10z" />
    <glyph glyph-name="Eth" unicode="&#xd0;" horiz-adv-x="1146" 
d="M831 641q10 0 19 -6q11 -11 4 -27q-6 -12 -23 -12h-299q-6 -17 -27 -73t-32 -85q-6 -16 -22.5 -56.5t-25.5 -62.5t-23.5 -55t-28.5 -60.5t-29 -53.5q178 -59 309 -46q132 8 254 97q137 102 215 276q95 209 58 389q-15 79 -59 146.5t-109 111.5q-114 76 -295 72
q-203 -4 -309 -90q-45 -39 -64 -80q-14 -43 -6 -63q1 -3 6.5 -10.5t5.5 -14.5q-2 -9 -8.5 -16t-15.5 -7q-18 1 -27.5 21t-9.5 39q-3 35 14 69q19 44 64 86q102 95 290 109q122 10 226 -10q151 -38 239 -142q113 -133 113 -323q0 -191 -109 -381q-92 -159 -233 -248
q-144 -91 -334 -78q-79 5 -178 33l-39 12l-18 7q-5 3 -9 -3l-8 -8q-27 -32 -80 -49q-88 -31 -143 6q-28 19 -32 51t16 58q25 35 63 41q26 4 76 -8l49 -15l25 -10q18 -9 20 -4q11 18 37 68q60 128 145 360h-151q-20 0 -23 2q-14 7 -14 20q0 16 14 23h191q90 232 157 358
q41 81 82 129q35 41 54 31q9 -4 11.5 -16t-3.5 -19l-21 -18q-36 -41 -78 -119q-36 -65 -77 -164l-76 -182h282zM250 106q14 11 22 21q-7 2 -34 12t-44.5 14.5t-35.5 6.5q-19 3 -37 -6q-28 -18 -25 -39q2 -28 49 -33q46 -3 105 24z" />
    <glyph glyph-name="Ntilde" unicode="&#xd1;" horiz-adv-x="876" 
d="M989 367q9 11 21.5 7.5t16.5 -15t-3 -23.5l-27 -29l-100 -110q-78 -74 -123 -101q-73 -46 -127 -28q-55 17 -61 67q-5 37 10 94q14 57 47 138q30 75 78 184q9 20 41.5 95.5t46.5 109t36.5 92t37.5 106.5q32 107 28 170q-8 73 -63 76q-65 3 -143 -49q-57 -38 -111 -98
q-91 -97 -168 -234q-39 -63 -49 -90l-84 -199q-46 -107 -78 -188l-84 -201l-29 -69l-6 -13q-8 -18 -27 -12.5t-16 25.5q0 7 7 21.5t8 17.5l36 86l80 192q23 57 113.5 272.5t138.5 333.5q2 4 20 48.5t25 68.5q12 46 -16 66q-23 14 -74 14q-107 -7 -174 -66q-16 -16 -22 -26
q-10 -25 -13 -29q-8 -7 -18.5 -6.5t-16.5 8.5q-9 11 0 33q27 65 117 100q89 44 172 29q35 -5 60.5 -24.5t31.5 -51.5q8 -34 -10 -82l-33 -82q83 116 174 181q31 22 67.5 39.5t79.5 28.5t80 -2t56 -52q24 -48 12 -131q-11 -78 -55 -197q-22 -59 -49 -124t-62.5 -146.5
t-52.5 -122.5q-4 -8 -69 -170q-32 -98 -35 -133q-4 -21 4 -37q15 -26 55 -18q49 7 115 65q19 16 38 33.5t41 41t33 35.5t38 42.5t34 38.5zM1030 1382q8 -4 12 -20l-6 -14l-8 -11q-7 -11 -12 -16q-10 -17 -35 -35q-32 -18 -55 -10q-30 8 -45 41q-5 11 -21 63q-2 4 -5 13
t-5 12q-8 12 -12 12h-11q-1 2 -6 -4l-16 -18q-15 -25 -19 -35q-5 -9 -6 -10q-7 -7 -14 -7q-14 0 -21 13q-4 6 0 22q8 20 17 31q10 23 24 37q19 15 37 18q26 6 51 -16q19 -19 25 -43q4 -9 7 -18.5t6.5 -21t5.5 -17.5q4 -15 14 -25q8 -8 22 2q12 7 37 37q3 7 6 8q5 10 7 12
q16 8 26 0z" />
    <glyph glyph-name="Ograve" unicode="&#xd2;" horiz-adv-x="774" 
d="M1081 1116q22 3 26.5 -20.5t-1.5 -38.5q-6 -25 -29 -68q-46 -70 -116 -121q-22 -15 -39 -22l-19 -8q-6 -4 -8 -13l-18 -73q-39 -154 -113 -308q-84 -162 -184 -264q-130 -130 -265 -143q-95 -7 -155 45q-48 40 -78 108q-49 128 -19 326q32 190 136 389q80 152 182 244
q150 138 299 125q36 0 45 -14q5 -9 2 -20t-12 -15q-8 -3 -21 2q-3 0 -8.5 1t-7.5 1q-50 5 -119 -21q-208 -79 -348 -383q-94 -207 -109 -368q-17 -146 23 -248q14 -39 45 -74q53 -59 137 -53q133 10 258 151q98 103 176 277q70 148 105 311q-101 -12 -166 72q-56 73 -27 182
q26 97 95 135q60 31 106 -6q40 -30 55 -108q14 -81 -4 -205q76 40 125 115q20 26 29 57q2 5 2.5 19.5t4.5 23t15 10.5zM856 872q17 106 12 187q-10 100 -53 117q-35 13 -65.5 -19.5t-44.5 -73.5q-35 -96 10 -157q51 -76 141 -54zM823 1448l39 -31l62 -49q5 -2 12 -7.5
t8 -6.5l4 -4q8 -5 8 -19q0 -17 -14 -20q-14 -4 -22 4l-13 8q-35 27 -55 45q-11 7 -29 21.5t-22 17.5l-6 4q-7 6 -9 14q-4 14 11 25q8 4 10 4t16 -6z" />
    <glyph glyph-name="Oacute" unicode="&#xd3;" horiz-adv-x="774" 
d="M1081 1116q22 3 26.5 -20.5t-1.5 -38.5q-6 -25 -29 -68q-46 -70 -116 -121q-22 -15 -39 -22l-19 -8q-6 -4 -8 -13l-18 -73q-39 -154 -113 -308q-84 -162 -184 -264q-130 -130 -265 -143q-95 -7 -155 45q-48 40 -78 108q-49 128 -19 326q32 190 136 389q80 152 182 244
q150 138 299 125q36 0 45 -14q5 -9 2 -20t-12 -15q-8 -3 -21 2q-3 0 -8.5 1t-7.5 1q-50 5 -119 -21q-208 -79 -348 -383q-94 -207 -109 -368q-17 -146 23 -248q14 -39 45 -74q53 -59 137 -53q133 10 258 151q98 103 176 277q70 148 105 311q-101 -12 -166 72q-56 73 -27 182
q26 97 95 135q60 31 106 -6q40 -30 55 -108q14 -81 -4 -205q76 40 125 115q20 26 29 57q2 5 2.5 19.5t4.5 23t15 10.5zM856 872q17 106 12 187q-10 100 -53 117q-35 13 -65.5 -19.5t-44.5 -73.5q-35 -96 10 -157q51 -76 141 -54zM856 1430l39 30q12 9 27 2q13 -10 10 -24
q-4 -10 -8 -15l-6 -4l-52 -39q-11 -8 -30 -24t-25 -21l-12 -8q-8 -8 -23 -4q-14 3 -14 20q0 14 8 19l4 4l21 14z" />
    <glyph glyph-name="Ocircumflex" unicode="&#xd4;" horiz-adv-x="774" 
d="M1081 1116q22 3 26.5 -20.5t-1.5 -38.5q-6 -25 -29 -68q-46 -70 -116 -121q-22 -15 -39 -22l-19 -8q-6 -4 -8 -13l-18 -73q-39 -154 -113 -308q-84 -162 -184 -264q-130 -130 -265 -143q-95 -7 -155 45q-48 40 -78 108q-49 128 -19 326q32 190 136 389q80 152 182 244
q150 138 299 125q36 0 45 -14q5 -9 2 -20t-12 -15q-8 -3 -21 2q-3 0 -8.5 1t-7.5 1q-50 5 -119 -21q-208 -79 -348 -383q-94 -207 -109 -368q-17 -146 23 -248q14 -39 45 -74q53 -59 137 -53q133 10 258 151q98 103 176 277q70 148 105 311q-101 -12 -166 72q-56 73 -27 182
q26 97 95 135q60 31 106 -6q40 -30 55 -108q14 -81 -4 -205q76 40 125 115q20 26 29 57q2 5 2.5 19.5t4.5 23t15 10.5zM856 872q17 106 12 187q-10 100 -53 117q-35 13 -65.5 -19.5t-44.5 -73.5q-35 -96 10 -157q51 -76 141 -54zM897 1423q2 -2 2 -4q5 -7 17 -27.5t20 -31.5
l29 -47q5 -11 2 -17q-4 -18 -21 -18q-13 0 -20 10l-4 8q-8 15 -26.5 42t-21.5 32l-4 8q-2 2 -2 4h-4q-3 -1 -9 -5t-7 -5q-29 -11 -45 -20q-24 -10 -33 -15l-8 -4q-19 0 -25 15q-8 16 6 26q0 1 1.5 1.5l3 1t2.5 1.5l20 11q30 12 70 32l22 11l8 4q17 3 27 -13z" />
    <glyph glyph-name="Otilde" unicode="&#xd5;" horiz-adv-x="774" 
d="M1081 1116q22 3 26.5 -20.5t-1.5 -38.5q-6 -25 -29 -68q-46 -70 -116 -121q-22 -15 -39 -22l-19 -8q-6 -4 -8 -13l-18 -73q-39 -154 -113 -308q-84 -162 -184 -264q-130 -130 -265 -143q-95 -7 -155 45q-48 40 -78 108q-49 128 -19 326q32 190 136 389q80 152 182 244
q150 138 299 125q36 0 45 -14q5 -9 2 -20t-12 -15q-8 -3 -21 2q-3 0 -8.5 1t-7.5 1q-50 5 -119 -21q-208 -79 -348 -383q-94 -207 -109 -368q-17 -146 23 -248q14 -39 45 -74q53 -59 137 -53q133 10 258 151q98 103 176 277q70 148 105 311q-101 -12 -166 72q-56 73 -27 182
q26 97 95 135q60 31 106 -6q40 -30 55 -108q14 -81 -4 -205q76 40 125 115q20 26 29 57q2 5 2.5 19.5t4.5 23t15 10.5zM856 872q17 106 12 187q-10 100 -53 117q-35 13 -65.5 -19.5t-44.5 -73.5q-35 -96 10 -157q51 -76 141 -54zM1022 1380q8 -4 12 -20l-6 -14l-8 -11
q-7 -11 -12 -16q-10 -17 -35 -35q-32 -18 -55 -10q-31 8 -46 41q-3 5 -20 63q-2 3 -5 12.5t-5 12.5q-8 12 -13 12h-10q-1 2 -6 -4l-16 -18q-15 -25 -19 -35q-5 -9 -6 -10q-7 -7 -14 -7q-14 0 -21 13q-4 6 0 22q8 20 17 31q10 23 24 37q19 15 37 18q26 6 51 -16
q19 -19 25 -43q5 -12 10.5 -32t7.5 -25q3 -13 15 -25q8 -8 22 2q12 7 37 37q3 7 6 8l6 12q16 8 27 0z" />
    <glyph glyph-name="Odieresis" unicode="&#xd6;" horiz-adv-x="774" 
d="M1081 1116q22 3 26.5 -20.5t-1.5 -38.5q-6 -25 -29 -68q-46 -70 -116 -121q-22 -15 -39 -22l-19 -8q-6 -4 -8 -13l-18 -73q-39 -154 -113 -308q-84 -162 -184 -264q-130 -130 -265 -143q-95 -7 -155 45q-48 40 -78 108q-49 128 -19 326q32 190 136 389q80 152 182 244
q150 138 299 125q36 0 45 -14q5 -9 2 -20t-12 -15q-8 -3 -21 2q-3 0 -8.5 1t-7.5 1q-50 5 -119 -21q-208 -79 -348 -383q-94 -207 -109 -368q-17 -146 23 -248q14 -39 45 -74q53 -59 137 -53q133 10 258 151q98 103 176 277q70 148 105 311q-101 -12 -166 72q-56 73 -27 182
q26 97 95 135q60 31 106 -6q40 -30 55 -108q14 -81 -4 -205q76 40 125 115q20 26 29 57q2 5 2.5 19.5t4.5 23t15 10.5zM856 872q17 106 12 187q-10 100 -53 117q-35 13 -65.5 -19.5t-44.5 -73.5q-35 -96 10 -157q51 -76 141 -54zM836 1430q17 -7 24 -24.5t2 -35.5
q-14 -28 -43 -31q-32 0 -43 29q-13 26 8 51q25 21 52 11zM948 1380q17 -7 24.5 -24t2.5 -35q-14 -28 -43 -31q-32 0 -43 29q-13 26 8 51q24 20 51 10z" />
    <glyph glyph-name="multiply" unicode="&#xd7;" horiz-adv-x="786" 
d="M125 455q-7 -5 -18.5 -2t-14.5 10q-6 8 -4 17t10 14l23 16l53 35q46 30 68 47l59 39l37 24q4 0 4 2q-4 8 -4 11q0 1 -4 22.5t-8 32.5q-6 43 -17 76l-14 75l-10 52q0 4 -2 8q-2 8 8 22q16 8 26 0q8 -5 11 -14v-2q4 -16 4 -18l12 -64q3 -9 18 -78l13 -67l8 -27l37 25
q17 10 61 41l66 43l47 30l8 6q9 7 21.5 2t15.5 -16q0 -17 -10 -24l-2 -2q-8 -4 -13 -9q-38 -24 -49 -32l-65 -43l-64 -41q-6 -5 -39 -27l-4 -4v-8q8 -31 10 -49q14 -59 19 -74l14 -78q3 -11 7.5 -32t7.5 -32l6 -26q0 -17 -4 -21q-8 -8 -27 -8q-12 12 -14 17v4l-11 41l-14 67
q-2 9 -7.5 37.5t-8.5 42.5q-7 38 -15 66q0 5 -2 13t-2 13l-26 -18l-56 -37q-37 -22 -65 -45l-58 -37z" />
    <glyph glyph-name="Oslash" unicode="&#xd8;" horiz-adv-x="774" 
d="M1081 1116q22 3 26.5 -20.5t-1.5 -38.5q-6 -25 -29 -68q-46 -70 -116 -121q-22 -15 -39 -22l-19 -8q-6 -4 -8 -13l-18 -73q-39 -154 -113 -308q-84 -162 -184 -264q-130 -130 -265 -143q-95 -7 -155 45q-48 40 -78 108q-49 128 -19 326q32 190 136 389q80 152 182 244
q150 138 299 125q36 0 45 -14q5 -9 2 -20t-12 -15q-8 -3 -21 2q-3 0 -8.5 1t-7.5 1q-50 5 -119 -21q-208 -79 -348 -383q-94 -207 -109 -368q-17 -146 23 -248q14 -39 45 -74q53 -59 137 -53q133 10 258 151q98 103 176 277q70 148 105 311q-101 -12 -166 72q-56 73 -27 182
q26 97 95 135q60 31 106 -6q40 -30 55 -108q14 -81 -4 -205q76 40 125 115q20 26 29 57q2 5 2.5 19.5t4.5 23t15 10.5zM856 872q17 106 12 187q-10 100 -53 117q-35 13 -65.5 -19.5t-44.5 -73.5q-35 -96 10 -157q51 -76 141 -54zM717 788q14 7 20 7q13 -3 19 -19
q2 -12 -13 -24l-2 -2l-24 -19q-24 -15 -45 -33l-58 -39q-63 -51 -163 -120q-30 -18 -66 -47q-28 -20 -61 -46l-52 -34l-32 -25q-18 -12 -19 -12q-19 0 -24 8q-9 12 -2 27l10 8l24 16q20 16 43 31l56 41l63 47q4 3 78 57t88 62q23 18 61 45l52 37l37 26z" />
    <glyph glyph-name="Ugrave" unicode="&#xd9;" horiz-adv-x="1044" 
d="M1155 365q7 8 20 5.5t17 -12.5q5 -13 -6 -28l-37 -41q-5 -5 -26.5 -29.5t-28 -31.5t-26.5 -28t-29.5 -30t-28 -26t-32 -27t-31 -22t-34.5 -21q-76 -44 -151 -35q-47 7 -74 31q-23 23 -29 53q-7 41 7 104q9 42 43 142q22 58 48 118.5t63 142t52 115.5q-132 -220 -161 -262
q-69 -101 -144 -188q-112 -129 -209 -193q-123 -80 -206 -51q-32 12 -48 40.5t-14.5 69t6 69t13.5 65.5q5 21 10.5 41t13.5 44t13 40t15.5 43.5t15 39t17.5 43.5t15.5 39t18 43t16.5 40q16 38 51 119t61 144t47 122q3 13 10.5 36t10.5 33q11 42 -14 54q-25 14 -62 14
q-36 0 -84 -10q-39 -8 -86 -29q-49 -22 -69 -51q-11 -11 -11 -25q0 -9 -6.5 -15.5t-15.5 -6.5q-14 0 -19.5 10t-4 21t6.5 22q24 61 131 100q91 34 168 29q91 -4 111 -59q11 -30 -4 -78l-23 -72q-20 -55 -44.5 -114t-58 -135.5t-48.5 -112.5q-94 -226 -129 -345
q-22 -80 -27 -133q-5 -79 33 -92q39 -13 94 10q36 12 111 66q111 90 223 236q68 86 182 274q121 196 183 309q54 100 67 129l23 51q8 21 20 23q9 2 17.5 -3.5t9.5 -14.5q1 -5 -1 -12t-6.5 -16l-5.5 -11q-26 -60 -28 -64l-39 -92q-19 -47 -86 -199q-101 -232 -158 -372
q-49 -130 -57 -160q-19 -68 -12 -113q7 -35 34 -43q37 -12 78 -6q66 10 146 78q17 14 35.5 31.5t32 30.5t33.5 35.5t29.5 32.5t32 36.5t29.5 34.5zM707 1430l38 -31l62 -49q5 -2 11.5 -8t8.5 -7l4 -4q9 -6 9 -18q0 -17 -15 -21q-14 -4 -22 4l-12 9q-43 33 -56 45
q-11 7 -29.5 21.5t-21.5 17.5l-6 4q-5 5 -8 14q-4 15 10 25q13 7 27 -2z" />
    <glyph glyph-name="Uacute" unicode="&#xda;" horiz-adv-x="1044" 
d="M1155 365q7 8 20 5.5t17 -12.5q5 -13 -6 -28l-37 -41q-5 -5 -26.5 -29.5t-28 -31.5t-26.5 -28t-29.5 -30t-28 -26t-32 -27t-31 -22t-34.5 -21q-76 -44 -151 -35q-47 7 -74 31q-23 23 -29 53q-7 41 7 104q9 42 43 142q22 58 48 118.5t63 142t52 115.5q-132 -220 -161 -262
q-69 -101 -144 -188q-112 -129 -209 -193q-123 -80 -206 -51q-32 12 -48 40.5t-14.5 69t6 69t13.5 65.5q5 21 10.5 41t13.5 44t13 40t15.5 43.5t15 39t17.5 43.5t15.5 39t18 43t16.5 40q16 38 51 119t61 144t47 122q3 13 10.5 36t10.5 33q11 42 -14 54q-25 14 -62 14
q-36 0 -84 -10q-39 -8 -86 -29q-49 -22 -69 -51q-11 -11 -11 -25q0 -9 -6.5 -15.5t-15.5 -6.5q-14 0 -19.5 10t-4 21t6.5 22q24 61 131 100q91 34 168 29q91 -4 111 -59q11 -30 -4 -78l-23 -72q-20 -55 -44.5 -114t-58 -135.5t-48.5 -112.5q-94 -226 -129 -345
q-22 -80 -27 -133q-5 -79 33 -92q39 -13 94 10q36 12 111 66q111 90 223 236q68 86 182 274q121 196 183 309q54 100 67 129l23 51q8 21 20 23q9 2 17.5 -3.5t9.5 -14.5q1 -5 -1 -12t-6.5 -16l-5.5 -11q-26 -60 -28 -64l-39 -92q-19 -47 -86 -199q-101 -232 -158 -372
q-49 -130 -57 -160q-19 -68 -12 -113q7 -35 34 -43q37 -12 78 -6q66 10 146 78q17 14 35.5 31.5t32 30.5t33.5 35.5t29.5 32.5t32 36.5t29.5 34.5zM760 1391l39 30q12 9 26 2q14 -11 11 -24q-3 -9 -9 -15l-6 -4q-4 -3 -22 -17.5t-29 -21.5q-20 -18 -55 -45l-13 -8
q-8 -8 -22 -4t-14 21q0 13 8 18l4 4q1 1 8 6.5t12 7.5z" />
    <glyph glyph-name="Ucircumflex" unicode="&#xdb;" horiz-adv-x="1044" 
d="M1155 365q7 8 20 5.5t17 -12.5q5 -13 -6 -28l-37 -41q-5 -5 -26.5 -29.5t-28 -31.5t-26.5 -28t-29.5 -30t-28 -26t-32 -27t-31 -22t-34.5 -21q-76 -44 -151 -35q-47 7 -74 31q-23 23 -29 53q-7 41 7 104q9 42 43 142q22 58 48 118.5t63 142t52 115.5q-132 -220 -161 -262
q-69 -101 -144 -188q-112 -129 -209 -193q-123 -80 -206 -51q-32 12 -48 40.5t-14.5 69t6 69t13.5 65.5q5 21 10.5 41t13.5 44t13 40t15.5 43.5t15 39t17.5 43.5t15.5 39t18 43t16.5 40q16 38 51 119t61 144t47 122q3 13 10.5 36t10.5 33q11 42 -14 54q-25 14 -62 14
q-36 0 -84 -10q-39 -8 -86 -29q-49 -22 -69 -51q-11 -11 -11 -25q0 -9 -6.5 -15.5t-15.5 -6.5q-14 0 -19.5 10t-4 21t6.5 22q24 61 131 100q91 34 168 29q91 -4 111 -59q11 -30 -4 -78l-23 -72q-20 -55 -44.5 -114t-58 -135.5t-48.5 -112.5q-94 -226 -129 -345
q-22 -80 -27 -133q-5 -79 33 -92q39 -13 94 10q36 12 111 66q111 90 223 236q68 86 182 274q121 196 183 309q54 100 67 129l23 51q8 21 20 23q9 2 17.5 -3.5t9.5 -14.5q1 -5 -1 -12t-6.5 -16l-5.5 -11q-26 -60 -28 -64l-39 -92q-19 -47 -86 -199q-101 -232 -158 -372
q-49 -130 -57 -160q-19 -68 -12 -113q7 -35 34 -43q37 -12 78 -6q66 10 146 78q17 14 35.5 31.5t32 30.5t33.5 35.5t29.5 32.5t32 36.5t29.5 34.5zM801 1403q2 -2 2 -4q5 -8 17 -28.5t20 -31.5l28 -47q5 -10 2 -16q-4 -19 -20 -19q-14 0 -21 11l-4 8q-3 5 -47 74l-4 8
q-2 2 -2 4h-4q-3 -1 -9 -5t-7 -5q-24 -9 -45 -21q-29 -12 -33 -14l-8 -4q-19 0 -25 14q-8 16 6 27q0 1 3 2q1 1 1.5 1t1.5 1l21 10q15 6 69 33l23 10l8 4q18 4 27 -12z" />
    <glyph glyph-name="Udieresis" unicode="&#xdc;" horiz-adv-x="1044" 
d="M1155 365q7 8 20 5.5t17 -12.5q5 -13 -6 -28l-37 -41q-5 -5 -26.5 -29.5t-28 -31.5t-26.5 -28t-29.5 -30t-28 -26t-32 -27t-31 -22t-34.5 -21q-76 -44 -151 -35q-47 7 -74 31q-23 23 -29 53q-7 41 7 104q9 42 43 142q22 58 48 118.5t63 142t52 115.5q-132 -220 -161 -262
q-69 -101 -144 -188q-112 -129 -209 -193q-123 -80 -206 -51q-32 12 -48 40.5t-14.5 69t6 69t13.5 65.5q5 21 10.5 41t13.5 44t13 40t15.5 43.5t15 39t17.5 43.5t15.5 39t18 43t16.5 40q16 38 51 119t61 144t47 122q3 13 10.5 36t10.5 33q11 42 -14 54q-25 14 -62 14
q-36 0 -84 -10q-39 -8 -86 -29q-49 -22 -69 -51q-11 -11 -11 -25q0 -9 -6.5 -15.5t-15.5 -6.5q-14 0 -19.5 10t-4 21t6.5 22q24 61 131 100q91 34 168 29q91 -4 111 -59q11 -30 -4 -78l-23 -72q-20 -55 -44.5 -114t-58 -135.5t-48.5 -112.5q-94 -226 -129 -345
q-22 -80 -27 -133q-5 -79 33 -92q39 -13 94 10q36 12 111 66q111 90 223 236q68 86 182 274q121 196 183 309q54 100 67 129l23 51q8 21 20 23q9 2 17.5 -3.5t9.5 -14.5q1 -5 -1 -12t-6.5 -16l-5.5 -11q-26 -60 -28 -64l-39 -92q-19 -47 -86 -199q-101 -232 -158 -372
q-49 -130 -57 -160q-19 -68 -12 -113q7 -35 34 -43q37 -12 78 -6q66 10 146 78q17 14 35.5 31.5t32 30.5t33.5 35.5t29.5 32.5t32 36.5t29.5 34.5zM760 1417q17 -7 24 -24t2 -35q-14 -28 -43 -31q-32 0 -43 29q-13 26 9 51q24 20 51 10zM872 1368q17 -7 24.5 -24t2.5 -35
q-14 -28 -43 -31q-32 0 -43 29q-13 26 8 51q24 20 51 10z" />
    <glyph glyph-name="Yacute" unicode="&#xdd;" horiz-adv-x="864" 
d="M1120 1202q25 -9 6 -47l-20 -49l-21 -47q-24 -57 -63.5 -155t-73.5 -179.5t-65 -153.5q-147 -337 -271 -551l13 7q122 81 268 241l49 58l21 24q2 2 7 8t8.5 9t8.5 4q11 2 19 -5.5t8 -17.5q0 -5 -2 -9.5t-7 -10t-6 -6.5q-24 -32 -45 -52q-136 -157 -256 -247
q-50 -36 -77 -52l-52 -28q-4 -2 -7.5 -10t-4.5 -9l-12 -20q-65 -110 -107 -172q-71 -102 -119 -152q-73 -81 -145 -90q-41 -5 -75 13.5t-44 56.5q-17 67 54 155q41 51 129 101q26 16 56.5 33t69 36.5t58.5 30.5l98 51q12 7 17 17l12 18l47 80q58 101 149 295
q103 227 160 364q-136 -224 -243 -358q-98 -124 -179 -197q-111 -103 -196 -125q-48 -13 -92 -2q-30 9 -48.5 33.5t-23.5 57.5q-5 44 10 112q20 82 57 170q23 57 73 176.5t87.5 213t67.5 179.5q28 74 43 132q11 37 -15 53q-15 9 -57 14q-83 3 -172 -39q-46 -18 -70 -49
q-12 -12 -12 -25q0 -21 -20 -24q-21 -3 -24.5 17t3.5 34q11 25 47 57q69 51 168 68q97 20 154 -8q30 -19 41 -43q11 -26 0 -74q-32 -113 -111 -307q-8 -21 -123 -301q-74 -178 -92 -258q-10 -42 -10 -74q0 -41 16 -57q31 -31 103 -8q49 17 114 67q53 41 125 117
q116 124 244 319q124 190 207 346q41 71 76 146q9 15 26 59q1 3 4.5 11t5.5 12t7 10.5t10 6t14 -0.5zM248 -426q63 58 125 143q33 48 114 181q-160 -84 -190 -101q-104 -59 -141 -100q-37 -37 -50 -74q-17 -50 7 -74q19 -18 45 -15.5t49 13.5t41 27zM799 1374l39 31
q12 9 26 2q14 -10 10 -25q-3 -9 -8 -14l-6 -4q-3 -3 -21.5 -17.5t-29.5 -21.5q-20 -18 -55 -45l-13 -8q-8 -8 -22 -4t-14 20q0 14 8 19l4 4q1 1 8 6.5t12 7.5z" />
    <glyph glyph-name="Thorn" unicode="&#xde;" horiz-adv-x="681" 
d="M858 901q9 -31 6 -67q-3 -54 -26 -115q-20 -54 -68 -123q-46 -61 -94 -107q-37 -37 -98 -77q-59 -38 -97 -52q-55 -21 -90 -28q-42 -7 -76 -4q-40 0 -69 20q-26 13 -29 41q-3 17 4 25q13 13 27 6t14 -21q0 -13 19 -18q12 -6 24 -6q25 -5 66 2q47 7 82 20q60 25 94 49
q56 37 98 76q57 57 94 113q44 61 64 121q19 55 16 108q-3 31 -16 51q-12 23 -39 37q-36 16 -74 13q-26 -2 -74 -23q-29 -15 -75 -51q-29 -23 -78 -72l-74 -90q-31 -38 -67 -98q-31 -47 -64 -105q-31 -61 -51 -104l-12 -25l-5 -12l-4 -4q0 -2 -2 -2q0 -2 -1 -4.5t-1 -3.5
l-18 -43l-27 -66q-17 -44 -33 -76l-26 -67l-19 -43l-4 -8q-5 -11 -16.5 -13.5t-20.5 4.5q-11 9 -4 27q0 2 4 10l19 43q16 46 26 66l31 76l31 71q9 26 22 56q9 18 11 26l43 98q11 31 53 130l51 122l47 115l41 100l31 74q2 12 10 27q10 38 8 51q0 14 -6 23l-16 14
q-16 8 -53 12q-22 0 -72 -8q-33 -9 -66 -25q-34 -15 -51 -32q-19 -16 -28 -37q-1 -1 -2.5 -5.5t-2.5 -5.5q0 -4 -8 -12q-13 -7 -26 0q-12 12 -9 25q3 12 9 24q24 45 82 76q58 30 112 41q76 11 123 -6q26 -11 39 -27q16 -19 18 -34q6 -18 2 -56q-1 -5 -6.5 -20.5t-7.5 -24.5
l-35 -84l-49 -121l-57 -141q29 41 67 86t97 98q56 48 100 70q59 27 98 29q56 3 97 -19q24 -15 43 -37q18 -24 24 -53z" />
    <glyph glyph-name="germandbls" unicode="&#xdf;" horiz-adv-x="694" 
d="M829 367q13 -8 9 -23q0 -6 -4 -10q-2 -6 -11 -15q-12 -20 -45 -61q-34 -44 -71 -80q-54 -47 -91 -69q-44 -22 -61 -27q-45 -18 -74 -25q-65 -15 -131 -18q-63 0 -96 4q-24 0 -45 6q-2 0 -4 2q-2 0 -4 2q-1 0 -2 1t-2 1h-7q-12 0 -32 4q-32 5 -68 15l-37 12q-9 3 -14 8
l-6 12q-4 16 10 23q8 4 14 4q7 0 15 -4q73 -24 131 -29q62 -3 112 13q55 16 93 51q44 38 67 88q28 61 33 110q10 66 2 119q-9 62 -33 113q-8 16 -14 24q-5 8 -14 31q-11 28 -5 53q6 19 27 48l43 43l68 75q41 53 71 115q23 44 27 70q7 34 4 63q-3 57 -35 94q-28 28 -49 21
q-18 -4 -35 -35q-3 -5 -7 -17.5t-7 -17.5l-12 -37l-27 -71q-24 -65 -51 -129l-47 -113l-45 -96q-10 -24 -41 -84q-32 -58 -41 -72q-8 -16 -35 -61q-4 -6 -16 -25.5t-19 -28.5l-33 -47l-28 -41l-31 -43q-11 -11 -25 -8t-18 21q0 10 6 16q9 14 10 16q22 26 29 37l31 43l32 49
q23 35 35 56l37 65q3 5 18.5 33.5t22.5 44.5l43 88q24 52 45 105q33 73 49 118l54 138l12 36q9 27 14 37q10 27 31 45q30 30 67 25q28 -3 51 -23t36 -47q26 -45 26 -104q0 -66 -33 -137q-31 -63 -73 -117q-22 -32 -68 -78l-41 -43q-20 -19 -27 -37q-2 -13 5 -35l12 -20
l14 -25q24 -57 33 -112q10 -63 4 -119q-6 -60 -27 -115q-19 -57 -55 -98q-46 -56 -98 -80l57 6q74 15 141 45q41 20 91 66q31 29 73 78q34 43 47 61q2 4 11 14l6 9q13 10 26 0z" />
    <glyph glyph-name="agrave" unicode="&#xe0;" horiz-adv-x="663" 
d="M770 365q12 12 27 3t12 -24q-1 -4 -3.5 -8t-6 -8t-4.5 -6q-5 -5 -27 -30t-33 -38q-7 -8 -26 -30t-29.5 -33.5t-27 -29t-31.5 -31.5t-31 -26q-80 -67 -144 -36q-64 28 -47 143q-72 -91 -141 -127q-95 -46 -156 -4q-51 34 -51 113q3 67 47 147q43 85 127 162q64 61 140 98
q103 51 204 39q26 -4 37 -8q9 -3 13 -9.5t2 -16.5t-4.5 -16.5t-8.5 -18.5t-6 -13q-37 -81 -80 -160q-11 -21 -28 -49q-20 -40 -23 -49q-23 -70 -27 -94q-8 -52 5 -80q6 -12 20.5 -17t28.5 -2q24 4 57 29q30 24 63 60q42 42 152 170zM207 115q55 15 115 75q40 40 102 134
q9 11 22 41l19 38q5 14 35 76q34 67 63 113q-88 11 -182 -35q-71 -36 -139 -104q-81 -77 -119 -164q-33 -80 -21 -131q7 -34 33 -45q28 -10 72 2zM479 829l39 -30l62 -49q5 -2 11.5 -8t8.5 -7l4 -4q8 -5 8 -18q0 -17 -14 -21q-15 -4 -23 4l-12 9q-35 27 -55 45q-3 2 -51 38
l-6 5q-7 6 -9 14q-3 13 11 24q8 4 10 4t16 -6z" />
    <glyph glyph-name="aacute" unicode="&#xe1;" horiz-adv-x="663" 
d="M770 365q12 12 27 3t12 -24q-1 -4 -3.5 -8t-6 -8t-4.5 -6q-5 -5 -27 -30t-33 -38q-7 -8 -26 -30t-29.5 -33.5t-27 -29t-31.5 -31.5t-31 -26q-80 -67 -144 -36q-64 28 -47 143q-72 -91 -141 -127q-95 -46 -156 -4q-51 34 -51 113q3 67 47 147q43 85 127 162q64 61 140 98
q103 51 204 39q26 -4 37 -8q9 -3 13 -9.5t2 -16.5t-4.5 -16.5t-8.5 -18.5t-6 -13q-37 -81 -80 -160q-11 -21 -28 -49q-20 -40 -23 -49q-23 -70 -27 -94q-8 -52 5 -80q6 -12 20.5 -17t28.5 -2q24 4 57 29q30 24 63 60q42 42 152 170zM207 115q55 15 115 75q40 40 102 134
q9 11 22 41l19 38q5 14 35 76q34 67 63 113q-88 11 -182 -35q-71 -36 -139 -104q-81 -77 -119 -164q-33 -80 -21 -131q7 -34 33 -45q28 -10 72 2zM555 803l39 31q12 9 27 2q14 -10 10 -25q-3 -9 -8 -14l-7 -4q-3 -3 -21.5 -17.5t-29.5 -21.5q-20 -18 -55 -45l-12 -9
q-8 -8 -23 -4q-14 4 -14 21q0 13 8 18l4 4q1 1 8.5 7t12.5 8z" />
    <glyph glyph-name="acircumflex" unicode="&#xe2;" horiz-adv-x="663" 
d="M770 365q12 12 27 3t12 -24q-1 -4 -3.5 -8t-6 -8t-4.5 -6q-5 -5 -27 -30t-33 -38q-7 -8 -26 -30t-29.5 -33.5t-27 -29t-31.5 -31.5t-31 -26q-80 -67 -144 -36q-64 28 -47 143q-72 -91 -141 -127q-95 -46 -156 -4q-51 34 -51 113q3 67 47 147q43 85 127 162q64 61 140 98
q103 51 204 39q26 -4 37 -8q9 -3 13 -9.5t2 -16.5t-4.5 -16.5t-8.5 -18.5t-6 -13q-37 -81 -80 -160q-11 -21 -28 -49q-20 -40 -23 -49q-23 -70 -27 -94q-8 -52 5 -80q6 -12 20.5 -17t28.5 -2q24 4 57 29q30 24 63 60q42 42 152 170zM207 115q55 15 115 75q40 40 102 134
q9 11 22 41l19 38q5 14 35 76q34 67 63 113q-88 11 -182 -35q-71 -36 -139 -104q-81 -77 -119 -164q-33 -80 -21 -131q7 -34 33 -45q28 -10 72 2zM629 834q2 -3 2 -5q5 -8 17 -28t20 -31l28 -47q5 -10 2 -16q-4 -19 -20 -19q-14 0 -21 10q-4 8 -4 9q-6 11 -14 23t-17.5 26.5
t-15.5 23.5l-4 8q-2 2 -2 5h-4q-3 -1 -9 -5.5t-7 -5.5q-29 -11 -45 -20q-29 -12 -33 -14l-8 -5q-19 0 -25 15q-8 16 6 26q0 1 3 2q2 1 3 2l21 11q25 10 69 32l23 11l8 4q18 4 27 -12z" />
    <glyph glyph-name="atilde" unicode="&#xe3;" horiz-adv-x="663" 
d="M770 365q12 12 27 3t12 -24q-1 -4 -3.5 -8t-6 -8t-4.5 -6q-5 -5 -27 -30t-33 -38q-7 -8 -26 -30t-29.5 -33.5t-27 -29t-31.5 -31.5t-31 -26q-80 -67 -144 -36q-64 28 -47 143q-72 -91 -141 -127q-95 -46 -156 -4q-51 34 -51 113q3 67 47 147q43 85 127 162q64 61 140 98
q103 51 204 39q26 -4 37 -8q9 -3 13 -9.5t2 -16.5t-4.5 -16.5t-8.5 -18.5t-6 -13q-37 -81 -80 -160q-11 -21 -28 -49q-20 -40 -23 -49q-23 -70 -27 -94q-8 -52 5 -80q6 -12 20.5 -17t28.5 -2q24 4 57 29q30 24 63 60q42 42 152 170zM207 115q55 15 115 75q40 40 102 134
q9 11 22 41l19 38q5 14 35 76q34 67 63 113q-88 11 -182 -35q-71 -36 -139 -104q-81 -77 -119 -164q-33 -80 -21 -131q7 -34 33 -45q28 -10 72 2zM770 766q8 -4 12 -21l-6 -14q-18 -24 -20 -26q-10 -17 -35 -35q-33 -18 -55 -11q-30 8 -45 41q-5 9 -21 64q-2 3 -5 12t-5 12
q-10 12 -12 13h-11q-1 2 -6 -4l-16 -19q-15 -25 -19 -35q-5 -9 -6 -10q-6 -6 -14 -6q-15 0 -21 12q-4 6 0 23q8 20 17 31q9 21 24 36q21 17 37 19q25 6 51 -17q19 -19 25 -43q5 -12 10.5 -32t7.5 -25q3 -12 15 -24q8 -8 22 2q13 8 37 36q4 8 6 9l6 12q16 8 27 0z" />
    <glyph glyph-name="adieresis" unicode="&#xe4;" horiz-adv-x="663" 
d="M770 365q12 12 27 3t12 -24q-1 -4 -3.5 -8t-6 -8t-4.5 -6q-5 -5 -27 -30t-33 -38q-7 -8 -26 -30t-29.5 -33.5t-27 -29t-31.5 -31.5t-31 -26q-80 -67 -144 -36q-64 28 -47 143q-72 -91 -141 -127q-95 -46 -156 -4q-51 34 -51 113q3 67 47 147q43 85 127 162q64 61 140 98
q103 51 204 39q26 -4 37 -8q9 -3 13 -9.5t2 -16.5t-4.5 -16.5t-8.5 -18.5t-6 -13q-37 -81 -80 -160q-11 -21 -28 -49q-20 -40 -23 -49q-23 -70 -27 -94q-8 -52 5 -80q6 -12 20.5 -17t28.5 -2q24 4 57 29q30 24 63 60q42 42 152 170zM207 115q55 15 115 75q40 40 102 134
q9 11 22 41l19 38q5 14 35 76q34 67 63 113q-88 11 -182 -35q-71 -36 -139 -104q-81 -77 -119 -164q-33 -80 -21 -131q7 -34 33 -45q28 -10 72 2zM592 813q17 -7 24 -24t2 -35q-14 -28 -43 -31q-32 0 -43 29q-13 26 9 51q24 20 51 10zM705 764q17 -7 24 -24t2 -35
q-14 -28 -43 -31q-32 0 -43 28q-13 27 8 52q24 21 52 10z" />
    <glyph glyph-name="aring" unicode="&#xe5;" horiz-adv-x="663" 
d="M770 365q12 12 27 3t12 -24q-1 -4 -3.5 -8t-6 -8t-4.5 -6q-5 -5 -27 -30t-33 -38q-7 -8 -26 -30t-29.5 -33.5t-27 -29t-31.5 -31.5t-31 -26q-80 -67 -144 -36q-64 28 -47 143q-72 -91 -141 -127q-95 -46 -156 -4q-51 34 -51 113q3 67 47 147q43 85 127 162q64 61 140 98
q103 51 204 39q26 -4 37 -8q9 -3 13 -9.5t2 -16.5t-4.5 -16.5t-8.5 -18.5t-6 -13q-37 -81 -80 -160q-11 -21 -28 -49q-20 -40 -23 -49q-23 -70 -27 -94q-8 -52 5 -80q6 -12 20.5 -17t28.5 -2q24 4 57 29q30 24 63 60q42 42 152 170zM207 115q55 15 115 75q40 40 102 134
q9 11 22 41l19 38q5 14 35 76q34 67 63 113q-88 11 -182 -35q-71 -36 -139 -104q-81 -77 -119 -164q-33 -80 -21 -131q7 -34 33 -45q28 -10 72 2zM637 836q49 0 76 -35q41 -45 18 -103q-9 -26 -31.5 -43t-50.5 -20t-53.5 8.5t-40.5 34.5q-36 49 -6 104q12 25 36 39.5
t52 14.5zM637 680q12 0 18 2q29 11 35 39q9 27 -12 51q-19 23 -49 16q-31 -3 -41 -30q-13 -26 4 -53q18 -25 45 -25z" />
    <glyph glyph-name="ae" unicode="&#xe6;" horiz-adv-x="1099" 
d="M1239 367q17 -15 -10 -52l-49 -55q-47 -50 -90 -88q-136 -114 -242 -102q-72 10 -98 69q-21 50 -11 121q-4 -4 -4 -6q-7 -8 -26 -30t-29.5 -33.5t-27 -29t-31.5 -31.5t-31 -26q-80 -67 -144 -36q-64 28 -47 143q-72 -91 -141 -127q-95 -46 -156 -4q-51 34 -51 113
q3 67 47 147q43 85 127 162q64 61 140 98q103 51 204 39q26 -4 37 -8q9 -3 13 -9.5t2 -16.5t-4.5 -16.5t-8.5 -18.5t-6 -13q-37 -81 -80 -160q-11 -21 -28 -49q-20 -40 -23 -49q-23 -70 -27 -94q-8 -52 5 -80q6 -12 20.5 -17t28.5 -2q24 4 57 29q30 24 63 60q46 46 150 167
q45 117 137 203q59 56 115 66q39 7 73.5 -6t45.5 -47q23 -87 -103 -175q-62 -38 -147 -65q-14 -5 -49 -14l-25 -7q-2 0 -6 -1t-6 -1q-1 0 -2 -4t-2 -4q-17 -56 -17 -102q4 -47 23 -68q23 -20 51 -20q46 -5 113 26q63 36 131 101q12 11 69 73l37 45q6 8 15.5 9.5t17.5 -4.5z
M207 115q55 15 115 75q40 40 102 134q9 11 22 41l19 38q5 14 35 76q34 67 63 113q-88 11 -182 -35q-71 -36 -139 -104q-81 -77 -119 -164q-33 -80 -21 -131q7 -34 33 -45q28 -10 72 2zM1034 586q-53 -5 -116 -72q-55 -61 -95 -145q166 40 238 116q30 30 35 60q3 25 -16 34.5
t-46 6.5z" />
    <glyph glyph-name="ccedilla" unicode="&#xe7;" horiz-adv-x="485" 
d="M283 -2q40 4 63 0q28 -7 41 -29q10 -17 10 -35q0 -22 -14 -47q-15 -27 -37 -49q-47 -47 -94 -71q-48 -31 -100 -43q-29 -4 -43 0q-13 0 -21 8q-9 12 -2 26q6 13 23 13q2 -2 8 -2q2 -2 6 -2q7 0 37 6q38 13 96 49l45 37q26 22 41 47q8 16 8 26q0 13 -4 17q-8 4 -16 4
q-12 3 -25 0q-35 -3 -63 -12q-21 -9 -29 -7q-16 6 -16 25q0 8 8 16q4 4 14 19l47 57l19 25q-11 -4 -37 -8q-101 -16 -146 36q-37 45 -30 123q11 146 143 293q25 26 40.5 40.5t42 31.5t52.5 22q32 4 57.5 -12t36.5 -47q5 -11 7.5 -25t-3 -26.5t-22.5 -9.5q-3 1 -5.5 2t-4 2.5
t-3 2.5t-2.5 3.5t-1.5 4t-1.5 4t-1 4t-0.5 5t-0.5 4.5q-3 19 -17 33q-20 20 -59 -2q-25 -12 -74 -61q-60 -66 -102 -148q-34 -70 -37 -133q-4 -78 45 -98q29 -12 82 -4q44 9 82 26q22 10 43 22t43.5 29.5t37.5 29.5t39.5 36.5l34 34t37 39t33.5 35.5q8 9 21 5t18 -16
q3 -12 -15 -30l-77 -82q-96 -92 -168 -131q-3 -7 -6 -7l-9 -12z" />
    <glyph glyph-name="egrave" unicode="&#xe8;" horiz-adv-x="436" 
d="M575 367q17 -15 -10 -52l-49 -55q-47 -50 -90 -88q-136 -114 -242 -102q-72 10 -98 69q-24 56 -4 152q40 163 160 274q59 56 114 66q39 7 73.5 -6t45.5 -47q24 -87 -102 -175q-61 -38 -148 -65q-14 -5 -49 -14l-24 -7q-2 0 -6.5 -1t-6.5 -1q-1 0 -2 -4t-2 -4
q-16 -53 -16 -102q4 -48 22 -68q23 -20 52 -20q45 -5 112 26q63 36 131 101q18 17 70 73l37 45q15 19 32 5zM371 586q-54 -5 -117 -72q-53 -59 -94 -145q165 39 237 116q30 30 35 60q3 25 -15.5 34.5t-45.5 6.5zM352 805l39 -31l62 -49q5 -2 12 -7.5t8 -6.5l4 -4q8 -5 8 -19
q0 -16 -14 -20t-22 4l-13 8q-35 27 -55 45q-11 7 -29.5 21.5t-21.5 17.5l-6 4q-6 6 -9 14q-4 14 11 25q8 4 10 4t16 -6z" />
    <glyph glyph-name="eacute" unicode="&#xe9;" horiz-adv-x="436" 
d="M575 367q17 -15 -10 -52l-49 -55q-47 -50 -90 -88q-136 -114 -242 -102q-72 10 -98 69q-24 56 -4 152q40 163 160 274q59 56 114 66q39 7 73.5 -6t45.5 -47q24 -87 -102 -175q-61 -38 -148 -65q-14 -5 -49 -14l-24 -7q-2 0 -6.5 -1t-6.5 -1q-1 0 -2 -4t-2 -4
q-16 -53 -16 -102q4 -48 22 -68q23 -20 52 -20q45 -5 112 26q63 36 131 101q18 17 70 73l37 45q15 19 32 5zM371 586q-54 -5 -117 -72q-53 -59 -94 -145q165 39 237 116q30 30 35 60q3 25 -15.5 34.5t-45.5 6.5zM449 770l38 31q12 9 27 2q14 -10 10 -25q-3 -9 -8 -14l-6 -4
q-4 -3 -22 -17.5t-29 -21.5q-13 -12 -56 -45l-12 -8q-8 -8 -22 -4q-15 4 -15 20q0 13 8 18l5 5q1 1 8 6.5t12 7.5z" />
    <glyph glyph-name="ecircumflex" unicode="&#xea;" horiz-adv-x="436" 
d="M575 367q17 -15 -10 -52l-49 -55q-47 -50 -90 -88q-136 -114 -242 -102q-72 10 -98 69q-24 56 -4 152q40 163 160 274q59 56 114 66q39 7 73.5 -6t45.5 -47q24 -87 -102 -175q-61 -38 -148 -65q-14 -5 -49 -14l-24 -7q-2 0 -6.5 -1t-6.5 -1q-1 0 -2 -4t-2 -4
q-16 -53 -16 -102q4 -48 22 -68q23 -20 52 -20q45 -5 112 26q63 36 131 101q18 17 70 73l37 45q15 19 32 5zM371 586q-54 -5 -117 -72q-53 -59 -94 -145q165 39 237 116q30 30 35 60q3 25 -15.5 34.5t-45.5 6.5zM477 778q2 -2 2 -4q5 -7 17 -27.5t20 -31.5l29 -47
q5 -10 2 -17q-4 -18 -21 -18q-13 0 -20 10l-4 8q-3 4 -47 74l-4 8q-2 2 -2 4h-5q-3 -1 -9 -5t-7 -5q-29 -11 -45 -20q-24 -10 -33 -15l-8 -4q-19 0 -25 14q-8 16 7 27q0 1 3 2q2 1 3 2l20 10q20 8 70 33l22 10l9 5q16 3 26 -13z" />
    <glyph glyph-name="edieresis" unicode="&#xeb;" horiz-adv-x="436" 
d="M575 367q17 -15 -10 -52l-49 -55q-47 -50 -90 -88q-136 -114 -242 -102q-72 10 -98 69q-24 56 -4 152q40 163 160 274q59 56 114 66q39 7 73.5 -6t45.5 -47q24 -87 -102 -175q-61 -38 -148 -65q-14 -5 -49 -14l-24 -7q-2 0 -6.5 -1t-6.5 -1q-1 0 -2 -4t-2 -4
q-16 -53 -16 -102q4 -48 22 -68q23 -20 52 -20q45 -5 112 26q63 36 131 101q18 17 70 73l37 45q15 19 32 5zM371 586q-54 -5 -117 -72q-53 -59 -94 -145q165 39 237 116q30 30 35 60q3 25 -15.5 34.5t-45.5 6.5zM432 788q17 -7 24.5 -24t2.5 -35q-14 -28 -43 -31
q-32 0 -43 29q-13 26 8 51q24 20 51 10zM545 739q17 -7 24 -24t2 -35q-14 -28 -43 -31q-32 0 -43 29q-13 26 9 51q24 20 51 10z" />
    <glyph glyph-name="igrave" unicode="&#xec;" horiz-adv-x="352" 
d="M492 365q15 -13 -5 -43l-36 -41q-70 -82 -109 -121q-57 -57 -94 -78q-56 -31 -86 -16q-27 13 -31 55q-6 46 23 131q35 95 77 184l-92 -108q-10 -12 -23.5 -10t-17.5 13.5t6 26.5l31 37l139 160l45 53q12 16 25 13q11 -3 15.5 -12.5t0.5 -18.5q0 -2 -12 -25
q-76 -139 -127 -266q-30 -72 -41 -119q-7 -27 -4 -49q0 -25 8 -25q8 -2 33 11q23 13 49 35q33 29 90 90q40 44 78 90q2 2 7 8.5t8.5 10.5t9.5 9.5t10.5 7.5t11 1.5t11.5 -4.5zM285 850l39 -31l61 -49q4 -2 7.5 -4.5t7.5 -5.5t6 -4l4 -4q8 -5 8 -19q0 -16 -15 -20
q-14 -4 -22 4l-12 8q-43 33 -56 45q-11 7 -29.5 21.5t-21.5 17.5l-6 4q-5 5 -8 14q-4 15 10 25q13 7 27 -2z" />
    <glyph glyph-name="iacute" unicode="&#xed;" horiz-adv-x="352" 
d="M492 365q15 -13 -5 -43l-36 -41q-70 -82 -109 -121q-57 -57 -94 -78q-56 -31 -86 -16q-27 13 -31 55q-6 46 23 131q35 95 77 184l-92 -108q-10 -12 -23.5 -10t-17.5 13.5t6 26.5l31 37l139 160l45 53q12 16 25 13q11 -3 15.5 -12.5t0.5 -18.5q0 -2 -12 -25
q-76 -139 -127 -266q-30 -72 -41 -119q-7 -27 -4 -49q0 -25 8 -25q8 -2 33 11q23 13 49 35q33 29 90 90q40 44 78 90q2 2 7 8.5t8.5 10.5t9.5 9.5t10.5 7.5t11 1.5t11.5 -4.5zM395 803l39 31q12 9 27 2q14 -10 10 -25q-3 -9 -8 -14l-6 -4q-24 -18 -51 -39q-13 -12 -56 -45
l-12 -9q-8 -8 -23 -4q-14 4 -14 21q0 13 8 18l4 4q1 1 8.5 7t12.5 8z" />
    <glyph glyph-name="icircumflex" unicode="&#xee;" horiz-adv-x="352" 
d="M492 365q15 -13 -5 -43l-36 -41q-70 -82 -109 -121q-57 -57 -94 -78q-56 -31 -86 -16q-27 13 -31 55q-6 46 23 131q35 95 77 184l-92 -108q-10 -12 -23.5 -10t-17.5 13.5t6 26.5l31 37l139 160l45 53q12 16 25 13q11 -3 15.5 -12.5t0.5 -18.5q0 -2 -12 -25
q-76 -139 -127 -266q-30 -72 -41 -119q-7 -27 -4 -49q0 -25 8 -25q8 -2 33 11q23 13 49 35q33 29 90 90q40 44 78 90q2 2 7 8.5t8.5 10.5t9.5 9.5t10.5 7.5t11 1.5t11.5 -4.5zM455 823q2 -2 2 -4q5 -7 17 -27.5t20 -31.5l28 -47q5 -11 2 -17q-4 -18 -20 -18q-14 0 -21 10
l-4 8q-3 5 -47 74l-4 8q-2 2 -2 4h-4q-3 -1 -9 -5t-7 -5q-32 -12 -46 -20q-21 -8 -32 -15l-9 -4q-18 0 -24 15q-8 16 6 26q0 1 3 2q2 1 3 2l21 10q15 6 69 33l23 10l8 5q17 3 27 -13z" />
    <glyph glyph-name="idieresis" unicode="&#xef;" horiz-adv-x="352" 
d="M492 365q15 -13 -5 -43l-36 -41q-70 -82 -109 -121q-57 -57 -94 -78q-56 -31 -86 -16q-27 13 -31 55q-6 46 23 131q35 95 77 184l-92 -108q-10 -12 -23.5 -10t-17.5 13.5t6 26.5l31 37l139 160l45 53q12 16 25 13q11 -3 15.5 -12.5t0.5 -18.5q0 -2 -12 -25
q-76 -139 -127 -266q-30 -72 -41 -119q-7 -27 -4 -49q0 -25 8 -25q8 -2 33 11q23 13 49 35q33 29 90 90q40 44 78 90q2 2 7 8.5t8.5 10.5t9.5 9.5t10.5 7.5t11 1.5t11.5 -4.5zM381 823q17 -7 24.5 -24t2.5 -35q-14 -28 -43 -31q-32 0 -43 29q-13 26 8 51q24 20 51 10z
M494 774q17 -7 24 -24t2 -35q-14 -28 -43 -31q-32 0 -43 29q-13 26 8 51q24 21 52 10z" />
    <glyph glyph-name="eth" unicode="&#xf0;" horiz-adv-x="645" 
d="M963 893q9 0 18 -6q11 -11 4 -27q-6 -12 -22 -12h-228q-93 -216 -131 -299l-43 -100l-37 -84q-24 -58 -45 -132q-10 -42 -10 -75t10 -43q4 -4 9 -6t11 -0.5t11 2.5t11.5 5.5t10.5 7.5t11 9t9.5 8t8.5 9l6 6q43 38 109 116l74 90q12 14 28.5 6t12.5 -26q0 -2 -27 -35
q-62 -76 -113 -133q-2 -2 -9.5 -10.5t-10.5 -11t-10 -10t-10.5 -11t-10.5 -10t-11 -10t-10.5 -9t-12 -9t-11.5 -8t-12 -7.5q-64 -35 -101 10q-16 20 -19 51.5t1 52.5t12 54q-11 -17 -28 -37q-65 -75 -136 -111q-96 -51 -159 -18q-40 19 -53 62t-5.5 84t25.5 81
q40 83 119 166q63 67 133 105q96 56 190 53q13 0 33 -4q9 -2 14 -7.5t5 -12.5t-3 -13.5t-10 -10t-16 -1.5q-1 0 -4.5 1t-5.5 1q-81 9 -164 -37q-69 -34 -127 -92q-83 -87 -121 -166q-36 -75 -21 -127q7 -32 33 -41q28 -13 80 2q127 44 234 227q71 119 157 318l78 180h-221
q-20 0 -23 2q-14 7 -14 20q0 16 14 23h262l27 63l37 88q1 3 5 14t7 17.5t9.5 16.5t12 10.5t15.5 -0.5q22 -11 12 -31l-73 -178h209z" />
    <glyph glyph-name="ntilde" unicode="&#xf1;" horiz-adv-x="868" 
d="M979 367q9 11 23.5 7.5t17.5 -16.5q1 -5 -0.5 -9.5t-5 -9.5t-4.5 -7q-4 -9 -27 -37q-74 -93 -98 -117q-81 -81 -137 -100q-32 -14 -68.5 -5t-44.5 44q-7 26 4 67q5 25 31 88q40 95 73 179q19 47 23 73q5 34 -4 45q-14 14 -51 4q-20 -2 -47 -18q-89 -47 -189 -184
q-77 -105 -141 -219q-28 -54 -41 -70q-5 -8 -15.5 -12t-19.5 0q-8 3 -11 11t1 17l16 37q73 146 101 211q38 97 45 129q6 24 6 51q5 27 -13 39q-15 7 -41 -6q-26 -17 -53 -41q-61 -56 -127 -135l-30 -41q-17 -21 -31 -14q-10 3 -14 13t2 17q1 3 2.5 5.5t3 5.5t2.5 4l61 78
q51 58 92 94q52 48 97 63q30 9 56.5 -3.5t35.5 -43.5q7 -30 0 -76q-7 -37 -29 -98q38 51 74 92q78 86 141 119q93 48 143 8q42 -34 11 -139q-9 -30 -21.5 -60t-31 -70.5t-25.5 -57.5q-1 -4 -13.5 -34.5t-17.5 -47.5q-14 -42 -12 -62q1 -14 12 -18.5t27 0.5t27.5 9.5
t21.5 10.5q43 27 113 101q19 22 55.5 70.5t44.5 58.5zM797 791q8 -4 12 -21l-6 -14q-18 -24 -21 -27q-10 -18 -34 -35q-32 -18 -56 -10q-30 8 -45 41q-3 6 -20 63q-2 3 -5.5 12.5t-5.5 12.5q-8 12 -12 12h-10q-1 2 -6 -4l-17 -18q-12 -20 -18 -35q-5 -9 -6 -10q-6 -6 -15 -6
q-14 0 -20 12q-4 6 0 22q9 22 16 31q9 21 25 37q19 15 37 18q26 6 51 -16q19 -19 25 -43q5 -12 10.5 -32t7.5 -25q4 -15 14 -25q8 -8 23 2q12 7 37 37q3 7 6 8l2 6q2 5 4 7q16 8 27 0z" />
    <glyph glyph-name="ograve" unicode="&#xf2;" horiz-adv-x="591" 
d="M729 365q5 -4 7 -8.5t1.5 -9.5t-2 -9.5t-5.5 -9.5t-6 -8t-7 -8.5t-6 -6.5l-56 -55q-60 -53 -104 -66q-42 -11 -72 -6q-26 4 -37 8q-9 3 -18 9l-18 -19q-78 -82 -158 -100q-45 -9 -85 6t-61 53q-29 55 -14 144q26 144 143 268q34 34 66 59q3 2 10.5 8t14.5 9.5t12 3.5
q22 -3 22 -25q-1 -5 -2.5 -8.5t-4.5 -7t-5.5 -5.5t-7 -5.5t-6.5 -4.5q-21 -14 -33 -26q-32 -25 -61 -62q-57 -75 -80 -139q-29 -75 -27 -129q2 -43 26 -72.5t66 -23.5q80 10 162 100q-34 31 -46 81.5t-7 97t20 94.5q28 91 78 126q32 24 68.5 18.5t54.5 -40.5q42 -74 2 -188
q-29 -91 -98 -177q60 -22 125 19q40 26 69 59l43 45q18 27 37 11zM414 254q38 52 55 82q63 102 55 192q-5 49 -26 62q-24 11 -54 -19q-49 -52 -65 -155q-17 -110 35 -162zM424 829l39 -30l61 -49q5 -2 12.5 -8t8.5 -7l4 -4q8 -5 8 -18q0 -17 -14 -21q-15 -4 -23 4l-12 9
q-35 27 -55 45q-12 8 -52 38l-6 5q-5 5 -8 14q-3 14 10 24q13 7 27 -2z" />
    <glyph glyph-name="oacute" unicode="&#xf3;" horiz-adv-x="591" 
d="M729 365q5 -4 7 -8.5t1.5 -9.5t-2 -9.5t-5.5 -9.5t-6 -8t-7 -8.5t-6 -6.5l-56 -55q-60 -53 -104 -66q-42 -11 -72 -6q-26 4 -37 8q-9 3 -18 9l-18 -19q-78 -82 -158 -100q-45 -9 -85 6t-61 53q-29 55 -14 144q26 144 143 268q34 34 66 59q3 2 10.5 8t14.5 9.5t12 3.5
q22 -3 22 -25q-1 -5 -2.5 -8.5t-4.5 -7t-5.5 -5.5t-7 -5.5t-6.5 -4.5q-21 -14 -33 -26q-32 -25 -61 -62q-57 -75 -80 -139q-29 -75 -27 -129q2 -43 26 -72.5t66 -23.5q80 10 162 100q-34 31 -46 81.5t-7 97t20 94.5q28 91 78 126q32 24 68.5 18.5t54.5 -40.5q42 -74 2 -188
q-29 -91 -98 -177q60 -22 125 19q40 26 69 59l43 45q18 27 37 11zM414 254q38 52 55 82q63 102 55 192q-5 49 -26 62q-24 11 -54 -19q-49 -52 -65 -155q-17 -110 35 -162zM479 778l39 31q12 9 27 2q14 -10 10 -25q-3 -9 -8 -14l-6 -4q-5 -4 -15.5 -12t-19.5 -15t-17 -12
q-20 -18 -55 -45l-12 -8q-8 -8 -23 -4q-14 4 -14 20q0 14 8 19l4 4l21 14z" />
    <glyph glyph-name="ocircumflex" unicode="&#xf4;" horiz-adv-x="591" 
d="M729 365q5 -4 7 -8.5t1.5 -9.5t-2 -9.5t-5.5 -9.5t-6 -8t-7 -8.5t-6 -6.5l-56 -55q-60 -53 -104 -66q-42 -11 -72 -6q-26 4 -37 8q-9 3 -18 9l-18 -19q-78 -82 -158 -100q-45 -9 -85 6t-61 53q-29 55 -14 144q26 144 143 268q34 34 66 59q3 2 10.5 8t14.5 9.5t12 3.5
q22 -3 22 -25q-1 -5 -2.5 -8.5t-4.5 -7t-5.5 -5.5t-7 -5.5t-6.5 -4.5q-21 -14 -33 -26q-32 -25 -61 -62q-57 -75 -80 -139q-29 -75 -27 -129q2 -43 26 -72.5t66 -23.5q80 10 162 100q-34 31 -46 81.5t-7 97t20 94.5q28 91 78 126q32 24 68.5 18.5t54.5 -40.5q42 -74 2 -188
q-29 -91 -98 -177q60 -22 125 19q40 26 69 59l43 45q18 27 37 11zM414 254q38 52 55 82q63 102 55 192q-5 49 -26 62q-24 11 -54 -19q-49 -52 -65 -155q-17 -110 35 -162zM532 823q3 -2 3 -4q5 -8 16.5 -28t19.5 -31l29 -47q5 -11 2 -17q-4 -18 -20 -18q-14 0 -21 10l-4 8
q-3 5 -47 74l-4 8q-2 2 -2 4h-4q-4 -1 -10 -5.5t-7 -4.5q-29 -11 -45 -20q-21 -8 -32 -15l-9 -4q-18 0 -24 15q-8 16 6 26q0 1 3 2q2 1 3 2l21 10q15 6 69 33l23 10l8 5q16 3 26 -13z" />
    <glyph glyph-name="otilde" unicode="&#xf5;" horiz-adv-x="591" 
d="M729 365q5 -4 7 -8.5t1.5 -9.5t-2 -9.5t-5.5 -9.5t-6 -8t-7 -8.5t-6 -6.5l-56 -55q-60 -53 -104 -66q-42 -11 -72 -6q-26 4 -37 8q-9 3 -18 9l-18 -19q-78 -82 -158 -100q-45 -9 -85 6t-61 53q-29 55 -14 144q26 144 143 268q34 34 66 59q3 2 10.5 8t14.5 9.5t12 3.5
q22 -3 22 -25q-1 -5 -2.5 -8.5t-4.5 -7t-5.5 -5.5t-7 -5.5t-6.5 -4.5q-21 -14 -33 -26q-32 -25 -61 -62q-57 -75 -80 -139q-29 -75 -27 -129q2 -43 26 -72.5t66 -23.5q80 10 162 100q-34 31 -46 81.5t-7 97t20 94.5q28 91 78 126q32 24 68.5 18.5t54.5 -40.5q42 -74 2 -188
q-29 -91 -98 -177q60 -22 125 19q40 26 69 59l43 45q18 27 37 11zM414 254q38 52 55 82q63 102 55 192q-5 49 -26 62q-24 11 -54 -19q-49 -52 -65 -155q-17 -110 35 -162zM666 770q8 -4 12 -20l-6 -15q-15 -20 -21 -26q-10 -17 -35 -35q-32 -18 -55 -10q-30 8 -45 41
q-3 6 -20 63q-2 3 -5.5 12.5t-5.5 12.5q-8 12 -12 12h-10q-1 2 -6 -4l-17 -19q-13 -22 -18 -34q-5 -11 -6 -11q-6 -6 -15 -6q-14 0 -20 12q-4 6 0 23q9 22 16 31q9 21 25 37q19 15 37 18q26 6 51 -16q19 -19 25 -43q5 -12 10.5 -32t7.5 -26q3 -13 14 -24q8 -8 23 2
q12 7 37 37q3 7 6 8l6 12q16 8 27 0z" />
    <glyph glyph-name="odieresis" unicode="&#xf6;" horiz-adv-x="591" 
d="M729 365q5 -4 7 -8.5t1.5 -9.5t-2 -9.5t-5.5 -9.5t-6 -8t-7 -8.5t-6 -6.5l-56 -55q-60 -53 -104 -66q-42 -11 -72 -6q-26 4 -37 8q-9 3 -18 9l-18 -19q-78 -82 -158 -100q-45 -9 -85 6t-61 53q-29 55 -14 144q26 144 143 268q34 34 66 59q3 2 10.5 8t14.5 9.5t12 3.5
q22 -3 22 -25q-1 -5 -2.5 -8.5t-4.5 -7t-5.5 -5.5t-7 -5.5t-6.5 -4.5q-21 -14 -33 -26q-32 -25 -61 -62q-57 -75 -80 -139q-29 -75 -27 -129q2 -43 26 -72.5t66 -23.5q80 10 162 100q-34 31 -46 81.5t-7 97t20 94.5q28 91 78 126q32 24 68.5 18.5t54.5 -40.5q42 -74 2 -188
q-29 -91 -98 -177q60 -22 125 19q40 26 69 59l43 45q18 27 37 11zM414 254q38 52 55 82q63 102 55 192q-5 49 -26 62q-24 11 -54 -19q-49 -52 -65 -155q-17 -110 35 -162zM477 801q17 -7 24.5 -24.5t2.5 -35.5q-13 -27 -43 -30q-33 0 -43 28q-13 27 8 52q24 20 51 10z
M590 752q17 -7 24 -24.5t2 -35.5q-13 -27 -43 -30q-33 0 -43 28q-13 26 9 51q24 21 51 11z" />
    <glyph glyph-name="divide" unicode="&#xf7;" horiz-adv-x="743" 
d="M608 578q8 0 19 -7q10 -10 4 -26q-7 -13 -23 -13h-499q-19 0 -23 3q-14 7 -14 20q0 16 14 23h522zM358 459q17 -7 25 -25t2 -35q-5 -12 -17.5 -21t-25.5 -9q-32 0 -43 28q-13 27 8 52q24 20 51 10zM373 741q17 -7 24 -24t2 -35q-14 -28 -43 -31q-32 0 -43 29q-13 26 9 51
q24 20 51 10z" />
    <glyph glyph-name="oslash" unicode="&#xf8;" horiz-adv-x="591" 
d="M729 365q5 -4 7 -8.5t1.5 -9.5t-2 -9.5t-5.5 -9.5t-6 -8t-7 -8.5t-6 -6.5l-56 -55q-60 -53 -104 -66q-42 -11 -72 -6q-26 4 -37 8q-9 3 -18 9l-18 -19q-78 -82 -158 -100q-45 -9 -85 6t-61 53q-29 55 -14 144q26 144 143 268q34 34 66 59q3 2 10.5 8t14.5 9.5t12 3.5
q22 -3 22 -25q-1 -5 -2.5 -8.5t-4.5 -7t-5.5 -5.5t-7 -5.5t-6.5 -4.5q-21 -14 -33 -26q-32 -25 -61 -62q-57 -75 -80 -139q-24 -58 -27 -104l21 14q20 16 43 31l55 41l63 47l19 12q3 50 20 107q28 91 78 126q32 24 68.5 18.5t54.5 -40.5q42 -74 2 -188q-29 -91 -98 -177
q60 -22 125 19q40 26 69 59l43 45q18 27 37 11zM383 219q-42 37 -53 113l-25 -21q-38 -27 -61 -45l-51 -35l-33 -24q-18 -12 -19 -12h-10q7 -37 30 -59.5t60 -16.5q80 10 162 100zM414 254q38 52 55 82q42 65 53 131l-12 -8q-24 -15 -45 -33l-57 -39l-33 -27q0 -70 39 -106z
M510 516l14 6v6q-5 49 -26 62q-24 11 -54 -19q-49 -49 -65 -149l33 22l51 37l37 27z" />
    <glyph glyph-name="ugrave" unicode="&#xf9;" horiz-adv-x="712" 
d="M817 362q9 9 21 8t18 -12q7 -13 -6 -30q-36 -42 -39 -45q-59 -65 -111 -115q-58 -58 -108 -86q-87 -45 -117 6q-17 31 0 102q15 63 64 175q-107 -152 -203 -236q-70 -59 -127 -66q-32 -3 -56 13t-30 47q-7 43 18 119q14 46 70 178l-49 -64q-2 -2 -6.5 -7.5t-7 -9t-7.5 -8
t-9 -6t-9.5 -1t-11.5 3.5q-25 16 8 49l41 51q78 100 125 166q1 2 5 9t7 11q6 6 15.5 6t17.5 -6q12 -12 0 -32q-8 -19 -21.5 -53t-25.5 -62.5t-23 -52.5q-44 -92 -67 -164q-18 -50 -21 -72q-7 -28 -2 -49q9 -36 72 -8q42 19 84 61q79 73 178 215q85 126 133 211q11 19 25 19
q18 0 22 -19q1 -4 0 -8t-3 -10t-3 -8q-21 -46 -39 -93q-12 -31 -42.5 -104t-45.5 -113q-36 -97 -39 -131q-6 -24 4 -32q9 -5 29 2l22 10q42 24 119 96q74 74 131 145zM426 805l39 -31l61 -49q4 -2 7.5 -4.5t7.5 -5.5t6 -4l4 -4q8 -5 8 -19q0 -16 -14 -20q-15 -4 -23 4l-12 8
q-35 27 -55 45q-8 5 -17 12t-19.5 15t-15.5 12l-6 4q-5 5 -8 14q-4 15 10 25q13 7 27 -2z" />
    <glyph glyph-name="uacute" unicode="&#xfa;" horiz-adv-x="712" 
d="M817 362q9 9 21 8t18 -12q7 -13 -6 -30q-36 -42 -39 -45q-59 -65 -111 -115q-58 -58 -108 -86q-87 -45 -117 6q-17 31 0 102q15 63 64 175q-107 -152 -203 -236q-70 -59 -127 -66q-32 -3 -56 13t-30 47q-7 43 18 119q14 46 70 178l-49 -64q-2 -2 -6.5 -7.5t-7 -9t-7.5 -8
t-9 -6t-9.5 -1t-11.5 3.5q-25 16 8 49l41 51q78 100 125 166q1 2 5 9t7 11q6 6 15.5 6t17.5 -6q12 -12 0 -32q-8 -19 -21.5 -53t-25.5 -62.5t-23 -52.5q-44 -92 -67 -164q-18 -50 -21 -72q-7 -28 -2 -49q9 -36 72 -8q42 19 84 61q79 73 178 215q85 126 133 211q11 19 25 19
q18 0 22 -19q1 -4 0 -8t-3 -10t-3 -8q-21 -46 -39 -93q-12 -31 -42.5 -104t-45.5 -113q-36 -97 -39 -131q-6 -24 4 -32q9 -5 29 2l22 10q42 24 119 96q74 74 131 145zM496 778l39 31q12 9 26 2q14 -10 10 -25q-3 -9 -8 -14l-6 -4q-4 -3 -22 -17.5t-29 -21.5q-20 -18 -55 -45
l-13 -8q-8 -8 -22 -4q-15 4 -15 20q0 13 9 19l4 4q1 1 8 6.5t12 7.5z" />
    <glyph glyph-name="ucircumflex" unicode="&#xfb;" horiz-adv-x="712" 
d="M817 362q9 9 21 8t18 -12q7 -13 -6 -30q-36 -42 -39 -45q-59 -65 -111 -115q-58 -58 -108 -86q-87 -45 -117 6q-17 31 0 102q15 63 64 175q-107 -152 -203 -236q-70 -59 -127 -66q-32 -3 -56 13t-30 47q-7 43 18 119q14 46 70 178l-49 -64q-2 -2 -6.5 -7.5t-7 -9t-7.5 -8
t-9 -6t-9.5 -1t-11.5 3.5q-25 16 8 49l41 51q78 100 125 166q1 2 5 9t7 11q6 6 15.5 6t17.5 -6q12 -12 0 -32q-8 -19 -21.5 -53t-25.5 -62.5t-23 -52.5q-44 -92 -67 -164q-18 -50 -21 -72q-7 -28 -2 -49q9 -36 72 -8q42 19 84 61q79 73 178 215q85 126 133 211q11 19 25 19
q18 0 22 -19q1 -4 0 -8t-3 -10t-3 -8q-21 -46 -39 -93q-12 -31 -42.5 -104t-45.5 -113q-36 -97 -39 -131q-6 -24 4 -32q9 -5 29 2l22 10q42 24 119 96q74 74 131 145zM532 836q3 -3 3 -5q5 -8 16.5 -28t19.5 -31l29 -47q5 -10 2 -16q-4 -19 -20 -19q-14 0 -21 10q-4 8 -4 9
q-6 11 -14 23t-17.5 26.5t-15.5 23.5l-4 9q-2 2 -2 4h-4q-3 -1 -9.5 -5.5t-7.5 -5.5q-29 -11 -45 -20q-26 -10 -32 -14l-9 -5q-18 0 -24 15q-8 16 6 26q0 1 3 3q1 1 1.5 1t1.5 1l21 10q15 6 69 33l23 10l8 4q17 3 26 -12z" />
    <glyph glyph-name="udieresis" unicode="&#xfc;" horiz-adv-x="712" 
d="M817 362q9 9 21 8t18 -12q7 -13 -6 -30q-36 -42 -39 -45q-59 -65 -111 -115q-58 -58 -108 -86q-87 -45 -117 6q-17 31 0 102q15 63 64 175q-107 -152 -203 -236q-70 -59 -127 -66q-32 -3 -56 13t-30 47q-7 43 18 119q14 46 70 178l-49 -64q-2 -2 -6.5 -7.5t-7 -9t-7.5 -8
t-9 -6t-9.5 -1t-11.5 3.5q-25 16 8 49l41 51q78 100 125 166q1 2 5 9t7 11q6 6 15.5 6t17.5 -6q12 -12 0 -32q-8 -19 -21.5 -53t-25.5 -62.5t-23 -52.5q-44 -92 -67 -164q-18 -50 -21 -72q-7 -28 -2 -49q9 -36 72 -8q42 19 84 61q79 73 178 215q85 126 133 211q11 19 25 19
q18 0 22 -19q1 -4 0 -8t-3 -10t-3 -8q-21 -46 -39 -93q-12 -31 -42.5 -104t-45.5 -113q-36 -97 -39 -131q-6 -24 4 -32q9 -5 29 2l22 10q42 24 119 96q74 74 131 145zM473 809q17 -7 24.5 -24t2.5 -35q-14 -28 -43 -31q-32 0 -43 29q-13 26 8 51q24 20 51 10zM586 760
q17 -7 24 -24.5t2 -35.5q-13 -27 -43 -30q-33 0 -43 28q-13 26 9 52q24 20 51 10z" />
    <glyph glyph-name="yacute" unicode="&#xfd;" horiz-adv-x="780" 
d="M889 362q8 9 19.5 8t17.5 -10q9 -14 -15 -43l-75 -86q-91 -94 -168 -161l-41 -37q-7 -6 -23 -43q-3 -11 -16 -41q-2 -7 -29 -74q-62 -148 -76 -176q-43 -87 -84 -131q-58 -65 -123 -68q-42 -3 -69 26t-27 73q2 89 109 204q55 59 151 134l84 67l41 37q16 11 17 14l6 15
q91 226 125 307q-114 -157 -207 -236q-63 -55 -119 -65q-37 -7 -61 14q-23 17 -23 53q-2 26 10 80l33 99q47 116 57 178q9 39 0 57q-11 21 -41 8q-8 -4 -16.5 -10t-18 -14.5t-14.5 -12.5q-6 -7 -26 -27.5t-29 -31.5l-82 -96l-31 -37q-9 -12 -24.5 -11t-18.5 17
q-1 6 0.5 11.5t4 9t8 9t6.5 7.5l33 39q8 9 33.5 39t42 49t34.5 37q21 21 32 31t31.5 23t39.5 17q31 6 57 -10q29 -23 29 -63q1 -13 0.5 -26t-4 -28t-5.5 -25.5t-7.5 -28.5t-8 -25t-10 -27.5t-8.5 -24.5q-49 -121 -60 -176q-5 -41 2 -53q8 -10 39 -4q32 10 86 53
q85 76 201 232q53 73 90 131q12 20 20 30q13 21 25 21q13 1 19.5 -10.5t1.5 -24.5l-175 -432q133 123 230 239zM516 -109q4 11 8.5 23t11 26t9.5 23q-17 -14 -50.5 -40t-54 -43t-48.5 -41t-50 -46q-68 -68 -98 -135q-28 -63 -11 -94q18 -33 70 -10q27 8 51 32q44 42 82 123
q25 47 80 182zM610 737l39 31q12 9 27 2q14 -10 10 -25q-3 -9 -8 -14l-6 -4q-3 -3 -21.5 -17.5t-29.5 -21.5q-13 -12 -56 -45l-12 -8q-8 -8 -23 -4q-14 3 -14 20q0 14 8 19l4 4q2 1 6 4t7.5 5.5t7.5 4.5z" />
    <glyph glyph-name="thorn" unicode="&#xfe;" horiz-adv-x="671" 
d="M778 365l4 2q14 10 27 0q15 -11 8 -25l-6 -12l-10 -11l-51 -55q-55 -59 -95 -94q-58 -51 -108 -74q-66 -27 -121 -35q-56 -9 -111 -6q-33 0 -82 11q-3 0 -7.5 1t-6.5 1q-12 4 -16 10q-11 11 -4 24q12 15 24 13q7 0 15 -4q3 0 18 -5h27q19 -2 45 5q42 8 86 43q38 30 75 77
q38 55 62 101q25 52 43 104q7 20 14 53q8 40 8 64q0 22 -6 37l-6 8q-2 2 -8 2q-16 4 -49 -10q-29 -15 -66 -41l-78 -68q-41 -42 -79 -88q-52 -67 -76 -104l-35 -58l-16 -30q-6 -12 -9 -15l-2 -2v-2q-2 -2 -2 -4q0 -1 -1 -4t-1 -4q-12 -27 -26 -68l-6 -14q-3 -3 -3 -6
q-4 -8 -8 -10l-57 -140l-59 -135q-4 -10 -24.5 -56t-29.5 -71l-47 -106l-6 -13l-6 -10q-9 -9 -27 -6q-12 6 -12 23q0 4 4 12q0 6 4 10l43 98l49 115l54 125l55 129q7 17 24.5 59t26.5 66q27 61 57 139l56 138q-2 -1 -5 -5l-3 -4l-86 -98q-16 -16 -23 -16q-17 -3 -25 12
q-7 13 4 24l23 27l49 57l60 66q1 1 47 53l6 8l4 5v2q2 0 2 4l31 73l57 131q27 65 51 115l43 96l39 78q28 51 33 58q33 52 63 75q39 31 80 25q20 -6 37 -23q21 -21 21 -51q3 -32 -9 -59l-14 -35q-15 -33 -53 -92q-29 -46 -76 -111q-42 -55 -82 -100l-22 -27q-7 -7 -15 -16
t-17.5 -20t-14.5 -17l-54 -61l-39 -45l-8 -11q-2 0 -2 -2l-10 -10l-2 -4q-40 -98 -60 -145l31 34q58 70 96 103q52 45 97 71q52 29 82 31q41 7 61 -18q13 -16 16 -35q5 -22 5 -53q-3 -55 -27 -123q-17 -57 -49 -117q-33 -60 -70 -106q-44 -55 -86 -84q74 14 127 45
q55 38 102 84q59 59 78 81q26 26 41 46zM600 1126l-14 -22l-37 -68l-43 -92l-53 -115l-62 -141l51 60l62 69q51 61 88 117q35 47 67 102q32 57 39 76q12 27 9 47q-4 18 -13 25q-6 6 -14 6q-18 0 -35 -14q-21 -14 -45 -50z" />
    <glyph glyph-name="ydieresis" unicode="&#xff;" horiz-adv-x="780" 
d="M889 362q8 9 19.5 8t17.5 -10q9 -14 -15 -43l-75 -86q-91 -94 -168 -161l-41 -37q-7 -6 -23 -43q-3 -11 -16 -41q-2 -7 -29 -74q-62 -148 -76 -176q-43 -87 -84 -131q-58 -65 -123 -68q-42 -3 -69 26t-27 73q2 89 109 204q55 59 151 134l84 67l41 37q16 11 17 14l6 15
q91 226 125 307q-114 -157 -207 -236q-63 -55 -119 -65q-37 -7 -61 14q-23 17 -23 53q-2 26 10 80l33 99q47 116 57 178q9 39 0 57q-11 21 -41 8q-8 -4 -16.5 -10t-18 -14.5t-14.5 -12.5q-6 -7 -26 -27.5t-29 -31.5l-82 -96l-31 -37q-9 -12 -24.5 -11t-18.5 17
q-1 6 0.5 11.5t4 9t8 9t6.5 7.5l33 39q8 9 33.5 39t42 49t34.5 37q21 21 32 31t31.5 23t39.5 17q31 6 57 -10q29 -23 29 -63q1 -13 0.5 -26t-4 -28t-5.5 -25.5t-7.5 -28.5t-8 -25t-10 -27.5t-8.5 -24.5q-49 -121 -60 -176q-5 -41 2 -53q8 -10 39 -4q32 10 86 53
q85 76 201 232q53 73 90 131q12 20 20 30q13 21 25 21q13 1 19.5 -10.5t1.5 -24.5l-175 -432q133 123 230 239zM516 -109q4 11 8.5 23t11 26t9.5 23q-17 -14 -50.5 -40t-54 -43t-48.5 -41t-50 -46q-68 -68 -98 -135q-28 -63 -11 -94q18 -33 70 -10q27 8 51 32q44 42 82 123
q25 47 80 182zM592 756q17 -7 24 -24.5t2 -35.5q-13 -27 -43 -30q-33 0 -43 28q-13 26 9 51q24 21 51 11zM705 707q17 -7 24 -24.5t2 -35.5q-14 -28 -43 -31q-32 0 -43 29q-13 26 8 51q25 21 52 11z" />
    <glyph glyph-name="dotlessi" unicode="&#x131;" horiz-adv-x="352" 
d="M492 365q15 -13 -5 -43l-36 -41q-70 -82 -109 -121q-57 -57 -94 -78q-56 -31 -86 -16q-27 13 -31 55q-6 46 23 131q35 95 77 184l-92 -108q-10 -12 -23.5 -10t-17.5 13.5t6 26.5l31 37l139 160l45 53q12 16 25 13q11 -3 15.5 -12.5t0.5 -18.5q0 -2 -12 -25
q-76 -139 -127 -266q-30 -72 -41 -119q-7 -27 -4 -49q0 -25 8 -25q8 -2 33 11q23 13 49 35q33 29 90 90q40 44 78 90q2 2 7 8.5t8.5 10.5t9.5 9.5t10.5 7.5t11 1.5t11.5 -4.5z" />
    <glyph glyph-name="Lslash" unicode="&#x141;" horiz-adv-x="1110" 
d="M946 739q10 3 21 0q14 -3 14 -22q-4 -16 -16 -21h-4l-27 -12l-51 -22l-64 -29l-102 -45q-96 -233 -168 -340q82 -52 149 -90q103 -56 187 -56q82 3 151 62q44 35 131 139l52 59q13 17 30 4.5t6 -30.5q-3 -6 -10.5 -14.5t-9.5 -10.5l-76 -90q-72 -79 -119 -112
q-71 -49 -149 -52q-33 -1 -68 5.5t-58.5 13.5t-64.5 28.5t-54.5 29.5t-60.5 37.5t-53 33.5q-1 1 -4 3t-4 2t-4 -1l-8 -10l-14 -19l-33 -35q-34 -34 -70 -57q-87 -54 -180 -51q-90 0 -135 65q-25 35 -28 79.5t16 84.5q26 51 79.5 75t109.5 22t110 -21q35 -11 94 -41l47 -27
q3 -1 6 5l6 8l12 20q40 64 91 174l32 80q-6 -4 -14 -7l-8 -3l-76 -33l-68 -31l-57 -24l-37 -17q-16 -8 -22 -8q-15 4 -21 15q-6 12 4 26q7 0 11 4l26 13l49 20l64 29l72 30l102 46q7 19 43 114.5t57 147.5q-173 -27 -315 0q-91 18 -148 57q-38 27 -51 59q-17 39 -2 56
q6 7 17 7t18 -7q5 -6 6 -19.5t2 -17.5q13 -29 55 -51q49 -27 146 -43q90 -14 199 -4l55 6l26 4q2 0 6.5 1t6.5 1l6 12q13 35 43 92q43 90 94 152.5t125 87.5q84 27 131 -12q25 -20 30.5 -56t-5.5 -65q-44 -133 -262 -215q-59 -21 -101 -31l-28 -6l-9 -25q-7 -12 -20 -47
l-66 -174l25 12q50 24 70 31l59 27q21 10 41 18zM332 109q73 30 151 127q-50 30 -80 43q-104 49 -188 36q-39 -6 -70.5 -28.5t-42.5 -57.5q-12 -40 4 -79t54 -56q69 -31 172 15zM1051 1219q-52 -28 -105 -103q-37 -56 -90 -172q108 27 180 68q83 44 123 100q42 68 19 107
q-28 48 -127 0z" />
    <glyph glyph-name="lslash" unicode="&#x142;" horiz-adv-x="405" 
d="M770 1073q10 3 21 0q14 -3 14 -22q-4 -16 -17 -21h-4l-26 -12l-51 -23l-64 -28l-29 -13q-66 -99 -122 -174q-87 -118 -207 -272q-9 -9 -15 -21l-8 -24l-18 -49q-22 -61 -31 -95q-13 -43 -18 -79q-8 -60 6 -93q6 -15 16.5 -22t24 -4.5t27.5 8.5t31.5 19t31 24t30.5 28.5
t26 27t22 23.5t14 15l63 70q1 1 9.5 12t13.5 15.5t13.5 11t15.5 5.5t14 -9q11 -16 -6 -37q-34 -40 -35 -41l-68 -72q-60 -66 -112 -106q-59 -41 -96 -39q-44 0 -66.5 33.5t-24.5 80.5v21.5t2 23t3 20.5t5 23t5 20.5t6.5 23t6 20.5t7 22.5t6.5 20.5q-16 -18 -39 -49
q-9 -12 -24 -11t-19 17q-2 6 1.5 14.5t8.5 14.5t13.5 15t9.5 11l49 64q5 5 11 12t13 15.5t11 13.5q1 2 5 6t6.5 8t3.5 8q2 3 5 11.5t5 11.5q24 66 57 143q27 76 62 154q-34 -17 -52 -23l-57 -24l-37 -17q-16 -8 -22 -8q-16 4 -21 14q-6 13 4 27q6 0 10 4l27 12l49 21l64 29
q45 18 61 26q0 2 2 4q40 86 72 148q47 88 80 125q28 33 61.5 51.5t65.5 1.5q32 -16 36.5 -59t-10.5 -72q-8 -23 -41 -82l60 27q21 10 41 18zM649 1104q26 60 6 86q-7 9 -26 4q-42 -17 -86 -94q-34 -50 -64 -119l-24 -49q19 8 67.5 29t59.5 26q36 53 67 117zM522 901l13 17
l-78 -33l-31 -15q-28 -66 -29 -67l-61 -154q142 189 186 252z" />
    <glyph glyph-name="OE" unicode="&#x152;" horiz-adv-x="1581" 
d="M1081 1116q22 3 26.5 -20.5t-1.5 -38.5q-6 -25 -29 -68q-46 -70 -116 -121q-22 -15 -39 -22l-19 -8q-6 -4 -8 -13l-18 -73q-39 -154 -113 -308q-84 -162 -184 -264q-130 -130 -265 -143q-95 -7 -155 45q-48 40 -78 108q-49 128 -19 326q32 190 136 389q80 152 182 244
q150 138 299 125q36 0 45 -14q5 -9 2 -20t-12 -15q-8 -3 -21 2q-3 0 -8.5 1t-7.5 1q-50 5 -119 -21q-208 -79 -348 -383q-94 -207 -109 -368q-17 -146 23 -248q14 -39 45 -74q53 -59 137 -53q133 10 258 151q98 103 176 277q70 148 105 311q-101 -12 -166 72q-56 73 -27 182
q26 97 95 135q60 31 106 -6q40 -30 55 -108q14 -81 -4 -205q76 40 125 115q20 26 29 57q2 5 2.5 19.5t4.5 23t15 10.5zM856 872q17 106 12 187q-10 100 -53 117q-35 13 -65.5 -19.5t-44.5 -73.5q-35 -96 10 -157q51 -76 141 -54zM1688 362q11 14 26.5 7.5t14.5 -23.5
q-1 -8 -17 -29l-22 -26q-44 -52 -99 -98q-115 -97 -231 -148q-158 -69 -301 -55q-92 10 -150 55q-63 48 -86 135q-22 88 10 176.5t101 157.5q114 120 305 172q-68 106 -65 236q2 90 38.5 167t108.5 119q73 42 168 35t149 -53q33 -29 41 -64q8 -24 -4 -34q-19 -15 -33 2
q-4 4 -6.5 16t-5.5 16q-7 17 -22 29q-32 26 -74 35q-89 24 -164 -10q-76 -29 -119 -117q-38 -80 -31.5 -176t54.5 -172q11 -17 16 -17q16 4 25 4q4 1 45 7q47 0 76 -7q72 -13 77 -63q4 -28 -18 -44t-50 -17t-52 0q-51 10 -84 36q-18 10 -37 33l-45 -12q-182 -55 -289 -182
q-63 -80 -74 -160q-17 -108 45 -182q74 -94 244 -74q139 17 274 96q157 90 261 229zM1466 637q-8 16 -39 20q-44 11 -102 0q42 -33 98 -36q29 0 42 9q4 3 1 7z" />
    <glyph glyph-name="oe" unicode="&#x153;" horiz-adv-x="1028" 
d="M1167 367q17 -15 -10 -52l-49 -55q-47 -50 -90 -88q-136 -114 -242 -102q-72 10 -98 69q-21 50 -10 123l-13 -12q-60 -53 -104 -66q-42 -11 -72 -6q-26 4 -37 8q-9 3 -18 9l-18 -19q-78 -82 -158 -100q-45 -9 -85 6t-61 53q-29 55 -14 144q26 144 143 268q34 34 66 59
q3 2 10.5 8t14.5 9.5t12 3.5q22 -3 22 -25q-1 -5 -2.5 -8.5t-4.5 -7t-5.5 -5.5t-7 -5.5t-6.5 -4.5q-21 -14 -33 -26q-32 -25 -61 -62q-57 -75 -80 -139q-29 -75 -27 -129q2 -43 26 -72.5t66 -23.5q80 10 162 100q-34 31 -46 81.5t-7 97t20 94.5q28 91 78 126
q32 24 68.5 18.5t54.5 -40.5q42 -74 2 -188q-29 -91 -98 -177q60 -22 125 19q40 26 69 59l43 45q0 2 2 2q43 118 140 209q59 56 114 66q39 7 73.5 -6t45.5 -47q24 -87 -102 -175q-61 -38 -148 -65q-14 -5 -49 -14l-25 -7q-2 0 -6 -1t-6 -1q-1 0 -2 -4t-2 -4
q-16 -53 -16 -102q4 -48 22 -68q23 -20 51 -20q46 -5 113 26q63 36 131 101q18 17 70 73l37 45q15 19 32 5zM414 254q38 52 55 82q63 102 55 192q-5 49 -26 62q-24 11 -54 -19q-49 -52 -65 -155q-17 -110 35 -162zM963 586q-54 -5 -117 -72q-53 -59 -94 -145q165 39 237 116
q30 30 35 60q3 25 -15.5 34.5t-45.5 6.5z" />
    <glyph glyph-name="Scaron" unicode="&#x160;" horiz-adv-x="942" 
d="M1051 362q6 8 17 9t17 -6q14 -16 -8 -43q-56 -71 -139 -119q-32 -18 -78 -35l-41 -12q-4 -2 -8 -6.5t-8.5 -12t-7.5 -10.5q-81 -96 -244 -125q-70 -10 -123 -2q-84 14 -84 70q0 36 27.5 57.5t66.5 28.5q27 5 57.5 7.5t70 4t57.5 2.5q53 3 106 12l31 6q22 5 24 9
q10 17 21 47q26 80 -10 186q-27 75 -103.5 202.5t-101.5 184.5l-168 -256l-238 -364l-88 -134q-7 -14 -20 -14q-15 -1 -22 12t1 25l27 39l203 309q28 42 93 143.5t101 155.5l60 88l28 45q3 4 -4 25q-4 9 -8 27q-29 111 18 204q40 83 101 127q57 40 104 27q46 -14 49 -59
q6 -40 -22 -87q-8 -14 -25.5 -37.5t-23.5 -33.5l-56 -78l-59 -88l-18 -27q-1 -4 -0.5 -6.5t3 -7.5t3.5 -8l20 -43q25 -50 109 -193q24 -42 40.5 -73.5t34 -76t24.5 -81.5t4.5 -80.5t-17.5 -83.5q129 45 207 149zM590 997q0 -41 12 -79q4 8 16 24q82 122 113 164q4 6 16 21
t19.5 27t11.5 24q14 53 -20 55q-43 5 -96 -57q-72 -86 -72 -179zM399 57q21 -14 66 -14q39 -3 90 8q119 25 186 86q-59 -9 -233 -18q-59 -4 -88 -17q-16 -6 -26 -19.5t5 -25.5zM903 1421q8 3 17 -1t12 -13q4 -19 -10 -25q-2 -4 -9 -4q-4 -2 -11.5 -4t-10.5 -4
q-33 -5 -74 -18q-23 -5 -26 -6h-7q-7 -1 -13.5 2.5t-8.5 9.5q-4 9 -9.5 25t-7.5 22l-28 68q0 3 -2 9.5t-2 10.5q2 12 18 20q13 3 25 -10q0 -2 1 -4.5t1 -3.5t3 -7t3 -9l18 -43l15 -39l2 -2q1 1 2.5 1t1.5 1q2 0 5.5 1t4.5 1q4 2 12 4t11 4z" />
    <glyph glyph-name="scaron" unicode="&#x161;" horiz-adv-x="497" 
d="M602 360q13 19 32 6t7 -32q-3 -3 -20.5 -26.5t-28.5 -35.5q-60 -69 -125 -118q-171 -133 -326 -97q-81 17 -151 84q-27 22 -29 35q0 9 6 17t15 8q6 1 11.5 -2t8.5 -6t8.5 -9t7.5 -8q17 -17 35 -29q39 -27 76 -38q17 -7 43 -11t39 -2q53 12 74 72q18 51 18 145q0 22 -3 92
t-1 109q-62 -75 -125 -143l-37 -39q-5 -6 -13.5 -7t-14.5 5q-6 4 -8.5 9t-1.5 10.5t3.5 10t7.5 10.5t8.5 9.5t9 8.5t7.5 7q32 35 184 215l25 29q13 15 30 3.5t9 -28.5q-3 -7 -13 -17t-12 -17q-10 -25 -14 -82q-1 -34 2 -102.5t2 -102.5q0 -116 -35 -174q89 34 174 112
q67 61 115 129zM526 805q8 3 17 -1t12 -13q4 -19 -10 -25q-2 -4 -8 -4q-4 -2 -12 -4t-11 -4q-27 -4 -74 -19q-23 -5 -26 -6h-6q-7 -1 -14 2.5t-9 9.5q-4 9 -9 25t-7 22l-29 68q0 3 -2 10t-2 11q2 12 18 20q12 3 25 -10q0 -2 1 -4.5t1 -3.5t3 -7t3 -10l19 -43l14 -39l2 -2
q1 1 2.5 1t1.5 1q2 0 5.5 1t4.5 1q4 2 12 4.5t11 4.5z" />
    <glyph glyph-name="Ydieresis" unicode="&#x178;" horiz-adv-x="864" 
d="M1120 1202q25 -9 6 -47l-20 -49l-21 -47q-24 -57 -63.5 -155t-73.5 -179.5t-65 -153.5q-147 -337 -271 -551l13 7q122 81 268 241l49 58l21 24q2 2 7 8t8.5 9t8.5 4q11 2 19 -5.5t8 -17.5q0 -5 -2 -9.5t-7 -10t-6 -6.5q-24 -32 -45 -52q-136 -157 -256 -247
q-50 -36 -77 -52l-52 -28q-4 -2 -7.5 -10t-4.5 -9l-12 -20q-65 -110 -107 -172q-71 -102 -119 -152q-73 -81 -145 -90q-41 -5 -75 13.5t-44 56.5q-17 67 54 155q41 51 129 101q26 16 56.5 33t69 36.5t58.5 30.5l98 51q12 7 17 17l12 18l47 80q58 101 149 295
q103 227 160 364q-136 -224 -243 -358q-98 -124 -179 -197q-111 -103 -196 -125q-48 -13 -92 -2q-30 9 -48.5 33.5t-23.5 57.5q-5 44 10 112q20 82 57 170q23 57 73 176.5t87.5 213t67.5 179.5q28 74 43 132q11 37 -15 53q-15 9 -57 14q-83 3 -172 -39q-46 -18 -70 -49
q-12 -12 -12 -25q0 -21 -20 -24q-21 -3 -24.5 17t3.5 34q11 25 47 57q69 51 168 68q97 20 154 -8q30 -19 41 -43q11 -26 0 -74q-32 -113 -111 -307q-8 -21 -123 -301q-74 -178 -92 -258q-10 -42 -10 -74q0 -41 16 -57q31 -31 103 -8q49 17 114 67q53 41 125 117
q116 124 244 319q124 190 207 346q41 71 76 146q9 15 26 59q1 3 4.5 11t5.5 12t7 10.5t10 6t14 -0.5zM248 -426q63 58 125 143q33 48 114 181q-160 -84 -190 -101q-104 -59 -141 -100q-37 -37 -50 -74q-17 -50 7 -74q19 -18 45 -15.5t49 13.5t41 27zM752 1423q17 -7 24 -24
t2 -35q-14 -28 -43 -31q-32 0 -43 29q-13 26 8 51q24 21 52 10zM864 1374q17 -7 24.5 -24t2.5 -35q-14 -28 -43 -31q-32 0 -43 29q-13 26 8 51q24 20 51 10z" />
    <glyph glyph-name="Zcaron" unicode="&#x17d;" horiz-adv-x="876" 
d="M1016 367q7 -5 8 -11.5t-2.5 -14t-7 -13t-10.5 -13t-9 -10.5l-49 -57q-41 -47 -96 -98q-57 -54 -129 -107q-38 -27 -62 -41l-16 -12l-8 -4q0 -2 -1 -6.5t-1 -6.5q-3 -13 -17 -45q-70 -167 -186 -274q-59 -56 -135 -103q-95 -55 -154 -59q-46 0 -69 23q-36 36 -4 106
q31 68 110 133q58 51 176 123q30 19 90.5 51.5t87.5 48.5l50 29l10 6q6 4 6 13l6 24q9 51 -2 98q-8 39 -39 82q-18 22 -35 33q-8 8 -20 14q-8 4 -10 3l-11 -7q-107 -49 -202 -57q-120 -11 -138 49q-9 34 20.5 59.5t68.5 34.5q89 24 188 4q34 -9 47 -14l21 -8l10 -6l10 6
q39 22 74 47q155 111 248 264q47 72 79 164q40 106 27 193q-13 89 -86 137q-68 46 -168 39q-167 -10 -280 -111q-49 -49 -64 -82q-11 -19 -14 -35q-1 -4 -1 -12t-1 -14t-4 -10q-14 -21 -35 -7q-8 8 -8 25q0 19 6 37q9 36 45 84q77 101 223 147q210 66 338 -30q46 -35 71 -87
t26.5 -106.5t-9.5 -112.5q-41 -171 -166 -329q-113 -147 -266 -234q66 -50 88 -112q24 -63 14 -146q98 67 178 141l95 99l47 55q28 39 47 23zM246 -422q109 57 196 154q79 90 131 217q-24 -14 -85.5 -49t-92.5 -54q-114 -66 -176 -118q-76 -61 -104 -119q-6 -10 -11 -23
t-3.5 -27t14.5 -18q21 -5 49 2q24 5 82 35zM270 260q81 6 176 47q-72 22 -135 17q-44 0 -90 -19l-3 -3q-4 -2 -6.5 -3.5t-6.5 -4.5t-6 -5t-4.5 -5t-1.5 -5t2 -5q15 -19 75 -14zM997 1354q8 3 17 -1.5t12 -13.5q4 -19 -10 -24q-2 -4 -8 -4q-4 -2 -12 -4t-11 -4
q-27 -4 -74 -19q-23 -5 -26 -6h-6q-7 -1 -14 2.5t-9 9.5q-4 9 -9 25t-7 22l-29 68q0 3 -2 9.5t-2 10.5q3 13 18 21q13 2 25 -10q0 -2 1 -5t1 -4t3 -7t3 -9l19 -43l14 -39l2 -2q1 1 2.5 1t1.5 1q2 0 5.5 1t4.5 1q4 2 12 4t11 4z" />
    <glyph glyph-name="zcaron" unicode="&#x17e;" horiz-adv-x="624" 
d="M764 365q16 -16 -4 -39q-19 -22 -246 -265l-51 -51l-12 -10q-5 -10 -5 -12l-10 -21q-13 -35 -20 -47q-53 -123 -88 -186q-53 -101 -90 -150q-45 -64 -97 -90q-64 -33 -116 -10q-37 19 -46.5 61.5t5.5 79.5q30 80 114 160q37 37 154 123q53 37 86 61q15 10 45 35l20 16
q10 7 13 23q17 53 8 80q-3 11 -10 18l-6 9q-6 6 -9 2l-45 -29q-100 -63 -157 -45q-32 11 -37 35q-5 28 24 61q30 32 75.5 46.5t90.5 6.5q26 -7 49 -18q36 30 39 33q45 42 72 73q79 100 74 170q-1 46 -38 68t-85 20q-17 -1 -34.5 -5t-31.5 -8t-31.5 -14.5t-28 -17t-28.5 -22
t-25.5 -22t-26 -25.5t-23.5 -24.5t-24 -26.5t-22 -25l-26 -29q-21 -26 -31 -28q-19 -3 -24.5 13t4.5 28l32 36q4 4 27.5 30.5t31 33.5t28.5 29t33 31.5t31.5 25.5t37.5 26t37 19q87 34 163 14q42 -12 69.5 -44t31.5 -74q5 -76 -53 -164q-54 -79 -140 -148q39 -42 33 -98
l111 117l92 98l47 53q27 27 43 13zM63 -479q78 -7 160 125q60 88 152 293q-27 -20 -87 -61.5t-103.5 -75.5t-78.5 -72q-62 -65 -79 -121q-11 -26 -3.5 -55t39.5 -33zM215 121q19 -2 61 12q30 13 82 47q-50 14 -104 -12q-22 -8 -41 -31l-8 -10q-1 -4 2.5 -5t7.5 -1zM754 784
q8 3 16.5 -1t11.5 -13q4 -19 -10 -25q-2 -4 -8 -4q-4 -2 -12 -4t-11 -4q-31 -5 -73 -18q-25 -5 -27 -6h-6q-7 -1 -14 2.5t-9 9.5q-4 9 -9 25t-7 22l-29 68q0 3 -2 9.5t-2 10.5q3 13 19 21q11 2 24 -11q0 -2 1 -4.5t1 -3.5q0 -2 3 -7t3 -9l19 -43l14 -39l2 -2q1 1 2.5 1
t1.5 1q2 0 6 1t5 1q4 2 11.5 4t10.5 4z" />
    <glyph glyph-name="florin" unicode="&#x192;" horiz-adv-x="307" 
d="M582 1229q40 -19 47 -66t-13 -82q-21 -49 -61 -106q-84 -120 -221 -279l-64 -73l-32 -37q-8 -8 -23 -43l-53 -135l-109 -275q72 65 127 123l62 70q2 2 8 10.5t10 12.5t11.5 10.5t13 5t14.5 -4.5q17 -14 2 -36l-31 -37l-61 -66q-66 -69 -121 -119l-74 -65l-43 -103
q-54 -127 -77 -176q-45 -92 -72 -135q-31 -56 -62 -90q-47 -50 -96 -45q-42 5 -58 44.5t-9 82.5q10 81 81 166q46 57 144 147l80 72l41 37q2 2 12.5 9.5t16 13.5t8.5 12l81 209l80 200q-15 -16 -64 -68.5t-77 -80.5q-3 -3 -7 -5t-7.5 -2t-7.5 1.5t-7 3.5t-5.5 5t-3.5 6.5
t-1 7.5t1.5 8t4.5 8l15 14q15 15 30 31t33.5 36t28.5 31l67 74l39 43q9 7 15 22q7 15 10 25l80 195q88 214 114 266q33 64 81 107.5t102 19.5zM-299 -457q18 9 49 49q30 44 55 95q58 110 132 282q-172 -151 -238 -237q-49 -62 -57 -125q-4 -41 8 -60q17 -25 51 -4zM575 1102
q22 50 -2 76q-27 29 -77 -15q-37 -37 -76 -125q-49 -109 -139 -331q124 142 182 219q86 115 112 176z" />
    <glyph glyph-name="circumflex" unicode="&#x2c6;" horiz-adv-x="417" 
d="M266 1460q2 -2 2 -4q5 -8 17 -28t20 -31l29 -47q5 -10 2 -17q-4 -18 -21 -18q-13 0 -20 10l-4 8q-3 5 -47 74l-4 8q-2 2 -2 4h-5q-3 -1 -9 -5t-7 -5q-29 -11 -45 -20q-24 -10 -33 -15l-8 -4q-19 0 -25 14q-8 16 7 27q0 1 3 2q1 1 1.5 1t1.5 1l20 10q20 8 70 33l22 10l9 5
q16 3 26 -13z" />
    <glyph glyph-name="caron" unicode="&#x2c7;" horiz-adv-x="417" 
d="M311 1370q8 3 17 -1t12 -13q4 -19 -10 -25q-2 -4 -8 -4q-4 -2 -12 -4t-11 -4q-27 -4 -74 -19q-23 -5 -26 -6h-6q-7 -1 -14 3t-9 10q-4 9 -9 25t-7 22l-29 67q0 3 -2 10t-2 11q2 12 18 20q12 2 25 -10q0 -2 1 -4.5t1 -3.5t3 -7t3 -10l18 -43l15 -38l2 -3q1 1 2.5 1.5
t1.5 1.5q2 0 5.5 1t4.5 1q4 2 12 4t11 4z" />
    <glyph glyph-name="breve" unicode="&#x2d8;" 
d="M2 1200v43q0 4 4 4h639v-43q0 -4 -4 -4h-639zM2 76v43q0 4 4 4h639v-43q0 -4 -4 -4h-639zM330 655v-39q0 -8 -4 -8h-324v33q0 14 4 14h324z" />
    <glyph glyph-name="dotaccent" unicode="&#x2d9;" 
d="M2 1200v43q0 4 4 4h639v-43q0 -4 -4 -4h-639zM2 76v43q0 4 4 4h639v-43q0 -4 -4 -4h-639zM330 655v-39q0 -8 -4 -8h-324v33q0 14 4 14h324z" />
    <glyph glyph-name="ring" unicode="&#x2da;" horiz-adv-x="401" 
d="M190 1425q49 0 76 -34q19 -20 24 -48.5t-5 -54.5q-9 -26 -31.5 -43t-50.5 -20t-53.5 8.5t-40.5 34.5q-37 50 -7 104q12 24 36 38.5t52 14.5zM190 1270q13 0 19 2q29 11 35 39q9 26 -13 51q-19 23 -49 16q-31 -3 -41 -30q-13 -26 4 -54q17 -24 45 -24z" />
    <glyph glyph-name="ogonek" unicode="&#x2db;" 
d="M2 1200v43q0 4 4 4h639v-43q0 -4 -4 -4h-639zM2 76v43q0 4 4 4h639v-43q0 -4 -4 -4h-639zM330 655v-39q0 -8 -4 -8h-324v33q0 14 4 14h324z" />
    <glyph glyph-name="tilde" unicode="&#x2dc;" horiz-adv-x="464" 
d="M379 1399q8 -4 12 -21l-6 -14l-7 -11q-8 -11 -13 -16q-9 -15 -35 -34q-33 -19 -56 -11q-30 8 -45 41q-2 4 -20 64q-2 3 -5 12t-5 12q-9 13 -13 13h-10q-1 2 -6 -4l-16 -19q-15 -25 -19 -35q-5 -9 -6 -10q-6 -6 -14 -6q-15 0 -21 12q-4 6 0 23q7 17 17 30q10 23 24 37
q21 17 37 19q25 5 51 -17q19 -19 25 -43q5 -12 10.5 -32t7.5 -25q3 -13 15 -25q8 -8 22 2q12 7 37 37q3 7 6 8l2 6q2 5 4 7q16 8 27 0z" />
    <glyph glyph-name="hungarumlaut" unicode="&#x2dd;" 
d="M2 1200v43q0 4 4 4h639v-43q0 -4 -4 -4h-639zM2 76v43q0 4 4 4h639v-43q0 -4 -4 -4h-639zM330 655v-39q0 -8 -4 -8h-324v33q0 14 4 14h324z" />
    <glyph glyph-name="endash" unicode="&#x2013;" horiz-adv-x="743" 
d="M608 578q8 0 19 -7q10 -10 4 -26q-7 -13 -23 -13h-499q-19 0 -23 3q-14 7 -14 20q0 16 14 23h522z" />
    <glyph glyph-name="emdash" unicode="&#x2014;" horiz-adv-x="835" 
d="M731 578q9 0 19 -7q10 -10 4 -26q-6 -13 -23 -13h-622q-19 0 -23 3q-14 7 -14 20q0 16 14 23h645z" />
    <glyph glyph-name="quoteleft" unicode="&#x2018;" horiz-adv-x="471" 
d="M158 942q2 25 15.5 56.5t21.5 45.5t32 50q6 9 20.5 27.5t20.5 27.5q16 23 39 10q21 -14 10 -37l-34 -51q-13 -16 -33 -47q-3 -7 -12 -22.5t-13 -24.5q-2 -5 0 -6l11 -8q8 -4 12 -17q9 -25 -6.5 -45t-40.5 -16q-38 5 -43 45v12z" />
    <glyph glyph-name="quoteright" unicode="&#x2019;" horiz-adv-x="471" 
d="M322 1112v-8q-1 -10 -3.5 -21t-5 -19.5t-8 -20.5t-8.5 -18.5t-11.5 -20t-11 -17t-12 -18.5t-10.5 -17q-6 -9 -20.5 -27.5t-20.5 -27.5q-16 -23 -39 -10q-21 14 -10 37l35 51q10 11 32 47q3 7 12 22.5t13 24.5q2 5 0 6l-10 8q-9 4 -13 17q-9 25 7 45.5t41 15.5
q37 -4 43 -49z" />
    <glyph glyph-name="quotesinglbase" unicode="&#x201a;" horiz-adv-x="471" 
d="M317 139v-8q-1 -9 -2.5 -18t-5 -18.5t-5.5 -16.5t-8 -18t-8.5 -16.5t-10 -17t-9.5 -15.5t-10.5 -16.5t-9.5 -14.5q-6 -9 -20.5 -28t-20.5 -28q-16 -23 -39 -10q-21 14 -10 37l35 51q10 11 32 47q3 7 12 22.5t13 24.5q2 5 0 6l-10 9q-9 5 -13 16q-9 25 6.5 45t40.5 16
q37 -4 43 -49z" />
    <glyph glyph-name="quotedblleft" unicode="&#x201c;" horiz-adv-x="585" 
d="M317 948v8q1 10 3.5 21t5 19.5t8 20.5t8.5 18.5t11.5 20t11 17t12 18.5t10.5 17q6 9 20.5 27.5t20.5 27.5t17 13t22 -2q21 -14 10 -37l-35 -52q-10 -11 -32 -47q-3 -7 -12 -22.5t-13 -24.5q-2 -5 0 -6l10 -8q9 -5 13 -16q9 -25 -7 -45.5t-41 -16.5q-37 4 -43 49zM119 956
q2 25 15.5 56.5t21.5 45.5t32 50q6 9 20.5 27.5t20.5 27.5t17 13t22 -2q9 -6 12.5 -17t-1.5 -20l-35 -52q-13 -16 -33 -47q-3 -7 -12 -22.5t-13 -24.5q-2 -5 0 -6l11 -8q8 -4 12 -16q9 -25 -6.5 -45.5t-40.5 -16.5q-38 5 -43 45v12z" />
    <glyph glyph-name="quotedblright" unicode="&#x201d;" horiz-adv-x="585" 
d="M283 1118q-1 -10 -3.5 -20.5t-5 -19.5t-8 -20.5t-9 -18.5t-11 -19t-11 -17.5t-11.5 -18.5t-11 -17q-6 -9 -20.5 -28t-20.5 -28q-16 -23 -39 -10q-21 14 -10 37l35 51q10 11 32 47q3 7 12 22.5t13 24.5q3 6 0 7l-10 8q-8 4 -12 16q-9 25 6.5 45.5t40.5 16.5q38 -5 43 -48
v-10zM481 1118q-1 -9 -2.5 -18t-5 -18.5t-5.5 -16.5t-8 -18t-8.5 -16.5t-10 -17t-9.5 -15.5t-10.5 -16.5t-9.5 -14.5q-6 -9 -20.5 -28t-20.5 -28q-16 -23 -39 -10q-21 14 -10 37l34 51q13 16 33 47q3 7 12 22.5t13 24.5q3 6 0 7l-11 8q-8 4 -12 16q-9 25 6.5 45.5t40.5 16.5
q38 -5 43 -48v-10z" />
    <glyph glyph-name="quotedblbase" unicode="&#x201e;" horiz-adv-x="585" 
d="M317 131q-1 -9 -2.5 -18t-5 -18.5t-5.5 -16.5t-8 -18t-8.5 -16.5t-10 -17t-9.5 -15.5t-10.5 -16.5t-9.5 -14.5q-6 -9 -20.5 -28t-20.5 -28q-16 -23 -39 -10q-21 14 -10 37l35 51q10 11 32 47q3 7 12 22.5t13 24.5q2 5 0 6l-10 9q-9 5 -13 16q-9 25 6.5 45t40.5 16
q38 -5 43 -47v-10zM516 131q-1 -10 -3.5 -20.5t-5 -19.5t-8 -20.5t-9 -18.5t-11 -19t-11 -17.5t-11.5 -18.5t-11 -17q-6 -9 -20 -28t-20 -28q-16 -23 -39 -10q-9 6 -12.5 17t1.5 20l35 51q13 16 33 47q3 7 12 22.5t13 24.5q2 5 0 6l-11 9q-8 4 -12 16q-9 25 6.5 45t40.5 16
q38 -5 43 -47v-10z" />
    <glyph glyph-name="dagger" unicode="&#x2020;" horiz-adv-x="534" 
d="M588 328q-6 -7 -37.5 -44.5t-43.5 -51t-37 -41t-46.5 -46.5t-44.5 -36q-62 -46 -107 -46q-30 2 -48.5 19.5t-18.5 46.5q-2 24 14 74q13 40 37 90q6 13 25.5 54t31.5 68.5t21 55.5q29 79 10 100q-7 8 -20 9q-11 1 -24 -4.5t-21 -10.5t-23 -18t-18 -15q-55 -49 -101 -104
l-43 -53q-1 -1 -31 -37q-17 -13 -31.5 1.5t-0.5 31.5l55 69q90 103 139 142q74 57 125 39q60 -22 43 -117q-4 -19 -9.5 -37.5t-15.5 -42t-14.5 -34t-19.5 -41t-17 -34.5q-50 -98 -63 -155q-11 -34 0 -45q12 -10 49 2q44 17 109 82q55 54 104 116q20 20 35 41q9 11 22.5 8
t17.5 -13.5t-3 -22.5z" />
    <glyph glyph-name="daggerdbl" unicode="&#x2021;" horiz-adv-x="401" 
d="M446 608q11 15 28.5 5t10.5 -27q-5 -11 -28 -39q-7 -11 -29 -37l-104 -131q-96 -118 -183 -201q-65 -65 -112 -96q-41 -25 -66 -27q-42 -3 -65 25q-29 32 -17 104q9 59 47 160q37 94 76 180l37 82q5 14 15 20t24 -3q13 -9 0 -39q-12 -30 -43 -101t-47 -110
q-34 -81 -53 -146q-20 -76 -11 -106q17 -60 140 49q58 52 149 154q99 114 231 284z" />
    <glyph glyph-name="bullet" unicode="&#x2022;" horiz-adv-x="401" 
d="M201 799q48 0 75 -35q19 -20 24 -48t-5 -54q-9 -26 -31.5 -43.5t-50.5 -20.5t-53.5 8.5t-40.5 34.5q-36 49 -6 104q12 25 36 39.5t52 14.5z" />
    <glyph glyph-name="ellipsis" unicode="&#x2026;" horiz-adv-x="800" 
d="M266 150q0 -20 -13.5 -34t-33.5 -14q-19 0 -32 14t-13 34q0 19 13 32t32 13q20 0 33.5 -13t13.5 -32zM498 150q0 -20 -13.5 -34t-33.5 -14q-19 0 -32 14t-13 34q0 19 13 32t32 13q20 0 33.5 -13t13.5 -32zM713 150q0 -20 -13.5 -34t-33.5 -14q-19 0 -32 14t-13 34
q0 19 13 32t32 13q20 0 33.5 -13t13.5 -32z" />
    <glyph glyph-name="perthousand" unicode="&#x2030;" horiz-adv-x="1384" 
d="M831 1235q-4 -6 -8 -14l-12 -23l-18 -33l-25 -41l-27 -47l-30 -55q-7 -11 -19.5 -33t-15.5 -26q-26 -43 -35 -64q-25 -40 -39 -68l-41 -67l-39 -72q-4 -7 -19 -32t-22 -39l-41 -70q-5 -9 -18.5 -32.5t-20.5 -37.5l-36 -65l-37 -62l-33 -59l-29 -51q-1 -2 -26 -45l-23 -39
q-3 -7 -16 -29l-11 -20l-6 -9q-8 -12 -20 -12t-19 12t0 23q0 1 1 2t2 2.5t2 3.5l10 21l43 71l28 51l33 58q8 16 35 61q14 27 39 68q5 10 18.5 32.5t20.5 36.5l41 70q7 15 22.5 40.5t18.5 31.5l39 69l37 66l36 63q22 39 33 56l27 49l24 41q14 23 17 31l12 20l4 6
q-46 -29 -94 -49q-72 -27 -133 -35h-4v-4q-2 -4 -2 -10q-4 -12 -4 -19q-10 -30 -11 -36l-26 -64q-22 -50 -64 -106q-40 -50 -80 -76q-48 -27 -82 -29q-28 0 -55 15q-26 16 -41 40q-26 44 -29 107q-3 67 17 141t51 127q26 54 70 101q44 44 82 61q45 24 90 12q51 -13 78 -80
q19 -52 12 -133q2 0 6 1t6 1q53 9 109 31q54 23 102 62q50 41 82 86l16 26q4 4 4 8q3 3 3 4q4 4 4 5q4 4 6 4q2 2 4 2l4 2h6q2 -2 4 -2q4 0 6 -2l6 -6q0 -1 1.5 -4t1.5 -5v-8q0 -5 -3 -8zM770 674q26 0 47 -12q45 -23 64 -89q13 -53 6 -127q-9 -71 -37 -141
q-28 -68 -62 -112q-32 -49 -75 -84q-44 -32 -82 -39q-27 -3 -49 2q-30 7 -50 30q-32 32 -43 101q-8 59 9 135q11 64 45 133q32 69 65 107q36 46 80 71q49 27 82 25zM1219 674q26 0 47 -12q44 -23 63 -89q13 -53 6 -127q-9 -71 -37 -141q-29 -70 -61 -112q-31 -47 -76 -84
q-44 -32 -82 -39q-27 -3 -49 2q-29 6 -49 30q-32 32 -43 101q-8 62 8 135q11 64 45 133q31 66 66 107q36 46 80 71q49 27 82 25zM1274 375q21 78 18 141q-3 30 -12 57q-11 30 -29 43q-32 26 -86 -2q-44 -27 -75 -69q-44 -57 -66 -111q-31 -78 -39 -141q-4 -45 -2 -68
q4 -39 10 -57q8 -22 29 -43q19 -13 49 -10q38 5 76 43q46 43 74 92q34 58 53 125zM825 375q22 81 19 141q-3 26 -13 57q-12 31 -28 43q-32 26 -86 -2q-46 -29 -76 -69q-44 -57 -66 -111q-30 -75 -38 -141q-4 -45 -2 -68q4 -39 10 -57q9 -24 28 -43q19 -13 50 -10q37 5 75 43
q46 43 74 92q34 58 53 125zM401 954l9 35h-21q-78 4 -127 37q-22 19 -37 43q-13 26 -10 51q-36 -45 -61 -102q-32 -73 -41 -144q-4 -48 -2 -69q0 -25 10 -55q11 -30 29 -43q22 -16 47 -13q37 7 77 43q42 39 74 92q34 58 53 125zM416 1034q5 31 2 70q-3 30 -15 57
q-10 29 -34 41q-23 13 -60 0l-16 -8l-10 -6q-2 -2 -4 -2q0 -2 -3 -2v-2l-6 -15l-6 -16q-7 -29 -2 -49q6 -24 29 -37q21 -18 55 -25q34 -6 70 -6z" />
    <glyph glyph-name="guilsinglleft" unicode="&#x2039;" horiz-adv-x="294" 
d="M104 342l2 -4l5 -49l10 -80q4 -52 8 -80l6 -49q0 -13 -2 -19q-6 -12 -22 -12q-14 0 -21 14q0 2 -1 6.5t-1 6.5q0 12 -2 18l-6 66l-10 80l-7 69q-4 24 -4 35q-3 11 4 18l7 11l30 41l45 59q33 41 48 66l43 57l26 35l6 8q8 8 17 8q19 0 22 -14q6 -11 -2 -23l-2 -2l-8 -12
l-35 -45l-47 -64l-49 -65l-39 -55q-12 -16 -21 -25z" />
    <glyph glyph-name="guilsinglright" unicode="&#x203a;" horiz-adv-x="256" 
d="M203 354q3 -10 -4 -18l-15 -23l-34 -51l-46 -65q-2 -2 -45 -64l-30 -43l-6 -10q-11 -18 -31 -8q-6 3 -9.5 11t-0.5 15q0 4 4 8l6 11l33 47l47 67l45 66l33 47q0 2 4 6l2 2q-4 12 -4 17l-17 61l-20 80l-19 72q-8 24 -10 36q-3 10 4.5 19.5t18.5 9.5q17 0 20 -14l2 -4
q2 -14 10 -37l17 -70q11 -36 20 -78q2 -6 8.5 -28.5t8.5 -34.5z" />
    <glyph glyph-name="fraction" unicode="&#x2044;" horiz-adv-x="770" 
d="M743 1194q9 -3 12.5 -12t0.5 -17v-2q-4 -8 -4 -10q-6 -9 -9 -18l-12 -27l-14 -35l-17 -41l-20 -47l-21 -53l-24 -58q-5 -13 -14.5 -34.5t-12.5 -28.5l-26 -66l-31 -69q-2 -7 -29 -74l-61 -147q-5 -15 -17 -40t-16 -36l-61 -152l-62 -143l-29 -70l-26 -65l-25 -62l-24 -57
q-2 -6 -10 -23.5t-11 -27.5q-3 -5 -20 -45q-1 -4 -17 -41l-12 -31q-8 -16 -10 -24l-8 -17q0 -1 -1 -4t-1 -4q-7 -14 -23 -14q-12 0 -18.5 10.5t-1.5 21.5q2 2 2 7l6 14l10 22l12 31l17 39l18 45l23 51l22 58l25 59l28 66l27 67l31 72l61 147l31 76q17 44 33 76l30 76l31 73
l31 72l29 70l26 67q16 31 27 64l24 59q5 9 13 28.5t10 24.5l20 49l19 41q9 27 14 37q6 13 10 27q5 7 9 20l6 11v2q3 9 12 12.5t18 -0.5z" />
    <glyph glyph-name="Euro" unicode="&#x20ac;" horiz-adv-x="915" 
d="M700 1217q43 0 82 -25q39 -21 64 -74q11 -17 22 -55l9 -31q3 -14 -11 -24q-4 -4 -12 -4t-12 4q-8 4 -11 10q0 6 -2 10q-3 19 -12 41q-18 54 -49 78q-16 13 -43 20q-14 4 -47 0q-42 -7 -94 -43q-51 -35 -103 -94q-39 -47 -82 -117q-34 -54 -69 -133h198q14 -7 17 -20
q0 -16 -13 -23q-6 -2 -16 -2h-205q-2 0 -2 -2q-18 -46 -28 -76h153q16 -4 19 -18q4 -16 -11 -23q-6 -4 -18 -4h-156q-2 0 -2 -2l-6 -20l-8 -39q-19 -76 -25 -148q-7 -77 0 -131q3 -48 21 -94q18 -51 49 -76q16 -13 43 -20q24 -6 47 0q45 8 96 43q53 39 101 96l12 15
q8 8 12 8q13 6 25 -6q9 -12 2 -27l-10 -14l-13 -15q-49 -55 -102 -94q-58 -38 -98 -49q-49 -13 -95 2q-41 11 -75 53q-35 44 -47 101q-17 58 -17 124q-3 57 8 140q12 77 33 153h-178q-12 0 -18 9q-10 13 -3 26q7 10 21 10h190q2 0 2 2q14 42 27 76h-119q-16 0 -24 4
q-10 10 -6 25q3 16 20 16h148q4 6 4 8l14 33l35 68q43 77 76 121q44 58 96 108q56 53 100 74q55 25 96 25z" />
    <glyph glyph-name="trademark" unicode="&#x2122;" horiz-adv-x="497" 
d="M416 1182q10 0 6 -13l-14 -34l-27 -72l-27 -68l-8 -22l-6 -12q-7 -7 -12 -7q-9 0 -9 7v8q6 10 9 20q6 13 15.5 38t12.5 34l17 43l-35 -45q-4 -6 -21.5 -29.5t-25.5 -36.5l-19 -24l-6 -6q-4 -7 -12 -7t-8 9v12q2 43 2 127q0 -1 -1 -3t-1 -3l-25 -64l-24 -61q0 -4 -2 -6
q-4 -13 -15 -13q-8 0 -10 7q0 4 2 6v2l18 49q27 67 29 74l25 61l6 14l4 9q6 6 14 6q3 0 5 -4t1 -7v-47q0 -14 -1 -40t-1 -40v-40l31 43l98 127q4 8 15 8zM207 1167q-2 -7 -17 -12h-38q-2 2 -2 0q-3 0 -3 -2l-6 -18l-26 -66q-20 -50 -27 -72l-10 -22l-6 -12q-7 -7 -13 -7
q-8 0 -8 7q0 4 2 6l31 82l29 71l12 33h-41q-8 0 -8 6q-3 6 4 13q6 6 14 6h105q4 0 7 -4t1 -9z" />
    <glyph glyph-name="minus" unicode="&#x2212;" horiz-adv-x="743" 
d="M612 578l15 -7v-2q11 -11 4 -24l-2 -4q-9 -9 -17 -9h-503q-19 0 -23 3q-4 0 -4 2q-5 3 -8 8q-2 2 -2 10v4q0 4 2 6q3 10 12 13h526z" />
    <glyph glyph-name="CR" horiz-adv-x="544" 
 />
    <glyph glyph-name="h.start" horiz-adv-x="856" 
d="M965 358q11 12 25 6.5t14 -22.5q-2 -8 -31 -45q-4 -6 -66 -76q-35 -41 -55.5 -63.5t-57.5 -52.5t-67 -42q-43 -16 -69.5 14.5t-20.5 76.5q4 26 13.5 55.5t18.5 49.5t24 53.5t22 49.5q1 3 5 11q70 159 33 193q-16 16 -53 9q-42 -6 -98 -55q-65 -56 -123 -127
q-70 -88 -123 -188q-24 -47 -53 -121q-1 -2 -3 -9.5t-3.5 -10t-3.5 -7.5t-4.5 -7t-5.5 -4t-7.5 -1.5t-9.5 2.5q-23 9 -4 53q6 18 41 105l98 250l-104 -119l-8 -8l-35 -41l-137 -162l-37 -45q-9 -11 -23.5 -8t-17.5 18q-2 11 8 25q5 6 211 247q10 10 12 11q37 45 111 127
q15 19 53 61q22 25 49 90q77 185 135 312l72 143q19 32 29.5 49t31 39.5t42.5 34.5q41 23 78 3t40 -67q1 -10 0.5 -19.5t-3.5 -20t-5 -18.5t-7.5 -20t-8 -17.5t-10 -19t-9.5 -17t-10.5 -18t-9.5 -16.5q-72 -117 -221 -288l-105 -119q-21 -24 -36 -53t-33 -76t-23 -60
q100 124 172 175q26 19 53.5 31t60 15t58.5 -14q19 -12 30 -29.5t11.5 -39.5t-1.5 -42.5t-12 -48t-17 -45t-19 -44t-16 -35.5q-48 -109 -52 -121q-1 -4 -5 -16l-5.5 -16.5t-4.5 -17.5t-2 -17.5t1 -16.5q3 -14 15 -15.5t28 7t26.5 16t18.5 14.5q21 17 41.5 37t43 45.5
t35.5 41t39.5 48t35.5 43.5zM760 1133q-35 -51 -84 -160q-20 -40 -40.5 -84.5t-47 -106t-37.5 -86.5q59 67 94 108t82 103t82 119q1 2 11.5 18.5l14 22t11.5 20.5t11 24t6 22t3 24q0 19 -10.5 31t-28.5 6q-34 -9 -67 -61z" />
    <glyph glyph-name="b.start" horiz-adv-x="808" 
d="M915 365q9 9 23.5 4.5t17.5 -17.5q1 -5 -1 -10.5t-6.5 -11t-7.5 -9t-9 -9t-8 -7.5q-47 -47 -90 -69q-49 -23 -95 -15q-13 0 -28 6l-13 4q-6 2 -10 -4l-37 -51q-62 -80 -131 -106q-36 -14 -76.5 -9.5t-68.5 29.5q-53 46 -41 152q5 69 39 178l-51 -60q-21 -26 -31 -28
l-37 -45l-137 -162l-37 -45q-9 -11 -23.5 -8t-17.5 18q-2 11 8 25q5 6 211 247q7 10 16 13l27 33q7 9 29 34t32 39l35 37q4 8 17 21q5 16 8 20q39 107 74 186q91 213 147 318q61 111 109 151q35 32 73 29q22 -3 40.5 -17t25.5 -34q10 -24 2 -68q-12 -59 -62 -135
q-43 -74 -112 -160q-26 -34 -57 -70.5t-71.5 -83t-60.5 -69.5q-10 -13 -65 -78q-13 -18 -16 -26l-9 -25q-3 -8 -8 -24t-8 -23q-33 -105 -41 -160q-7 -29 -6.5 -70t18.5 -67q22 -29 61.5 -29t71.5 21q66 36 125 133q-60 46 -67 141q-7 92 28 160q21 36 54.5 57.5t66.5 4.5
q57 -31 47 -148q-8 -89 -67 -199q47 -18 94 0q45 22 106 91zM532 715l-28 -70l74 84q110 131 165 211q51 70 74 117q33 60 33 94q4 23 -8 35q-17 17 -39 8q-12 -4 -33 -25q-40 -40 -76 -110q-68 -121 -162 -344zM676 297q54 106 61 186q0 55 -10 80q-11 25 -39 10
q-23 -13 -39 -49q-15 -40 -18 -84q-4 -97 45 -143z" />
    <glyph glyph-name="f.start" horiz-adv-x="540" 
d="M645 362q6 8 16.5 9t18.5 -6q13 -16 -2 -35q-46 -54 -70 -78q-71 -67 -131 -98q-64 -36 -133 -39q-12 -2 -37 -2q-12 0 -18 2q-2 -2 -2 -9q-2 -19 -2.5 -23t2 -23t2.5 -23q2 -16 11.5 -91.5t12 -107.5t-0.5 -88t-17 -100q-21 -65 -65.5 -112t-104.5 -48q-39 0 -68.5 22
t-38.5 58q-7 34 11 117q24 101 108 305l142 323l-25 -28l-137 -162l-37 -45q-9 -11 -23.5 -8t-17.5 18q-2 11 8 25q5 6 211 247q7 10 16 13l11 12l24 25q2 4 11.5 13.5t11.5 16.5q10 18 26 58l31 73q39 97 170 412q23 59 66 154q37 84 104 102q29 10 59 1.5t50 -32.5
q41 -49 14 -141q-30 -88 -125 -219q-66 -94 -190 -248l-95 -108l-43 -50l-18 -20q-10 -13 -16 -27q-39 -86 -113 -258q8 19 49 19q33 0 51 2q48 6 97 28q53 26 99 69.5t97 104.5zM535 805l-107 -258q143 169 223 276q35 46 94 135q41 65 60 115q14 26 12 68t-33 55
q-28 12 -57.5 -5t-46.5 -46q-16 -26 -35 -74l-33 -78q-14 -33 -39.5 -96.5t-37.5 -91.5zM266 -229q2 62 -14 188q-8 59 -10 88q-6 35 0 72q-70 -160 -101 -242q-45 -111 -65 -188q-7 -33 -10 -60q-8 -39 4 -63q11 -23 39 -27.5t49 6.5q57 24 82.5 88t25.5 138z" />
    <glyph glyph-name="i.start" horiz-adv-x="507" 
d="M647 365q16 -14 -4 -43l-37 -41q-76 -89 -108 -121q-55 -55 -95 -78q-56 -31 -86 -16q-26 13 -30 55q-6 48 22 131q31 86 78 184l-92 -108q-4 -6 -14 -11l-27 -30l-137 -162l-37 -45q-9 -11 -23.5 -8t-17.5 18q-2 11 8 25q5 6 211 247q7 10 16 13l17 20l139 160l45 53
q12 16 25 13q11 -3 15.5 -12.5t0.5 -18.5q0 -2 -12 -25q-76 -139 -127 -266q-30 -72 -41 -119q-7 -27 -4 -49q0 -25 8 -25q8 -2 33 11q23 13 49 35q33 29 90 90q40 44 78 90q2 2 7 8.5t8.5 10.5t9 9.5t10.5 7.5t11 1.5t11 -4.5zM598 895q-20 15 -19 38t21 40t41 6
q20 -15 19 -38t-21 -40t-41 -6z" />
    <glyph glyph-name="j.start" horiz-adv-x="458" 
d="M565 365q14 14 30.5 1t6.5 -30q-4 -6 -9.5 -12t-13.5 -13.5t-10 -9.5l-28 -31q-77 -77 -105 -102q-32 -32 -98 -90q-9 -9 -25 -21l-10 -10l-10 -24l-45 -103q-98 -221 -174 -336q-60 -92 -119 -96q-41 -3 -63.5 30t-22.5 76q5 123 143 261q52 52 148 133l98 82q8 9 25 47
q77 181 147 366q-14 -18 -106 -125l-23 -24q-5 -8 -16 -8l-31 -39l-137 -162l-37 -45q-9 -11 -23.5 -8t-17.5 18q-2 11 8 25q5 6 211 247q13 14 18 15l15 14l63 74q82 94 121 141q1 1 7 6t10 6q11 3 20.5 -3.5t9.5 -18.5q0 -4 -4 -12l-31 -84q-94 -238 -143 -357
q112 100 221 222zM14 -420q43 57 99 166q54 108 110 236l-16 -15q-94 -82 -139 -125q-80 -73 -119 -147q-40 -74 -33 -123q8 -42 39 -37q27 4 59 45zM627 961q20 -14 19 -36.5t-21 -39.5t-41 -6q-21 15 -20.5 38t21 39.5t42.5 4.5z" />
    <glyph glyph-name="k.start" horiz-adv-x="798" 
d="M901 358q9 11 24.5 6t16.5 -20q0 -8 -14 -27q-12 -15 -27 -30q-4 -4 -37 -43t-53 -60q-26 -28 -46.5 -46.5t-50 -39.5t-61 -29.5t-63.5 -2.5q-18 4 -34 12.5t-27.5 17.5t-23.5 26t-18.5 27.5t-16.5 33.5t-13 32t-12 34.5t-11 31.5q-1 2 -3.5 8.5t-3.5 9t-2 8.5t-0.5 9.5
t3 8t6.5 7.5q3 2 7 3t9.5 1.5t8.5 1.5q16 4 24 4l45 12q88 26 138 64q48 32 67 74q19 34 8 61q-12 32 -67 14q-39 -13 -94 -57q-51 -43 -105 -111q-109 -136 -180 -336v1l-4 -7l-6 -8q-6 -6 -13 -2q-13 3 -18 14t0 23l47 119l92 235q-54 -62 -84 -92q-13 -18 -24 -22
l-31 -37l-137 -162l-37 -45q-9 -11 -23.5 -8t-17.5 18q-2 11 8 25q5 6 211 247q13 14 18 15q70 73 134 149l39 43q13 36 20 49q6 16 41 99l72 168q63 141 112 229q30 59 70 96q58 50 108 23q31 -19 37 -59.5t-10 -71.5q-4 -12 -10.5 -25t-12 -22.5t-14.5 -24t-14 -22.5
q-67 -101 -199 -267q-55 -71 -117 -141q-5 -7 -28 -35l-15 -16q-2 -3 -5 -11.5t-5 -11.5l-41 -100q88 110 168 160q29 18 58 28t62 4.5t52 -34.5q18 -27 13.5 -58.5t-19.5 -58.5t-37 -49q-82 -85 -258 -123q3 -9 9 -26t11.5 -31t10.5 -27q35 -81 78 -96q43 -14 90 12
q42 26 96 84q48 50 129 147zM758 1133q-27 -41 -86 -162q-23 -50 -125 -283q46 58 63 76q158 199 217 299q0 1 5.5 9.5t6.5 10.5t5.5 10.5t6 12t5 11.5t4.5 12.5t3 12t2 13t-0.5 11.5t-2.5 12q-12 27 -45 12q-27 -11 -59 -57z" />
    <glyph glyph-name="l.start" horiz-adv-x="561" 
d="M827 1235q32 -16 37 -59t-10 -72q-9 -25 -51 -98q-51 -85 -156 -226q-87 -118 -207 -272q-7 -7 -14 -21l-8 -24l-19 -49q-19 -52 -30 -95q-15 -49 -19 -79q-8 -60 6 -93q36 -87 216 110l8 9l63 70q1 1 9.5 12t13.5 15.5t13.5 11t15.5 5.5t14 -9q11 -15 -7 -37
q-28 -33 -34 -41l-68 -72q-57 -64 -113 -106q-59 -41 -96 -39q-44 0 -66 33.5t-24 80.5v21.5t2 23t3 20.5t5 23t5 20.5t6.5 23t6 20.5t7 22.5t6.5 20.5q-16 -18 -39 -49q-10 -10 -18 -10l-31 -39l-137 -162l-37 -45q-9 -11 -23.5 -8t-17.5 18q-2 11 8 25q5 6 211 247l14 13
l21 22l49 64q5 5 11 12t13 15.5t11 13.5q14 20 14 22q2 3 5 11.5t5 11.5q18 49 58 143q61 156 90 219q40 86 72 148q49 91 79 125q28 33 61.5 51.5t65.5 1.5zM805 1104q26 60 6 86q-7 9 -27 4q-42 -17 -86 -94q-31 -45 -63 -119q-34 -65 -82 -178l-61 -154q142 189 186 252
q99 145 127 203z" />
    <glyph glyph-name="m.start" horiz-adv-x="1363" 
d="M1507 373q4 -3 6 -6t2.5 -6.5t0.5 -6.5t-1.5 -7t-3 -6.5t-4.5 -6.5l-4.5 -6t-5 -6t-4.5 -5q-52 -64 -76 -92q-85 -97 -147 -133q-20 -12 -41 -18.5t-45.5 -3.5t-38.5 20q-15 17 -16.5 44.5t3.5 45t15 45.5q9 28 21.5 58.5t30 69t24.5 55.5q3 9 9.5 25t11.5 29.5t9 26.5
q13 40 11 62q-4 47 -86 14q-49 -22 -117 -86q-55 -55 -113 -133q-27 -34 -51 -72l-23 -34q-3 -6 -18 -45q-8 -23 -35 -84q-21 -38 -28 -43q-7 -6 -18 -6t-17 6q-12 12 -4 36q10 32 24 58l23 43q21 36 24 45q25 77 29 94q32 112 27 180q-5 58 -39 58q-12 0 -35 -9
q-41 -18 -80 -61q-70 -70 -166 -223l-67 -117l-29 -53q-2 -3 -6 -13t-8.5 -18.5t-8.5 -13.5q-8 -8 -18 -8t-18 8q-8 13 0 28l26 56q73 155 80 170q38 91 47 133q22 78 -2 102q-12 12 -33 0q-21 -9 -59 -43q-22 -20 -62 -65l-71 -82l-27 -31q-11 -14 -20 -16l-31 -39
l-137 -162l-37 -45q-9 -11 -23.5 -8t-17.5 18q-2 11 8 25q5 6 211 247q7 10 16 13l11 12l69 82q7 7 22.5 25t24 27.5t22.5 23t27 24t27 19.5q67 51 111 10q21 -19 25.5 -52t0.5 -57t-14 -59q63 88 117 135q68 60 117 64q36 1 60 -21.5t30 -58.5q10 -59 -15 -178
q84 113 162 178q78 67 143 74q49 4 72 -17q23 -23 23 -59q0 -15 -2.5 -32t-6 -30t-10.5 -32l-10.5 -28.5t-12.5 -30t-12 -27.5q-54 -124 -69 -172q-14 -42 -10 -62q2 -20 34 -16q40 8 103 67q43 41 108 117l43 53q20 24 32 24q6 -1 11 -5z" />
    <glyph glyph-name="n.start" horiz-adv-x="1024" 
d="M1135 367q9 11 23.5 7.5t17.5 -16.5q1 -5 -1 -9.5t-5.5 -9.5t-4.5 -7q-6 -12 -26 -37q-70 -88 -99 -117q-81 -81 -137 -100q-32 -14 -68 -5t-44 44q-7 26 4 67q6 29 30 88q53 124 74 179q19 47 23 73q5 34 -4 45q-15 15 -52 4q-20 -2 -47 -18q-53 -28 -97 -74t-91 -110
q-81 -111 -142 -219q-30 -57 -40 -70q-5 -8 -15.5 -12t-19.5 0q-8 3 -11.5 11t0.5 17l17 37q66 132 100 211q38 97 45 129q6 24 6 51q5 28 -12 39q-15 7 -41 -6q-26 -17 -53 -41q-61 -56 -127 -135l-31 -41q-12 -16 -22 -16l-31 -39l-137 -162l-37 -45q-9 -11 -23.5 -8
t-17.5 18q-2 11 8 25q5 6 211 247q13 14 18 15l58 74q51 58 92 94q53 49 96 63q30 9 56.5 -3.5t35.5 -43.5q7 -30 0 -76q-8 -42 -28 -98q46 60 73 92q77 85 142 119q93 48 143 8q19 -15 23 -43.5t0 -47t-13 -48.5t-20.5 -59t-31 -72t-25.5 -57q-1 -4 -13.5 -34.5
t-17.5 -47.5q-14 -42 -12 -62q1 -14 12 -18.5t27 0.5t27.5 9.5t21.5 10.5q41 25 112 101q19 22 57 72t44 57z" />
    <glyph glyph-name="p.start" horiz-adv-x="843" 
d="M950 362q12 15 29.5 3t7.5 -29q-4 -6 -9 -12.5t-12 -13.5t-10 -11q-18 -18 -28 -33q-44 -46 -107 -96q-148 -111 -303 -125q-53 -5 -112 4l-33 6q-14 5 -16.5 17.5t6 22t22.5 5.5q21 -6 41 -6q13 0 33 4q29 5 65 23q55 27 111 86q94 105 129 239q9 23 12 54q4 56 -4 75
q-12 27 -59 3q-47 -19 -97 -62q-54 -46 -110 -108q-49 -57 -107 -146q-31 -48 -45 -80q-1 -2 -6 -9.5t-6 -12.5l-10 -23l-19 -45q-18 -43 -157 -366q-37 -92 -64 -146q-8 -24 -24 -24q-9 2 -16 8.5t-7 15.5t10 29l13 26l116 271l240 569q-78 -86 -115 -131q-12 -12 -20 -14
l-35 -43l-137 -162l-37 -45q-9 -11 -23.5 -8t-17.5 18q-2 11 8 25q5 6 211 247q13 14 18 15l105 121q34 35 100 114q12 14 29 3.5t10 -27.5q-9 -22 -10 -27q-49 -113 -66 -158q102 129 201 191q95 61 143 29q40 -24 35 -103q-3 -66 -35 -151q-71 -179 -202 -267
q187 49 364 260z" />
    <glyph glyph-name="r.start" horiz-adv-x="684" 
d="M795 369q9 11 21.5 7.5t15.5 -15t-5 -23.5l-20 -25l-72 -80q-72 -83 -125 -129q-59 -51 -98 -55q-40 -4 -60.5 29t-15.5 72q2 12 5.5 25t7 22.5t10.5 24.5t10.5 21.5t13 23t12 20.5t14.5 22.5t13 20.5q7 12 26.5 43t29.5 49q28 55 26 76q-1 4 -6 6t-13 2.5t-15.5 0.5
t-15 -0.5t-9.5 -0.5q-53 4 -64 37q-36 -46 -141 -164l-39 -41q-10 -10 -14 -12l-33 -39l-137 -162l-37 -45q-9 -11 -23.5 -8t-17.5 18q-2 11 8 25q5 6 211 247l8 9q4 5 10 10.5t11.5 10.5t7.5 7q41 43 119 133l65 80l31 35q11 14 26.5 7.5t14.5 -23.5q-1 -8 -9.5 -23
t-9.5 -18q0 -1 -3 -9.5t-3 -13.5q-2 -8 0 -10.5t11 -3.5q15 -1 26.5 0t25.5 -0.5t25 -5.5q21 -7 29.5 -25.5t5.5 -40.5q-8 -37 -33 -82q-9 -19 -30 -51.5t-25 -40.5q-4 -7 -21.5 -35.5t-25 -41.5t-17.5 -36.5t-14 -43.5q-6 -47 17 -54q12 -4 41 13q38 24 112 102z" />
    <glyph glyph-name="s.start" horiz-adv-x="653" 
d="M758 360q13 19 32 6t7 -32q-3 -3 -20.5 -26.5t-28.5 -35.5q-60 -69 -125 -118q-171 -133 -326 -97q-82 17 -152 84l-10 6l-18 -22l-37 -45q-9 -11 -23.5 -8t-17.5 18q-2 11 8 25q5 6 211 247l6 9q5 6 15 14.5t12 9.5q31 35 184 215l25 29q13 15 30 3.5t9 -28.5
q-3 -7 -13 -17t-12 -17q-10 -25 -14 -82q-1 -34 2 -102.5t2 -102.5q0 -116 -35 -174q89 34 174 112q67 61 115 129zM254 287l-88 -103l8 -8q17 -17 35 -29q39 -27 76 -38q17 -7 43 -11t39 -2q52 11 73 72q19 53 19 145q0 22 -3 92t-1 109q-62 -75 -125 -143l-37 -39l-6 -6z
" />
    <glyph glyph-name="t.start" horiz-adv-x="600" 
d="M709 362q7 9 21 6.5t18 -14.5q4 -9 -9 -26q-36 -42 -39 -45q-6 -7 -32 -40t-37.5 -46t-33.5 -35.5t-42 -38.5q-79 -64 -149 -43q-57 14 -68 84q-8 54 6 121q15 75 51 182q-41 -59 -84 -117q-15 -19 -26 -24l-31 -39l-137 -162l-37 -45q-9 -11 -23.5 -8t-17.5 18
q-2 11 8 25q5 6 211 247l14 13l4 4q100 135 152 227h-92q-14 0 -21.5 10.5t-1.5 22.5q5 12 33 12h109l20 43q39 76 105 236q6 16 24 14t19 -20q1 -5 -1 -12t-6.5 -16l-5.5 -11l-30 -78q-31 -70 -64 -156h141q2 0 14 0.5t18 0.5t13.5 -3.5t10.5 -9.5q6 -12 -2 -22.5
t-21 -10.5h-192q-2 0 -5.5 -8.5t-7.5 -19t-4 -11.5l-16 -43l-33 -90q-33 -102 -45 -168q-13 -82 2 -116q11 -24 36 -27.5t48.5 5.5t42.5 24q13 9 27 21.5t23 21t25 26.5t20.5 24t23 28.5t20.5 25.5z" />
    </font>
</defs>
</svg>
