<svg xmlns="http://www.w3.org/2000/svg" xmlns:xlink="http://www.w3.org/1999/xlink" width="18" height="19" viewBox="0 0 18 19">
  <defs>
    <clipPath id="clip-path">
      <rect width="18" height="19" fill="none"/>
    </clipPath>
  </defs>
  <g id="Search" clip-path="url(#clip-path)">
    <rect id="Rectangle_693" data-name="Rectangle 693" transform="translate(0 -0.001)" fill="none"/>
    <path id="Path_208" data-name="Path 208" d="M17.9,17.235l-3.715-3.923A8.44,8.44,0,0,0,15.761,8.32,8.059,8.059,0,0,0,7.881,0,8.059,8.059,0,0,0,0,8.32a8.059,8.059,0,0,0,7.881,8.32,7.445,7.445,0,0,0,4.728-1.664L16.324,18.9ZM2.252,8.32A5.736,5.736,0,0,1,7.881,2.377,5.736,5.736,0,0,1,13.509,8.32a5.736,5.736,0,0,1-5.629,5.943A5.736,5.736,0,0,1,2.252,8.32Z" transform="translate(0)" fill="#36413e"/>
  </g>
</svg>
